<svg width="1030" height="989" viewBox="0 0 1030 989" fill="none" xmlns="http://www.w3.org/2000/svg">
<g clip-path="url(#clip0_591_100313)">
<path opacity="0.2" d="M713.453 266.768L616.662 19.3296L917.905 182.975L1029.72 448.478L713.453 266.768Z" fill="#41B883"/>
<path opacity="0.2" d="M627.277 235.043L574.505 0L848.607 167.928L916.927 417.271L627.277 235.043Z" fill="#3EB691"/>
<path opacity="0.2" d="M551.115 233.717L542.361 11.0681L789.323 183.283L814.146 416.462L551.115 233.717Z" fill="#3AB49E"/>
<path opacity="0.36" d="M490.531 249.815L525.796 39.5606L745.622 216.062L726.949 433.082L490.531 249.815Z" fill="#37B2AC"/>
<path opacity="0.36" d="M426.473 270.358L505.756 72.4987L698.441 253.287L636.266 454.148L426.473 270.358Z" fill="#33B1B9"/>
<path opacity="0.36" d="M364.241 282.379L487.543 96.9142L653.088 281.99L547.416 466.686L364.241 282.379Z" fill="#30AFC7"/>
<path opacity="0.36" d="M301.11 272.893L468.43 99.8285L606.839 289.186L457.671 457.723L301.11 272.893Z" fill="#2CADD4"/>
<path opacity="0.8" d="M235.205 230.014L446.543 69.3386L557.812 262.988L365.142 415.361L235.205 230.014Z" fill="#29ABE2"/>
<path opacity="0.7" d="M357.36 66.9826L491.774 250.009L336.456 413.732L186.362 237.317L357.36 66.9826Z" fill="#32A4D5"/>
<path opacity="0.5" d="M270.935 139.517L428.489 311.931L310.528 486.999L140.271 319.527L270.935 139.517Z" fill="#3B9DC9"/>
<path opacity="0.5" d="M190.071 260.263L370.764 422.06L290.156 608.472L99.7422 449.938L190.071 260.263Z" fill="#4496BC"/>
<path opacity="0.36" d="M116.722 401.803L320.555 552.983L277.299 750.745L66.7334 601.148L116.722 401.803Z" fill="#4D8FAF"/>
<path opacity="0.36" d="M52.8383 536.736L279.817 677.293L273.913 886.4L43.1895 745.746L52.8383 536.736Z" fill="#5688A2"/>
<path opacity="0.36" d="M0 637.646L250.118 767.59L281.566 988.042L30.686 856.32L0 637.646Z" fill="#5F8196"/>
</g>
<defs>
<clipPath id="clip0_591_100313">
<rect width="1029.72" height="988.042" fill="white"/>
</clipPath>
</defs>
</svg>
