<svg width="402" height="392" viewBox="0 0 402 392" fill="none" xmlns="http://www.w3.org/2000/svg">
<g clip-path="url(#clip0_378_46807)">
<path d="M159.773 169.43C159.662 169.57 159.439 169.491 159.439 169.315V167.612C159.439 167.405 159.27 167.237 159.064 167.237H157.184C157.033 167.237 156.944 167.065 157.033 166.941L158.27 165.21C158.447 164.963 158.27 164.619 157.965 164.619H155.688C155.536 164.619 155.447 164.446 155.536 164.323L157.139 162.079C157.176 162.03 157.231 162 157.291 162H162.068C162.219 162 162.308 162.172 162.219 162.296L160.982 164.027C160.805 164.274 160.982 164.619 161.286 164.619H163.166C163.322 164.619 163.409 164.797 163.313 164.921L159.771 169.43H159.773Z" fill="#863BFF"/>
</g>
<g clip-path="url(#clip1_378_46807)">
<path d="M159.773 207.43C159.662 207.57 159.439 207.491 159.439 207.315V205.612C159.439 205.405 159.27 205.237 159.064 205.237H157.184C157.033 205.237 156.944 205.065 157.033 204.941L158.27 203.21C158.447 202.963 158.27 202.619 157.965 202.619H155.688C155.536 202.619 155.447 202.446 155.536 202.323L157.139 200.079C157.176 200.03 157.231 200 157.291 200H162.068C162.219 200 162.308 200.172 162.219 200.296L160.982 202.027C160.805 202.274 160.982 202.619 161.286 202.619H163.166C163.322 202.619 163.409 202.797 163.313 202.921L159.771 207.43H159.773Z" fill="#863BFF"/>
</g>
<g clip-path="url(#clip2_378_46807)">
<path d="M281.507 168.464L281.5 164.518C281.5 164.424 281.535 164.339 281.579 164.31C281.635 164.268 281.784 164.2 281.87 164.262L284.609 166.219C284.893 166.42 285.237 166.326 285.404 166.031L287.614 162.149C287.67 162.053 287.756 162 287.87 162H291.444C291.551 162 291.63 162.057 291.665 162.108C291.712 162.179 291.744 162.282 291.686 162.385L286.434 171.587C286.359 171.747 286.176 171.809 286.029 171.703L281.507 168.464Z" fill="#00F97A"/>
</g>
<g clip-path="url(#clip3_378_46807)">
<path d="M285.773 207.43C285.662 207.57 285.439 207.491 285.439 207.315V205.612C285.439 205.405 285.27 205.237 285.064 205.237H283.184C283.033 205.237 282.944 205.065 283.033 204.941L284.27 203.21C284.447 202.963 284.27 202.619 283.965 202.619H281.688C281.536 202.619 281.447 202.446 281.536 202.323L283.139 200.079C283.176 200.03 283.231 200 283.291 200H288.068C288.219 200 288.308 200.172 288.219 200.296L286.982 202.027C286.805 202.274 286.982 202.619 287.286 202.619H289.166C289.322 202.619 289.409 202.797 289.313 202.921L285.771 207.43H285.773Z" fill="#863BFF"/>
</g>
<g clip-path="url(#clip4_378_46807)">
<path d="M200.773 207.43C200.662 207.57 200.439 207.491 200.439 207.315V205.612C200.439 205.405 200.27 205.237 200.064 205.237H198.184C198.033 205.237 197.944 205.065 198.033 204.941L199.27 203.21C199.447 202.963 199.27 202.619 198.965 202.619H196.688C196.536 202.619 196.447 202.446 196.536 202.323L198.139 200.079C198.176 200.03 198.231 200 198.291 200H203.068C203.219 200 203.308 200.172 203.219 200.296L201.982 202.027C201.805 202.274 201.982 202.619 202.286 202.619H204.166C204.322 202.619 204.409 202.797 204.313 202.921L200.771 207.43H200.773Z" fill="#863BFF"/>
</g>
<g clip-path="url(#clip5_378_46807)">
<path d="M243.773 188.43C243.662 188.57 243.439 188.491 243.439 188.315V186.612C243.439 186.405 243.27 186.237 243.064 186.237H241.184C241.033 186.237 240.944 186.065 241.033 185.941L242.27 184.21C242.447 183.963 242.27 183.619 241.965 183.619H239.688C239.536 183.619 239.447 183.446 239.536 183.323L241.139 181.079C241.176 181.03 241.231 181 241.291 181H246.068C246.219 181 246.308 181.172 246.219 181.296L244.982 183.027C244.805 183.274 244.982 183.619 245.286 183.619H247.166C247.322 183.619 247.409 183.797 247.313 183.921L243.771 188.43H243.773Z" fill="#863BFF"/>
</g>
<g clip-path="url(#clip6_378_46807)">
<path d="M307.273 188.43C307.162 188.57 306.939 188.491 306.939 188.315V186.612C306.939 186.405 306.77 186.237 306.564 186.237H304.684C304.533 186.237 304.444 186.065 304.533 185.941L305.77 184.21C305.947 183.963 305.77 183.619 305.465 183.619H303.188C303.036 183.619 302.947 183.446 303.036 183.323L304.639 181.079C304.676 181.03 304.731 181 304.791 181H309.568C309.719 181 309.808 181.172 309.719 181.296L308.482 183.027C308.305 183.274 308.482 183.619 308.786 183.619H310.666C310.822 183.619 310.909 183.797 310.813 183.921L307.271 188.43H307.273Z" fill="#863BFF"/>
</g>
<g clip-path="url(#clip7_378_46807)">
<path d="M328.773 188.43C328.662 188.57 328.439 188.491 328.439 188.315V186.612C328.439 186.405 328.27 186.237 328.064 186.237H326.184C326.033 186.237 325.944 186.065 326.033 185.941L327.27 184.21C327.447 183.963 327.27 183.619 326.965 183.619H324.688C324.536 183.619 324.447 183.446 324.536 183.323L326.139 181.079C326.176 181.03 326.231 181 326.291 181H331.068C331.219 181 331.308 181.172 331.219 181.296L329.982 183.027C329.805 183.274 329.982 183.619 330.286 183.619H332.166C332.322 183.619 332.409 183.797 332.313 183.921L328.771 188.43H328.773Z" fill="#863BFF"/>
</g>
<g clip-path="url(#clip8_378_46807)">
<path d="M370.773 188.43C370.662 188.57 370.439 188.491 370.439 188.315V186.612C370.439 186.405 370.27 186.237 370.064 186.237H368.184C368.033 186.237 367.944 186.065 368.033 185.941L369.27 184.21C369.447 183.963 369.27 183.619 368.965 183.619H366.688C366.536 183.619 366.447 183.446 366.536 183.323L368.139 181.079C368.176 181.03 368.231 181 368.291 181H373.068C373.219 181 373.308 181.172 373.219 181.296L371.982 183.027C371.805 183.274 371.982 183.619 372.286 183.619H374.166C374.322 183.619 374.409 183.797 374.313 183.921L370.771 188.43H370.773Z" fill="#863BFF"/>
</g>
<g clip-path="url(#clip9_378_46807)">
<path d="M349.273 188.43C349.162 188.57 348.939 188.491 348.939 188.315V186.612C348.939 186.405 348.77 186.237 348.564 186.237H346.684C346.533 186.237 346.444 186.065 346.533 185.941L347.77 184.21C347.947 183.963 347.77 183.619 347.465 183.619H345.188C345.036 183.619 344.947 183.446 345.036 183.323L346.639 181.079C346.676 181.03 346.731 181 346.791 181H351.568C351.719 181 351.808 181.172 351.719 181.296L350.482 183.027C350.305 183.274 350.482 183.619 350.786 183.619H352.666C352.822 183.619 352.909 183.797 352.813 183.921L349.271 188.43H349.273Z" fill="#863BFF"/>
</g>
<g clip-path="url(#clip10_378_46807)">
<path d="M349.273 169.43C349.162 169.57 348.939 169.491 348.939 169.315V167.612C348.939 167.405 348.77 167.237 348.564 167.237H346.684C346.533 167.237 346.444 167.065 346.533 166.941L347.77 165.21C347.947 164.963 347.77 164.619 347.465 164.619H345.188C345.036 164.619 344.947 164.446 345.036 164.323L346.639 162.079C346.676 162.03 346.731 162 346.791 162H351.568C351.719 162 351.808 162.172 351.719 162.296L350.482 164.027C350.305 164.274 350.482 164.619 350.786 164.619H352.666C352.822 164.619 352.909 164.797 352.813 164.921L349.271 169.43H349.273Z" fill="#863BFF"/>
</g>
<g clip-path="url(#clip11_378_46807)">
<path d="M328.773 124.93C328.662 125.07 328.439 124.991 328.439 124.815V123.112C328.439 122.905 328.27 122.737 328.064 122.737H326.184C326.033 122.737 325.944 122.565 326.033 122.441L327.27 120.71C327.447 120.463 327.27 120.119 326.965 120.119H324.688C324.536 120.119 324.447 119.946 324.536 119.823L326.139 117.579C326.176 117.53 326.231 117.5 326.291 117.5H331.068C331.219 117.5 331.308 117.672 331.219 117.796L329.982 119.527C329.805 119.774 329.982 120.119 330.286 120.119H332.166C332.322 120.119 332.409 120.297 332.313 120.421L328.771 124.93H328.773Z" fill="#863BFF"/>
</g>
<g clip-path="url(#clip12_378_46807)">
<path d="M307.273 103.43C307.162 103.57 306.939 103.491 306.939 103.315V101.612C306.939 101.405 306.77 101.237 306.564 101.237H304.684C304.533 101.237 304.444 101.065 304.533 100.941L305.77 99.2103C305.947 98.9634 305.77 98.6185 305.465 98.6185H303.188C303.036 98.6185 302.947 98.4461 303.036 98.3226L304.639 96.0788C304.676 96.0298 304.731 96 304.791 96H309.568C309.719 96 309.808 96.1724 309.719 96.2959L308.482 98.0267C308.305 98.2736 308.482 98.6185 308.786 98.6185H310.666C310.822 98.6185 310.909 98.7973 310.813 98.9208L307.271 103.43H307.273Z" fill="#863BFF"/>
</g>
<g clip-path="url(#clip13_378_46807)">
<path d="M289.773 85.9297C289.662 86.0703 289.439 85.9915 289.439 85.8148V84.1117C289.439 83.9052 289.27 83.737 289.064 83.737H287.184C287.033 83.737 286.944 83.5646 287.033 83.4411L288.27 81.7103C288.447 81.4634 288.27 81.1185 287.965 81.1185H285.688C285.536 81.1185 285.447 80.9461 285.536 80.8226L287.139 78.5788C287.176 78.5298 287.231 78.5 287.291 78.5H292.068C292.219 78.5 292.308 78.6724 292.219 78.7959L290.982 80.5267C290.805 80.7736 290.982 81.1185 291.286 81.1185H293.166C293.322 81.1185 293.409 81.2973 293.313 81.4208L289.771 85.9297H289.773Z" fill="#863BFF"/>
</g>
<g clip-path="url(#clip14_378_46807)">
<path d="M311.273 49.9297C311.162 50.0703 310.939 49.9915 310.939 49.8148V48.1117C310.939 47.9052 310.77 47.737 310.564 47.737H308.684C308.533 47.737 308.444 47.5646 308.533 47.4411L309.77 45.7103C309.947 45.4634 309.77 45.1185 309.465 45.1185H307.188C307.036 45.1185 306.947 44.9461 307.036 44.8226L308.639 42.5788C308.676 42.5298 308.731 42.5 308.791 42.5H313.568C313.719 42.5 313.808 42.6724 313.719 42.7959L312.482 44.5267C312.305 44.7736 312.482 45.1185 312.786 45.1185H314.666C314.822 45.1185 314.909 45.2973 314.813 45.4208L311.271 49.9297H311.273Z" fill="#863BFF"/>
</g>
<g clip-path="url(#clip15_378_46807)">
<path d="M328.773 34.9297C328.662 35.0703 328.439 34.9915 328.439 34.8148V33.1117C328.439 32.9052 328.27 32.737 328.064 32.737H326.184C326.033 32.737 325.944 32.5646 326.033 32.4411L327.27 30.7103C327.447 30.4634 327.27 30.1185 326.965 30.1185H324.688C324.536 30.1185 324.447 29.9461 324.536 29.8226L326.139 27.5788C326.176 27.5298 326.231 27.5 326.291 27.5H331.068C331.219 27.5 331.308 27.6724 331.219 27.7959L329.982 29.5267C329.805 29.7736 329.982 30.1185 330.286 30.1185H332.166C332.322 30.1185 332.409 30.2973 332.313 30.4208L328.771 34.9297H328.773Z" fill="#863BFF"/>
</g>
<g clip-path="url(#clip16_378_46807)">
<path d="M358.273 22.4297C358.162 22.5703 357.939 22.4915 357.939 22.3148V20.6117C357.939 20.4052 357.77 20.237 357.564 20.237H355.684C355.533 20.237 355.444 20.0646 355.533 19.9411L356.77 18.2103C356.947 17.9634 356.77 17.6185 356.465 17.6185H354.188C354.036 17.6185 353.947 17.4461 354.036 17.3226L355.639 15.0788C355.676 15.0298 355.731 15 355.791 15H360.568C360.719 15 360.808 15.1724 360.719 15.2959L359.482 17.0267C359.305 17.2736 359.482 17.6185 359.786 17.6185H361.666C361.822 17.6185 361.909 17.7973 361.813 17.9208L358.271 22.4297H358.273Z" fill="#863BFF"/>
</g>
<g clip-path="url(#clip17_378_46807)">
<path d="M348.773 78.4297C348.662 78.5703 348.439 78.4915 348.439 78.3148V76.6117C348.439 76.4052 348.27 76.237 348.064 76.237H346.184C346.033 76.237 345.944 76.0646 346.033 75.9411L347.27 74.2103C347.447 73.9634 347.27 73.6185 346.965 73.6185H344.688C344.536 73.6185 344.447 73.4461 344.536 73.3226L346.139 71.0788C346.176 71.0298 346.231 71 346.291 71H351.068C351.219 71 351.308 71.1724 351.219 71.2959L349.982 73.0267C349.805 73.2736 349.982 73.6185 350.286 73.6185H352.166C352.322 73.6185 352.409 73.7973 352.313 73.9208L348.771 78.4297H348.773Z" fill="#863BFF"/>
</g>
<g clip-path="url(#clip18_378_46807)">
<path d="M387.273 16.9297C387.162 17.0703 386.939 16.9915 386.939 16.8148V15.1117C386.939 14.9052 386.77 14.737 386.564 14.737H384.684C384.533 14.737 384.444 14.5646 384.533 14.4411L385.77 12.7103C385.947 12.4634 385.77 12.1185 385.465 12.1185H383.188C383.036 12.1185 382.947 11.9461 383.036 11.8226L384.639 9.57877C384.676 9.5298 384.731 9.5 384.791 9.5H389.568C389.719 9.5 389.808 9.67244 389.719 9.79591L388.482 11.5267C388.305 11.7736 388.482 12.1185 388.786 12.1185H390.666C390.822 12.1185 390.909 12.2973 390.813 12.4208L387.271 16.9297H387.273Z" fill="#863BFF"/>
</g>
<g clip-path="url(#clip19_378_46807)">
<path d="M265.273 150.43C265.162 150.57 264.939 150.491 264.939 150.315V148.612C264.939 148.405 264.77 148.237 264.564 148.237H262.684C262.533 148.237 262.444 148.065 262.533 147.941L263.77 146.21C263.947 145.963 263.77 145.619 263.465 145.619H261.188C261.036 145.619 260.947 145.446 261.036 145.323L262.639 143.079C262.676 143.03 262.731 143 262.791 143H267.568C267.719 143 267.808 143.172 267.719 143.296L266.482 145.027C266.305 145.274 266.482 145.619 266.786 145.619H268.666C268.822 145.619 268.909 145.797 268.813 145.921L265.271 150.43H265.273Z" fill="#863BFF"/>
</g>
<g clip-path="url(#clip20_378_46807)">
<path d="M222.273 207.43C222.162 207.57 221.939 207.491 221.939 207.315V205.612C221.939 205.405 221.77 205.237 221.564 205.237H219.684C219.533 205.237 219.444 205.065 219.533 204.941L220.77 203.21C220.947 202.963 220.77 202.619 220.465 202.619H218.188C218.036 202.619 217.947 202.446 218.036 202.323L219.639 200.079C219.676 200.03 219.731 200 219.791 200H224.568C224.719 200 224.808 200.172 224.719 200.296L223.482 202.027C223.305 202.274 223.482 202.619 223.786 202.619H225.666C225.822 202.619 225.909 202.797 225.813 202.921L222.271 207.43H222.273Z" fill="#863BFF"/>
</g>
<g clip-path="url(#clip21_378_46807)">
<path d="M117.773 169.43C117.662 169.57 117.439 169.491 117.439 169.315V167.612C117.439 167.405 117.27 167.237 117.064 167.237H115.184C115.033 167.237 114.944 167.065 115.033 166.941L116.27 165.21C116.447 164.963 116.27 164.619 115.965 164.619H113.688C113.536 164.619 113.447 164.446 113.536 164.323L115.139 162.079C115.176 162.03 115.231 162 115.291 162H120.068C120.219 162 120.308 162.172 120.219 162.296L118.982 164.027C118.805 164.274 118.982 164.619 119.286 164.619H121.166C121.322 164.619 121.409 164.797 121.313 164.921L117.771 169.43H117.773Z" fill="#863BFF"/>
</g>
<g clip-path="url(#clip22_378_46807)">
<path d="M75.7728 207.43C75.6621 207.57 75.4386 207.491 75.4386 207.315V205.612C75.4386 205.405 75.2704 205.237 75.0639 205.237H73.1841C73.033 205.237 72.9435 205.065 73.033 204.941L74.2698 203.21C74.4465 202.963 74.2698 202.619 73.9654 202.619H71.6875C71.5364 202.619 71.4469 202.446 71.5364 202.323L73.1394 200.079C73.1756 200.03 73.2309 200 73.2905 200H78.0677C78.2189 200 78.3083 200.172 78.2189 200.296L76.982 202.027C76.8053 202.274 76.982 202.619 77.2864 202.619H79.1662C79.3216 202.619 79.4089 202.797 79.3131 202.921L75.7707 207.43H75.7728Z" fill="#863BFF"/>
</g>
<g clip-path="url(#clip23_378_46807)">
<path d="M32.7728 188.43C32.6621 188.57 32.4386 188.491 32.4386 188.315V186.612C32.4386 186.405 32.2704 186.237 32.0639 186.237H30.1841C30.033 186.237 29.9435 186.065 30.033 185.941L31.2698 184.21C31.4465 183.963 31.2698 183.619 30.9654 183.619H28.6875C28.5364 183.619 28.4469 183.446 28.5364 183.323L30.1394 181.079C30.1756 181.03 30.2309 181 30.2905 181H35.0677C35.2189 181 35.3083 181.172 35.2189 181.296L33.982 183.027C33.8053 183.274 33.982 183.619 34.2864 183.619H36.1662C36.3216 183.619 36.4089 183.797 36.3131 183.921L32.7707 188.43H32.7728Z" fill="#863BFF"/>
</g>
<g clip-path="url(#clip24_378_46807)">
<path d="M12.2728 226.43C12.1621 226.57 11.9386 226.491 11.9386 226.315V224.612C11.9386 224.405 11.7704 224.237 11.5639 224.237H9.68411C9.53296 224.237 9.44354 224.065 9.53296 223.941L10.7698 222.21C10.9465 221.963 10.7698 221.619 10.4654 221.619H8.18751C8.03636 221.619 7.94695 221.446 8.03636 221.323L9.6394 219.079C9.67559 219.03 9.73094 219 9.79055 219H14.5677C14.7189 219 14.8083 219.172 14.7189 219.296L13.482 221.027C13.3053 221.274 13.482 221.619 13.7864 221.619H15.6662C15.8216 221.619 15.9089 221.797 15.8131 221.921L12.2707 226.43H12.2728Z" fill="#863BFF"/>
</g>
<g clip-path="url(#clip25_378_46807)">
<path d="M12.2728 207.43C12.1621 207.57 11.9386 207.491 11.9386 207.315V205.612C11.9386 205.405 11.7704 205.237 11.5639 205.237H9.68411C9.53296 205.237 9.44354 205.065 9.53296 204.941L10.7698 203.21C10.9465 202.963 10.7698 202.619 10.4654 202.619H8.18751C8.03636 202.619 7.94695 202.446 8.03636 202.323L9.6394 200.079C9.67559 200.03 9.73094 200 9.79055 200H14.5677C14.7189 200 14.8083 200.172 14.7189 200.296L13.482 202.027C13.3053 202.274 13.482 202.619 13.7864 202.619H15.6662C15.8216 202.619 15.9089 202.797 15.8131 202.921L12.2707 207.43H12.2728Z" fill="#863BFF"/>
</g>
<g clip-path="url(#clip26_378_46807)">
<path d="M33.2728 226.43C33.1621 226.57 32.9386 226.491 32.9386 226.315V224.612C32.9386 224.405 32.7704 224.237 32.5639 224.237H30.6841C30.533 224.237 30.4435 224.065 30.533 223.941L31.7698 222.21C31.9465 221.963 31.7698 221.619 31.4654 221.619H29.1875C29.0364 221.619 28.9469 221.446 29.0364 221.323L30.6394 219.079C30.6756 219.03 30.7309 219 30.7905 219H35.5677C35.7189 219 35.8083 219.172 35.7189 219.296L34.482 221.027C34.3053 221.274 34.482 221.619 34.7864 221.619H36.6662C36.8216 221.619 36.9089 221.797 36.8131 221.921L33.2707 226.43H33.2728Z" fill="#863BFF"/>
</g>
<g clip-path="url(#clip27_378_46807)">
<path d="M33.2728 207.43C33.1621 207.57 32.9386 207.491 32.9386 207.315V205.612C32.9386 205.405 32.7704 205.237 32.5639 205.237H30.6841C30.533 205.237 30.4435 205.065 30.533 204.941L31.7698 203.21C31.9465 202.963 31.7698 202.619 31.4654 202.619H29.1875C29.0364 202.619 28.9469 202.446 29.0364 202.323L30.6394 200.079C30.6756 200.03 30.7309 200 30.7905 200H35.5677C35.7189 200 35.8083 200.172 35.7189 200.296L34.482 202.027C34.3053 202.274 34.482 202.619 34.7864 202.619H36.6662C36.8216 202.619 36.9089 202.797 36.8131 202.921L33.2707 207.43H33.2728Z" fill="#863BFF"/>
</g>
<g clip-path="url(#clip28_378_46807)">
<path d="M54.2728 198.93C54.1621 199.07 53.9386 198.991 53.9386 198.815V197.112C53.9386 196.905 53.7704 196.737 53.5639 196.737H51.6841C51.533 196.737 51.4435 196.565 51.533 196.441L52.7698 194.71C52.9465 194.463 52.7698 194.119 52.4654 194.119H50.1875C50.0364 194.119 49.9469 193.946 50.0364 193.823L51.6394 191.579C51.6756 191.53 51.7309 191.5 51.7905 191.5H56.5677C56.7189 191.5 56.8083 191.672 56.7189 191.796L55.482 193.527C55.3053 193.774 55.482 194.119 55.7864 194.119H57.6662C57.8216 194.119 57.9089 194.297 57.8131 194.421L54.2707 198.93H54.2728Z" fill="#863BFF"/>
</g>
<g clip-path="url(#clip29_378_46807)">
<path d="M54.2728 226.43C54.1621 226.57 53.9386 226.491 53.9386 226.315V224.612C53.9386 224.405 53.7704 224.237 53.5639 224.237H51.6841C51.533 224.237 51.4435 224.065 51.533 223.941L52.7698 222.21C52.9465 221.963 52.7698 221.619 52.4654 221.619H50.1875C50.0364 221.619 49.9469 221.446 50.0364 221.323L51.6394 219.079C51.6756 219.03 51.7309 219 51.7905 219H56.5677C56.7189 219 56.8083 219.172 56.7189 219.296L55.482 221.027C55.3053 221.274 55.482 221.619 55.7864 221.619H57.6662C57.8216 221.619 57.9089 221.797 57.8131 221.921L54.2707 226.43H54.2728Z" fill="#863BFF"/>
</g>
<g clip-path="url(#clip30_378_46807)">
<path d="M54.2728 245.43C54.1621 245.57 53.9386 245.491 53.9386 245.315V243.612C53.9386 243.405 53.7704 243.237 53.5639 243.237H51.6841C51.533 243.237 51.4435 243.065 51.533 242.941L52.7698 241.21C52.9465 240.963 52.7698 240.619 52.4654 240.619H50.1875C50.0364 240.619 49.9469 240.446 50.0364 240.323L51.6394 238.079C51.6756 238.03 51.7309 238 51.7905 238H56.5677C56.7189 238 56.8083 238.172 56.7189 238.296L55.482 240.027C55.3053 240.274 55.482 240.619 55.7864 240.619H57.6662C57.8216 240.619 57.9089 240.797 57.8131 240.921L54.2707 245.43H54.2728Z" fill="#863BFF"/>
</g>
<g clip-path="url(#clip31_378_46807)">
<path d="M54.2728 265.43C54.1621 265.57 53.9386 265.491 53.9386 265.315V263.612C53.9386 263.405 53.7704 263.237 53.5639 263.237H51.6841C51.533 263.237 51.4435 263.065 51.533 262.941L52.7698 261.21C52.9465 260.963 52.7698 260.619 52.4654 260.619H50.1875C50.0364 260.619 49.9469 260.446 50.0364 260.323L51.6394 258.079C51.6756 258.03 51.7309 258 51.7905 258H56.5677C56.7189 258 56.8083 258.172 56.7189 258.296L55.482 260.027C55.3053 260.274 55.482 260.619 55.7864 260.619H57.6662C57.8216 260.619 57.9089 260.797 57.8131 260.921L54.2707 265.43H54.2728Z" fill="#863BFF"/>
</g>
<g clip-path="url(#clip32_378_46807)">
<path d="M12.2728 245.43C12.1621 245.57 11.9386 245.491 11.9386 245.315V243.612C11.9386 243.405 11.7704 243.237 11.5639 243.237H9.68411C9.53296 243.237 9.44354 243.065 9.53296 242.941L10.7698 241.21C10.9465 240.963 10.7698 240.619 10.4654 240.619H8.18751C8.03636 240.619 7.94695 240.446 8.03636 240.323L9.6394 238.079C9.67559 238.03 9.73094 238 9.79055 238H14.5677C14.7189 238 14.8083 238.172 14.7189 238.296L13.482 240.027C13.3053 240.274 13.482 240.619 13.7864 240.619H15.6662C15.8216 240.619 15.9089 240.797 15.8131 240.921L12.2707 245.43H12.2728Z" fill="#863BFF"/>
</g>
<g clip-path="url(#clip33_378_46807)">
<path d="M12.2728 265.43C12.1621 265.57 11.9386 265.491 11.9386 265.315V263.612C11.9386 263.405 11.7704 263.237 11.5639 263.237H9.68411C9.53296 263.237 9.44354 263.065 9.53296 262.941L10.7698 261.21C10.9465 260.963 10.7698 260.619 10.4654 260.619H8.18751C8.03636 260.619 7.94695 260.446 8.03636 260.323L9.6394 258.079C9.67559 258.03 9.73094 258 9.79055 258H14.5677C14.7189 258 14.8083 258.172 14.7189 258.296L13.482 260.027C13.3053 260.274 13.482 260.619 13.7864 260.619H15.6662C15.8216 260.619 15.9089 260.797 15.8131 260.921L12.2707 265.43H12.2728Z" fill="#863BFF"/>
</g>
<g clip-path="url(#clip34_378_46807)">
<path d="M12.2728 285.43C12.1621 285.57 11.9386 285.491 11.9386 285.315V283.612C11.9386 283.405 11.7704 283.237 11.5639 283.237H9.68411C9.53296 283.237 9.44354 283.065 9.53296 282.941L10.7698 281.21C10.9465 280.963 10.7698 280.619 10.4654 280.619H8.18751C8.03636 280.619 7.94695 280.446 8.03636 280.323L9.6394 278.079C9.67559 278.03 9.73094 278 9.79055 278H14.5677C14.7189 278 14.8083 278.172 14.7189 278.296L13.482 280.027C13.3053 280.274 13.482 280.619 13.7864 280.619H15.6662C15.8216 280.619 15.9089 280.797 15.8131 280.921L12.2707 285.43H12.2728Z" fill="#863BFF"/>
</g>
<g clip-path="url(#clip35_378_46807)">
<path d="M159.773 188.43C159.662 188.57 159.439 188.491 159.439 188.315V186.612C159.439 186.405 159.27 186.237 159.064 186.237H157.184C157.033 186.237 156.944 186.065 157.033 185.941L158.27 184.21C158.447 183.963 158.27 183.619 157.965 183.619H155.688C155.536 183.619 155.447 183.446 155.536 183.323L157.139 181.079C157.176 181.03 157.231 181 157.291 181H162.068C162.219 181 162.308 181.172 162.219 181.296L160.982 183.027C160.805 183.274 160.982 183.619 161.286 183.619H163.166C163.322 183.619 163.409 183.797 163.313 183.921L159.771 188.43H159.773Z" fill="#863BFF"/>
</g>
<g clip-path="url(#clip36_378_46807)">
<path d="M159.773 283.43C159.662 283.57 159.439 283.491 159.439 283.315V281.612C159.439 281.405 159.27 281.237 159.064 281.237H157.184C157.033 281.237 156.944 281.065 157.033 280.941L158.27 279.21C158.447 278.963 158.27 278.619 157.965 278.619H155.688C155.536 278.619 155.447 278.446 155.536 278.323L157.139 276.079C157.176 276.03 157.231 276 157.291 276H162.068C162.219 276 162.308 276.172 162.219 276.296L160.982 278.027C160.805 278.274 160.982 278.619 161.286 278.619H163.166C163.322 278.619 163.409 278.797 163.313 278.921L159.771 283.43H159.773Z" fill="#863BFF"/>
</g>
<g clip-path="url(#clip37_378_46807)">
<path d="M159.773 226.43C159.662 226.57 159.439 226.491 159.439 226.315V224.612C159.439 224.405 159.27 224.237 159.064 224.237H157.184C157.033 224.237 156.944 224.065 157.033 223.941L158.27 222.21C158.447 221.963 158.27 221.619 157.965 221.619H155.688C155.536 221.619 155.447 221.446 155.536 221.323L157.139 219.079C157.176 219.03 157.231 219 157.291 219H162.068C162.219 219 162.308 219.172 162.219 219.296L160.982 221.027C160.805 221.274 160.982 221.619 161.286 221.619H163.166C163.322 221.619 163.409 221.797 163.313 221.921L159.771 226.43H159.773Z" fill="#863BFF"/>
</g>
<g clip-path="url(#clip38_378_46807)">
<path d="M75.7728 188.43C75.6621 188.57 75.4386 188.491 75.4386 188.315V186.612C75.4386 186.405 75.2704 186.237 75.0639 186.237H73.1841C73.033 186.237 72.9435 186.065 73.033 185.941L74.2698 184.21C74.4465 183.963 74.2698 183.619 73.9654 183.619H71.6875C71.5364 183.619 71.4469 183.446 71.5364 183.323L73.1394 181.079C73.1756 181.03 73.2309 181 73.2905 181H78.0677C78.2189 181 78.3083 181.172 78.2189 181.296L76.982 183.027C76.8053 183.274 76.982 183.619 77.2864 183.619H79.1662C79.3216 183.619 79.4089 183.797 79.3131 183.921L75.7707 188.43H75.7728Z" fill="#863BFF"/>
</g>
<g clip-path="url(#clip39_378_46807)">
<path d="M159.773 245.43C159.662 245.57 159.439 245.491 159.439 245.315V243.612C159.439 243.405 159.27 243.237 159.064 243.237H157.184C157.033 243.237 156.944 243.065 157.033 242.941L158.27 241.21C158.447 240.963 158.27 240.619 157.965 240.619H155.688C155.536 240.619 155.447 240.446 155.536 240.323L157.139 238.079C157.176 238.03 157.231 238 157.291 238H162.068C162.219 238 162.308 238.172 162.219 238.296L160.982 240.027C160.805 240.274 160.982 240.619 161.286 240.619H163.166C163.322 240.619 163.409 240.797 163.313 240.921L159.771 245.43H159.773Z" fill="#863BFF"/>
</g>
<g clip-path="url(#clip40_378_46807)">
<path d="M117.773 207.93C117.662 208.07 117.439 207.991 117.439 207.815V206.112C117.439 205.905 117.27 205.737 117.064 205.737H115.184C115.033 205.737 114.944 205.565 115.033 205.441L116.27 203.71C116.447 203.463 116.27 203.119 115.965 203.119H113.688C113.536 203.119 113.447 202.946 113.536 202.823L115.139 200.579C115.176 200.53 115.231 200.5 115.291 200.5H120.068C120.219 200.5 120.308 200.672 120.219 200.796L118.982 202.527C118.805 202.774 118.982 203.119 119.286 203.119H121.166C121.322 203.119 121.409 203.297 121.313 203.421L117.771 207.93H117.773Z" fill="#863BFF"/>
</g>
<g clip-path="url(#clip41_378_46807)">
<path d="M117.773 188.43C117.662 188.57 117.439 188.491 117.439 188.315V186.612C117.439 186.405 117.27 186.237 117.064 186.237H115.184C115.033 186.237 114.944 186.065 115.033 185.941L116.27 184.21C116.447 183.963 116.27 183.619 115.965 183.619H113.688C113.536 183.619 113.447 183.446 113.536 183.323L115.139 181.079C115.176 181.03 115.231 181 115.291 181H120.068C120.219 181 120.308 181.172 120.219 181.296L118.982 183.027C118.805 183.274 118.982 183.619 119.286 183.619H121.166C121.322 183.619 121.409 183.797 121.313 183.921L117.771 188.43H117.773Z" fill="#863BFF"/>
</g>
<g clip-path="url(#clip42_378_46807)">
<path d="M159.773 264.43C159.662 264.57 159.439 264.491 159.439 264.315V262.612C159.439 262.405 159.27 262.237 159.064 262.237H157.184C157.033 262.237 156.944 262.065 157.033 261.941L158.27 260.21C158.447 259.963 158.27 259.619 157.965 259.619H155.688C155.536 259.619 155.447 259.446 155.536 259.323L157.139 257.079C157.176 257.03 157.231 257 157.291 257H162.068C162.219 257 162.308 257.172 162.219 257.296L160.982 259.027C160.805 259.274 160.982 259.619 161.286 259.619H163.166C163.322 259.619 163.409 259.797 163.313 259.921L159.771 264.43H159.773Z" fill="#863BFF"/>
</g>
<g clip-path="url(#clip43_378_46807)">
<path d="M285.773 188.43C285.662 188.57 285.439 188.491 285.439 188.315V186.612C285.439 186.405 285.27 186.237 285.064 186.237H283.184C283.033 186.237 282.944 186.065 283.033 185.941L284.27 184.21C284.447 183.963 284.27 183.619 283.965 183.619H281.688C281.536 183.619 281.447 183.446 281.536 183.323L283.139 181.079C283.176 181.03 283.231 181 283.291 181H288.068C288.219 181 288.308 181.172 288.219 181.296L286.982 183.027C286.805 183.274 286.982 183.619 287.286 183.619H289.166C289.322 183.619 289.409 183.797 289.313 183.921L285.771 188.43H285.773Z" fill="#863BFF"/>
</g>
<g clip-path="url(#clip44_378_46807)">
<path d="M285.773 150.43C285.662 150.57 285.439 150.491 285.439 150.315V148.612C285.439 148.405 285.27 148.237 285.064 148.237H283.184C283.033 148.237 282.944 148.065 283.033 147.941L284.27 146.21C284.447 145.963 284.27 145.619 283.965 145.619H281.688C281.536 145.619 281.447 145.446 281.536 145.323L283.139 143.079C283.176 143.03 283.231 143 283.291 143H288.068C288.219 143 288.308 143.172 288.219 143.296L286.982 145.027C286.805 145.274 286.982 145.619 287.286 145.619H289.166C289.322 145.619 289.409 145.797 289.313 145.921L285.771 150.43H285.773Z" fill="#863BFF"/>
</g>
<g clip-path="url(#clip45_378_46807)">
<path d="M285.773 226.43C285.662 226.57 285.439 226.491 285.439 226.315V224.612C285.439 224.405 285.27 224.237 285.064 224.237H283.184C283.033 224.237 282.944 224.065 283.033 223.941L284.27 222.21C284.447 221.963 284.27 221.619 283.965 221.619H281.688C281.536 221.619 281.447 221.446 281.536 221.323L283.139 219.079C283.176 219.03 283.231 219 283.291 219H288.068C288.219 219 288.308 219.172 288.219 219.296L286.982 221.027C286.805 221.274 286.982 221.619 287.286 221.619H289.166C289.322 221.619 289.409 221.797 289.313 221.921L285.771 226.43H285.773Z" fill="#863BFF"/>
</g>
<g clip-path="url(#clip46_378_46807)">
<path d="M138.773 226.43C138.662 226.57 138.439 226.491 138.439 226.315V224.612C138.439 224.405 138.27 224.237 138.064 224.237H136.184C136.033 224.237 135.944 224.065 136.033 223.941L137.27 222.21C137.447 221.963 137.27 221.619 136.965 221.619H134.688C134.536 221.619 134.447 221.446 134.536 221.323L136.139 219.079C136.176 219.03 136.231 219 136.291 219H141.068C141.219 219 141.308 219.172 141.219 219.296L139.982 221.027C139.805 221.274 139.982 221.619 140.286 221.619H142.166C142.322 221.619 142.409 221.797 142.313 221.921L138.771 226.43H138.773Z" fill="#863BFF"/>
</g>
<g clip-path="url(#clip47_378_46807)">
<path d="M200.773 188.43C200.662 188.57 200.439 188.491 200.439 188.315V186.612C200.439 186.405 200.27 186.237 200.064 186.237H198.184C198.033 186.237 197.944 186.065 198.033 185.941L199.27 184.21C199.447 183.963 199.27 183.619 198.965 183.619H196.688C196.536 183.619 196.447 183.446 196.536 183.323L198.139 181.079C198.176 181.03 198.231 181 198.291 181H203.068C203.219 181 203.308 181.172 203.219 181.296L201.982 183.027C201.805 183.274 201.982 183.619 202.286 183.619H204.166C204.322 183.619 204.409 183.797 204.313 183.921L200.771 188.43H200.773Z" fill="#863BFF"/>
</g>
<g clip-path="url(#clip48_378_46807)">
<path d="M285.773 245.43C285.662 245.57 285.439 245.491 285.439 245.315V243.612C285.439 243.405 285.27 243.237 285.064 243.237H283.184C283.033 243.237 282.944 243.065 283.033 242.941L284.27 241.21C284.447 240.963 284.27 240.619 283.965 240.619H281.688C281.536 240.619 281.447 240.446 281.536 240.323L283.139 238.079C283.176 238.03 283.231 238 283.291 238H288.068C288.219 238 288.308 238.172 288.219 238.296L286.982 240.027C286.805 240.274 286.982 240.619 287.286 240.619H289.166C289.322 240.619 289.409 240.797 289.313 240.921L285.771 245.43H285.773Z" fill="#863BFF"/>
</g>
<g clip-path="url(#clip49_378_46807)">
<path d="M243.773 169.43C243.662 169.57 243.439 169.491 243.439 169.315V167.612C243.439 167.405 243.27 167.237 243.064 167.237H241.184C241.033 167.237 240.944 167.065 241.033 166.941L242.27 165.21C242.447 164.963 242.27 164.619 241.965 164.619H239.688C239.536 164.619 239.447 164.446 239.536 164.323L241.139 162.079C241.176 162.03 241.231 162 241.291 162H246.068C246.219 162 246.308 162.172 246.219 162.296L244.982 164.027C244.805 164.274 244.982 164.619 245.286 164.619H247.166C247.322 164.619 247.409 164.797 247.313 164.921L243.771 169.43H243.773Z" fill="#863BFF"/>
</g>
<g clip-path="url(#clip50_378_46807)">
<path d="M200.773 226.43C200.662 226.57 200.439 226.491 200.439 226.315V224.612C200.439 224.405 200.27 224.237 200.064 224.237H198.184C198.033 224.237 197.944 224.065 198.033 223.941L199.27 222.21C199.447 221.963 199.27 221.619 198.965 221.619H196.688C196.536 221.619 196.447 221.446 196.536 221.323L198.139 219.079C198.176 219.03 198.231 219 198.291 219H203.068C203.219 219 203.308 219.172 203.219 219.296L201.982 221.027C201.805 221.274 201.982 221.619 202.286 221.619H204.166C204.322 221.619 204.409 221.797 204.313 221.921L200.771 226.43H200.773Z" fill="#863BFF"/>
</g>
<g clip-path="url(#clip51_378_46807)">
<path d="M265.273 120.93C265.162 121.07 264.939 120.991 264.939 120.815V119.112C264.939 118.905 264.77 118.737 264.564 118.737H262.684C262.533 118.737 262.444 118.565 262.533 118.441L263.77 116.71C263.947 116.463 263.77 116.119 263.465 116.119H261.188C261.036 116.119 260.947 115.946 261.036 115.823L262.639 113.579C262.676 113.53 262.731 113.5 262.791 113.5H267.568C267.719 113.5 267.808 113.672 267.719 113.796L266.482 115.527C266.305 115.774 266.482 116.119 266.786 116.119H268.666C268.822 116.119 268.909 116.297 268.813 116.421L265.271 120.93H265.273Z" fill="#863BFF"/>
</g>
<g clip-path="url(#clip52_378_46807)">
<path d="M243.773 207.43C243.662 207.57 243.439 207.491 243.439 207.315V205.612C243.439 205.405 243.27 205.237 243.064 205.237H241.184C241.033 205.237 240.944 205.065 241.033 204.941L242.27 203.21C242.447 202.963 242.27 202.619 241.965 202.619H239.688C239.536 202.619 239.447 202.446 239.536 202.323L241.139 200.079C241.176 200.03 241.231 200 241.291 200H246.068C246.219 200 246.308 200.172 246.219 200.296L244.982 202.027C244.805 202.274 244.982 202.619 245.286 202.619H247.166C247.322 202.619 247.409 202.797 247.313 202.921L243.771 207.43H243.773Z" fill="#863BFF"/>
</g>
<g clip-path="url(#clip53_378_46807)">
<path d="M200.773 245.43C200.662 245.57 200.439 245.491 200.439 245.315V243.612C200.439 243.405 200.27 243.237 200.064 243.237H198.184C198.033 243.237 197.944 243.065 198.033 242.941L199.27 241.21C199.447 240.963 199.27 240.619 198.965 240.619H196.688C196.536 240.619 196.447 240.446 196.536 240.323L198.139 238.079C198.176 238.03 198.231 238 198.291 238H203.068C203.219 238 203.308 238.172 203.219 238.296L201.982 240.027C201.805 240.274 201.982 240.619 202.286 240.619H204.166C204.322 240.619 204.409 240.797 204.313 240.921L200.771 245.43H200.773Z" fill="#863BFF"/>
</g>
<g clip-path="url(#clip54_378_46807)">
<path d="M370.773 207.43C370.662 207.57 370.439 207.491 370.439 207.315V205.612C370.439 205.405 370.27 205.237 370.064 205.237H368.184C368.033 205.237 367.944 205.065 368.033 204.941L369.27 203.21C369.447 202.963 369.27 202.619 368.965 202.619H366.688C366.536 202.619 366.447 202.446 366.536 202.323L368.139 200.079C368.176 200.03 368.231 200 368.291 200H373.068C373.219 200 373.308 200.172 373.219 200.296L371.982 202.027C371.805 202.274 371.982 202.619 372.286 202.619H374.166C374.322 202.619 374.409 202.797 374.313 202.921L370.771 207.43H370.773Z" fill="#863BFF"/>
</g>
<g clip-path="url(#clip55_378_46807)">
<path d="M307.273 207.43C307.162 207.57 306.939 207.491 306.939 207.315V205.612C306.939 205.405 306.77 205.237 306.564 205.237H304.684C304.533 205.237 304.444 205.065 304.533 204.941L305.77 203.21C305.947 202.963 305.77 202.619 305.465 202.619H303.188C303.036 202.619 302.947 202.446 303.036 202.323L304.639 200.079C304.676 200.03 304.731 200 304.791 200H309.568C309.719 200 309.808 200.172 309.719 200.296L308.482 202.027C308.305 202.274 308.482 202.619 308.786 202.619H310.666C310.822 202.619 310.909 202.797 310.813 202.921L307.271 207.43H307.273Z" fill="#863BFF"/>
</g>
<g clip-path="url(#clip56_378_46807)">
<path d="M243.773 226.43C243.662 226.57 243.439 226.491 243.439 226.315V224.612C243.439 224.405 243.27 224.237 243.064 224.237H241.184C241.033 224.237 240.944 224.065 241.033 223.941L242.27 222.21C242.447 221.963 242.27 221.619 241.965 221.619H239.688C239.536 221.619 239.447 221.446 239.536 221.323L241.139 219.079C241.176 219.03 241.231 219 241.291 219H246.068C246.219 219 246.308 219.172 246.219 219.296L244.982 221.027C244.805 221.274 244.982 221.619 245.286 221.619H247.166C247.322 221.619 247.409 221.797 247.313 221.921L243.771 226.43H243.773Z" fill="#863BFF"/>
</g>
<g clip-path="url(#clip57_378_46807)">
<path d="M349.273 207.43C349.162 207.57 348.939 207.491 348.939 207.315V205.612C348.939 205.405 348.77 205.237 348.564 205.237H346.684C346.533 205.237 346.444 205.065 346.533 204.941L347.77 203.21C347.947 202.963 347.77 202.619 347.465 202.619H345.188C345.036 202.619 344.947 202.446 345.036 202.323L346.639 200.079C346.676 200.03 346.731 200 346.791 200H351.568C351.719 200 351.808 200.172 351.719 200.296L350.482 202.027C350.305 202.274 350.482 202.619 350.786 202.619H352.666C352.822 202.619 352.909 202.797 352.813 202.921L349.271 207.43H349.273Z" fill="#863BFF"/>
</g>
<g clip-path="url(#clip58_378_46807)">
<path d="M328.773 226.43C328.662 226.57 328.439 226.491 328.439 226.315V224.612C328.439 224.405 328.27 224.237 328.064 224.237H326.184C326.033 224.237 325.944 224.065 326.033 223.941L327.27 222.21C327.447 221.963 327.27 221.619 326.965 221.619H324.688C324.536 221.619 324.447 221.446 324.536 221.323L326.139 219.079C326.176 219.03 326.231 219 326.291 219H331.068C331.219 219 331.308 219.172 331.219 219.296L329.982 221.027C329.805 221.274 329.982 221.619 330.286 221.619H332.166C332.322 221.619 332.409 221.797 332.313 221.921L328.771 226.43H328.773Z" fill="#863BFF"/>
</g>
<g clip-path="url(#clip59_378_46807)">
<path d="M307.273 226.43C307.162 226.57 306.939 226.491 306.939 226.315V224.612C306.939 224.405 306.77 224.237 306.564 224.237H304.684C304.533 224.237 304.444 224.065 304.533 223.941L305.77 222.21C305.947 221.963 305.77 221.619 305.465 221.619H303.188C303.036 221.619 302.947 221.446 303.036 221.323L304.639 219.079C304.676 219.03 304.731 219 304.791 219H309.568C309.719 219 309.808 219.172 309.719 219.296L308.482 221.027C308.305 221.274 308.482 221.619 308.786 221.619H310.666C310.822 221.619 310.909 221.797 310.813 221.921L307.271 226.43H307.273Z" fill="#863BFF"/>
</g>
<g clip-path="url(#clip60_378_46807)">
<path d="M328.773 245.43C328.662 245.57 328.439 245.491 328.439 245.315V243.612C328.439 243.405 328.27 243.237 328.064 243.237H326.184C326.033 243.237 325.944 243.065 326.033 242.941L327.27 241.21C327.447 240.963 327.27 240.619 326.965 240.619H324.688C324.536 240.619 324.447 240.446 324.536 240.323L326.139 238.079C326.176 238.03 326.231 238 326.291 238H331.068C331.219 238 331.308 238.172 331.219 238.296L329.982 240.027C329.805 240.274 329.982 240.619 330.286 240.619H332.166C332.322 240.619 332.409 240.797 332.313 240.921L328.771 245.43H328.773Z" fill="#863BFF"/>
</g>
<g clip-path="url(#clip61_378_46807)">
<path d="M328.773 264.93C328.662 265.07 328.439 264.991 328.439 264.815V263.112C328.439 262.905 328.27 262.737 328.064 262.737H326.184C326.033 262.737 325.944 262.565 326.033 262.441L327.27 260.71C327.447 260.463 327.27 260.119 326.965 260.119H324.688C324.536 260.119 324.447 259.946 324.536 259.823L326.139 257.579C326.176 257.53 326.231 257.5 326.291 257.5H331.068C331.219 257.5 331.308 257.672 331.219 257.796L329.982 259.527C329.805 259.774 329.982 260.119 330.286 260.119H332.166C332.322 260.119 332.409 260.297 332.313 260.421L328.771 264.93H328.773Z" fill="#863BFF"/>
</g>
<g clip-path="url(#clip62_378_46807)">
<path d="M243.773 245.43C243.662 245.57 243.439 245.491 243.439 245.315V243.612C243.439 243.405 243.27 243.237 243.064 243.237H241.184C241.033 243.237 240.944 243.065 241.033 242.941L242.27 241.21C242.447 240.963 242.27 240.619 241.965 240.619H239.688C239.536 240.619 239.447 240.446 239.536 240.323L241.139 238.079C241.176 238.03 241.231 238 241.291 238H246.068C246.219 238 246.308 238.172 246.219 238.296L244.982 240.027C244.805 240.274 244.982 240.619 245.286 240.619H247.166C247.322 240.619 247.409 240.797 247.313 240.921L243.771 245.43H243.773Z" fill="#863BFF"/>
</g>
<g clip-path="url(#clip63_378_46807)">
<path d="M370.773 226.43C370.662 226.57 370.439 226.491 370.439 226.315V224.612C370.439 224.405 370.27 224.237 370.064 224.237H368.184C368.033 224.237 367.944 224.065 368.033 223.941L369.27 222.21C369.447 221.963 369.27 221.619 368.965 221.619H366.688C366.536 221.619 366.447 221.446 366.536 221.323L368.139 219.079C368.176 219.03 368.231 219 368.291 219H373.068C373.219 219 373.308 219.172 373.219 219.296L371.982 221.027C371.805 221.274 371.982 221.619 372.286 221.619H374.166C374.322 221.619 374.409 221.797 374.313 221.921L370.771 226.43H370.773Z" fill="#863BFF"/>
</g>
<g clip-path="url(#clip64_378_46807)">
<path d="M307.273 245.43C307.162 245.57 306.939 245.491 306.939 245.315V243.612C306.939 243.405 306.77 243.237 306.564 243.237H304.684C304.533 243.237 304.444 243.065 304.533 242.941L305.77 241.21C305.947 240.963 305.77 240.619 305.465 240.619H303.188C303.036 240.619 302.947 240.446 303.036 240.323L304.639 238.079C304.676 238.03 304.731 238 304.791 238H309.568C309.719 238 309.808 238.172 309.719 238.296L308.482 240.027C308.305 240.274 308.482 240.619 308.786 240.619H310.666C310.822 240.619 310.909 240.797 310.813 240.921L307.271 245.43H307.273Z" fill="#863BFF"/>
</g>
<g clip-path="url(#clip65_378_46807)">
<path d="M370.773 245.43C370.662 245.57 370.439 245.491 370.439 245.315V243.612C370.439 243.405 370.27 243.237 370.064 243.237H368.184C368.033 243.237 367.944 243.065 368.033 242.941L369.27 241.21C369.447 240.963 369.27 240.619 368.965 240.619H366.688C366.536 240.619 366.447 240.446 366.536 240.323L368.139 238.079C368.176 238.03 368.231 238 368.291 238H373.068C373.219 238 373.308 238.172 373.219 238.296L371.982 240.027C371.805 240.274 371.982 240.619 372.286 240.619H374.166C374.322 240.619 374.409 240.797 374.313 240.921L370.771 245.43H370.773Z" fill="#863BFF"/>
</g>
<g clip-path="url(#clip66_378_46807)">
<path d="M370.773 264.93C370.662 265.07 370.439 264.991 370.439 264.815V263.112C370.439 262.905 370.27 262.737 370.064 262.737H368.184C368.033 262.737 367.944 262.565 368.033 262.441L369.27 260.71C369.447 260.463 369.27 260.119 368.965 260.119H366.688C366.536 260.119 366.447 259.946 366.536 259.823L368.139 257.579C368.176 257.53 368.231 257.5 368.291 257.5H373.068C373.219 257.5 373.308 257.672 373.219 257.796L371.982 259.527C371.805 259.774 371.982 260.119 372.286 260.119H374.166C374.322 260.119 374.409 260.297 374.313 260.421L370.771 264.93H370.773Z" fill="#863BFF"/>
</g>
<g clip-path="url(#clip67_378_46807)">
<path d="M328.773 302.93C328.662 303.07 328.439 302.991 328.439 302.815V301.112C328.439 300.905 328.27 300.737 328.064 300.737H326.184C326.033 300.737 325.944 300.565 326.033 300.441L327.27 298.71C327.447 298.463 327.27 298.119 326.965 298.119H324.688C324.536 298.119 324.447 297.946 324.536 297.823L326.139 295.579C326.176 295.53 326.231 295.5 326.291 295.5H331.068C331.219 295.5 331.308 295.672 331.219 295.796L329.982 297.527C329.805 297.774 329.982 298.119 330.286 298.119H332.166C332.322 298.119 332.409 298.297 332.313 298.421L328.771 302.93H328.773Z" fill="#863BFF"/>
</g>
<g clip-path="url(#clip68_378_46807)">
<path d="M328.773 338.93C328.662 339.07 328.439 338.991 328.439 338.815V337.112C328.439 336.905 328.27 336.737 328.064 336.737H326.184C326.033 336.737 325.944 336.565 326.033 336.441L327.27 334.71C327.447 334.463 327.27 334.119 326.965 334.119H324.688C324.536 334.119 324.447 333.946 324.536 333.823L326.139 331.579C326.176 331.53 326.231 331.5 326.291 331.5H331.068C331.219 331.5 331.308 331.672 331.219 331.796L329.982 333.527C329.805 333.774 329.982 334.119 330.286 334.119H332.166C332.322 334.119 332.409 334.297 332.313 334.421L328.771 338.93H328.773Z" fill="#863BFF"/>
</g>
<g clip-path="url(#clip69_378_46807)">
<path d="M307.273 264.93C307.162 265.07 306.939 264.991 306.939 264.815V263.112C306.939 262.905 306.77 262.737 306.564 262.737H304.684C304.533 262.737 304.444 262.565 304.533 262.441L305.77 260.71C305.947 260.463 305.77 260.119 305.465 260.119H303.188C303.036 260.119 302.947 259.946 303.036 259.823L304.639 257.579C304.676 257.53 304.731 257.5 304.791 257.5H309.568C309.719 257.5 309.808 257.672 309.719 257.796L308.482 259.527C308.305 259.774 308.482 260.119 308.786 260.119H310.666C310.822 260.119 310.909 260.297 310.813 260.421L307.271 264.93H307.273Z" fill="#863BFF"/>
</g>
<g clip-path="url(#clip70_378_46807)">
<path d="M285.773 131.43C285.662 131.57 285.439 131.491 285.439 131.315V129.612C285.439 129.405 285.27 129.237 285.064 129.237H283.184C283.033 129.237 282.944 129.065 283.033 128.941L284.27 127.21C284.447 126.963 284.27 126.619 283.965 126.619H281.688C281.536 126.619 281.447 126.446 281.536 126.323L283.139 124.079C283.176 124.03 283.231 124 283.291 124H288.068C288.219 124 288.308 124.172 288.219 124.296L286.982 126.027C286.805 126.274 286.982 126.619 287.286 126.619H289.166C289.322 126.619 289.409 126.797 289.313 126.921L285.771 131.43H285.773Z" fill="#863BFF"/>
</g>
<g clip-path="url(#clip71_378_46807)">
<path d="M345.007 225.464L345 221.518C345 221.424 345.035 221.339 345.079 221.31C345.135 221.268 345.284 221.2 345.37 221.262L348.109 223.219C348.393 223.42 348.737 223.326 348.904 223.031L351.114 219.149C351.17 219.053 351.256 219 351.37 219H354.944C355.051 219 355.13 219.057 355.165 219.108C355.212 219.179 355.244 219.282 355.186 219.385L349.934 228.587C349.859 228.747 349.676 228.809 349.529 228.703L345.007 225.464Z" fill="#00F97A"/>
</g>
<g clip-path="url(#clip72_378_46807)">
<path d="M200.773 264.43C200.662 264.57 200.439 264.491 200.439 264.315V262.612C200.439 262.405 200.27 262.237 200.064 262.237H198.184C198.033 262.237 197.944 262.065 198.033 261.941L199.27 260.21C199.447 259.963 199.27 259.619 198.965 259.619H196.688C196.536 259.619 196.447 259.446 196.536 259.323L198.139 257.079C198.176 257.03 198.231 257 198.291 257H203.068C203.219 257 203.308 257.172 203.219 257.296L201.982 259.027C201.805 259.274 201.982 259.619 202.286 259.619H204.166C204.322 259.619 204.409 259.797 204.313 259.921L200.771 264.43H200.773Z" fill="#863BFF"/>
</g>
<g clip-path="url(#clip73_378_46807)">
<path d="M349.273 245.43C349.162 245.57 348.939 245.491 348.939 245.315V243.612C348.939 243.405 348.77 243.237 348.564 243.237H346.684C346.533 243.237 346.444 243.065 346.533 242.941L347.77 241.21C347.947 240.963 347.77 240.619 347.465 240.619H345.188C345.036 240.619 344.947 240.446 345.036 240.323L346.639 238.079C346.676 238.03 346.731 238 346.791 238H351.568C351.719 238 351.808 238.172 351.719 238.296L350.482 240.027C350.305 240.274 350.482 240.619 350.786 240.619H352.666C352.822 240.619 352.909 240.797 352.813 240.921L349.271 245.43H349.273Z" fill="#863BFF"/>
</g>
<g clip-path="url(#clip74_378_46807)">
<path d="M349.273 264.93C349.162 265.07 348.939 264.991 348.939 264.815V263.112C348.939 262.905 348.77 262.737 348.564 262.737H346.684C346.533 262.737 346.444 262.565 346.533 262.441L347.77 260.71C347.947 260.463 347.77 260.119 347.465 260.119H345.188C345.036 260.119 344.947 259.946 345.036 259.823L346.639 257.579C346.676 257.53 346.731 257.5 346.791 257.5H351.568C351.719 257.5 351.808 257.672 351.719 257.796L350.482 259.527C350.305 259.774 350.482 260.119 350.786 260.119H352.666C352.822 260.119 352.909 260.297 352.813 260.421L349.271 264.93H349.273Z" fill="#863BFF"/>
</g>
<g clip-path="url(#clip75_378_46807)">
<path d="M349.273 284.43C349.162 284.57 348.939 284.491 348.939 284.315V282.612C348.939 282.405 348.77 282.237 348.564 282.237H346.684C346.533 282.237 346.444 282.065 346.533 281.941L347.77 280.21C347.947 279.963 347.77 279.619 347.465 279.619H345.188C345.036 279.619 344.947 279.446 345.036 279.323L346.639 277.079C346.676 277.03 346.731 277 346.791 277H351.568C351.719 277 351.808 277.172 351.719 277.296L350.482 279.027C350.305 279.274 350.482 279.619 350.786 279.619H352.666C352.822 279.619 352.909 279.797 352.813 279.921L349.271 284.43H349.273Z" fill="#863BFF"/>
</g>
<g clip-path="url(#clip76_378_46807)">
<path d="M265.273 169.43C265.162 169.57 264.939 169.491 264.939 169.315V167.612C264.939 167.405 264.77 167.237 264.564 167.237H262.684C262.533 167.237 262.444 167.065 262.533 166.941L263.77 165.21C263.947 164.963 263.77 164.619 263.465 164.619H261.188C261.036 164.619 260.947 164.446 261.036 164.323L262.639 162.079C262.676 162.03 262.731 162 262.791 162H267.568C267.719 162 267.808 162.172 267.719 162.296L266.482 164.027C266.305 164.274 266.482 164.619 266.786 164.619H268.666C268.822 164.619 268.909 164.797 268.813 164.921L265.271 169.43H265.273Z" fill="#863BFF"/>
</g>
<g clip-path="url(#clip77_378_46807)">
<path d="M180.273 226.43C180.162 226.57 179.939 226.491 179.939 226.315V224.612C179.939 224.405 179.77 224.237 179.564 224.237H177.684C177.533 224.237 177.444 224.065 177.533 223.941L178.77 222.21C178.947 221.963 178.77 221.619 178.465 221.619H176.188C176.036 221.619 175.947 221.446 176.036 221.323L177.639 219.079C177.676 219.03 177.731 219 177.791 219H182.568C182.719 219 182.808 219.172 182.719 219.296L181.482 221.027C181.305 221.274 181.482 221.619 181.786 221.619H183.666C183.822 221.619 183.909 221.797 183.813 221.921L180.271 226.43H180.273Z" fill="#863BFF"/>
</g>
<g clip-path="url(#clip78_378_46807)">
<path d="M265.273 188.43C265.162 188.57 264.939 188.491 264.939 188.315V186.612C264.939 186.405 264.77 186.237 264.564 186.237H262.684C262.533 186.237 262.444 186.065 262.533 185.941L263.77 184.21C263.947 183.963 263.77 183.619 263.465 183.619H261.188C261.036 183.619 260.947 183.446 261.036 183.323L262.639 181.079C262.676 181.03 262.731 181 262.791 181H267.568C267.719 181 267.808 181.172 267.719 181.296L266.482 183.027C266.305 183.274 266.482 183.619 266.786 183.619H268.666C268.822 183.619 268.909 183.797 268.813 183.921L265.271 188.43H265.273Z" fill="#863BFF"/>
</g>
<g clip-path="url(#clip79_378_46807)">
<path d="M222.273 226.43C222.162 226.57 221.939 226.491 221.939 226.315V224.612C221.939 224.405 221.77 224.237 221.564 224.237H219.684C219.533 224.237 219.444 224.065 219.533 223.941L220.77 222.21C220.947 221.963 220.77 221.619 220.465 221.619H218.188C218.036 221.619 217.947 221.446 218.036 221.323L219.639 219.079C219.676 219.03 219.731 219 219.791 219H224.568C224.719 219 224.808 219.172 224.719 219.296L223.482 221.027C223.305 221.274 223.482 221.619 223.786 221.619H225.666C225.822 221.619 225.909 221.797 225.813 221.921L222.271 226.43H222.273Z" fill="#863BFF"/>
</g>
<g clip-path="url(#clip80_378_46807)">
<path d="M265.273 207.43C265.162 207.57 264.939 207.491 264.939 207.315V205.612C264.939 205.405 264.77 205.237 264.564 205.237H262.684C262.533 205.237 262.444 205.065 262.533 204.941L263.77 203.21C263.947 202.963 263.77 202.619 263.465 202.619H261.188C261.036 202.619 260.947 202.446 261.036 202.323L262.639 200.079C262.676 200.03 262.731 200 262.791 200H267.568C267.719 200 267.808 200.172 267.719 200.296L266.482 202.027C266.305 202.274 266.482 202.619 266.786 202.619H268.666C268.822 202.619 268.909 202.797 268.813 202.921L265.271 207.43H265.273Z" fill="#863BFF"/>
</g>
<g clip-path="url(#clip81_378_46807)">
<path d="M117.773 245.43C117.662 245.57 117.439 245.491 117.439 245.315V243.612C117.439 243.405 117.27 243.237 117.064 243.237H115.184C115.033 243.237 114.944 243.065 115.033 242.941L116.27 241.21C116.447 240.963 116.27 240.619 115.965 240.619H113.688C113.536 240.619 113.447 240.446 113.536 240.323L115.139 238.079C115.176 238.03 115.231 238 115.291 238H120.068C120.219 238 120.308 238.172 120.219 238.296L118.982 240.027C118.805 240.274 118.982 240.619 119.286 240.619H121.166C121.322 240.619 121.409 240.797 121.313 240.921L117.771 245.43H117.773Z" fill="#863BFF"/>
</g>
<g clip-path="url(#clip82_378_46807)">
<path d="M180.273 245.43C180.162 245.57 179.939 245.491 179.939 245.315V243.612C179.939 243.405 179.77 243.237 179.564 243.237H177.684C177.533 243.237 177.444 243.065 177.533 242.941L178.77 241.21C178.947 240.963 178.77 240.619 178.465 240.619H176.188C176.036 240.619 175.947 240.446 176.036 240.323L177.639 238.079C177.676 238.03 177.731 238 177.791 238H182.568C182.719 238 182.808 238.172 182.719 238.296L181.482 240.027C181.305 240.274 181.482 240.619 181.786 240.619H183.666C183.822 240.619 183.909 240.797 183.813 240.921L180.271 245.43H180.273Z" fill="#863BFF"/>
</g>
<g clip-path="url(#clip83_378_46807)">
<path d="M222.273 245.43C222.162 245.57 221.939 245.491 221.939 245.315V243.612C221.939 243.405 221.77 243.237 221.564 243.237H219.684C219.533 243.237 219.444 243.065 219.533 242.941L220.77 241.21C220.947 240.963 220.77 240.619 220.465 240.619H218.188C218.036 240.619 217.947 240.446 218.036 240.323L219.639 238.079C219.676 238.03 219.731 238 219.791 238H224.568C224.719 238 224.808 238.172 224.719 238.296L223.482 240.027C223.305 240.274 223.482 240.619 223.786 240.619H225.666C225.822 240.619 225.909 240.797 225.813 240.921L222.271 245.43H222.273Z" fill="#863BFF"/>
</g>
<g clip-path="url(#clip84_378_46807)">
<path d="M180.273 264.43C180.162 264.57 179.939 264.491 179.939 264.315V262.612C179.939 262.405 179.77 262.237 179.564 262.237H177.684C177.533 262.237 177.444 262.065 177.533 261.941L178.77 260.21C178.947 259.963 178.77 259.619 178.465 259.619H176.188C176.036 259.619 175.947 259.446 176.036 259.323L177.639 257.079C177.676 257.03 177.731 257 177.791 257H182.568C182.719 257 182.808 257.172 182.719 257.296L181.482 259.027C181.305 259.274 181.482 259.619 181.786 259.619H183.666C183.822 259.619 183.909 259.797 183.813 259.921L180.271 264.43H180.273Z" fill="#863BFF"/>
</g>
<g clip-path="url(#clip85_378_46807)">
<path d="M75.7728 283.43C75.6621 283.57 75.4386 283.491 75.4386 283.315V281.612C75.4386 281.405 75.2704 281.237 75.0639 281.237H73.1841C73.033 281.237 72.9435 281.065 73.033 280.941L74.2698 279.21C74.4465 278.963 74.2698 278.619 73.9654 278.619H71.6875C71.5364 278.619 71.4469 278.446 71.5364 278.323L73.1394 276.079C73.1756 276.03 73.2309 276 73.2905 276H78.0677C78.2189 276 78.3083 276.172 78.2189 276.296L76.982 278.027C76.8053 278.274 76.982 278.619 77.2864 278.619H79.1662C79.3216 278.619 79.4089 278.797 79.3131 278.921L75.7707 283.43H75.7728Z" fill="#863BFF"/>
</g>
<g clip-path="url(#clip86_378_46807)">
<path d="M159.773 353.43C159.662 353.57 159.439 353.491 159.439 353.315V351.612C159.439 351.405 159.27 351.237 159.064 351.237H157.184C157.033 351.237 156.944 351.065 157.033 350.941L158.27 349.21C158.447 348.963 158.27 348.619 157.965 348.619H155.688C155.536 348.619 155.447 348.446 155.536 348.323L157.139 346.079C157.176 346.03 157.231 346 157.291 346H162.068C162.219 346 162.308 346.172 162.219 346.296L160.982 348.027C160.805 348.274 160.982 348.619 161.286 348.619H163.166C163.322 348.619 163.409 348.797 163.313 348.921L159.771 353.43H159.773Z" fill="#863BFF"/>
</g>
<g clip-path="url(#clip87_378_46807)">
<path d="M159.773 391.93C159.662 392.07 159.439 391.991 159.439 391.815V390.112C159.439 389.905 159.27 389.737 159.064 389.737H157.184C157.033 389.737 156.944 389.565 157.033 389.441L158.27 387.71C158.447 387.463 158.27 387.119 157.965 387.119H155.688C155.536 387.119 155.447 386.946 155.536 386.823L157.139 384.579C157.176 384.53 157.231 384.5 157.291 384.5H162.068C162.219 384.5 162.308 384.672 162.219 384.796L160.982 386.527C160.805 386.774 160.982 387.119 161.286 387.119H163.166C163.322 387.119 163.409 387.297 163.313 387.421L159.771 391.93H159.773Z" fill="#863BFF"/>
</g>
<defs>
<clipPath id="clip0_378_46807">
<rect width="7.85552" height="7.5" fill="white" transform="translate(155.5 162)"/>
</clipPath>
<clipPath id="clip1_378_46807">
<rect width="7.85552" height="7.5" fill="white" transform="translate(155.5 200)"/>
</clipPath>
<clipPath id="clip2_378_46807">
<rect width="10.2186" height="9.7561" fill="white" transform="translate(281.5 162)"/>
</clipPath>
<clipPath id="clip3_378_46807">
<rect width="7.85552" height="7.5" fill="white" transform="translate(281.5 200)"/>
</clipPath>
<clipPath id="clip4_378_46807">
<rect width="7.85552" height="7.5" fill="white" transform="translate(196.5 200)"/>
</clipPath>
<clipPath id="clip5_378_46807">
<rect width="7.85552" height="7.5" fill="white" transform="translate(239.5 181)"/>
</clipPath>
<clipPath id="clip6_378_46807">
<rect width="7.85552" height="7.5" fill="white" transform="translate(303 181)"/>
</clipPath>
<clipPath id="clip7_378_46807">
<rect width="7.85552" height="7.5" fill="white" transform="translate(324.5 181)"/>
</clipPath>
<clipPath id="clip8_378_46807">
<rect width="7.85552" height="7.5" fill="white" transform="translate(366.5 181)"/>
</clipPath>
<clipPath id="clip9_378_46807">
<rect width="7.85552" height="7.5" fill="white" transform="translate(345 181)"/>
</clipPath>
<clipPath id="clip10_378_46807">
<rect width="7.85552" height="7.5" fill="white" transform="translate(345 162)"/>
</clipPath>
<clipPath id="clip11_378_46807">
<rect width="7.85552" height="7.5" fill="white" transform="translate(324.5 117.5)"/>
</clipPath>
<clipPath id="clip12_378_46807">
<rect width="7.85552" height="7.5" fill="white" transform="translate(303 96)"/>
</clipPath>
<clipPath id="clip13_378_46807">
<rect width="7.85552" height="7.5" fill="white" transform="translate(285.5 78.5)"/>
</clipPath>
<clipPath id="clip14_378_46807">
<rect width="7.85552" height="7.5" fill="white" transform="translate(307 42.5)"/>
</clipPath>
<clipPath id="clip15_378_46807">
<rect width="7.85552" height="7.5" fill="white" transform="translate(324.5 27.5)"/>
</clipPath>
<clipPath id="clip16_378_46807">
<rect width="7.85552" height="7.5" fill="white" transform="translate(354 15)"/>
</clipPath>
<clipPath id="clip17_378_46807">
<rect width="7.85552" height="7.5" fill="white" transform="translate(344.5 71)"/>
</clipPath>
<clipPath id="clip18_378_46807">
<rect width="7.85552" height="7.5" fill="white" transform="translate(383 9.5)"/>
</clipPath>
<clipPath id="clip19_378_46807">
<rect width="7.85552" height="7.5" fill="white" transform="translate(261 143)"/>
</clipPath>
<clipPath id="clip20_378_46807">
<rect width="7.85552" height="7.5" fill="white" transform="translate(218 200)"/>
</clipPath>
<clipPath id="clip21_378_46807">
<rect width="7.85552" height="7.5" fill="white" transform="translate(113.5 162)"/>
</clipPath>
<clipPath id="clip22_378_46807">
<rect width="7.85552" height="7.5" fill="white" transform="translate(71.5 200)"/>
</clipPath>
<clipPath id="clip23_378_46807">
<rect width="7.85552" height="7.5" fill="white" transform="translate(28.5 181)"/>
</clipPath>
<clipPath id="clip24_378_46807">
<rect width="7.85552" height="7.5" fill="white" transform="translate(8 219)"/>
</clipPath>
<clipPath id="clip25_378_46807">
<rect width="7.85552" height="7.5" fill="white" transform="translate(8 200)"/>
</clipPath>
<clipPath id="clip26_378_46807">
<rect width="7.85552" height="7.5" fill="white" transform="translate(29 219)"/>
</clipPath>
<clipPath id="clip27_378_46807">
<rect width="7.85552" height="7.5" fill="white" transform="translate(29 200)"/>
</clipPath>
<clipPath id="clip28_378_46807">
<rect width="7.85552" height="7.5" fill="white" transform="translate(50 191.5)"/>
</clipPath>
<clipPath id="clip29_378_46807">
<rect width="7.85552" height="7.5" fill="white" transform="translate(50 219)"/>
</clipPath>
<clipPath id="clip30_378_46807">
<rect width="7.85552" height="7.5" fill="white" transform="translate(50 238)"/>
</clipPath>
<clipPath id="clip31_378_46807">
<rect width="7.85552" height="7.5" fill="white" transform="translate(50 258)"/>
</clipPath>
<clipPath id="clip32_378_46807">
<rect width="7.85552" height="7.5" fill="white" transform="translate(8 238)"/>
</clipPath>
<clipPath id="clip33_378_46807">
<rect width="7.85552" height="7.5" fill="white" transform="translate(8 258)"/>
</clipPath>
<clipPath id="clip34_378_46807">
<rect width="7.85552" height="7.5" fill="white" transform="translate(8 278)"/>
</clipPath>
<clipPath id="clip35_378_46807">
<rect width="7.85552" height="7.5" fill="white" transform="translate(155.5 181)"/>
</clipPath>
<clipPath id="clip36_378_46807">
<rect width="7.85552" height="7.5" fill="white" transform="translate(155.5 276)"/>
</clipPath>
<clipPath id="clip37_378_46807">
<rect width="7.85552" height="7.5" fill="white" transform="translate(155.5 219)"/>
</clipPath>
<clipPath id="clip38_378_46807">
<rect width="7.85552" height="7.5" fill="white" transform="translate(71.5 181)"/>
</clipPath>
<clipPath id="clip39_378_46807">
<rect width="7.85552" height="7.5" fill="white" transform="translate(155.5 238)"/>
</clipPath>
<clipPath id="clip40_378_46807">
<rect width="7.85552" height="7.5" fill="white" transform="translate(113.5 200.5)"/>
</clipPath>
<clipPath id="clip41_378_46807">
<rect width="7.85552" height="7.5" fill="white" transform="translate(113.5 181)"/>
</clipPath>
<clipPath id="clip42_378_46807">
<rect width="7.85552" height="7.5" fill="white" transform="translate(155.5 257)"/>
</clipPath>
<clipPath id="clip43_378_46807">
<rect width="7.85552" height="7.5" fill="white" transform="translate(281.5 181)"/>
</clipPath>
<clipPath id="clip44_378_46807">
<rect width="7.85552" height="7.5" fill="white" transform="translate(281.5 143)"/>
</clipPath>
<clipPath id="clip45_378_46807">
<rect width="7.85552" height="7.5" fill="white" transform="translate(281.5 219)"/>
</clipPath>
<clipPath id="clip46_378_46807">
<rect width="7.85552" height="7.5" fill="white" transform="translate(134.5 219)"/>
</clipPath>
<clipPath id="clip47_378_46807">
<rect width="7.85552" height="7.5" fill="white" transform="translate(196.5 181)"/>
</clipPath>
<clipPath id="clip48_378_46807">
<rect width="7.85552" height="7.5" fill="white" transform="translate(281.5 238)"/>
</clipPath>
<clipPath id="clip49_378_46807">
<rect width="7.85552" height="7.5" fill="white" transform="translate(239.5 162)"/>
</clipPath>
<clipPath id="clip50_378_46807">
<rect width="7.85552" height="7.5" fill="white" transform="translate(196.5 219)"/>
</clipPath>
<clipPath id="clip51_378_46807">
<rect width="7.85552" height="7.5" fill="white" transform="translate(261 113.5)"/>
</clipPath>
<clipPath id="clip52_378_46807">
<rect width="7.85552" height="7.5" fill="white" transform="translate(239.5 200)"/>
</clipPath>
<clipPath id="clip53_378_46807">
<rect width="7.85552" height="7.5" fill="white" transform="translate(196.5 238)"/>
</clipPath>
<clipPath id="clip54_378_46807">
<rect width="7.85552" height="7.5" fill="white" transform="translate(366.5 200)"/>
</clipPath>
<clipPath id="clip55_378_46807">
<rect width="7.85552" height="7.5" fill="white" transform="translate(303 200)"/>
</clipPath>
<clipPath id="clip56_378_46807">
<rect width="7.85552" height="7.5" fill="white" transform="translate(239.5 219)"/>
</clipPath>
<clipPath id="clip57_378_46807">
<rect width="7.85552" height="7.5" fill="white" transform="translate(345 200)"/>
</clipPath>
<clipPath id="clip58_378_46807">
<rect width="7.85552" height="7.5" fill="white" transform="translate(324.5 219)"/>
</clipPath>
<clipPath id="clip59_378_46807">
<rect width="7.85552" height="7.5" fill="white" transform="translate(303 219)"/>
</clipPath>
<clipPath id="clip60_378_46807">
<rect width="7.85552" height="7.5" fill="white" transform="translate(324.5 238)"/>
</clipPath>
<clipPath id="clip61_378_46807">
<rect width="7.85552" height="7.5" fill="white" transform="translate(324.5 257.5)"/>
</clipPath>
<clipPath id="clip62_378_46807">
<rect width="7.85552" height="7.5" fill="white" transform="translate(239.5 238)"/>
</clipPath>
<clipPath id="clip63_378_46807">
<rect width="7.85552" height="7.5" fill="white" transform="translate(366.5 219)"/>
</clipPath>
<clipPath id="clip64_378_46807">
<rect width="7.85552" height="7.5" fill="white" transform="translate(303 238)"/>
</clipPath>
<clipPath id="clip65_378_46807">
<rect width="7.85552" height="7.5" fill="white" transform="translate(366.5 238)"/>
</clipPath>
<clipPath id="clip66_378_46807">
<rect width="7.85552" height="7.5" fill="white" transform="translate(366.5 257.5)"/>
</clipPath>
<clipPath id="clip67_378_46807">
<rect width="7.85552" height="7.5" fill="white" transform="translate(324.5 295.5)"/>
</clipPath>
<clipPath id="clip68_378_46807">
<rect width="7.85552" height="7.5" fill="white" transform="translate(324.5 331.5)"/>
</clipPath>
<clipPath id="clip69_378_46807">
<rect width="7.85552" height="7.5" fill="white" transform="translate(303 257.5)"/>
</clipPath>
<clipPath id="clip70_378_46807">
<rect width="7.85552" height="7.5" fill="white" transform="translate(281.5 124)"/>
</clipPath>
<clipPath id="clip71_378_46807">
<rect width="10.2186" height="9.7561" fill="white" transform="translate(345 219)"/>
</clipPath>
<clipPath id="clip72_378_46807">
<rect width="7.85552" height="7.5" fill="white" transform="translate(196.5 257)"/>
</clipPath>
<clipPath id="clip73_378_46807">
<rect width="7.85552" height="7.5" fill="white" transform="translate(345 238)"/>
</clipPath>
<clipPath id="clip74_378_46807">
<rect width="7.85552" height="7.5" fill="white" transform="translate(345 257.5)"/>
</clipPath>
<clipPath id="clip75_378_46807">
<rect width="7.85552" height="7.5" fill="white" transform="translate(345 277)"/>
</clipPath>
<clipPath id="clip76_378_46807">
<rect width="7.85552" height="7.5" fill="white" transform="translate(261 162)"/>
</clipPath>
<clipPath id="clip77_378_46807">
<rect width="7.85552" height="7.5" fill="white" transform="translate(176 219)"/>
</clipPath>
<clipPath id="clip78_378_46807">
<rect width="7.85552" height="7.5" fill="white" transform="translate(261 181)"/>
</clipPath>
<clipPath id="clip79_378_46807">
<rect width="7.85552" height="7.5" fill="white" transform="translate(218 219)"/>
</clipPath>
<clipPath id="clip80_378_46807">
<rect width="7.85552" height="7.5" fill="white" transform="translate(261 200)"/>
</clipPath>
<clipPath id="clip81_378_46807">
<rect width="7.85552" height="7.5" fill="white" transform="translate(113.5 238)"/>
</clipPath>
<clipPath id="clip82_378_46807">
<rect width="7.85552" height="7.5" fill="white" transform="translate(176 238)"/>
</clipPath>
<clipPath id="clip83_378_46807">
<rect width="7.85552" height="7.5" fill="white" transform="translate(218 238)"/>
</clipPath>
<clipPath id="clip84_378_46807">
<rect width="7.85552" height="7.5" fill="white" transform="translate(176 257)"/>
</clipPath>
<clipPath id="clip85_378_46807">
<rect width="7.85552" height="7.5" fill="white" transform="translate(71.5 276)"/>
</clipPath>
<clipPath id="clip86_378_46807">
<rect width="7.85552" height="7.5" fill="white" transform="translate(155.5 346)"/>
</clipPath>
<clipPath id="clip87_378_46807">
<rect width="7.85552" height="7.5" fill="white" transform="translate(155.5 384.5)"/>
</clipPath>
</defs>
</svg>
