<svg width="1124" height="750" viewBox="0 0 1124 750" fill="none" xmlns="http://www.w3.org/2000/svg">
<path opacity="0.3" d="M771.635 388.687L696.832 0L1036.94 190.688L1123.73 590.749L771.635 388.687Z" fill="#FCEE21"/>
<path opacity="0.3" d="M771.594 384.492L687.398 27.9238L997.681 176.435L1091 555.555L771.594 384.492Z" fill="#FAD02E"/>
<path opacity="0.3" d="M760.676 413.521L667.087 89.0666L947.553 195.395L1047.39 553.58L760.676 413.521Z" fill="#F8B33A"/>
<path opacity="0.3" d="M737.71 460.733L634.728 168.402L885.372 232.548L991.731 569.793L737.71 460.733Z" fill="#F69547"/>
<path opacity="0.3" d="M701.503 511.106L589.133 250.89L809.955 272.858L922.832 589.163L701.503 511.106Z" fill="#F37753"/>
<path opacity="0.5" d="M650.884 559.714L529.115 331.617L720.121 311.403L839.521 606.767L650.884 559.714Z" fill="#F15960"/>
<path opacity="0.5" d="M584.661 592.396L453.504 396.418L614.687 334.022L740.611 608.451L584.661 592.396Z" fill="#EF3C6C"/>
<path opacity="0.6" d="M503.713 576.761L363.163 412.902L494.525 308.323L626.971 561.817L503.713 576.761Z" fill="#ED1E79"/>
<path d="M431.428 296.27L585.234 535.438L466.683 578.138L307.085 417.901L431.428 296.27Z" fill="#F03E8C"/>
<path d="M358.938 305.095L534.104 529.949L420.26 600.398L241.615 443.778L358.938 305.095Z" fill="#F25E9F"/>
<path d="M282.938 327.432L479.464 537.961L370.326 636.165L172.639 483.167L282.938 327.432Z" fill="#F57EB2"/>
<path d="M208.964 355.75L426.854 551.958L322.419 677.917L105.689 528.537L208.964 355.75Z" fill="#F79FC6"/>
<path d="M142.551 382.517L381.802 564.411L282.073 718.115L46.2964 572.356L142.551 382.517Z" fill="#FABFD9"/>
<path d="M89.2304 400.214L349.846 567.788L254.819 749.246L0 607.105L89.2304 400.214Z" fill="#FCDFEC"/>
</svg>
