<svg width="705" height="392" viewBox="0 0 705 392" fill="none" xmlns="http://www.w3.org/2000/svg">
<g clip-path="url(#clip0_603_100286)">
<path d="M236.273 169.43C236.162 169.57 235.939 169.491 235.939 169.315V167.612C235.939 167.405 235.77 167.237 235.564 167.237H233.684C233.533 167.237 233.444 167.065 233.533 166.941L234.77 165.21C234.947 164.963 234.77 164.619 234.465 164.619H232.187C232.036 164.619 231.947 164.446 232.036 164.323L233.639 162.079C233.676 162.03 233.731 162 233.791 162H238.568C238.719 162 238.808 162.172 238.719 162.296L237.482 164.027C237.305 164.274 237.482 164.619 237.786 164.619H239.666C239.822 164.619 239.909 164.797 239.813 164.921L236.271 169.43H236.273Z" fill="#863BFF"/>
</g>
<g clip-path="url(#clip1_603_100286)">
<path d="M236.273 207.43C236.162 207.57 235.939 207.491 235.939 207.315V205.612C235.939 205.405 235.77 205.237 235.564 205.237H233.684C233.533 205.237 233.444 205.065 233.533 204.941L234.77 203.21C234.947 202.963 234.77 202.619 234.465 202.619H232.187C232.036 202.619 231.947 202.446 232.036 202.323L233.639 200.079C233.676 200.03 233.731 200 233.791 200H238.568C238.719 200 238.808 200.172 238.719 200.296L237.482 202.027C237.305 202.274 237.482 202.619 237.786 202.619H239.666C239.822 202.619 239.909 202.797 239.813 202.921L236.271 207.43H236.273Z" fill="#863BFF"/>
</g>
<g clip-path="url(#clip2_603_100286)">
<path d="M358.007 168.464L358 164.518C358 164.424 358.035 164.339 358.079 164.31C358.135 164.268 358.284 164.2 358.37 164.262L361.109 166.219C361.393 166.42 361.737 166.326 361.904 166.031L364.114 162.149C364.17 162.053 364.256 162 364.37 162H367.944C368.051 162 368.13 162.057 368.165 162.108C368.212 162.179 368.244 162.282 368.186 162.385L362.934 171.587C362.859 171.747 362.676 171.809 362.529 171.703L358.007 168.464Z" fill="#00F97A"/>
</g>
<g clip-path="url(#clip3_603_100286)">
<path d="M362.273 207.43C362.162 207.57 361.939 207.491 361.939 207.315V205.612C361.939 205.405 361.77 205.237 361.564 205.237H359.684C359.533 205.237 359.444 205.065 359.533 204.941L360.77 203.21C360.947 202.963 360.77 202.619 360.465 202.619H358.187C358.036 202.619 357.947 202.446 358.036 202.323L359.639 200.079C359.676 200.03 359.731 200 359.791 200H364.568C364.719 200 364.808 200.172 364.719 200.296L363.482 202.027C363.305 202.274 363.482 202.619 363.786 202.619H365.666C365.822 202.619 365.909 202.797 365.813 202.921L362.271 207.43H362.273Z" fill="#863BFF"/>
</g>
<g clip-path="url(#clip4_603_100286)">
<path d="M277.273 207.43C277.162 207.57 276.939 207.491 276.939 207.315V205.612C276.939 205.405 276.77 205.237 276.564 205.237H274.684C274.533 205.237 274.444 205.065 274.533 204.941L275.77 203.21C275.947 202.963 275.77 202.619 275.465 202.619H273.187C273.036 202.619 272.947 202.446 273.036 202.323L274.639 200.079C274.676 200.03 274.731 200 274.791 200H279.568C279.719 200 279.808 200.172 279.719 200.296L278.482 202.027C278.305 202.274 278.482 202.619 278.786 202.619H280.666C280.822 202.619 280.909 202.797 280.813 202.921L277.271 207.43H277.273Z" fill="#863BFF"/>
</g>
<g clip-path="url(#clip5_603_100286)">
<path d="M320.273 188.43C320.162 188.57 319.939 188.491 319.939 188.315V186.612C319.939 186.405 319.77 186.237 319.564 186.237H317.684C317.533 186.237 317.444 186.065 317.533 185.941L318.77 184.21C318.947 183.963 318.77 183.619 318.465 183.619H316.187C316.036 183.619 315.947 183.446 316.036 183.323L317.639 181.079C317.676 181.03 317.731 181 317.791 181H322.568C322.719 181 322.808 181.172 322.719 181.296L321.482 183.027C321.305 183.274 321.482 183.619 321.786 183.619H323.666C323.822 183.619 323.909 183.797 323.813 183.921L320.271 188.43H320.273Z" fill="#863BFF"/>
</g>
<g clip-path="url(#clip6_603_100286)">
<path d="M383.773 188.43C383.662 188.57 383.439 188.491 383.439 188.315V186.612C383.439 186.405 383.27 186.237 383.064 186.237H381.184C381.033 186.237 380.944 186.065 381.033 185.941L382.27 184.21C382.447 183.963 382.27 183.619 381.965 183.619H379.687C379.536 183.619 379.447 183.446 379.536 183.323L381.139 181.079C381.176 181.03 381.231 181 381.291 181H386.068C386.219 181 386.308 181.172 386.219 181.296L384.982 183.027C384.805 183.274 384.982 183.619 385.286 183.619H387.166C387.322 183.619 387.409 183.797 387.313 183.921L383.771 188.43H383.773Z" fill="#863BFF"/>
</g>
<g clip-path="url(#clip7_603_100286)">
<path d="M405.273 188.43C405.162 188.57 404.939 188.491 404.939 188.315V186.612C404.939 186.405 404.77 186.237 404.564 186.237H402.684C402.533 186.237 402.444 186.065 402.533 185.941L403.77 184.21C403.947 183.963 403.77 183.619 403.465 183.619H401.187C401.036 183.619 400.947 183.446 401.036 183.323L402.639 181.079C402.676 181.03 402.731 181 402.791 181H407.568C407.719 181 407.808 181.172 407.719 181.296L406.482 183.027C406.305 183.274 406.482 183.619 406.786 183.619H408.666C408.822 183.619 408.909 183.797 408.813 183.921L405.271 188.43H405.273Z" fill="#863BFF"/>
</g>
<g clip-path="url(#clip8_603_100286)">
<path d="M447.273 188.43C447.162 188.57 446.939 188.491 446.939 188.315V186.612C446.939 186.405 446.77 186.237 446.564 186.237H444.684C444.533 186.237 444.444 186.065 444.533 185.941L445.77 184.21C445.947 183.963 445.77 183.619 445.465 183.619H443.187C443.036 183.619 442.947 183.446 443.036 183.323L444.639 181.079C444.676 181.03 444.731 181 444.791 181H449.568C449.719 181 449.808 181.172 449.719 181.296L448.482 183.027C448.305 183.274 448.482 183.619 448.786 183.619H450.666C450.822 183.619 450.909 183.797 450.813 183.921L447.271 188.43H447.273Z" fill="#863BFF"/>
</g>
<g clip-path="url(#clip9_603_100286)">
<path d="M425.773 188.43C425.662 188.57 425.439 188.491 425.439 188.315V186.612C425.439 186.405 425.27 186.237 425.064 186.237H423.184C423.033 186.237 422.944 186.065 423.033 185.941L424.27 184.21C424.447 183.963 424.27 183.619 423.965 183.619H421.687C421.536 183.619 421.447 183.446 421.536 183.323L423.139 181.079C423.176 181.03 423.231 181 423.291 181H428.068C428.219 181 428.308 181.172 428.219 181.296L426.982 183.027C426.805 183.274 426.982 183.619 427.286 183.619H429.166C429.322 183.619 429.409 183.797 429.313 183.921L425.771 188.43H425.773Z" fill="#863BFF"/>
</g>
<g clip-path="url(#clip10_603_100286)">
<path d="M425.773 169.43C425.662 169.57 425.439 169.491 425.439 169.315V167.612C425.439 167.405 425.27 167.237 425.064 167.237H423.184C423.033 167.237 422.944 167.065 423.033 166.941L424.27 165.21C424.447 164.963 424.27 164.619 423.965 164.619H421.687C421.536 164.619 421.447 164.446 421.536 164.323L423.139 162.079C423.176 162.03 423.231 162 423.291 162H428.068C428.219 162 428.308 162.172 428.219 162.296L426.982 164.027C426.805 164.274 426.982 164.619 427.286 164.619H429.166C429.322 164.619 429.409 164.797 429.313 164.921L425.771 169.43H425.773Z" fill="#863BFF"/>
</g>
<g clip-path="url(#clip11_603_100286)">
<path d="M405.273 124.93C405.162 125.07 404.939 124.991 404.939 124.815V123.112C404.939 122.905 404.77 122.737 404.564 122.737H402.684C402.533 122.737 402.444 122.565 402.533 122.441L403.77 120.71C403.947 120.463 403.77 120.119 403.465 120.119H401.187C401.036 120.119 400.947 119.946 401.036 119.823L402.639 117.579C402.676 117.53 402.731 117.5 402.791 117.5H407.568C407.719 117.5 407.808 117.672 407.719 117.796L406.482 119.527C406.305 119.774 406.482 120.119 406.786 120.119H408.666C408.822 120.119 408.909 120.297 408.813 120.421L405.271 124.93H405.273Z" fill="#863BFF"/>
</g>
<g clip-path="url(#clip12_603_100286)">
<path d="M383.773 103.43C383.662 103.57 383.439 103.491 383.439 103.315V101.612C383.439 101.405 383.27 101.237 383.064 101.237H381.184C381.033 101.237 380.944 101.065 381.033 100.941L382.27 99.2103C382.447 98.9634 382.27 98.6185 381.965 98.6185H379.687C379.536 98.6185 379.447 98.4461 379.536 98.3226L381.139 96.0788C381.176 96.0298 381.231 96 381.291 96H386.068C386.219 96 386.308 96.1724 386.219 96.2959L384.982 98.0267C384.805 98.2736 384.982 98.6185 385.286 98.6185H387.166C387.322 98.6185 387.409 98.7973 387.313 98.9208L383.771 103.43H383.773Z" fill="#863BFF"/>
</g>
<g clip-path="url(#clip13_603_100286)">
<path d="M366.273 85.9297C366.162 86.0703 365.939 85.9915 365.939 85.8148V84.1117C365.939 83.9052 365.77 83.737 365.564 83.737H363.684C363.533 83.737 363.444 83.5646 363.533 83.4411L364.77 81.7103C364.947 81.4634 364.77 81.1185 364.465 81.1185H362.187C362.036 81.1185 361.947 80.9461 362.036 80.8226L363.639 78.5788C363.676 78.5298 363.731 78.5 363.791 78.5H368.568C368.719 78.5 368.808 78.6724 368.719 78.7959L367.482 80.5267C367.305 80.7736 367.482 81.1185 367.786 81.1185H369.666C369.822 81.1185 369.909 81.2973 369.813 81.4208L366.271 85.9297H366.273Z" fill="#863BFF"/>
</g>
<g clip-path="url(#clip14_603_100286)">
<path d="M387.773 49.9297C387.662 50.0703 387.439 49.9915 387.439 49.8148V48.1117C387.439 47.9052 387.27 47.737 387.064 47.737H385.184C385.033 47.737 384.944 47.5646 385.033 47.4411L386.27 45.7103C386.447 45.4634 386.27 45.1185 385.965 45.1185H383.687C383.536 45.1185 383.447 44.9461 383.536 44.8226L385.139 42.5788C385.176 42.5298 385.231 42.5 385.291 42.5H390.068C390.219 42.5 390.308 42.6724 390.219 42.7959L388.982 44.5267C388.805 44.7736 388.982 45.1185 389.286 45.1185H391.166C391.322 45.1185 391.409 45.2973 391.313 45.4208L387.771 49.9297H387.773Z" fill="#863BFF"/>
</g>
<g clip-path="url(#clip15_603_100286)">
<path d="M405.273 34.9297C405.162 35.0703 404.939 34.9915 404.939 34.8148V33.1117C404.939 32.9052 404.77 32.737 404.564 32.737H402.684C402.533 32.737 402.444 32.5646 402.533 32.4411L403.77 30.7103C403.947 30.4634 403.77 30.1185 403.465 30.1185H401.187C401.036 30.1185 400.947 29.9461 401.036 29.8226L402.639 27.5788C402.676 27.5298 402.731 27.5 402.791 27.5H407.568C407.719 27.5 407.808 27.6724 407.719 27.7959L406.482 29.5267C406.305 29.7736 406.482 30.1185 406.786 30.1185H408.666C408.822 30.1185 408.909 30.2973 408.813 30.4208L405.271 34.9297H405.273Z" fill="#863BFF"/>
</g>
<g clip-path="url(#clip16_603_100286)">
<path d="M434.773 22.4297C434.662 22.5703 434.439 22.4915 434.439 22.3148V20.6117C434.439 20.4052 434.27 20.237 434.064 20.237H432.184C432.033 20.237 431.944 20.0646 432.033 19.9411L433.27 18.2103C433.447 17.9634 433.27 17.6185 432.965 17.6185H430.687C430.536 17.6185 430.447 17.4461 430.536 17.3226L432.139 15.0788C432.176 15.0298 432.231 15 432.291 15H437.068C437.219 15 437.308 15.1724 437.219 15.2959L435.982 17.0267C435.805 17.2736 435.982 17.6185 436.286 17.6185H438.166C438.322 17.6185 438.409 17.7973 438.313 17.9208L434.771 22.4297H434.773Z" fill="#863BFF"/>
</g>
<g clip-path="url(#clip17_603_100286)">
<path d="M425.273 78.4297C425.162 78.5703 424.939 78.4915 424.939 78.3148V76.6117C424.939 76.4052 424.77 76.237 424.564 76.237H422.684C422.533 76.237 422.444 76.0646 422.533 75.9411L423.77 74.2103C423.947 73.9634 423.77 73.6185 423.465 73.6185H421.187C421.036 73.6185 420.947 73.4461 421.036 73.3226L422.639 71.0788C422.676 71.0298 422.731 71 422.791 71H427.568C427.719 71 427.808 71.1724 427.719 71.2959L426.482 73.0267C426.305 73.2736 426.482 73.6185 426.786 73.6185H428.666C428.822 73.6185 428.909 73.7973 428.813 73.9208L425.271 78.4297H425.273Z" fill="#863BFF"/>
</g>
<g clip-path="url(#clip18_603_100286)">
<path d="M533.273 76.9297C533.162 77.0703 532.939 76.9915 532.939 76.8148V75.1117C532.939 74.9052 532.77 74.737 532.564 74.737H530.684C530.533 74.737 530.444 74.5646 530.533 74.4411L531.77 72.7103C531.947 72.4634 531.77 72.1185 531.465 72.1185H529.187C529.036 72.1185 528.947 71.9461 529.036 71.8226L530.639 69.5788C530.676 69.5298 530.731 69.5 530.791 69.5H535.568C535.719 69.5 535.808 69.6724 535.719 69.7959L534.482 71.5267C534.305 71.7736 534.482 72.1185 534.786 72.1185H536.666C536.822 72.1185 536.909 72.2973 536.813 72.4208L533.271 76.9297H533.273Z" fill="#863BFF"/>
</g>
<g clip-path="url(#clip19_603_100286)">
<path d="M594.773 55.4297C594.662 55.5703 594.439 55.4915 594.439 55.3148V53.6117C594.439 53.4052 594.27 53.237 594.064 53.237H592.184C592.033 53.237 591.944 53.0646 592.033 52.9411L593.27 51.2103C593.447 50.9634 593.27 50.6185 592.965 50.6185H590.687C590.536 50.6185 590.447 50.4461 590.536 50.3226L592.139 48.0788C592.176 48.0298 592.231 48 592.291 48H597.068C597.219 48 597.308 48.1724 597.219 48.2959L595.982 50.0267C595.805 50.2736 595.982 50.6185 596.286 50.6185H598.166C598.322 50.6185 598.409 50.7973 598.313 50.9208L594.771 55.4297H594.773Z" fill="#863BFF"/>
</g>
<g clip-path="url(#clip20_603_100286)">
<path d="M573.273 107.43C573.162 107.57 572.939 107.491 572.939 107.315V105.612C572.939 105.405 572.77 105.237 572.564 105.237H570.684C570.533 105.237 570.444 105.065 570.533 104.941L571.77 103.21C571.947 102.963 571.77 102.619 571.465 102.619H569.187C569.036 102.619 568.947 102.446 569.036 102.323L570.639 100.079C570.676 100.03 570.731 100 570.791 100H575.568C575.719 100 575.808 100.172 575.719 100.296L574.482 102.027C574.305 102.274 574.482 102.619 574.786 102.619H576.666C576.822 102.619 576.909 102.797 576.813 102.921L573.271 107.43H573.273Z" fill="#863BFF"/>
</g>
<g clip-path="url(#clip21_603_100286)">
<path d="M573.273 353.43C573.162 353.57 572.939 353.491 572.939 353.315V351.612C572.939 351.405 572.77 351.237 572.564 351.237H570.684C570.533 351.237 570.444 351.065 570.533 350.941L571.77 349.21C571.947 348.963 571.77 348.619 571.465 348.619H569.187C569.036 348.619 568.947 348.446 569.036 348.323L570.639 346.079C570.676 346.03 570.731 346 570.791 346H575.568C575.719 346 575.808 346.172 575.719 346.296L574.482 348.027C574.305 348.274 574.482 348.619 574.786 348.619H576.666C576.822 348.619 576.909 348.797 576.813 348.921L573.271 353.43H573.273Z" fill="#863BFF"/>
</g>
<g clip-path="url(#clip22_603_100286)">
<path d="M651.507 52.4644L651.5 48.518C651.5 48.4241 651.535 48.3394 651.579 48.3097C651.635 48.2685 651.784 48.1998 651.87 48.2616L654.609 50.2188C654.893 50.4202 655.237 50.3264 655.404 50.0311L657.614 46.1488C657.67 46.0526 657.756 46 657.87 46H661.444C661.551 46 661.63 46.0572 661.665 46.1076C661.712 46.1785 661.744 46.2816 661.686 46.3846L656.434 55.5867C656.359 55.7469 656.176 55.8087 656.029 55.7034L651.507 52.4644Z" fill="#00F97A"/>
</g>
<g clip-path="url(#clip23_603_100286)">
<path d="M481.007 37.9644L481 34.018C481 33.9241 481.035 33.8394 481.079 33.8097C481.135 33.7685 481.284 33.6998 481.37 33.7616L484.109 35.7188C484.393 35.9202 484.737 35.8264 484.904 35.5311L487.114 31.6488C487.17 31.5526 487.256 31.5 487.37 31.5H490.944C491.051 31.5 491.13 31.5572 491.165 31.6076C491.212 31.6785 491.244 31.7816 491.186 31.8846L485.934 41.0867C485.859 41.2469 485.676 41.3087 485.529 41.2034L481.007 37.9644Z" fill="#00F97A"/>
</g>
<g clip-path="url(#clip24_603_100286)">
<path d="M463.773 16.9297C463.662 17.0703 463.439 16.9915 463.439 16.8148V15.1117C463.439 14.9052 463.27 14.737 463.064 14.737H461.184C461.033 14.737 460.944 14.5646 461.033 14.4411L462.27 12.7103C462.447 12.4634 462.27 12.1185 461.965 12.1185H459.687C459.536 12.1185 459.447 11.9461 459.536 11.8226L461.139 9.57877C461.176 9.5298 461.231 9.5 461.291 9.5H466.068C466.219 9.5 466.308 9.67244 466.219 9.79591L464.982 11.5267C464.805 11.7736 464.982 12.1185 465.286 12.1185H467.166C467.322 12.1185 467.409 12.2973 467.313 12.4208L463.771 16.9297H463.773Z" fill="#863BFF"/>
</g>
<g clip-path="url(#clip25_603_100286)">
<path d="M513.273 26.4297C513.162 26.5703 512.939 26.4915 512.939 26.3148V24.6117C512.939 24.4052 512.77 24.237 512.564 24.237H510.684C510.533 24.237 510.444 24.0646 510.533 23.9411L511.77 22.2103C511.947 21.9634 511.77 21.6185 511.465 21.6185H509.187C509.036 21.6185 508.947 21.4461 509.036 21.3226L510.639 19.0788C510.676 19.0298 510.731 19 510.791 19H515.568C515.719 19 515.808 19.1724 515.719 19.2959L514.482 21.0267C514.305 21.2736 514.482 21.6185 514.786 21.6185H516.666C516.822 21.6185 516.909 21.7973 516.813 21.9208L513.271 26.4297H513.273Z" fill="#863BFF"/>
</g>
<g clip-path="url(#clip26_603_100286)">
<path d="M533.273 34.9297C533.162 35.0703 532.939 34.9915 532.939 34.8148V33.1117C532.939 32.9052 532.77 32.737 532.564 32.737H530.684C530.533 32.737 530.444 32.5646 530.533 32.4411L531.77 30.7103C531.947 30.4634 531.77 30.1185 531.465 30.1185H529.187C529.036 30.1185 528.947 29.9461 529.036 29.8226L530.639 27.5788C530.676 27.5298 530.731 27.5 530.791 27.5H535.568C535.719 27.5 535.808 27.6724 535.719 27.7959L534.482 29.5267C534.305 29.7736 534.482 30.1185 534.786 30.1185H536.666C536.822 30.1185 536.909 30.2973 536.813 30.4208L533.271 34.9297H533.273Z" fill="#863BFF"/>
</g>
<g clip-path="url(#clip27_603_100286)">
<path d="M553.273 33.9297C553.162 34.0703 552.939 33.9915 552.939 33.8148V32.1117C552.939 31.9052 552.77 31.737 552.564 31.737H550.684C550.533 31.737 550.444 31.5646 550.533 31.4411L551.77 29.7103C551.947 29.4634 551.77 29.1185 551.465 29.1185H549.187C549.036 29.1185 548.947 28.9461 549.036 28.8226L550.639 26.5788C550.676 26.5298 550.731 26.5 550.791 26.5H555.568C555.719 26.5 555.808 26.6724 555.719 26.7959L554.482 28.5267C554.305 28.7736 554.482 29.1185 554.786 29.1185H556.666C556.822 29.1185 556.909 29.2973 556.813 29.4208L553.271 33.9297H553.273Z" fill="#863BFF"/>
</g>
<g clip-path="url(#clip28_603_100286)">
<path d="M574.773 26.4297C574.662 26.5703 574.439 26.4915 574.439 26.3148V24.6117C574.439 24.4052 574.27 24.237 574.064 24.237H572.184C572.033 24.237 571.944 24.0646 572.033 23.9411L573.27 22.2103C573.447 21.9634 573.27 21.6185 572.965 21.6185H570.687C570.536 21.6185 570.447 21.4461 570.536 21.3226L572.139 19.0788C572.176 19.0298 572.231 19 572.291 19H577.068C577.219 19 577.308 19.1724 577.219 19.2959L575.982 21.0267C575.805 21.2736 575.982 21.6185 576.286 21.6185H578.166C578.322 21.6185 578.409 21.7973 578.313 21.9208L574.771 26.4297H574.773Z" fill="#863BFF"/>
</g>
<g clip-path="url(#clip29_603_100286)">
<path d="M596.273 31.4297C596.162 31.5703 595.939 31.4915 595.939 31.3148V29.6117C595.939 29.4052 595.77 29.237 595.564 29.237H593.684C593.533 29.237 593.444 29.0646 593.533 28.9411L594.77 27.2103C594.947 26.9634 594.77 26.6185 594.465 26.6185H592.187C592.036 26.6185 591.947 26.4461 592.036 26.3226L593.639 24.0788C593.676 24.0298 593.731 24 593.791 24H598.568C598.719 24 598.808 24.1724 598.719 24.2959L597.482 26.0267C597.305 26.2736 597.482 26.6185 597.786 26.6185H599.666C599.822 26.6185 599.909 26.7973 599.813 26.9208L596.271 31.4297H596.273Z" fill="#863BFF"/>
</g>
<g clip-path="url(#clip30_603_100286)">
<path d="M616.773 22.4297C616.662 22.5703 616.439 22.4915 616.439 22.3148V20.6117C616.439 20.4052 616.27 20.237 616.064 20.237H614.184C614.033 20.237 613.944 20.0646 614.033 19.9411L615.27 18.2103C615.447 17.9634 615.27 17.6185 614.965 17.6185H612.687C612.536 17.6185 612.447 17.4461 612.536 17.3226L614.139 15.0788C614.176 15.0298 614.231 15 614.291 15H619.068C619.219 15 619.308 15.1724 619.219 15.2959L617.982 17.0267C617.805 17.2736 617.982 17.6185 618.286 17.6185H620.166C620.322 17.6185 620.409 17.7973 620.313 17.9208L616.771 22.4297H616.773Z" fill="#863BFF"/>
</g>
<g clip-path="url(#clip31_603_100286)">
<path d="M638.273 14.9297C638.162 15.0703 637.939 14.9915 637.939 14.8148V13.1117C637.939 12.9052 637.77 12.737 637.564 12.737H635.684C635.533 12.737 635.444 12.5646 635.533 12.4411L636.77 10.7103C636.947 10.4634 636.77 10.1185 636.465 10.1185H634.187C634.036 10.1185 633.947 9.94607 634.036 9.82259L635.639 7.57877C635.676 7.5298 635.731 7.5 635.791 7.5H640.568C640.719 7.5 640.808 7.67244 640.719 7.79591L639.482 9.52668C639.305 9.77363 639.482 10.1185 639.786 10.1185H641.666C641.822 10.1185 641.909 10.2973 641.813 10.4208L638.271 14.9297H638.273Z" fill="#863BFF"/>
</g>
<g clip-path="url(#clip32_603_100286)">
<path d="M658.273 16.9297C658.162 17.0703 657.939 16.9915 657.939 16.8148V15.1117C657.939 14.9052 657.77 14.737 657.564 14.737H655.684C655.533 14.737 655.444 14.5646 655.533 14.4411L656.77 12.7103C656.947 12.4634 656.77 12.1185 656.465 12.1185H654.187C654.036 12.1185 653.947 11.9461 654.036 11.8226L655.639 9.57877C655.676 9.5298 655.731 9.5 655.791 9.5H660.568C660.719 9.5 660.808 9.67244 660.719 9.79591L659.482 11.5267C659.305 11.7736 659.482 12.1185 659.786 12.1185H661.666C661.822 12.1185 661.909 12.2973 661.813 12.4208L658.271 16.9297H658.273Z" fill="#863BFF"/>
</g>
<g clip-path="url(#clip33_603_100286)">
<path d="M679.273 22.9297C679.162 23.0703 678.939 22.9915 678.939 22.8148V21.1117C678.939 20.9052 678.77 20.737 678.564 20.737H676.684C676.533 20.737 676.444 20.5646 676.533 20.4411L677.77 18.7103C677.947 18.4634 677.77 18.1185 677.465 18.1185H675.187C675.036 18.1185 674.947 17.9461 675.036 17.8226L676.639 15.5788C676.676 15.5298 676.731 15.5 676.791 15.5H681.568C681.719 15.5 681.808 15.6724 681.719 15.7959L680.482 17.5267C680.305 17.7736 680.482 18.1185 680.786 18.1185H682.666C682.822 18.1185 682.909 18.2973 682.813 18.4208L679.271 22.9297H679.273Z" fill="#863BFF"/>
</g>
<g clip-path="url(#clip34_603_100286)">
<path d="M700.773 7.42975C700.662 7.57025 700.439 7.49149 700.439 7.31479V5.6117C700.439 5.4052 700.27 5.23701 700.064 5.23701H698.184C698.033 5.23701 697.944 5.06458 698.033 4.9411L699.27 3.21033C699.447 2.96338 699.27 2.61851 698.965 2.61851H696.687C696.536 2.61851 696.447 2.44607 696.536 2.32259L698.139 0.0787681C698.176 0.0298041 698.231 0 698.291 0H703.068C703.219 0 703.308 0.172438 703.219 0.295913L701.982 2.02668C701.805 2.27363 701.982 2.61851 702.286 2.61851H704.166C704.322 2.61851 704.409 2.79733 704.313 2.92081L700.771 7.42975H700.773Z" fill="#863BFF"/>
</g>
<g clip-path="url(#clip35_603_100286)">
<path d="M341.773 150.43C341.662 150.57 341.439 150.491 341.439 150.315V148.612C341.439 148.405 341.27 148.237 341.064 148.237H339.184C339.033 148.237 338.944 148.065 339.033 147.941L340.27 146.21C340.447 145.963 340.27 145.619 339.965 145.619H337.687C337.536 145.619 337.447 145.446 337.536 145.323L339.139 143.079C339.176 143.03 339.231 143 339.291 143H344.068C344.219 143 344.308 143.172 344.219 143.296L342.982 145.027C342.805 145.274 342.982 145.619 343.286 145.619H345.166C345.322 145.619 345.409 145.797 345.313 145.921L341.771 150.43H341.773Z" fill="#863BFF"/>
</g>
<g clip-path="url(#clip36_603_100286)">
<path d="M298.773 207.43C298.662 207.57 298.439 207.491 298.439 207.315V205.612C298.439 205.405 298.27 205.237 298.064 205.237H296.184C296.033 205.237 295.944 205.065 296.033 204.941L297.27 203.21C297.447 202.963 297.27 202.619 296.965 202.619H294.687C294.536 202.619 294.447 202.446 294.536 202.323L296.139 200.079C296.176 200.03 296.231 200 296.291 200H301.068C301.219 200 301.308 200.172 301.219 200.296L299.982 202.027C299.805 202.274 299.982 202.619 300.286 202.619H302.166C302.322 202.619 302.409 202.797 302.313 202.921L298.771 207.43H298.773Z" fill="#863BFF"/>
</g>
<g clip-path="url(#clip37_603_100286)">
<path d="M194.273 169.43C194.162 169.57 193.939 169.491 193.939 169.315V167.612C193.939 167.405 193.77 167.237 193.564 167.237H191.684C191.533 167.237 191.444 167.065 191.533 166.941L192.77 165.21C192.946 164.963 192.77 164.619 192.465 164.619H190.187C190.036 164.619 189.947 164.446 190.036 164.323L191.639 162.079C191.676 162.03 191.731 162 191.791 162H196.568C196.719 162 196.808 162.172 196.719 162.296L195.482 164.027C195.305 164.274 195.482 164.619 195.786 164.619H197.666C197.822 164.619 197.909 164.797 197.813 164.921L194.271 169.43H194.273Z" fill="#863BFF"/>
</g>
<g clip-path="url(#clip38_603_100286)">
<path d="M152.273 207.43C152.162 207.57 151.939 207.491 151.939 207.315V205.612C151.939 205.405 151.77 205.237 151.564 205.237H149.684C149.533 205.237 149.444 205.065 149.533 204.941L150.77 203.21C150.946 202.963 150.77 202.619 150.465 202.619H148.187C148.036 202.619 147.947 202.446 148.036 202.323L149.639 200.079C149.676 200.03 149.731 200 149.791 200H154.568C154.719 200 154.808 200.172 154.719 200.296L153.482 202.027C153.305 202.274 153.482 202.619 153.786 202.619H155.666C155.822 202.619 155.909 202.797 155.813 202.921L152.271 207.43H152.273Z" fill="#863BFF"/>
</g>
<g clip-path="url(#clip39_603_100286)">
<path d="M109.273 188.43C109.162 188.57 108.939 188.491 108.939 188.315V186.612C108.939 186.405 108.77 186.237 108.564 186.237H106.684C106.533 186.237 106.444 186.065 106.533 185.941L107.77 184.21C107.946 183.963 107.77 183.619 107.465 183.619H105.187C105.036 183.619 104.947 183.446 105.036 183.323L106.639 181.079C106.676 181.03 106.731 181 106.791 181H111.568C111.719 181 111.808 181.172 111.719 181.296L110.482 183.027C110.305 183.274 110.482 183.619 110.786 183.619H112.666C112.822 183.619 112.909 183.797 112.813 183.921L109.271 188.43H109.273Z" fill="#863BFF"/>
</g>
<g clip-path="url(#clip40_603_100286)">
<path d="M67.7728 188.43C67.6621 188.57 67.4385 188.491 67.4385 188.315V186.612C67.4385 186.405 67.2704 186.237 67.0639 186.237H65.1841C65.0329 186.237 64.9435 186.065 65.0329 185.941L66.2698 184.21C66.4465 183.963 66.2698 183.619 65.9654 183.619H63.6875C63.5363 183.619 63.4469 183.446 63.5363 183.323L65.1394 181.079C65.1756 181.03 65.2309 181 65.2905 181H70.0677C70.2188 181 70.3083 181.172 70.2188 181.296L68.982 183.027C68.8053 183.274 68.982 183.619 69.2864 183.619H71.1662C71.3216 183.619 71.4089 183.797 71.3131 183.921L67.7706 188.43H67.7728Z" fill="#863BFF"/>
</g>
<g clip-path="url(#clip41_603_100286)">
<path d="M67.7728 226.43C67.6621 226.57 67.4385 226.491 67.4385 226.315V224.612C67.4385 224.405 67.2704 224.237 67.0639 224.237H65.1841C65.0329 224.237 64.9435 224.065 65.0329 223.941L66.2698 222.21C66.4465 221.963 66.2698 221.619 65.9654 221.619H63.6875C63.5363 221.619 63.4469 221.446 63.5363 221.323L65.1394 219.079C65.1756 219.03 65.2309 219 65.2905 219H70.0677C70.2188 219 70.3083 219.172 70.2188 219.296L68.982 221.027C68.8053 221.274 68.982 221.619 69.2864 221.619H71.1662C71.3216 221.619 71.4089 221.797 71.3131 221.921L67.7706 226.43H67.7728Z" fill="#863BFF"/>
</g>
<g clip-path="url(#clip42_603_100286)">
<path d="M88.7728 226.43C88.6621 226.57 88.4385 226.491 88.4385 226.315V224.612C88.4385 224.405 88.2704 224.237 88.0639 224.237H86.1841C86.0329 224.237 85.9435 224.065 86.0329 223.941L87.2698 222.21C87.4465 221.963 87.2698 221.619 86.9654 221.619H84.6875C84.5363 221.619 84.4469 221.446 84.5363 221.323L86.1394 219.079C86.1756 219.03 86.2309 219 86.2905 219H91.0677C91.2188 219 91.3083 219.172 91.2188 219.296L89.982 221.027C89.8053 221.274 89.982 221.619 90.2864 221.619H92.1662C92.3216 221.619 92.4089 221.797 92.3131 221.921L88.7706 226.43H88.7728Z" fill="#863BFF"/>
</g>
<g clip-path="url(#clip43_603_100286)">
<path d="M88.7728 207.43C88.6621 207.57 88.4385 207.491 88.4385 207.315V205.612C88.4385 205.405 88.2704 205.237 88.0639 205.237H86.1841C86.0329 205.237 85.9435 205.065 86.0329 204.941L87.2698 203.21C87.4465 202.963 87.2698 202.619 86.9654 202.619H84.6875C84.5363 202.619 84.4469 202.446 84.5363 202.323L86.1394 200.079C86.1756 200.03 86.2309 200 86.2905 200H91.0677C91.2188 200 91.3083 200.172 91.2188 200.296L89.982 202.027C89.8053 202.274 89.982 202.619 90.2864 202.619H92.1662C92.3216 202.619 92.4089 202.797 92.3131 202.921L88.7706 207.43H88.7728Z" fill="#863BFF"/>
</g>
<g clip-path="url(#clip44_603_100286)">
<path d="M109.773 226.43C109.662 226.57 109.439 226.491 109.439 226.315V224.612C109.439 224.405 109.27 224.237 109.064 224.237H107.184C107.033 224.237 106.944 224.065 107.033 223.941L108.27 222.21C108.446 221.963 108.27 221.619 107.965 221.619H105.687C105.536 221.619 105.447 221.446 105.536 221.323L107.139 219.079C107.176 219.03 107.231 219 107.291 219H112.068C112.219 219 112.308 219.172 112.219 219.296L110.982 221.027C110.805 221.274 110.982 221.619 111.286 221.619H113.166C113.322 221.619 113.409 221.797 113.313 221.921L109.771 226.43H109.773Z" fill="#863BFF"/>
</g>
<g clip-path="url(#clip45_603_100286)">
<path d="M109.773 207.43C109.662 207.57 109.439 207.491 109.439 207.315V205.612C109.439 205.405 109.27 205.237 109.064 205.237H107.184C107.033 205.237 106.944 205.065 107.033 204.941L108.27 203.21C108.446 202.963 108.27 202.619 107.965 202.619H105.687C105.536 202.619 105.447 202.446 105.536 202.323L107.139 200.079C107.176 200.03 107.231 200 107.291 200H112.068C112.219 200 112.308 200.172 112.219 200.296L110.982 202.027C110.805 202.274 110.982 202.619 111.286 202.619H113.166C113.322 202.619 113.409 202.797 113.313 202.921L109.771 207.43H109.773Z" fill="#863BFF"/>
</g>
<g clip-path="url(#clip46_603_100286)">
<path d="M130.773 198.93C130.662 199.07 130.439 198.991 130.439 198.815V197.112C130.439 196.905 130.27 196.737 130.064 196.737H128.184C128.033 196.737 127.944 196.565 128.033 196.441L129.27 194.71C129.446 194.463 129.27 194.119 128.965 194.119H126.687C126.536 194.119 126.447 193.946 126.536 193.823L128.139 191.579C128.176 191.53 128.231 191.5 128.291 191.5H133.068C133.219 191.5 133.308 191.672 133.219 191.796L131.982 193.527C131.805 193.774 131.982 194.119 132.286 194.119H134.166C134.322 194.119 134.409 194.297 134.313 194.421L130.771 198.93H130.773Z" fill="#863BFF"/>
</g>
<g clip-path="url(#clip47_603_100286)">
<path d="M130.773 226.43C130.662 226.57 130.439 226.491 130.439 226.315V224.612C130.439 224.405 130.27 224.237 130.064 224.237H128.184C128.033 224.237 127.944 224.065 128.033 223.941L129.27 222.21C129.446 221.963 129.27 221.619 128.965 221.619H126.687C126.536 221.619 126.447 221.446 126.536 221.323L128.139 219.079C128.176 219.03 128.231 219 128.291 219H133.068C133.219 219 133.308 219.172 133.219 219.296L131.982 221.027C131.805 221.274 131.982 221.619 132.286 221.619H134.166C134.322 221.619 134.409 221.797 134.313 221.921L130.771 226.43H130.773Z" fill="#863BFF"/>
</g>
<g clip-path="url(#clip48_603_100286)">
<path d="M130.773 245.43C130.662 245.57 130.439 245.491 130.439 245.315V243.612C130.439 243.405 130.27 243.237 130.064 243.237H128.184C128.033 243.237 127.944 243.065 128.033 242.941L129.27 241.21C129.446 240.963 129.27 240.619 128.965 240.619H126.687C126.536 240.619 126.447 240.446 126.536 240.323L128.139 238.079C128.176 238.03 128.231 238 128.291 238H133.068C133.219 238 133.308 238.172 133.219 238.296L131.982 240.027C131.805 240.274 131.982 240.619 132.286 240.619H134.166C134.322 240.619 134.409 240.797 134.313 240.921L130.771 245.43H130.773Z" fill="#863BFF"/>
</g>
<g clip-path="url(#clip49_603_100286)">
<path d="M130.773 265.43C130.662 265.57 130.439 265.491 130.439 265.315V263.612C130.439 263.405 130.27 263.237 130.064 263.237H128.184C128.033 263.237 127.944 263.065 128.033 262.941L129.27 261.21C129.446 260.963 129.27 260.619 128.965 260.619H126.687C126.536 260.619 126.447 260.446 126.536 260.323L128.139 258.079C128.176 258.03 128.231 258 128.291 258H133.068C133.219 258 133.308 258.172 133.219 258.296L131.982 260.027C131.805 260.274 131.982 260.619 132.286 260.619H134.166C134.322 260.619 134.409 260.797 134.313 260.921L130.771 265.43H130.773Z" fill="#863BFF"/>
</g>
<g clip-path="url(#clip50_603_100286)">
<path d="M88.7728 245.43C88.6621 245.57 88.4385 245.491 88.4385 245.315V243.612C88.4385 243.405 88.2704 243.237 88.0639 243.237H86.1841C86.0329 243.237 85.9435 243.065 86.0329 242.941L87.2698 241.21C87.4465 240.963 87.2698 240.619 86.9654 240.619H84.6875C84.5363 240.619 84.4469 240.446 84.5363 240.323L86.1394 238.079C86.1756 238.03 86.2309 238 86.2905 238H91.0677C91.2188 238 91.3083 238.172 91.2188 238.296L89.982 240.027C89.8053 240.274 89.982 240.619 90.2864 240.619H92.1662C92.3216 240.619 92.4089 240.797 92.3131 240.921L88.7706 245.43H88.7728Z" fill="#863BFF"/>
</g>
<g clip-path="url(#clip51_603_100286)">
<path d="M88.7728 265.43C88.6621 265.57 88.4385 265.491 88.4385 265.315V263.612C88.4385 263.405 88.2704 263.237 88.0639 263.237H86.1841C86.0329 263.237 85.9435 263.065 86.0329 262.941L87.2698 261.21C87.4465 260.963 87.2698 260.619 86.9654 260.619H84.6875C84.5363 260.619 84.4469 260.446 84.5363 260.323L86.1394 258.079C86.1756 258.03 86.2309 258 86.2905 258H91.0677C91.2188 258 91.3083 258.172 91.2188 258.296L89.982 260.027C89.8053 260.274 89.982 260.619 90.2864 260.619H92.1662C92.3216 260.619 92.4089 260.797 92.3131 260.921L88.7706 265.43H88.7728Z" fill="#863BFF"/>
</g>
<g clip-path="url(#clip52_603_100286)">
<path d="M88.7728 285.43C88.6621 285.57 88.4385 285.491 88.4385 285.315V283.612C88.4385 283.405 88.2704 283.237 88.0639 283.237H86.1841C86.0329 283.237 85.9435 283.065 86.0329 282.941L87.2698 281.21C87.4465 280.963 87.2698 280.619 86.9654 280.619H84.6875C84.5363 280.619 84.4469 280.446 84.5363 280.323L86.1394 278.079C86.1756 278.03 86.2309 278 86.2905 278H91.0677C91.2188 278 91.3083 278.172 91.2188 278.296L89.982 280.027C89.8053 280.274 89.982 280.619 90.2864 280.619H92.1662C92.3216 280.619 92.4089 280.797 92.3131 280.921L88.7706 285.43H88.7728Z" fill="#863BFF"/>
</g>
<g clip-path="url(#clip53_603_100286)">
<path d="M67.7728 245.43C67.6621 245.57 67.4385 245.491 67.4385 245.315V243.612C67.4385 243.405 67.2704 243.237 67.0639 243.237H65.1841C65.0329 243.237 64.9435 243.065 65.0329 242.941L66.2698 241.21C66.4465 240.963 66.2698 240.619 65.9654 240.619H63.6875C63.5363 240.619 63.4469 240.446 63.5363 240.323L65.1394 238.079C65.1756 238.03 65.2309 238 65.2905 238H70.0677C70.2188 238 70.3083 238.172 70.2188 238.296L68.982 240.027C68.8053 240.274 68.982 240.619 69.2864 240.619H71.1662C71.3216 240.619 71.4089 240.797 71.3131 240.921L67.7706 245.43H67.7728Z" fill="#863BFF"/>
</g>
<g clip-path="url(#clip54_603_100286)">
<path d="M67.7728 283.43C67.6621 283.57 67.4385 283.491 67.4385 283.315V281.612C67.4385 281.405 67.2704 281.237 67.0639 281.237H65.1841C65.0329 281.237 64.9435 281.065 65.0329 280.941L66.2698 279.21C66.4465 278.963 66.2698 278.619 65.9654 278.619H63.6875C63.5363 278.619 63.4469 278.446 63.5363 278.323L65.1394 276.079C65.1756 276.03 65.2309 276 65.2905 276H70.0677C70.2188 276 70.3083 276.172 70.2188 276.296L68.982 278.027C68.8053 278.274 68.982 278.619 69.2864 278.619H71.1662C71.3216 278.619 71.4089 278.797 71.3131 278.921L67.7706 283.43H67.7728Z" fill="#863BFF"/>
</g>
<g clip-path="url(#clip55_603_100286)">
<path d="M41.007 264.464L41 260.518C41 260.424 41.0349 260.339 41.079 260.31C41.1348 260.268 41.2835 260.2 41.3695 260.262L44.1095 262.219C44.393 262.42 44.737 262.326 44.9043 262.031L47.1144 258.149C47.1702 258.053 47.2562 258 47.37 258H50.9443C51.0512 258 51.1303 258.057 51.1651 258.108C51.2116 258.179 51.2441 258.282 51.186 258.385L45.9338 267.587C45.8595 267.747 45.6759 267.809 45.5294 267.703L41.007 264.464Z" fill="#00F97A"/>
</g>
<g clip-path="url(#clip56_603_100286)">
<path d="M46.2728 226.43C46.1621 226.57 45.9385 226.491 45.9385 226.315V224.612C45.9385 224.405 45.7704 224.237 45.5639 224.237H43.6841C43.5329 224.237 43.4435 224.065 43.5329 223.941L44.7698 222.21C44.9465 221.963 44.7698 221.619 44.4654 221.619H42.1875C42.0363 221.619 41.9469 221.446 42.0363 221.323L43.6394 219.079C43.6756 219.03 43.7309 219 43.7905 219H48.5677C48.7188 219 48.8083 219.172 48.7188 219.296L47.482 221.027C47.3053 221.274 47.482 221.619 47.7864 221.619H49.6662C49.8216 221.619 49.9089 221.797 49.8131 221.921L46.2706 226.43H46.2728Z" fill="#863BFF"/>
</g>
<g clip-path="url(#clip57_603_100286)">
<path d="M46.2728 296.93C46.1621 297.07 45.9385 296.991 45.9385 296.815V295.112C45.9385 294.905 45.7704 294.737 45.5639 294.737H43.6841C43.5329 294.737 43.4435 294.565 43.5329 294.441L44.7698 292.71C44.9465 292.463 44.7698 292.119 44.4654 292.119H42.1875C42.0363 292.119 41.9469 291.946 42.0363 291.823L43.6394 289.579C43.6756 289.53 43.7309 289.5 43.7905 289.5H48.5677C48.7188 289.5 48.8083 289.672 48.7188 289.796L47.482 291.527C47.3053 291.774 47.482 292.119 47.7864 292.119H49.6662C49.8216 292.119 49.9089 292.297 49.8131 292.421L46.2706 296.93H46.2728Z" fill="#863BFF"/>
</g>
<g clip-path="url(#clip58_603_100286)">
<path d="M46.2728 207.43C46.1621 207.57 45.9385 207.491 45.9385 207.315V205.612C45.9385 205.405 45.7704 205.237 45.5639 205.237H43.6841C43.5329 205.237 43.4435 205.065 43.5329 204.941L44.7698 203.21C44.9465 202.963 44.7698 202.619 44.4654 202.619H42.1875C42.0363 202.619 41.9469 202.446 42.0363 202.323L43.6394 200.079C43.6756 200.03 43.7309 200 43.7905 200H48.5677C48.7188 200 48.8083 200.172 48.7188 200.296L47.482 202.027C47.3053 202.274 47.482 202.619 47.7864 202.619H49.6662C49.8216 202.619 49.9089 202.797 49.8131 202.921L46.2706 207.43H46.2728Z" fill="#863BFF"/>
</g>
<g clip-path="url(#clip59_603_100286)">
<path d="M67.7728 368.43C67.6621 368.57 67.4385 368.491 67.4385 368.315V366.612C67.4385 366.405 67.2704 366.237 67.0639 366.237H65.1841C65.0329 366.237 64.9435 366.065 65.0329 365.941L66.2698 364.21C66.4465 363.963 66.2698 363.619 65.9654 363.619H63.6875C63.5363 363.619 63.4469 363.446 63.5363 363.323L65.1394 361.079C65.1756 361.03 65.2309 361 65.2905 361H70.0677C70.2188 361 70.3083 361.172 70.2188 361.296L68.982 363.027C68.8053 363.274 68.982 363.619 69.2864 363.619H71.1662C71.3216 363.619 71.4089 363.797 71.3131 363.921L67.7706 368.43H67.7728Z" fill="#863BFF"/>
</g>
<g clip-path="url(#clip60_603_100286)">
<path d="M25.2728 169.43C25.1621 169.57 24.9385 169.491 24.9385 169.315V167.612C24.9385 167.405 24.7704 167.237 24.5639 167.237H22.6841C22.5329 167.237 22.4435 167.065 22.5329 166.941L23.7698 165.21C23.9465 164.963 23.7698 164.619 23.4654 164.619H21.1875C21.0363 164.619 20.9469 164.446 21.0363 164.323L22.6394 162.079C22.6756 162.03 22.7309 162 22.7905 162H27.5677C27.7188 162 27.8083 162.172 27.7188 162.296L26.482 164.027C26.3053 164.274 26.482 164.619 26.7864 164.619H28.6662C28.8216 164.619 28.9089 164.797 28.8131 164.921L25.2706 169.43H25.2728Z" fill="#863BFF"/>
</g>
<g clip-path="url(#clip61_603_100286)">
<path d="M4.27278 207.43C4.16208 207.57 3.93855 207.491 3.93855 207.315V205.612C3.93855 205.405 3.77037 205.237 3.56387 205.237H1.68407C1.53293 205.237 1.44351 205.065 1.53293 204.941L2.7698 203.21C2.94649 202.963 2.7698 202.619 2.46537 202.619H0.187481C0.0363314 202.619 -0.0530811 202.446 0.0363314 202.323L1.63937 200.079C1.67556 200.03 1.73091 200 1.79052 200H6.5677C6.71885 200 6.80826 200.172 6.71885 200.296L5.48197 202.027C5.30528 202.274 5.48198 202.619 5.7864 202.619H7.66619C7.8216 202.619 7.90888 202.797 7.81309 202.921L4.27065 207.43H4.27278Z" fill="#863BFF"/>
</g>
<g clip-path="url(#clip62_603_100286)">
<path d="M4.27278 226.43C4.16208 226.57 3.93855 226.491 3.93855 226.315V224.612C3.93855 224.405 3.77037 224.237 3.56387 224.237H1.68407C1.53293 224.237 1.44351 224.065 1.53293 223.941L2.7698 222.21C2.94649 221.963 2.7698 221.619 2.46537 221.619H0.187481C0.0363314 221.619 -0.0530811 221.446 0.0363314 221.323L1.63937 219.079C1.67556 219.03 1.73091 219 1.79052 219H6.5677C6.71885 219 6.80826 219.172 6.71885 219.296L5.48197 221.027C5.30528 221.274 5.48198 221.619 5.7864 221.619H7.66619C7.8216 221.619 7.90888 221.797 7.81309 221.921L4.27065 226.43H4.27278Z" fill="#863BFF"/>
</g>
<g clip-path="url(#clip63_603_100286)">
<path d="M25.2728 207.43C25.1621 207.57 24.9385 207.491 24.9385 207.315V205.612C24.9385 205.405 24.7704 205.237 24.5639 205.237H22.6841C22.5329 205.237 22.4435 205.065 22.5329 204.941L23.7698 203.21C23.9465 202.963 23.7698 202.619 23.4654 202.619H21.1875C21.0363 202.619 20.9469 202.446 21.0363 202.323L22.6394 200.079C22.6756 200.03 22.7309 200 22.7905 200H27.5677C27.7188 200 27.8083 200.172 27.7188 200.296L26.482 202.027C26.3053 202.274 26.482 202.619 26.7864 202.619H28.6662C28.8216 202.619 28.9089 202.797 28.8131 202.921L25.2706 207.43H25.2728Z" fill="#863BFF"/>
</g>
<g clip-path="url(#clip64_603_100286)">
<path d="M25.2728 246.43C25.1621 246.57 24.9385 246.491 24.9385 246.315V244.612C24.9385 244.405 24.7704 244.237 24.5639 244.237H22.6841C22.5329 244.237 22.4435 244.065 22.5329 243.941L23.7698 242.21C23.9465 241.963 23.7698 241.619 23.4654 241.619H21.1875C21.0363 241.619 20.9469 241.446 21.0363 241.323L22.6394 239.079C22.6756 239.03 22.7309 239 22.7905 239H27.5677C27.7188 239 27.8083 239.172 27.7188 239.296L26.482 241.027C26.3053 241.274 26.482 241.619 26.7864 241.619H28.6662C28.8216 241.619 28.9089 241.797 28.8131 241.921L25.2706 246.43H25.2728Z" fill="#863BFF"/>
</g>
<g clip-path="url(#clip65_603_100286)">
<path d="M236.273 188.43C236.162 188.57 235.939 188.491 235.939 188.315V186.612C235.939 186.405 235.77 186.237 235.564 186.237H233.684C233.533 186.237 233.444 186.065 233.533 185.941L234.77 184.21C234.947 183.963 234.77 183.619 234.465 183.619H232.187C232.036 183.619 231.947 183.446 232.036 183.323L233.639 181.079C233.676 181.03 233.731 181 233.791 181H238.568C238.719 181 238.808 181.172 238.719 181.296L237.482 183.027C237.305 183.274 237.482 183.619 237.786 183.619H239.666C239.822 183.619 239.909 183.797 239.813 183.921L236.271 188.43H236.273Z" fill="#863BFF"/>
</g>
<g clip-path="url(#clip66_603_100286)">
<path d="M236.273 283.43C236.162 283.57 235.939 283.491 235.939 283.315V281.612C235.939 281.405 235.77 281.237 235.564 281.237H233.684C233.533 281.237 233.444 281.065 233.533 280.941L234.77 279.21C234.947 278.963 234.77 278.619 234.465 278.619H232.187C232.036 278.619 231.947 278.446 232.036 278.323L233.639 276.079C233.676 276.03 233.731 276 233.791 276H238.568C238.719 276 238.808 276.172 238.719 276.296L237.482 278.027C237.305 278.274 237.482 278.619 237.786 278.619H239.666C239.822 278.619 239.909 278.797 239.813 278.921L236.271 283.43H236.273Z" fill="#863BFF"/>
</g>
<g clip-path="url(#clip67_603_100286)">
<path d="M236.273 226.43C236.162 226.57 235.939 226.491 235.939 226.315V224.612C235.939 224.405 235.77 224.237 235.564 224.237H233.684C233.533 224.237 233.444 224.065 233.533 223.941L234.77 222.21C234.947 221.963 234.77 221.619 234.465 221.619H232.187C232.036 221.619 231.947 221.446 232.036 221.323L233.639 219.079C233.676 219.03 233.731 219 233.791 219H238.568C238.719 219 238.808 219.172 238.719 219.296L237.482 221.027C237.305 221.274 237.482 221.619 237.786 221.619H239.666C239.822 221.619 239.909 221.797 239.813 221.921L236.271 226.43H236.273Z" fill="#863BFF"/>
</g>
<g clip-path="url(#clip68_603_100286)">
<path d="M152.273 188.43C152.162 188.57 151.939 188.491 151.939 188.315V186.612C151.939 186.405 151.77 186.237 151.564 186.237H149.684C149.533 186.237 149.444 186.065 149.533 185.941L150.77 184.21C150.946 183.963 150.77 183.619 150.465 183.619H148.187C148.036 183.619 147.947 183.446 148.036 183.323L149.639 181.079C149.676 181.03 149.731 181 149.791 181H154.568C154.719 181 154.808 181.172 154.719 181.296L153.482 183.027C153.305 183.274 153.482 183.619 153.786 183.619H155.666C155.822 183.619 155.909 183.797 155.813 183.921L152.271 188.43H152.273Z" fill="#863BFF"/>
</g>
<g clip-path="url(#clip69_603_100286)">
<path d="M236.273 245.43C236.162 245.57 235.939 245.491 235.939 245.315V243.612C235.939 243.405 235.77 243.237 235.564 243.237H233.684C233.533 243.237 233.444 243.065 233.533 242.941L234.77 241.21C234.947 240.963 234.77 240.619 234.465 240.619H232.187C232.036 240.619 231.947 240.446 232.036 240.323L233.639 238.079C233.676 238.03 233.731 238 233.791 238H238.568C238.719 238 238.808 238.172 238.719 238.296L237.482 240.027C237.305 240.274 237.482 240.619 237.786 240.619H239.666C239.822 240.619 239.909 240.797 239.813 240.921L236.271 245.43H236.273Z" fill="#863BFF"/>
</g>
<g clip-path="url(#clip70_603_100286)">
<path d="M194.273 207.93C194.162 208.07 193.939 207.991 193.939 207.815V206.112C193.939 205.905 193.77 205.737 193.564 205.737H191.684C191.533 205.737 191.444 205.565 191.533 205.441L192.77 203.71C192.946 203.463 192.77 203.119 192.465 203.119H190.187C190.036 203.119 189.947 202.946 190.036 202.823L191.639 200.579C191.676 200.53 191.731 200.5 191.791 200.5H196.568C196.719 200.5 196.808 200.672 196.719 200.796L195.482 202.527C195.305 202.774 195.482 203.119 195.786 203.119H197.666C197.822 203.119 197.909 203.297 197.813 203.421L194.271 207.93H194.273Z" fill="#863BFF"/>
</g>
<g clip-path="url(#clip71_603_100286)">
<path d="M194.273 188.43C194.162 188.57 193.939 188.491 193.939 188.315V186.612C193.939 186.405 193.77 186.237 193.564 186.237H191.684C191.533 186.237 191.444 186.065 191.533 185.941L192.77 184.21C192.946 183.963 192.77 183.619 192.465 183.619H190.187C190.036 183.619 189.947 183.446 190.036 183.323L191.639 181.079C191.676 181.03 191.731 181 191.791 181H196.568C196.719 181 196.808 181.172 196.719 181.296L195.482 183.027C195.305 183.274 195.482 183.619 195.786 183.619H197.666C197.822 183.619 197.909 183.797 197.813 183.921L194.271 188.43H194.273Z" fill="#863BFF"/>
</g>
<g clip-path="url(#clip72_603_100286)">
<path d="M236.273 264.43C236.162 264.57 235.939 264.491 235.939 264.315V262.612C235.939 262.405 235.77 262.237 235.564 262.237H233.684C233.533 262.237 233.444 262.065 233.533 261.941L234.77 260.21C234.947 259.963 234.77 259.619 234.465 259.619H232.187C232.036 259.619 231.947 259.446 232.036 259.323L233.639 257.079C233.676 257.03 233.731 257 233.791 257H238.568C238.719 257 238.808 257.172 238.719 257.296L237.482 259.027C237.305 259.274 237.482 259.619 237.786 259.619H239.666C239.822 259.619 239.909 259.797 239.813 259.921L236.271 264.43H236.273Z" fill="#863BFF"/>
</g>
<g clip-path="url(#clip73_603_100286)">
<path d="M362.273 188.43C362.162 188.57 361.939 188.491 361.939 188.315V186.612C361.939 186.405 361.77 186.237 361.564 186.237H359.684C359.533 186.237 359.444 186.065 359.533 185.941L360.77 184.21C360.947 183.963 360.77 183.619 360.465 183.619H358.187C358.036 183.619 357.947 183.446 358.036 183.323L359.639 181.079C359.676 181.03 359.731 181 359.791 181H364.568C364.719 181 364.808 181.172 364.719 181.296L363.482 183.027C363.305 183.274 363.482 183.619 363.786 183.619H365.666C365.822 183.619 365.909 183.797 365.813 183.921L362.271 188.43H362.273Z" fill="#863BFF"/>
</g>
<g clip-path="url(#clip74_603_100286)">
<path d="M362.273 150.43C362.162 150.57 361.939 150.491 361.939 150.315V148.612C361.939 148.405 361.77 148.237 361.564 148.237H359.684C359.533 148.237 359.444 148.065 359.533 147.941L360.77 146.21C360.947 145.963 360.77 145.619 360.465 145.619H358.187C358.036 145.619 357.947 145.446 358.036 145.323L359.639 143.079C359.676 143.03 359.731 143 359.791 143H364.568C364.719 143 364.808 143.172 364.719 143.296L363.482 145.027C363.305 145.274 363.482 145.619 363.786 145.619H365.666C365.822 145.619 365.909 145.797 365.813 145.921L362.271 150.43H362.273Z" fill="#863BFF"/>
</g>
<g clip-path="url(#clip75_603_100286)">
<path d="M362.273 226.43C362.162 226.57 361.939 226.491 361.939 226.315V224.612C361.939 224.405 361.77 224.237 361.564 224.237H359.684C359.533 224.237 359.444 224.065 359.533 223.941L360.77 222.21C360.947 221.963 360.77 221.619 360.465 221.619H358.187C358.036 221.619 357.947 221.446 358.036 221.323L359.639 219.079C359.676 219.03 359.731 219 359.791 219H364.568C364.719 219 364.808 219.172 364.719 219.296L363.482 221.027C363.305 221.274 363.482 221.619 363.786 221.619H365.666C365.822 221.619 365.909 221.797 365.813 221.921L362.271 226.43H362.273Z" fill="#863BFF"/>
</g>
<g clip-path="url(#clip76_603_100286)">
<path d="M215.273 226.43C215.162 226.57 214.939 226.491 214.939 226.315V224.612C214.939 224.405 214.77 224.237 214.564 224.237H212.684C212.533 224.237 212.444 224.065 212.533 223.941L213.77 222.21C213.946 221.963 213.77 221.619 213.465 221.619H211.187C211.036 221.619 210.947 221.446 211.036 221.323L212.639 219.079C212.676 219.03 212.731 219 212.791 219H217.568C217.719 219 217.808 219.172 217.719 219.296L216.482 221.027C216.305 221.274 216.482 221.619 216.786 221.619H218.666C218.822 221.619 218.909 221.797 218.813 221.921L215.271 226.43H215.273Z" fill="#863BFF"/>
</g>
<g clip-path="url(#clip77_603_100286)">
<path d="M277.273 188.43C277.162 188.57 276.939 188.491 276.939 188.315V186.612C276.939 186.405 276.77 186.237 276.564 186.237H274.684C274.533 186.237 274.444 186.065 274.533 185.941L275.77 184.21C275.947 183.963 275.77 183.619 275.465 183.619H273.187C273.036 183.619 272.947 183.446 273.036 183.323L274.639 181.079C274.676 181.03 274.731 181 274.791 181H279.568C279.719 181 279.808 181.172 279.719 181.296L278.482 183.027C278.305 183.274 278.482 183.619 278.786 183.619H280.666C280.822 183.619 280.909 183.797 280.813 183.921L277.271 188.43H277.273Z" fill="#863BFF"/>
</g>
<g clip-path="url(#clip78_603_100286)">
<path d="M362.273 245.43C362.162 245.57 361.939 245.491 361.939 245.315V243.612C361.939 243.405 361.77 243.237 361.564 243.237H359.684C359.533 243.237 359.444 243.065 359.533 242.941L360.77 241.21C360.947 240.963 360.77 240.619 360.465 240.619H358.187C358.036 240.619 357.947 240.446 358.036 240.323L359.639 238.079C359.676 238.03 359.731 238 359.791 238H364.568C364.719 238 364.808 238.172 364.719 238.296L363.482 240.027C363.305 240.274 363.482 240.619 363.786 240.619H365.666C365.822 240.619 365.909 240.797 365.813 240.921L362.271 245.43H362.273Z" fill="#863BFF"/>
</g>
<g clip-path="url(#clip79_603_100286)">
<path d="M320.273 169.43C320.162 169.57 319.939 169.491 319.939 169.315V167.612C319.939 167.405 319.77 167.237 319.564 167.237H317.684C317.533 167.237 317.444 167.065 317.533 166.941L318.77 165.21C318.947 164.963 318.77 164.619 318.465 164.619H316.187C316.036 164.619 315.947 164.446 316.036 164.323L317.639 162.079C317.676 162.03 317.731 162 317.791 162H322.568C322.719 162 322.808 162.172 322.719 162.296L321.482 164.027C321.305 164.274 321.482 164.619 321.786 164.619H323.666C323.822 164.619 323.909 164.797 323.813 164.921L320.271 169.43H320.273Z" fill="#863BFF"/>
</g>
<g clip-path="url(#clip80_603_100286)">
<path d="M277.273 226.43C277.162 226.57 276.939 226.491 276.939 226.315V224.612C276.939 224.405 276.77 224.237 276.564 224.237H274.684C274.533 224.237 274.444 224.065 274.533 223.941L275.77 222.21C275.947 221.963 275.77 221.619 275.465 221.619H273.187C273.036 221.619 272.947 221.446 273.036 221.323L274.639 219.079C274.676 219.03 274.731 219 274.791 219H279.568C279.719 219 279.808 219.172 279.719 219.296L278.482 221.027C278.305 221.274 278.482 221.619 278.786 221.619H280.666C280.822 221.619 280.909 221.797 280.813 221.921L277.271 226.43H277.273Z" fill="#863BFF"/>
</g>
<g clip-path="url(#clip81_603_100286)">
<path d="M341.773 120.93C341.662 121.07 341.439 120.991 341.439 120.815V119.112C341.439 118.905 341.27 118.737 341.064 118.737H339.184C339.033 118.737 338.944 118.565 339.033 118.441L340.27 116.71C340.447 116.463 340.27 116.119 339.965 116.119H337.687C337.536 116.119 337.447 115.946 337.536 115.823L339.139 113.579C339.176 113.53 339.231 113.5 339.291 113.5H344.068C344.219 113.5 344.308 113.672 344.219 113.796L342.982 115.527C342.805 115.774 342.982 116.119 343.286 116.119H345.166C345.322 116.119 345.409 116.297 345.313 116.421L341.771 120.93H341.773Z" fill="#863BFF"/>
</g>
<g clip-path="url(#clip82_603_100286)">
<path d="M320.273 207.43C320.162 207.57 319.939 207.491 319.939 207.315V205.612C319.939 205.405 319.77 205.237 319.564 205.237H317.684C317.533 205.237 317.444 205.065 317.533 204.941L318.77 203.21C318.947 202.963 318.77 202.619 318.465 202.619H316.187C316.036 202.619 315.947 202.446 316.036 202.323L317.639 200.079C317.676 200.03 317.731 200 317.791 200H322.568C322.719 200 322.808 200.172 322.719 200.296L321.482 202.027C321.305 202.274 321.482 202.619 321.786 202.619H323.666C323.822 202.619 323.909 202.797 323.813 202.921L320.271 207.43H320.273Z" fill="#863BFF"/>
</g>
<g clip-path="url(#clip83_603_100286)">
<path d="M277.273 245.43C277.162 245.57 276.939 245.491 276.939 245.315V243.612C276.939 243.405 276.77 243.237 276.564 243.237H274.684C274.533 243.237 274.444 243.065 274.533 242.941L275.77 241.21C275.947 240.963 275.77 240.619 275.465 240.619H273.187C273.036 240.619 272.947 240.446 273.036 240.323L274.639 238.079C274.676 238.03 274.731 238 274.791 238H279.568C279.719 238 279.808 238.172 279.719 238.296L278.482 240.027C278.305 240.274 278.482 240.619 278.786 240.619H280.666C280.822 240.619 280.909 240.797 280.813 240.921L277.271 245.43H277.273Z" fill="#863BFF"/>
</g>
<g clip-path="url(#clip84_603_100286)">
<path d="M447.273 207.43C447.162 207.57 446.939 207.491 446.939 207.315V205.612C446.939 205.405 446.77 205.237 446.564 205.237H444.684C444.533 205.237 444.444 205.065 444.533 204.941L445.77 203.21C445.947 202.963 445.77 202.619 445.465 202.619H443.187C443.036 202.619 442.947 202.446 443.036 202.323L444.639 200.079C444.676 200.03 444.731 200 444.791 200H449.568C449.719 200 449.808 200.172 449.719 200.296L448.482 202.027C448.305 202.274 448.482 202.619 448.786 202.619H450.666C450.822 202.619 450.909 202.797 450.813 202.921L447.271 207.43H447.273Z" fill="#863BFF"/>
</g>
<g clip-path="url(#clip85_603_100286)">
<path d="M383.773 207.43C383.662 207.57 383.439 207.491 383.439 207.315V205.612C383.439 205.405 383.27 205.237 383.064 205.237H381.184C381.033 205.237 380.944 205.065 381.033 204.941L382.27 203.21C382.447 202.963 382.27 202.619 381.965 202.619H379.687C379.536 202.619 379.447 202.446 379.536 202.323L381.139 200.079C381.176 200.03 381.231 200 381.291 200H386.068C386.219 200 386.308 200.172 386.219 200.296L384.982 202.027C384.805 202.274 384.982 202.619 385.286 202.619H387.166C387.322 202.619 387.409 202.797 387.313 202.921L383.771 207.43H383.773Z" fill="#863BFF"/>
</g>
<g clip-path="url(#clip86_603_100286)">
<path d="M320.273 226.43C320.162 226.57 319.939 226.491 319.939 226.315V224.612C319.939 224.405 319.77 224.237 319.564 224.237H317.684C317.533 224.237 317.444 224.065 317.533 223.941L318.77 222.21C318.947 221.963 318.77 221.619 318.465 221.619H316.187C316.036 221.619 315.947 221.446 316.036 221.323L317.639 219.079C317.676 219.03 317.731 219 317.791 219H322.568C322.719 219 322.808 219.172 322.719 219.296L321.482 221.027C321.305 221.274 321.482 221.619 321.786 221.619H323.666C323.822 221.619 323.909 221.797 323.813 221.921L320.271 226.43H320.273Z" fill="#863BFF"/>
</g>
<g clip-path="url(#clip87_603_100286)">
<path d="M425.773 207.43C425.662 207.57 425.439 207.491 425.439 207.315V205.612C425.439 205.405 425.27 205.237 425.064 205.237H423.184C423.033 205.237 422.944 205.065 423.033 204.941L424.27 203.21C424.447 202.963 424.27 202.619 423.965 202.619H421.687C421.536 202.619 421.447 202.446 421.536 202.323L423.139 200.079C423.176 200.03 423.231 200 423.291 200H428.068C428.219 200 428.308 200.172 428.219 200.296L426.982 202.027C426.805 202.274 426.982 202.619 427.286 202.619H429.166C429.322 202.619 429.409 202.797 429.313 202.921L425.771 207.43H425.773Z" fill="#863BFF"/>
</g>
<g clip-path="url(#clip88_603_100286)">
<path d="M405.273 226.43C405.162 226.57 404.939 226.491 404.939 226.315V224.612C404.939 224.405 404.77 224.237 404.564 224.237H402.684C402.533 224.237 402.444 224.065 402.533 223.941L403.77 222.21C403.947 221.963 403.77 221.619 403.465 221.619H401.187C401.036 221.619 400.947 221.446 401.036 221.323L402.639 219.079C402.676 219.03 402.731 219 402.791 219H407.568C407.719 219 407.808 219.172 407.719 219.296L406.482 221.027C406.305 221.274 406.482 221.619 406.786 221.619H408.666C408.822 221.619 408.909 221.797 408.813 221.921L405.271 226.43H405.273Z" fill="#863BFF"/>
</g>
<g clip-path="url(#clip89_603_100286)">
<path d="M383.773 226.43C383.662 226.57 383.439 226.491 383.439 226.315V224.612C383.439 224.405 383.27 224.237 383.064 224.237H381.184C381.033 224.237 380.944 224.065 381.033 223.941L382.27 222.21C382.447 221.963 382.27 221.619 381.965 221.619H379.687C379.536 221.619 379.447 221.446 379.536 221.323L381.139 219.079C381.176 219.03 381.231 219 381.291 219H386.068C386.219 219 386.308 219.172 386.219 219.296L384.982 221.027C384.805 221.274 384.982 221.619 385.286 221.619H387.166C387.322 221.619 387.409 221.797 387.313 221.921L383.771 226.43H383.773Z" fill="#863BFF"/>
</g>
<g clip-path="url(#clip90_603_100286)">
<path d="M405.273 245.43C405.162 245.57 404.939 245.491 404.939 245.315V243.612C404.939 243.405 404.77 243.237 404.564 243.237H402.684C402.533 243.237 402.444 243.065 402.533 242.941L403.77 241.21C403.947 240.963 403.77 240.619 403.465 240.619H401.187C401.036 240.619 400.947 240.446 401.036 240.323L402.639 238.079C402.676 238.03 402.731 238 402.791 238H407.568C407.719 238 407.808 238.172 407.719 238.296L406.482 240.027C406.305 240.274 406.482 240.619 406.786 240.619H408.666C408.822 240.619 408.909 240.797 408.813 240.921L405.271 245.43H405.273Z" fill="#863BFF"/>
</g>
<g clip-path="url(#clip91_603_100286)">
<path d="M405.273 264.93C405.162 265.07 404.939 264.991 404.939 264.815V263.112C404.939 262.905 404.77 262.737 404.564 262.737H402.684C402.533 262.737 402.444 262.565 402.533 262.441L403.77 260.71C403.947 260.463 403.77 260.119 403.465 260.119H401.187C401.036 260.119 400.947 259.946 401.036 259.823L402.639 257.579C402.676 257.53 402.731 257.5 402.791 257.5H407.568C407.719 257.5 407.808 257.672 407.719 257.796L406.482 259.527C406.305 259.774 406.482 260.119 406.786 260.119H408.666C408.822 260.119 408.909 260.297 408.813 260.421L405.271 264.93H405.273Z" fill="#863BFF"/>
</g>
<g clip-path="url(#clip92_603_100286)">
<path d="M320.273 245.43C320.162 245.57 319.939 245.491 319.939 245.315V243.612C319.939 243.405 319.77 243.237 319.564 243.237H317.684C317.533 243.237 317.444 243.065 317.533 242.941L318.77 241.21C318.947 240.963 318.77 240.619 318.465 240.619H316.187C316.036 240.619 315.947 240.446 316.036 240.323L317.639 238.079C317.676 238.03 317.731 238 317.791 238H322.568C322.719 238 322.808 238.172 322.719 238.296L321.482 240.027C321.305 240.274 321.482 240.619 321.786 240.619H323.666C323.822 240.619 323.909 240.797 323.813 240.921L320.271 245.43H320.273Z" fill="#863BFF"/>
</g>
<g clip-path="url(#clip93_603_100286)">
<path d="M447.273 226.43C447.162 226.57 446.939 226.491 446.939 226.315V224.612C446.939 224.405 446.77 224.237 446.564 224.237H444.684C444.533 224.237 444.444 224.065 444.533 223.941L445.77 222.21C445.947 221.963 445.77 221.619 445.465 221.619H443.187C443.036 221.619 442.947 221.446 443.036 221.323L444.639 219.079C444.676 219.03 444.731 219 444.791 219H449.568C449.719 219 449.808 219.172 449.719 219.296L448.482 221.027C448.305 221.274 448.482 221.619 448.786 221.619H450.666C450.822 221.619 450.909 221.797 450.813 221.921L447.271 226.43H447.273Z" fill="#863BFF"/>
</g>
<g clip-path="url(#clip94_603_100286)">
<path d="M383.773 245.43C383.662 245.57 383.439 245.491 383.439 245.315V243.612C383.439 243.405 383.27 243.237 383.064 243.237H381.184C381.033 243.237 380.944 243.065 381.033 242.941L382.27 241.21C382.447 240.963 382.27 240.619 381.965 240.619H379.687C379.536 240.619 379.447 240.446 379.536 240.323L381.139 238.079C381.176 238.03 381.231 238 381.291 238H386.068C386.219 238 386.308 238.172 386.219 238.296L384.982 240.027C384.805 240.274 384.982 240.619 385.286 240.619H387.166C387.322 240.619 387.409 240.797 387.313 240.921L383.771 245.43H383.773Z" fill="#863BFF"/>
</g>
<g clip-path="url(#clip95_603_100286)">
<path d="M447.273 245.43C447.162 245.57 446.939 245.491 446.939 245.315V243.612C446.939 243.405 446.77 243.237 446.564 243.237H444.684C444.533 243.237 444.444 243.065 444.533 242.941L445.77 241.21C445.947 240.963 445.77 240.619 445.465 240.619H443.187C443.036 240.619 442.947 240.446 443.036 240.323L444.639 238.079C444.676 238.03 444.731 238 444.791 238H449.568C449.719 238 449.808 238.172 449.719 238.296L448.482 240.027C448.305 240.274 448.482 240.619 448.786 240.619H450.666C450.822 240.619 450.909 240.797 450.813 240.921L447.271 245.43H447.273Z" fill="#863BFF"/>
</g>
<g clip-path="url(#clip96_603_100286)">
<path d="M447.273 264.93C447.162 265.07 446.939 264.991 446.939 264.815V263.112C446.939 262.905 446.77 262.737 446.564 262.737H444.684C444.533 262.737 444.444 262.565 444.533 262.441L445.77 260.71C445.947 260.463 445.77 260.119 445.465 260.119H443.187C443.036 260.119 442.947 259.946 443.036 259.823L444.639 257.579C444.676 257.53 444.731 257.5 444.791 257.5H449.568C449.719 257.5 449.808 257.672 449.719 257.796L448.482 259.527C448.305 259.774 448.482 260.119 448.786 260.119H450.666C450.822 260.119 450.909 260.297 450.813 260.421L447.271 264.93H447.273Z" fill="#863BFF"/>
</g>
<g clip-path="url(#clip97_603_100286)">
<path d="M405.273 302.93C405.162 303.07 404.939 302.991 404.939 302.815V301.112C404.939 300.905 404.77 300.737 404.564 300.737H402.684C402.533 300.737 402.444 300.565 402.533 300.441L403.77 298.71C403.947 298.463 403.77 298.119 403.465 298.119H401.187C401.036 298.119 400.947 297.946 401.036 297.823L402.639 295.579C402.676 295.53 402.731 295.5 402.791 295.5H407.568C407.719 295.5 407.808 295.672 407.719 295.796L406.482 297.527C406.305 297.774 406.482 298.119 406.786 298.119H408.666C408.822 298.119 408.909 298.297 408.813 298.421L405.271 302.93H405.273Z" fill="#863BFF"/>
</g>
<g clip-path="url(#clip98_603_100286)">
<path d="M405.273 338.93C405.162 339.07 404.939 338.991 404.939 338.815V337.112C404.939 336.905 404.77 336.737 404.564 336.737H402.684C402.533 336.737 402.444 336.565 402.533 336.441L403.77 334.71C403.947 334.463 403.77 334.119 403.465 334.119H401.187C401.036 334.119 400.947 333.946 401.036 333.823L402.639 331.579C402.676 331.53 402.731 331.5 402.791 331.5H407.568C407.719 331.5 407.808 331.672 407.719 331.796L406.482 333.527C406.305 333.774 406.482 334.119 406.786 334.119H408.666C408.822 334.119 408.909 334.297 408.813 334.421L405.271 338.93H405.273Z" fill="#863BFF"/>
</g>
<g clip-path="url(#clip99_603_100286)">
<path d="M383.773 264.93C383.662 265.07 383.439 264.991 383.439 264.815V263.112C383.439 262.905 383.27 262.737 383.064 262.737H381.184C381.033 262.737 380.944 262.565 381.033 262.441L382.27 260.71C382.447 260.463 382.27 260.119 381.965 260.119H379.687C379.536 260.119 379.447 259.946 379.536 259.823L381.139 257.579C381.176 257.53 381.231 257.5 381.291 257.5H386.068C386.219 257.5 386.308 257.672 386.219 257.796L384.982 259.527C384.805 259.774 384.982 260.119 385.286 260.119H387.166C387.322 260.119 387.409 260.297 387.313 260.421L383.771 264.93H383.773Z" fill="#863BFF"/>
</g>
<g clip-path="url(#clip100_603_100286)">
<path d="M362.273 131.43C362.162 131.57 361.939 131.491 361.939 131.315V129.612C361.939 129.405 361.77 129.237 361.564 129.237H359.684C359.533 129.237 359.444 129.065 359.533 128.941L360.77 127.21C360.947 126.963 360.77 126.619 360.465 126.619H358.187C358.036 126.619 357.947 126.446 358.036 126.323L359.639 124.079C359.676 124.03 359.731 124 359.791 124H364.568C364.719 124 364.808 124.172 364.719 124.296L363.482 126.027C363.305 126.274 363.482 126.619 363.786 126.619H365.666C365.822 126.619 365.909 126.797 365.813 126.921L362.271 131.43H362.273Z" fill="#863BFF"/>
</g>
<g clip-path="url(#clip101_603_100286)">
<path d="M421.507 225.464L421.5 221.518C421.5 221.424 421.535 221.339 421.579 221.31C421.635 221.268 421.784 221.2 421.87 221.262L424.609 223.219C424.893 223.42 425.237 223.326 425.404 223.031L427.614 219.149C427.67 219.053 427.756 219 427.87 219H431.444C431.551 219 431.63 219.057 431.665 219.108C431.712 219.179 431.744 219.282 431.686 219.385L426.434 228.587C426.359 228.747 426.176 228.809 426.029 228.703L421.507 225.464Z" fill="#00F97A"/>
</g>
<g clip-path="url(#clip102_603_100286)">
<path d="M277.273 264.43C277.162 264.57 276.939 264.491 276.939 264.315V262.612C276.939 262.405 276.77 262.237 276.564 262.237H274.684C274.533 262.237 274.444 262.065 274.533 261.941L275.77 260.21C275.947 259.963 275.77 259.619 275.465 259.619H273.187C273.036 259.619 272.947 259.446 273.036 259.323L274.639 257.079C274.676 257.03 274.731 257 274.791 257H279.568C279.719 257 279.808 257.172 279.719 257.296L278.482 259.027C278.305 259.274 278.482 259.619 278.786 259.619H280.666C280.822 259.619 280.909 259.797 280.813 259.921L277.271 264.43H277.273Z" fill="#863BFF"/>
</g>
<g clip-path="url(#clip103_603_100286)">
<path d="M425.773 245.43C425.662 245.57 425.439 245.491 425.439 245.315V243.612C425.439 243.405 425.27 243.237 425.064 243.237H423.184C423.033 243.237 422.944 243.065 423.033 242.941L424.27 241.21C424.447 240.963 424.27 240.619 423.965 240.619H421.687C421.536 240.619 421.447 240.446 421.536 240.323L423.139 238.079C423.176 238.03 423.231 238 423.291 238H428.068C428.219 238 428.308 238.172 428.219 238.296L426.982 240.027C426.805 240.274 426.982 240.619 427.286 240.619H429.166C429.322 240.619 429.409 240.797 429.313 240.921L425.771 245.43H425.773Z" fill="#863BFF"/>
</g>
<g clip-path="url(#clip104_603_100286)">
<path d="M425.773 264.93C425.662 265.07 425.439 264.991 425.439 264.815V263.112C425.439 262.905 425.27 262.737 425.064 262.737H423.184C423.033 262.737 422.944 262.565 423.033 262.441L424.27 260.71C424.447 260.463 424.27 260.119 423.965 260.119H421.687C421.536 260.119 421.447 259.946 421.536 259.823L423.139 257.579C423.176 257.53 423.231 257.5 423.291 257.5H428.068C428.219 257.5 428.308 257.672 428.219 257.796L426.982 259.527C426.805 259.774 426.982 260.119 427.286 260.119H429.166C429.322 260.119 429.409 260.297 429.313 260.421L425.771 264.93H425.773Z" fill="#863BFF"/>
</g>
<g clip-path="url(#clip105_603_100286)">
<path d="M425.773 284.43C425.662 284.57 425.439 284.491 425.439 284.315V282.612C425.439 282.405 425.27 282.237 425.064 282.237H423.184C423.033 282.237 422.944 282.065 423.033 281.941L424.27 280.21C424.447 279.963 424.27 279.619 423.965 279.619H421.687C421.536 279.619 421.447 279.446 421.536 279.323L423.139 277.079C423.176 277.03 423.231 277 423.291 277H428.068C428.219 277 428.308 277.172 428.219 277.296L426.982 279.027C426.805 279.274 426.982 279.619 427.286 279.619H429.166C429.322 279.619 429.409 279.797 429.313 279.921L425.771 284.43H425.773Z" fill="#863BFF"/>
</g>
<g clip-path="url(#clip106_603_100286)">
<path d="M341.773 169.43C341.662 169.57 341.439 169.491 341.439 169.315V167.612C341.439 167.405 341.27 167.237 341.064 167.237H339.184C339.033 167.237 338.944 167.065 339.033 166.941L340.27 165.21C340.447 164.963 340.27 164.619 339.965 164.619H337.687C337.536 164.619 337.447 164.446 337.536 164.323L339.139 162.079C339.176 162.03 339.231 162 339.291 162H344.068C344.219 162 344.308 162.172 344.219 162.296L342.982 164.027C342.805 164.274 342.982 164.619 343.286 164.619H345.166C345.322 164.619 345.409 164.797 345.313 164.921L341.771 169.43H341.773Z" fill="#863BFF"/>
</g>
<g clip-path="url(#clip107_603_100286)">
<path d="M256.773 226.43C256.662 226.57 256.439 226.491 256.439 226.315V224.612C256.439 224.405 256.27 224.237 256.064 224.237H254.184C254.033 224.237 253.944 224.065 254.033 223.941L255.27 222.21C255.447 221.963 255.27 221.619 254.965 221.619H252.687C252.536 221.619 252.447 221.446 252.536 221.323L254.139 219.079C254.176 219.03 254.231 219 254.291 219H259.068C259.219 219 259.308 219.172 259.219 219.296L257.982 221.027C257.805 221.274 257.982 221.619 258.286 221.619H260.166C260.322 221.619 260.409 221.797 260.313 221.921L256.771 226.43H256.773Z" fill="#863BFF"/>
</g>
<g clip-path="url(#clip108_603_100286)">
<path d="M341.773 188.43C341.662 188.57 341.439 188.491 341.439 188.315V186.612C341.439 186.405 341.27 186.237 341.064 186.237H339.184C339.033 186.237 338.944 186.065 339.033 185.941L340.27 184.21C340.447 183.963 340.27 183.619 339.965 183.619H337.687C337.536 183.619 337.447 183.446 337.536 183.323L339.139 181.079C339.176 181.03 339.231 181 339.291 181H344.068C344.219 181 344.308 181.172 344.219 181.296L342.982 183.027C342.805 183.274 342.982 183.619 343.286 183.619H345.166C345.322 183.619 345.409 183.797 345.313 183.921L341.771 188.43H341.773Z" fill="#863BFF"/>
</g>
<g clip-path="url(#clip109_603_100286)">
<path d="M298.773 226.43C298.662 226.57 298.439 226.491 298.439 226.315V224.612C298.439 224.405 298.27 224.237 298.064 224.237H296.184C296.033 224.237 295.944 224.065 296.033 223.941L297.27 222.21C297.447 221.963 297.27 221.619 296.965 221.619H294.687C294.536 221.619 294.447 221.446 294.536 221.323L296.139 219.079C296.176 219.03 296.231 219 296.291 219H301.068C301.219 219 301.308 219.172 301.219 219.296L299.982 221.027C299.805 221.274 299.982 221.619 300.286 221.619H302.166C302.322 221.619 302.409 221.797 302.313 221.921L298.771 226.43H298.773Z" fill="#863BFF"/>
</g>
<g clip-path="url(#clip110_603_100286)">
<path d="M341.773 207.43C341.662 207.57 341.439 207.491 341.439 207.315V205.612C341.439 205.405 341.27 205.237 341.064 205.237H339.184C339.033 205.237 338.944 205.065 339.033 204.941L340.27 203.21C340.447 202.963 340.27 202.619 339.965 202.619H337.687C337.536 202.619 337.447 202.446 337.536 202.323L339.139 200.079C339.176 200.03 339.231 200 339.291 200H344.068C344.219 200 344.308 200.172 344.219 200.296L342.982 202.027C342.805 202.274 342.982 202.619 343.286 202.619H345.166C345.322 202.619 345.409 202.797 345.313 202.921L341.771 207.43H341.773Z" fill="#863BFF"/>
</g>
<g clip-path="url(#clip111_603_100286)">
<path d="M194.273 245.43C194.162 245.57 193.939 245.491 193.939 245.315V243.612C193.939 243.405 193.77 243.237 193.564 243.237H191.684C191.533 243.237 191.444 243.065 191.533 242.941L192.77 241.21C192.946 240.963 192.77 240.619 192.465 240.619H190.187C190.036 240.619 189.947 240.446 190.036 240.323L191.639 238.079C191.676 238.03 191.731 238 191.791 238H196.568C196.719 238 196.808 238.172 196.719 238.296L195.482 240.027C195.305 240.274 195.482 240.619 195.786 240.619H197.666C197.822 240.619 197.909 240.797 197.813 240.921L194.271 245.43H194.273Z" fill="#863BFF"/>
</g>
<g clip-path="url(#clip112_603_100286)">
<path d="M256.773 245.43C256.662 245.57 256.439 245.491 256.439 245.315V243.612C256.439 243.405 256.27 243.237 256.064 243.237H254.184C254.033 243.237 253.944 243.065 254.033 242.941L255.27 241.21C255.447 240.963 255.27 240.619 254.965 240.619H252.687C252.536 240.619 252.447 240.446 252.536 240.323L254.139 238.079C254.176 238.03 254.231 238 254.291 238H259.068C259.219 238 259.308 238.172 259.219 238.296L257.982 240.027C257.805 240.274 257.982 240.619 258.286 240.619H260.166C260.322 240.619 260.409 240.797 260.313 240.921L256.771 245.43H256.773Z" fill="#863BFF"/>
</g>
<g clip-path="url(#clip113_603_100286)">
<path d="M298.773 245.43C298.662 245.57 298.439 245.491 298.439 245.315V243.612C298.439 243.405 298.27 243.237 298.064 243.237H296.184C296.033 243.237 295.944 243.065 296.033 242.941L297.27 241.21C297.447 240.963 297.27 240.619 296.965 240.619H294.687C294.536 240.619 294.447 240.446 294.536 240.323L296.139 238.079C296.176 238.03 296.231 238 296.291 238H301.068C301.219 238 301.308 238.172 301.219 238.296L299.982 240.027C299.805 240.274 299.982 240.619 300.286 240.619H302.166C302.322 240.619 302.409 240.797 302.313 240.921L298.771 245.43H298.773Z" fill="#863BFF"/>
</g>
<g clip-path="url(#clip114_603_100286)">
<path d="M256.773 264.43C256.662 264.57 256.439 264.491 256.439 264.315V262.612C256.439 262.405 256.27 262.237 256.064 262.237H254.184C254.033 262.237 253.944 262.065 254.033 261.941L255.27 260.21C255.447 259.963 255.27 259.619 254.965 259.619H252.687C252.536 259.619 252.447 259.446 252.536 259.323L254.139 257.079C254.176 257.03 254.231 257 254.291 257H259.068C259.219 257 259.308 257.172 259.219 257.296L257.982 259.027C257.805 259.274 257.982 259.619 258.286 259.619H260.166C260.322 259.619 260.409 259.797 260.313 259.921L256.771 264.43H256.773Z" fill="#863BFF"/>
</g>
<g clip-path="url(#clip115_603_100286)">
<path d="M152.273 283.43C152.162 283.57 151.939 283.491 151.939 283.315V281.612C151.939 281.405 151.77 281.237 151.564 281.237H149.684C149.533 281.237 149.444 281.065 149.533 280.941L150.77 279.21C150.946 278.963 150.77 278.619 150.465 278.619H148.187C148.036 278.619 147.947 278.446 148.036 278.323L149.639 276.079C149.676 276.03 149.731 276 149.791 276H154.568C154.719 276 154.808 276.172 154.719 276.296L153.482 278.027C153.305 278.274 153.482 278.619 153.786 278.619H155.666C155.822 278.619 155.909 278.797 155.813 278.921L152.271 283.43H152.273Z" fill="#863BFF"/>
</g>
<g clip-path="url(#clip116_603_100286)">
<path d="M236.273 353.43C236.162 353.57 235.939 353.491 235.939 353.315V351.612C235.939 351.405 235.77 351.237 235.564 351.237H233.684C233.533 351.237 233.444 351.065 233.533 350.941L234.77 349.21C234.947 348.963 234.77 348.619 234.465 348.619H232.187C232.036 348.619 231.947 348.446 232.036 348.323L233.639 346.079C233.676 346.03 233.731 346 233.791 346H238.568C238.719 346 238.808 346.172 238.719 346.296L237.482 348.027C237.305 348.274 237.482 348.619 237.786 348.619H239.666C239.822 348.619 239.909 348.797 239.813 348.921L236.271 353.43H236.273Z" fill="#863BFF"/>
</g>
<g clip-path="url(#clip117_603_100286)">
<path d="M236.273 391.93C236.162 392.07 235.939 391.991 235.939 391.815V390.112C235.939 389.905 235.77 389.737 235.564 389.737H233.684C233.533 389.737 233.444 389.565 233.533 389.441L234.77 387.71C234.947 387.463 234.77 387.119 234.465 387.119H232.187C232.036 387.119 231.947 386.946 232.036 386.823L233.639 384.579C233.676 384.53 233.731 384.5 233.791 384.5H238.568C238.719 384.5 238.808 384.672 238.719 384.796L237.482 386.527C237.305 386.774 237.482 387.119 237.786 387.119H239.666C239.822 387.119 239.909 387.297 239.813 387.421L236.271 391.93H236.273Z" fill="#863BFF"/>
</g>
<defs>
<clipPath id="clip0_603_100286">
<rect width="7.85552" height="7.5" fill="white" transform="translate(232 162)"/>
</clipPath>
<clipPath id="clip1_603_100286">
<rect width="7.85552" height="7.5" fill="white" transform="translate(232 200)"/>
</clipPath>
<clipPath id="clip2_603_100286">
<rect width="10.2186" height="9.7561" fill="white" transform="translate(358 162)"/>
</clipPath>
<clipPath id="clip3_603_100286">
<rect width="7.85552" height="7.5" fill="white" transform="translate(358 200)"/>
</clipPath>
<clipPath id="clip4_603_100286">
<rect width="7.85552" height="7.5" fill="white" transform="translate(273 200)"/>
</clipPath>
<clipPath id="clip5_603_100286">
<rect width="7.85552" height="7.5" fill="white" transform="translate(316 181)"/>
</clipPath>
<clipPath id="clip6_603_100286">
<rect width="7.85552" height="7.5" fill="white" transform="translate(379.5 181)"/>
</clipPath>
<clipPath id="clip7_603_100286">
<rect width="7.85552" height="7.5" fill="white" transform="translate(401 181)"/>
</clipPath>
<clipPath id="clip8_603_100286">
<rect width="7.85552" height="7.5" fill="white" transform="translate(443 181)"/>
</clipPath>
<clipPath id="clip9_603_100286">
<rect width="7.85552" height="7.5" fill="white" transform="translate(421.5 181)"/>
</clipPath>
<clipPath id="clip10_603_100286">
<rect width="7.85552" height="7.5" fill="white" transform="translate(421.5 162)"/>
</clipPath>
<clipPath id="clip11_603_100286">
<rect width="7.85552" height="7.5" fill="white" transform="translate(401 117.5)"/>
</clipPath>
<clipPath id="clip12_603_100286">
<rect width="7.85552" height="7.5" fill="white" transform="translate(379.5 96)"/>
</clipPath>
<clipPath id="clip13_603_100286">
<rect width="7.85552" height="7.5" fill="white" transform="translate(362 78.5)"/>
</clipPath>
<clipPath id="clip14_603_100286">
<rect width="7.85552" height="7.5" fill="white" transform="translate(383.5 42.5)"/>
</clipPath>
<clipPath id="clip15_603_100286">
<rect width="7.85552" height="7.5" fill="white" transform="translate(401 27.5)"/>
</clipPath>
<clipPath id="clip16_603_100286">
<rect width="7.85552" height="7.5" fill="white" transform="translate(430.5 15)"/>
</clipPath>
<clipPath id="clip17_603_100286">
<rect width="7.85552" height="7.5" fill="white" transform="translate(421 71)"/>
</clipPath>
<clipPath id="clip18_603_100286">
<rect width="7.85552" height="7.5" fill="white" transform="translate(529 69.5)"/>
</clipPath>
<clipPath id="clip19_603_100286">
<rect width="7.85552" height="7.5" fill="white" transform="translate(590.5 48)"/>
</clipPath>
<clipPath id="clip20_603_100286">
<rect width="7.85552" height="7.5" fill="white" transform="translate(569 100)"/>
</clipPath>
<clipPath id="clip21_603_100286">
<rect width="7.85552" height="7.5" fill="white" transform="translate(569 346)"/>
</clipPath>
<clipPath id="clip22_603_100286">
<rect width="10.2186" height="9.7561" fill="white" transform="translate(651.5 46)"/>
</clipPath>
<clipPath id="clip23_603_100286">
<rect width="10.2186" height="9.7561" fill="white" transform="translate(481 31.5)"/>
</clipPath>
<clipPath id="clip24_603_100286">
<rect width="7.85552" height="7.5" fill="white" transform="translate(459.5 9.5)"/>
</clipPath>
<clipPath id="clip25_603_100286">
<rect width="7.85552" height="7.5" fill="white" transform="translate(509 19)"/>
</clipPath>
<clipPath id="clip26_603_100286">
<rect width="7.85552" height="7.5" fill="white" transform="translate(529 27.5)"/>
</clipPath>
<clipPath id="clip27_603_100286">
<rect width="7.85552" height="7.5" fill="white" transform="translate(549 26.5)"/>
</clipPath>
<clipPath id="clip28_603_100286">
<rect width="7.85552" height="7.5" fill="white" transform="translate(570.5 19)"/>
</clipPath>
<clipPath id="clip29_603_100286">
<rect width="7.85552" height="7.5" fill="white" transform="translate(592 24)"/>
</clipPath>
<clipPath id="clip30_603_100286">
<rect width="7.85552" height="7.5" fill="white" transform="translate(612.5 15)"/>
</clipPath>
<clipPath id="clip31_603_100286">
<rect width="7.85552" height="7.5" fill="white" transform="translate(634 7.5)"/>
</clipPath>
<clipPath id="clip32_603_100286">
<rect width="7.85552" height="7.5" fill="white" transform="translate(654 9.5)"/>
</clipPath>
<clipPath id="clip33_603_100286">
<rect width="7.85552" height="7.5" fill="white" transform="translate(675 15.5)"/>
</clipPath>
<clipPath id="clip34_603_100286">
<rect width="7.85552" height="7.5" fill="white" transform="translate(696.5)"/>
</clipPath>
<clipPath id="clip35_603_100286">
<rect width="7.85552" height="7.5" fill="white" transform="translate(337.5 143)"/>
</clipPath>
<clipPath id="clip36_603_100286">
<rect width="7.85552" height="7.5" fill="white" transform="translate(294.5 200)"/>
</clipPath>
<clipPath id="clip37_603_100286">
<rect width="7.85552" height="7.5" fill="white" transform="translate(190 162)"/>
</clipPath>
<clipPath id="clip38_603_100286">
<rect width="7.85552" height="7.5" fill="white" transform="translate(148 200)"/>
</clipPath>
<clipPath id="clip39_603_100286">
<rect width="7.85552" height="7.5" fill="white" transform="translate(105 181)"/>
</clipPath>
<clipPath id="clip40_603_100286">
<rect width="7.85552" height="7.5" fill="white" transform="translate(63.5 181)"/>
</clipPath>
<clipPath id="clip41_603_100286">
<rect width="7.85552" height="7.5" fill="white" transform="translate(63.5 219)"/>
</clipPath>
<clipPath id="clip42_603_100286">
<rect width="7.85552" height="7.5" fill="white" transform="translate(84.5 219)"/>
</clipPath>
<clipPath id="clip43_603_100286">
<rect width="7.85552" height="7.5" fill="white" transform="translate(84.5 200)"/>
</clipPath>
<clipPath id="clip44_603_100286">
<rect width="7.85552" height="7.5" fill="white" transform="translate(105.5 219)"/>
</clipPath>
<clipPath id="clip45_603_100286">
<rect width="7.85552" height="7.5" fill="white" transform="translate(105.5 200)"/>
</clipPath>
<clipPath id="clip46_603_100286">
<rect width="7.85552" height="7.5" fill="white" transform="translate(126.5 191.5)"/>
</clipPath>
<clipPath id="clip47_603_100286">
<rect width="7.85552" height="7.5" fill="white" transform="translate(126.5 219)"/>
</clipPath>
<clipPath id="clip48_603_100286">
<rect width="7.85552" height="7.5" fill="white" transform="translate(126.5 238)"/>
</clipPath>
<clipPath id="clip49_603_100286">
<rect width="7.85552" height="7.5" fill="white" transform="translate(126.5 258)"/>
</clipPath>
<clipPath id="clip50_603_100286">
<rect width="7.85552" height="7.5" fill="white" transform="translate(84.5 238)"/>
</clipPath>
<clipPath id="clip51_603_100286">
<rect width="7.85552" height="7.5" fill="white" transform="translate(84.5 258)"/>
</clipPath>
<clipPath id="clip52_603_100286">
<rect width="7.85552" height="7.5" fill="white" transform="translate(84.5 278)"/>
</clipPath>
<clipPath id="clip53_603_100286">
<rect width="7.85552" height="7.5" fill="white" transform="translate(63.5 238)"/>
</clipPath>
<clipPath id="clip54_603_100286">
<rect width="7.85552" height="7.5" fill="white" transform="translate(63.5 276)"/>
</clipPath>
<clipPath id="clip55_603_100286">
<rect width="10.2186" height="9.7561" fill="white" transform="translate(41 258)"/>
</clipPath>
<clipPath id="clip56_603_100286">
<rect width="7.85552" height="7.5" fill="white" transform="translate(42 219)"/>
</clipPath>
<clipPath id="clip57_603_100286">
<rect width="7.85552" height="7.5" fill="white" transform="translate(42 289.5)"/>
</clipPath>
<clipPath id="clip58_603_100286">
<rect width="7.85552" height="7.5" fill="white" transform="translate(42 200)"/>
</clipPath>
<clipPath id="clip59_603_100286">
<rect width="7.85552" height="7.5" fill="white" transform="translate(63.5 361)"/>
</clipPath>
<clipPath id="clip60_603_100286">
<rect width="7.85552" height="7.5" fill="white" transform="translate(21 162)"/>
</clipPath>
<clipPath id="clip61_603_100286">
<rect width="7.85552" height="7.5" fill="white" transform="translate(0 200)"/>
</clipPath>
<clipPath id="clip62_603_100286">
<rect width="7.85552" height="7.5" fill="white" transform="translate(0 219)"/>
</clipPath>
<clipPath id="clip63_603_100286">
<rect width="7.85552" height="7.5" fill="white" transform="translate(21 200)"/>
</clipPath>
<clipPath id="clip64_603_100286">
<rect width="7.85552" height="7.5" fill="white" transform="translate(21 239)"/>
</clipPath>
<clipPath id="clip65_603_100286">
<rect width="7.85552" height="7.5" fill="white" transform="translate(232 181)"/>
</clipPath>
<clipPath id="clip66_603_100286">
<rect width="7.85552" height="7.5" fill="white" transform="translate(232 276)"/>
</clipPath>
<clipPath id="clip67_603_100286">
<rect width="7.85552" height="7.5" fill="white" transform="translate(232 219)"/>
</clipPath>
<clipPath id="clip68_603_100286">
<rect width="7.85552" height="7.5" fill="white" transform="translate(148 181)"/>
</clipPath>
<clipPath id="clip69_603_100286">
<rect width="7.85552" height="7.5" fill="white" transform="translate(232 238)"/>
</clipPath>
<clipPath id="clip70_603_100286">
<rect width="7.85552" height="7.5" fill="white" transform="translate(190 200.5)"/>
</clipPath>
<clipPath id="clip71_603_100286">
<rect width="7.85552" height="7.5" fill="white" transform="translate(190 181)"/>
</clipPath>
<clipPath id="clip72_603_100286">
<rect width="7.85552" height="7.5" fill="white" transform="translate(232 257)"/>
</clipPath>
<clipPath id="clip73_603_100286">
<rect width="7.85552" height="7.5" fill="white" transform="translate(358 181)"/>
</clipPath>
<clipPath id="clip74_603_100286">
<rect width="7.85552" height="7.5" fill="white" transform="translate(358 143)"/>
</clipPath>
<clipPath id="clip75_603_100286">
<rect width="7.85552" height="7.5" fill="white" transform="translate(358 219)"/>
</clipPath>
<clipPath id="clip76_603_100286">
<rect width="7.85552" height="7.5" fill="white" transform="translate(211 219)"/>
</clipPath>
<clipPath id="clip77_603_100286">
<rect width="7.85552" height="7.5" fill="white" transform="translate(273 181)"/>
</clipPath>
<clipPath id="clip78_603_100286">
<rect width="7.85552" height="7.5" fill="white" transform="translate(358 238)"/>
</clipPath>
<clipPath id="clip79_603_100286">
<rect width="7.85552" height="7.5" fill="white" transform="translate(316 162)"/>
</clipPath>
<clipPath id="clip80_603_100286">
<rect width="7.85552" height="7.5" fill="white" transform="translate(273 219)"/>
</clipPath>
<clipPath id="clip81_603_100286">
<rect width="7.85552" height="7.5" fill="white" transform="translate(337.5 113.5)"/>
</clipPath>
<clipPath id="clip82_603_100286">
<rect width="7.85552" height="7.5" fill="white" transform="translate(316 200)"/>
</clipPath>
<clipPath id="clip83_603_100286">
<rect width="7.85552" height="7.5" fill="white" transform="translate(273 238)"/>
</clipPath>
<clipPath id="clip84_603_100286">
<rect width="7.85552" height="7.5" fill="white" transform="translate(443 200)"/>
</clipPath>
<clipPath id="clip85_603_100286">
<rect width="7.85552" height="7.5" fill="white" transform="translate(379.5 200)"/>
</clipPath>
<clipPath id="clip86_603_100286">
<rect width="7.85552" height="7.5" fill="white" transform="translate(316 219)"/>
</clipPath>
<clipPath id="clip87_603_100286">
<rect width="7.85552" height="7.5" fill="white" transform="translate(421.5 200)"/>
</clipPath>
<clipPath id="clip88_603_100286">
<rect width="7.85552" height="7.5" fill="white" transform="translate(401 219)"/>
</clipPath>
<clipPath id="clip89_603_100286">
<rect width="7.85552" height="7.5" fill="white" transform="translate(379.5 219)"/>
</clipPath>
<clipPath id="clip90_603_100286">
<rect width="7.85552" height="7.5" fill="white" transform="translate(401 238)"/>
</clipPath>
<clipPath id="clip91_603_100286">
<rect width="7.85552" height="7.5" fill="white" transform="translate(401 257.5)"/>
</clipPath>
<clipPath id="clip92_603_100286">
<rect width="7.85552" height="7.5" fill="white" transform="translate(316 238)"/>
</clipPath>
<clipPath id="clip93_603_100286">
<rect width="7.85552" height="7.5" fill="white" transform="translate(443 219)"/>
</clipPath>
<clipPath id="clip94_603_100286">
<rect width="7.85552" height="7.5" fill="white" transform="translate(379.5 238)"/>
</clipPath>
<clipPath id="clip95_603_100286">
<rect width="7.85552" height="7.5" fill="white" transform="translate(443 238)"/>
</clipPath>
<clipPath id="clip96_603_100286">
<rect width="7.85552" height="7.5" fill="white" transform="translate(443 257.5)"/>
</clipPath>
<clipPath id="clip97_603_100286">
<rect width="7.85552" height="7.5" fill="white" transform="translate(401 295.5)"/>
</clipPath>
<clipPath id="clip98_603_100286">
<rect width="7.85552" height="7.5" fill="white" transform="translate(401 331.5)"/>
</clipPath>
<clipPath id="clip99_603_100286">
<rect width="7.85552" height="7.5" fill="white" transform="translate(379.5 257.5)"/>
</clipPath>
<clipPath id="clip100_603_100286">
<rect width="7.85552" height="7.5" fill="white" transform="translate(358 124)"/>
</clipPath>
<clipPath id="clip101_603_100286">
<rect width="10.2186" height="9.7561" fill="white" transform="translate(421.5 219)"/>
</clipPath>
<clipPath id="clip102_603_100286">
<rect width="7.85552" height="7.5" fill="white" transform="translate(273 257)"/>
</clipPath>
<clipPath id="clip103_603_100286">
<rect width="7.85552" height="7.5" fill="white" transform="translate(421.5 238)"/>
</clipPath>
<clipPath id="clip104_603_100286">
<rect width="7.85552" height="7.5" fill="white" transform="translate(421.5 257.5)"/>
</clipPath>
<clipPath id="clip105_603_100286">
<rect width="7.85552" height="7.5" fill="white" transform="translate(421.5 277)"/>
</clipPath>
<clipPath id="clip106_603_100286">
<rect width="7.85552" height="7.5" fill="white" transform="translate(337.5 162)"/>
</clipPath>
<clipPath id="clip107_603_100286">
<rect width="7.85552" height="7.5" fill="white" transform="translate(252.5 219)"/>
</clipPath>
<clipPath id="clip108_603_100286">
<rect width="7.85552" height="7.5" fill="white" transform="translate(337.5 181)"/>
</clipPath>
<clipPath id="clip109_603_100286">
<rect width="7.85552" height="7.5" fill="white" transform="translate(294.5 219)"/>
</clipPath>
<clipPath id="clip110_603_100286">
<rect width="7.85552" height="7.5" fill="white" transform="translate(337.5 200)"/>
</clipPath>
<clipPath id="clip111_603_100286">
<rect width="7.85552" height="7.5" fill="white" transform="translate(190 238)"/>
</clipPath>
<clipPath id="clip112_603_100286">
<rect width="7.85552" height="7.5" fill="white" transform="translate(252.5 238)"/>
</clipPath>
<clipPath id="clip113_603_100286">
<rect width="7.85552" height="7.5" fill="white" transform="translate(294.5 238)"/>
</clipPath>
<clipPath id="clip114_603_100286">
<rect width="7.85552" height="7.5" fill="white" transform="translate(252.5 257)"/>
</clipPath>
<clipPath id="clip115_603_100286">
<rect width="7.85552" height="7.5" fill="white" transform="translate(148 276)"/>
</clipPath>
<clipPath id="clip116_603_100286">
<rect width="7.85552" height="7.5" fill="white" transform="translate(232 346)"/>
</clipPath>
<clipPath id="clip117_603_100286">
<rect width="7.85552" height="7.5" fill="white" transform="translate(232 384.5)"/>
</clipPath>
</defs>
</svg>
