<svg width="1478" height="707" viewBox="0 0 1478 707" fill="none" xmlns="http://www.w3.org/2000/svg">
<g clip-path="url(#clip0_378_62179)">
<path d="M598.545 338.859C598.324 339.141 597.877 338.983 597.877 338.63V335.223C597.877 334.81 597.541 334.474 597.128 334.474H593.368C593.066 334.474 592.887 334.129 593.066 333.882L595.539 330.421C595.893 329.927 595.539 329.237 594.931 329.237H590.375C590.072 329.237 589.894 328.892 590.072 328.645L593.279 324.158C593.351 324.06 593.462 324 593.581 324H603.135C603.438 324 603.616 324.345 603.438 324.592L600.964 328.053C600.61 328.547 600.964 329.237 601.573 329.237H605.332C605.643 329.237 605.818 329.595 605.626 329.842L598.541 338.859H598.545Z" transform="translate(590 324) scale(1.018395 1.000000) translate(-590 -324)" fill="#863BFF"/>
</g>
<g clip-path="url(#clip1_378_62179)">
<path d="M598.545 414.859C598.324 415.141 597.877 414.983 597.877 414.63V411.223C597.877 410.81 597.541 410.474 597.128 410.474H593.368C593.066 410.474 592.887 410.129 593.066 409.882L595.539 406.421C595.893 405.927 595.539 405.237 594.931 405.237H590.375C590.072 405.237 589.894 404.892 590.072 404.645L593.279 400.158C593.351 400.06 593.462 400 593.581 400H603.135C603.438 400 603.616 400.345 603.438 400.592L600.964 404.053C600.61 404.547 600.964 405.237 601.573 405.237H605.332C605.643 405.237 605.818 405.595 605.626 405.842L598.541 414.859H598.545Z" transform="translate(590 400) scale(1.018395 1.000000) translate(-590 -400)" fill="#863BFF"/>
</g>
<g clip-path="url(#clip2_378_62179)">
<path d="M842.014 336.929L842 329.036C842 328.848 842.07 328.679 842.158 328.619C842.27 328.537 842.567 328.4 842.739 328.523L848.219 332.438C848.786 332.84 849.474 332.653 849.809 332.062L854.229 324.298C854.34 324.105 854.512 324 854.74 324H861.889C862.102 324 862.261 324.114 862.33 324.215C862.423 324.357 862.488 324.563 862.372 324.769L851.868 343.173C851.719 343.494 851.352 343.617 851.059 343.407L842.014 336.929Z" transform="translate(842 324) scale(0.782890 0.820000) translate(-842 -324)" fill="#00F97A"/>
</g>
<g clip-path="url(#clip3_378_62179)">
<path d="M850.545 414.859C850.324 415.141 849.877 414.983 849.877 414.63V411.223C849.877 410.81 849.541 410.474 849.128 410.474H845.368C845.066 410.474 844.887 410.129 845.066 409.882L847.539 406.421C847.893 405.927 847.539 405.237 846.931 405.237H842.375C842.072 405.237 841.894 404.892 842.072 404.645L845.279 400.158C845.351 400.06 845.462 400 845.581 400H855.135C855.438 400 855.616 400.345 855.438 400.592L852.964 404.053C852.61 404.547 852.964 405.237 853.573 405.237H857.332C857.643 405.237 857.818 405.595 857.626 405.842L850.541 414.859H850.545Z" transform="translate(842 400) scale(1.018395 1.000000) translate(-842 -400)" fill="#863BFF"/>
</g>
<g clip-path="url(#clip4_378_62179)">
<path d="M680.545 414.859C680.324 415.141 679.877 414.983 679.877 414.63V411.223C679.877 410.81 679.541 410.474 679.128 410.474H675.368C675.066 410.474 674.887 410.129 675.066 409.882L677.539 406.421C677.893 405.927 677.539 405.237 676.931 405.237H672.375C672.072 405.237 671.894 404.892 672.072 404.645L675.279 400.158C675.351 400.06 675.462 400 675.581 400H685.135C685.438 400 685.616 400.345 685.438 400.592L682.964 404.053C682.61 404.547 682.964 405.237 683.573 405.237H687.332C687.643 405.237 687.818 405.595 687.626 405.842L680.541 414.859H680.545Z" transform="translate(672 400) scale(1.018395 1.000000) translate(-672 -400)" fill="#863BFF"/>
</g>
<g clip-path="url(#clip5_378_62179)">
<path d="M766.545 376.859C766.324 377.141 765.877 376.983 765.877 376.63V373.223C765.877 372.81 765.541 372.474 765.128 372.474H761.368C761.066 372.474 760.887 372.129 761.066 371.882L763.539 368.421C763.893 367.927 763.539 367.237 762.931 367.237H758.375C758.072 367.237 757.894 366.892 758.072 366.645L761.279 362.158C761.351 362.06 761.462 362 761.581 362H771.135C771.438 362 771.616 362.345 771.438 362.592L768.964 366.053C768.61 366.547 768.964 367.237 769.573 367.237H773.332C773.643 367.237 773.818 367.595 773.626 367.842L766.541 376.859H766.545Z" transform="translate(758 362) scale(1.018395 1.000000) translate(-758 -362)" fill="#863BFF"/>
</g>
<g clip-path="url(#clip6_378_62179)">
<path d="M893.545 376.859C893.324 377.141 892.877 376.983 892.877 376.63V373.223C892.877 372.81 892.541 372.474 892.128 372.474H888.368C888.066 372.474 887.887 372.129 888.066 371.882L890.539 368.421C890.893 367.927 890.539 367.237 889.931 367.237H885.375C885.072 367.237 884.894 366.892 885.072 366.645L888.279 362.158C888.351 362.06 888.462 362 888.581 362H898.135C898.438 362 898.616 362.345 898.438 362.592L895.964 366.053C895.61 366.547 895.964 367.237 896.573 367.237H900.332C900.643 367.237 900.818 367.595 900.626 367.842L893.541 376.859H893.545Z" transform="translate(885 362) scale(1.018395 1.000000) translate(-885 -362)" fill="#863BFF"/>
</g>
<g clip-path="url(#clip7_378_62179)">
<path d="M936.545 376.859C936.324 377.141 935.877 376.983 935.877 376.63V373.223C935.877 372.81 935.541 372.474 935.128 372.474H931.368C931.066 372.474 930.887 372.129 931.066 371.882L933.539 368.421C933.893 367.927 933.539 367.237 932.931 367.237H928.375C928.072 367.237 927.894 366.892 928.072 366.645L931.279 362.158C931.351 362.06 931.462 362 931.581 362H941.135C941.438 362 941.616 362.345 941.438 362.592L938.964 366.053C938.61 366.547 938.964 367.237 939.573 367.237H943.332C943.643 367.237 943.818 367.595 943.626 367.842L936.541 376.859H936.545Z" transform="translate(928 362) scale(1.018395 1.000000) translate(-928 -362)" fill="#863BFF"/>
</g>
<g clip-path="url(#clip8_378_62179)">
<path d="M1020.55 376.859C1020.32 377.141 1019.88 376.983 1019.88 376.63V373.223C1019.88 372.81 1019.54 372.474 1019.13 372.474H1015.37C1015.07 372.474 1014.89 372.129 1015.07 371.882L1017.54 368.421C1017.89 367.927 1017.54 367.237 1016.93 367.237H1012.37C1012.07 367.237 1011.89 366.892 1012.07 366.645L1015.28 362.158C1015.35 362.06 1015.46 362 1015.58 362H1025.14C1025.44 362 1025.62 362.345 1025.44 362.592L1022.96 366.053C1022.61 366.547 1022.96 367.237 1023.57 367.237H1027.33C1027.64 367.237 1027.82 367.595 1027.63 367.842L1020.54 376.859H1020.55Z" transform="translate(1012 362) scale(1.018395 1.000000) translate(-1012 -362)" fill="#863BFF"/>
</g>
<g clip-path="url(#clip9_378_62179)">
<path d="M977.545 376.859C977.324 377.141 976.877 376.983 976.877 376.63V373.223C976.877 372.81 976.541 372.474 976.128 372.474H972.368C972.066 372.474 971.887 372.129 972.066 371.882L974.539 368.421C974.893 367.927 974.539 367.237 973.931 367.237H969.375C969.072 367.237 968.894 366.892 969.072 366.645L972.279 362.158C972.351 362.06 972.462 362 972.581 362H982.135C982.438 362 982.616 362.345 982.438 362.592L979.964 366.053C979.61 366.547 979.964 367.237 980.573 367.237H984.332C984.643 367.237 984.818 367.595 984.626 367.842L977.541 376.859H977.545Z" transform="translate(969 362) scale(1.018395 1.000000) translate(-969 -362)" fill="#863BFF"/>
</g>
<g clip-path="url(#clip10_378_62179)">
<path d="M977.545 338.859C977.324 339.141 976.877 338.983 976.877 338.63V335.223C976.877 334.81 976.541 334.474 976.128 334.474H972.368C972.066 334.474 971.887 334.129 972.066 333.882L974.539 330.421C974.893 329.927 974.539 329.237 973.931 329.237H969.375C969.072 329.237 968.894 328.892 969.072 328.645L972.279 324.158C972.351 324.06 972.462 324 972.581 324H982.135C982.438 324 982.616 324.345 982.438 324.592L979.964 328.053C979.61 328.547 979.964 329.237 980.573 329.237H984.332C984.643 329.237 984.818 329.595 984.626 329.842L977.541 338.859H977.545Z" transform="translate(969 324) scale(1.018395 1.000000) translate(-969 -324)" fill="#863BFF"/>
</g>
<g clip-path="url(#clip11_378_62179)">
<path d="M936.545 249.859C936.324 250.141 935.877 249.983 935.877 249.63V246.223C935.877 245.81 935.541 245.474 935.128 245.474H931.368C931.066 245.474 930.887 245.129 931.066 244.882L933.539 241.421C933.893 240.927 933.539 240.237 932.931 240.237H928.375C928.072 240.237 927.894 239.892 928.072 239.645L931.279 235.158C931.351 235.06 931.462 235 931.581 235H941.135C941.438 235 941.616 235.345 941.438 235.592L938.964 239.053C938.61 239.547 938.964 240.237 939.573 240.237H943.332C943.643 240.237 943.818 240.595 943.626 240.842L936.541 249.859H936.545Z" transform="translate(928 235) scale(1.018395 1.000000) translate(-928 -235)" fill="#863BFF"/>
</g>
<g clip-path="url(#clip12_378_62179)">
<path d="M893.545 206.859C893.324 207.141 892.877 206.983 892.877 206.63V203.223C892.877 202.81 892.541 202.474 892.128 202.474H888.368C888.066 202.474 887.887 202.129 888.066 201.882L890.539 198.421C890.893 197.927 890.539 197.237 889.931 197.237H885.375C885.072 197.237 884.894 196.892 885.072 196.645L888.279 192.158C888.351 192.06 888.462 192 888.581 192H898.135C898.438 192 898.616 192.345 898.438 192.592L895.964 196.053C895.61 196.547 895.964 197.237 896.573 197.237H900.332C900.643 197.237 900.818 197.595 900.626 197.842L893.541 206.859H893.545Z" transform="translate(885 192) scale(1.018395 1.000000) translate(-885 -192)" fill="#863BFF"/>
</g>
<g clip-path="url(#clip13_378_62179)">
<path d="M858.545 171.859C858.324 172.141 857.877 171.983 857.877 171.63V168.223C857.877 167.81 857.541 167.474 857.128 167.474H853.368C853.066 167.474 852.887 167.129 853.066 166.882L855.539 163.421C855.893 162.927 855.539 162.237 854.931 162.237H850.375C850.072 162.237 849.894 161.892 850.072 161.645L853.279 157.158C853.351 157.06 853.462 157 853.581 157H863.135C863.438 157 863.616 157.345 863.438 157.592L860.964 161.053C860.61 161.547 860.964 162.237 861.573 162.237H865.332C865.643 162.237 865.818 162.595 865.626 162.842L858.541 171.859H858.545Z" transform="translate(850 157) scale(1.018395 1.000000) translate(-850 -157)" fill="#863BFF"/>
</g>
<g clip-path="url(#clip14_378_62179)">
<path d="M901.545 99.8595C901.324 100.141 900.877 99.983 900.877 99.6296V96.2234C900.877 95.8104 900.541 95.474 900.128 95.474H896.368C896.066 95.474 895.887 95.1292 896.066 94.8822L898.539 91.4207C898.893 90.9268 898.539 90.237 897.931 90.237H893.375C893.072 90.237 892.894 89.8921 893.072 89.6452L896.279 85.1575C896.351 85.0596 896.462 85 896.581 85H906.135C906.438 85 906.616 85.3449 906.438 85.5918L903.964 89.0534C903.61 89.5473 903.964 90.237 904.573 90.237H908.332C908.643 90.237 908.818 90.5947 908.626 90.8416L901.541 99.8595H901.545Z" transform="translate(893 85) scale(1.018395 1.000000) translate(-893 -85)" fill="#863BFF"/>
</g>
<g clip-path="url(#clip15_378_62179)">
<path d="M936.545 69.8595C936.324 70.1405 935.877 69.983 935.877 69.6296V66.2234C935.877 65.8104 935.541 65.474 935.128 65.474H931.368C931.066 65.474 930.887 65.1292 931.066 64.8822L933.539 61.4207C933.893 60.9268 933.539 60.237 932.931 60.237H928.375C928.072 60.237 927.894 59.8921 928.072 59.6452L931.279 55.1575C931.351 55.0596 931.462 55 931.581 55H941.135C941.438 55 941.616 55.3449 941.438 55.5918L938.964 59.0534C938.61 59.5473 938.964 60.237 939.573 60.237H943.332C943.643 60.237 943.818 60.5947 943.626 60.8416L936.541 69.8595H936.545Z" transform="translate(928 55) scale(1.018395 1.000000) translate(-928 -55)" fill="#863BFF"/>
</g>
<g clip-path="url(#clip16_378_62179)">
<path d="M995.545 44.8595C995.324 45.1405 994.877 44.983 994.877 44.6296V41.2234C994.877 40.8104 994.541 40.474 994.128 40.474H990.368C990.066 40.474 989.887 40.1292 990.066 39.8822L992.539 36.4207C992.893 35.9268 992.539 35.237 991.931 35.237H987.375C987.072 35.237 986.894 34.8921 987.072 34.6452L990.279 30.1575C990.351 30.0596 990.462 30 990.581 30H1000.14C1000.44 30 1000.62 30.3449 1000.44 30.5918L997.964 34.0534C997.61 34.5473 997.964 35.237 998.573 35.237H1002.33C1002.64 35.237 1002.82 35.5947 1002.63 35.8416L995.541 44.8595H995.545Z" transform="translate(987 30) scale(1.018395 1.000000) translate(-987 -30)" fill="#863BFF"/>
</g>
<g clip-path="url(#clip17_378_62179)">
<path d="M976.545 156.859C976.324 157.141 975.877 156.983 975.877 156.63V153.223C975.877 152.81 975.541 152.474 975.128 152.474H971.368C971.066 152.474 970.887 152.129 971.066 151.882L973.539 148.421C973.893 147.927 973.539 147.237 972.931 147.237H968.375C968.072 147.237 967.894 146.892 968.072 146.645L971.279 142.158C971.351 142.06 971.462 142 971.581 142H981.135C981.438 142 981.616 142.345 981.438 142.592L978.964 146.053C978.61 146.547 978.964 147.237 979.573 147.237H983.332C983.643 147.237 983.818 147.595 983.626 147.842L976.541 156.859H976.545Z" transform="translate(968 142) scale(1.018395 1.000000) translate(-968 -142)" fill="#863BFF"/>
</g>
<g clip-path="url(#clip18_378_62179)">
<path d="M1192.55 153.859C1192.32 154.141 1191.88 153.983 1191.88 153.63V150.223C1191.88 149.81 1191.54 149.474 1191.13 149.474H1187.37C1187.07 149.474 1186.89 149.129 1187.07 148.882L1189.54 145.421C1189.89 144.927 1189.54 144.237 1188.93 144.237H1184.37C1184.07 144.237 1183.89 143.892 1184.07 143.645L1187.28 139.158C1187.35 139.06 1187.46 139 1187.58 139H1197.14C1197.44 139 1197.62 139.345 1197.44 139.592L1194.96 143.053C1194.61 143.547 1194.96 144.237 1195.57 144.237H1199.33C1199.64 144.237 1199.82 144.595 1199.63 144.842L1192.54 153.859H1192.55Z" transform="translate(1184 139) scale(1.018395 1.000000) translate(-1184 -139)" fill="#863BFF"/>
</g>
<g clip-path="url(#clip19_378_62179)">
<path d="M1315.55 110.859C1315.32 111.141 1314.88 110.983 1314.88 110.63V107.223C1314.88 106.81 1314.54 106.474 1314.13 106.474H1310.37C1310.07 106.474 1309.89 106.129 1310.07 105.882L1312.54 102.421C1312.89 101.927 1312.54 101.237 1311.93 101.237H1307.37C1307.07 101.237 1306.89 100.892 1307.07 100.645L1310.28 96.1575C1310.35 96.0596 1310.46 96 1310.58 96H1320.14C1320.44 96 1320.62 96.3449 1320.44 96.5918L1317.96 100.053C1317.61 100.547 1317.96 101.237 1318.57 101.237H1322.33C1322.64 101.237 1322.82 101.595 1322.63 101.842L1315.54 110.859H1315.55Z" transform="translate(1307 96) scale(1.018395 1.000000) translate(-1307 -96)" fill="#863BFF"/>
</g>
<g clip-path="url(#clip20_378_62179)">
<path d="M1272.55 214.859C1272.32 215.141 1271.88 214.983 1271.88 214.63V211.223C1271.88 210.81 1271.54 210.474 1271.13 210.474H1267.37C1267.07 210.474 1266.89 210.129 1267.07 209.882L1269.54 206.421C1269.89 205.927 1269.54 205.237 1268.93 205.237H1264.37C1264.07 205.237 1263.89 204.892 1264.07 204.645L1267.28 200.158C1267.35 200.06 1267.46 200 1267.58 200H1277.14C1277.44 200 1277.62 200.345 1277.44 200.592L1274.96 204.053C1274.61 204.547 1274.96 205.237 1275.57 205.237H1279.33C1279.64 205.237 1279.82 205.595 1279.63 205.842L1272.54 214.859H1272.55Z" transform="translate(1264 200) scale(1.018395 1.000000) translate(-1264 -200)" fill="#863BFF"/>
</g>
<g clip-path="url(#clip21_378_62179)">
<path d="M1272.55 706.859C1272.32 707.141 1271.88 706.983 1271.88 706.63V703.223C1271.88 702.81 1271.54 702.474 1271.13 702.474H1267.37C1267.07 702.474 1266.89 702.129 1267.07 701.882L1269.54 698.421C1269.89 697.927 1269.54 697.237 1268.93 697.237H1264.37C1264.07 697.237 1263.89 696.892 1264.07 696.645L1267.28 692.158C1267.35 692.06 1267.46 692 1267.58 692H1277.14C1277.44 692 1277.62 692.345 1277.44 692.592L1274.96 696.053C1274.61 696.547 1274.96 697.237 1275.57 697.237H1279.33C1279.64 697.237 1279.82 697.595 1279.63 697.842L1272.54 706.859H1272.55Z" transform="translate(1264 692) scale(1.018395 1.000000) translate(-1264 -692)" fill="#863BFF"/>
</g>
<g clip-path="url(#clip22_378_62179)">
<path d="M1429.01 104.929L1429 97.036C1429 96.8483 1429.07 96.6789 1429.16 96.6194C1429.27 96.537 1429.57 96.3996 1429.74 96.5232L1435.22 100.438C1435.79 100.84 1436.47 100.653 1436.81 100.062L1441.23 92.2976C1441.34 92.1053 1441.51 92 1441.74 92H1448.89C1449.1 92 1449.26 92.1145 1449.33 92.2152C1449.42 92.3571 1449.49 92.5631 1449.37 92.7691L1438.87 111.173C1438.72 111.494 1438.35 111.617 1438.06 111.407L1429.01 104.929Z" transform="translate(1429 92) scale(0.782890 0.820000) translate(-1429 -92)" fill="#00F97A"/>
</g>
<g clip-path="url(#clip23_378_62179)">
<path d="M1088.01 75.9288L1088 68.036C1088 67.8483 1088.07 67.6789 1088.16 67.6194C1088.27 67.537 1088.57 67.3996 1088.74 67.5232L1094.22 71.4376C1094.79 71.8405 1095.47 71.6528 1095.81 71.0622L1100.23 63.2976C1100.34 63.1053 1100.51 63 1100.74 63H1107.89C1108.1 63 1108.26 63.1145 1108.33 63.2152C1108.42 63.3571 1108.49 63.5631 1108.37 63.7691L1097.87 82.1734C1097.72 82.4939 1097.35 82.6175 1097.06 82.4069L1088.01 75.9288Z" transform="translate(1088 63) scale(0.782890 0.820000) translate(-1088 -63)" fill="#00F97A"/>
</g>
<g clip-path="url(#clip24_378_62179)">
<path d="M1053.55 33.8595C1053.32 34.1405 1052.88 33.983 1052.88 33.6296V30.2234C1052.88 29.8104 1052.54 29.474 1052.13 29.474H1048.37C1048.07 29.474 1047.89 29.1292 1048.07 28.8822L1050.54 25.4207C1050.89 24.9268 1050.54 24.237 1049.93 24.237H1045.37C1045.07 24.237 1044.89 23.8921 1045.07 23.6452L1048.28 19.1575C1048.35 19.0596 1048.46 19 1048.58 19H1058.14C1058.44 19 1058.62 19.3449 1058.44 19.5918L1055.96 23.0534C1055.61 23.5473 1055.96 24.237 1056.57 24.237H1060.33C1060.64 24.237 1060.82 24.5947 1060.63 24.8416L1053.54 33.8595H1053.55Z" transform="translate(1045 19) scale(1.018395 1.000000) translate(-1045 -19)" fill="#863BFF"/>
</g>
<g clip-path="url(#clip25_378_62179)">
<path d="M1152.55 52.8595C1152.32 53.1405 1151.88 52.983 1151.88 52.6296V49.2234C1151.88 48.8104 1151.54 48.474 1151.13 48.474H1147.37C1147.07 48.474 1146.89 48.1292 1147.07 47.8822L1149.54 44.4207C1149.89 43.9268 1149.54 43.237 1148.93 43.237H1144.37C1144.07 43.237 1143.89 42.8921 1144.07 42.6452L1147.28 38.1575C1147.35 38.0596 1147.46 38 1147.58 38H1157.14C1157.44 38 1157.62 38.3449 1157.44 38.5918L1154.96 42.0534C1154.61 42.5473 1154.96 43.237 1155.57 43.237H1159.33C1159.64 43.237 1159.82 43.5947 1159.63 43.8416L1152.54 52.8595H1152.55Z" transform="translate(1144 38) scale(1.018395 1.000000) translate(-1144 -38)" fill="#863BFF"/>
</g>
<g clip-path="url(#clip26_378_62179)">
<path d="M1192.55 69.8595C1192.32 70.1405 1191.88 69.983 1191.88 69.6296V66.2234C1191.88 65.8104 1191.54 65.474 1191.13 65.474H1187.37C1187.07 65.474 1186.89 65.1292 1187.07 64.8822L1189.54 61.4207C1189.89 60.9268 1189.54 60.237 1188.93 60.237H1184.37C1184.07 60.237 1183.89 59.8921 1184.07 59.6452L1187.28 55.1575C1187.35 55.0596 1187.46 55 1187.58 55H1197.14C1197.44 55 1197.62 55.3449 1197.44 55.5918L1194.96 59.0534C1194.61 59.5473 1194.96 60.237 1195.57 60.237H1199.33C1199.64 60.237 1199.82 60.5947 1199.63 60.8416L1192.54 69.8595H1192.55Z" transform="translate(1184 55) scale(1.018395 1.000000) translate(-1184 -55)" fill="#863BFF"/>
</g>
<g clip-path="url(#clip27_378_62179)">
<path d="M1232.55 67.8595C1232.32 68.1405 1231.88 67.983 1231.88 67.6296V64.2234C1231.88 63.8104 1231.54 63.474 1231.13 63.474H1227.37C1227.07 63.474 1226.89 63.1292 1227.07 62.8822L1229.54 59.4207C1229.89 58.9268 1229.54 58.237 1228.93 58.237H1224.37C1224.07 58.237 1223.89 57.8921 1224.07 57.6452L1227.28 53.1575C1227.35 53.0596 1227.46 53 1227.58 53H1237.14C1237.44 53 1237.62 53.3449 1237.44 53.5918L1234.96 57.0534C1234.61 57.5473 1234.96 58.237 1235.57 58.237H1239.33C1239.64 58.237 1239.82 58.5947 1239.63 58.8416L1232.54 67.8595H1232.55Z" transform="translate(1224 53) scale(1.018395 1.000000) translate(-1224 -53)" fill="#863BFF"/>
</g>
<g clip-path="url(#clip28_378_62179)">
<path d="M1275.55 52.8595C1275.32 53.1405 1274.88 52.983 1274.88 52.6296V49.2234C1274.88 48.8104 1274.54 48.474 1274.13 48.474H1270.37C1270.07 48.474 1269.89 48.1292 1270.07 47.8822L1272.54 44.4207C1272.89 43.9268 1272.54 43.237 1271.93 43.237H1267.37C1267.07 43.237 1266.89 42.8921 1267.07 42.6452L1270.28 38.1575C1270.35 38.0596 1270.46 38 1270.58 38H1280.14C1280.44 38 1280.62 38.3449 1280.44 38.5918L1277.96 42.0534C1277.61 42.5473 1277.96 43.237 1278.57 43.237H1282.33C1282.64 43.237 1282.82 43.5947 1282.63 43.8416L1275.54 52.8595H1275.55Z" transform="translate(1267 38) scale(1.018395 1.000000) translate(-1267 -38)" fill="#863BFF"/>
</g>
<g clip-path="url(#clip29_378_62179)">
<path d="M1318.55 62.8595C1318.32 63.1405 1317.88 62.983 1317.88 62.6296V59.2234C1317.88 58.8104 1317.54 58.474 1317.13 58.474H1313.37C1313.07 58.474 1312.89 58.1292 1313.07 57.8822L1315.54 54.4207C1315.89 53.9268 1315.54 53.237 1314.93 53.237H1310.37C1310.07 53.237 1309.89 52.8921 1310.07 52.6452L1313.28 48.1575C1313.35 48.0596 1313.46 48 1313.58 48H1323.14C1323.44 48 1323.62 48.3449 1323.44 48.5918L1320.96 52.0534C1320.61 52.5473 1320.96 53.237 1321.57 53.237H1325.33C1325.64 53.237 1325.82 53.5947 1325.63 53.8416L1318.54 62.8595H1318.55Z" transform="translate(1310 48) scale(1.018395 1.000000) translate(-1310 -48)" fill="#863BFF"/>
</g>
<g clip-path="url(#clip30_378_62179)">
<path d="M1359.55 44.8595C1359.32 45.1405 1358.88 44.983 1358.88 44.6296V41.2234C1358.88 40.8104 1358.54 40.474 1358.13 40.474H1354.37C1354.07 40.474 1353.89 40.1292 1354.07 39.8822L1356.54 36.4207C1356.89 35.9268 1356.54 35.237 1355.93 35.237H1351.37C1351.07 35.237 1350.89 34.8921 1351.07 34.6452L1354.28 30.1575C1354.35 30.0596 1354.46 30 1354.58 30H1364.14C1364.44 30 1364.62 30.3449 1364.44 30.5918L1361.96 34.0534C1361.61 34.5473 1361.96 35.237 1362.57 35.237H1366.33C1366.64 35.237 1366.82 35.5947 1366.63 35.8416L1359.54 44.8595H1359.55Z" transform="translate(1351 30) scale(1.018395 1.000000) translate(-1351 -30)" fill="#863BFF"/>
</g>
<g clip-path="url(#clip31_378_62179)">
<path d="M1402.55 29.8595C1402.32 30.1405 1401.88 29.983 1401.88 29.6296V26.2234C1401.88 25.8104 1401.54 25.474 1401.13 25.474H1397.37C1397.07 25.474 1396.89 25.1292 1397.07 24.8822L1399.54 21.4207C1399.89 20.9268 1399.54 20.237 1398.93 20.237H1394.37C1394.07 20.237 1393.89 19.8921 1394.07 19.6452L1397.28 15.1575C1397.35 15.0596 1397.46 15 1397.58 15H1407.14C1407.44 15 1407.62 15.3449 1407.44 15.5918L1404.96 19.0534C1404.61 19.5473 1404.96 20.237 1405.57 20.237H1409.33C1409.64 20.237 1409.82 20.5947 1409.63 20.8416L1402.54 29.8595H1402.55Z" transform="translate(1394 15) scale(1.018395 1.000000) translate(-1394 -15)" fill="#863BFF"/>
</g>
<g clip-path="url(#clip32_378_62179)">
<path d="M1442.55 33.8595C1442.32 34.1405 1441.88 33.983 1441.88 33.6296V30.2234C1441.88 29.8104 1441.54 29.474 1441.13 29.474H1437.37C1437.07 29.474 1436.89 29.1292 1437.07 28.8822L1439.54 25.4207C1439.89 24.9268 1439.54 24.237 1438.93 24.237H1434.37C1434.07 24.237 1433.89 23.8921 1434.07 23.6452L1437.28 19.1575C1437.35 19.0596 1437.46 19 1437.58 19H1447.14C1447.44 19 1447.62 19.3449 1447.44 19.5918L1444.96 23.0534C1444.61 23.5473 1444.96 24.237 1445.57 24.237H1449.33C1449.64 24.237 1449.82 24.5947 1449.63 24.8416L1442.54 33.8595H1442.55Z" transform="translate(1434 19) scale(1.018395 1.000000) translate(-1434 -19)" fill="#863BFF"/>
</g>
<g clip-path="url(#clip33_378_62179)">
<path d="M1484.55 45.8595C1484.32 46.1405 1483.88 45.983 1483.88 45.6296V42.2234C1483.88 41.8104 1483.54 41.474 1483.13 41.474H1479.37C1479.07 41.474 1478.89 41.1292 1479.07 40.8822L1481.54 37.4207C1481.89 36.9268 1481.54 36.237 1480.93 36.237H1476.37C1476.07 36.237 1475.89 35.8921 1476.07 35.6452L1479.28 31.1575C1479.35 31.0596 1479.46 31 1479.58 31H1489.14C1489.44 31 1489.62 31.3449 1489.44 31.5918L1486.96 35.0534C1486.61 35.5473 1486.96 36.237 1487.57 36.237H1491.33C1491.64 36.237 1491.82 36.5947 1491.63 36.8416L1484.54 45.8595H1484.55Z" transform="translate(1476 31) scale(1.018395 1.000000) translate(-1476 -31)" fill="#863BFF"/>
</g>
<g clip-path="url(#clip34_378_62179)">
<path d="M809.545 300.859C809.324 301.141 808.877 300.983 808.877 300.63V297.223C808.877 296.81 808.541 296.474 808.128 296.474H804.368C804.066 296.474 803.887 296.129 804.066 295.882L806.539 292.421C806.893 291.927 806.539 291.237 805.931 291.237H801.375C801.072 291.237 800.894 290.892 801.072 290.645L804.279 286.158C804.351 286.06 804.462 286 804.581 286H814.135C814.438 286 814.616 286.345 814.438 286.592L811.964 290.053C811.61 290.547 811.964 291.237 812.573 291.237H816.332C816.643 291.237 816.818 291.595 816.626 291.842L809.541 300.859H809.545Z" transform="translate(801 286) scale(1.018395 1.000000) translate(-801 -286)" fill="#863BFF"/>
</g>
<g clip-path="url(#clip35_378_62179)">
<path d="M723.545 414.859C723.324 415.141 722.877 414.983 722.877 414.63V411.223C722.877 410.81 722.541 410.474 722.128 410.474H718.368C718.066 410.474 717.887 410.129 718.066 409.882L720.539 406.421C720.893 405.927 720.539 405.237 719.931 405.237H715.375C715.072 405.237 714.894 404.892 715.072 404.645L718.279 400.158C718.351 400.06 718.462 400 718.581 400H728.135C728.438 400 728.616 400.345 728.438 400.592L725.964 404.053C725.61 404.547 725.964 405.237 726.573 405.237H730.332C730.643 405.237 730.818 405.595 730.626 405.842L723.541 414.859H723.545Z" transform="translate(715 400) scale(1.018395 1.000000) translate(-715 -400)" fill="#863BFF"/>
</g>
<g clip-path="url(#clip36_378_62179)">
<path d="M514.545 338.859C514.324 339.141 513.877 338.983 513.877 338.63V335.223C513.877 334.81 513.54 334.474 513.127 334.474H509.368C509.065 334.474 508.887 334.129 509.065 333.882L511.539 330.421C511.893 329.927 511.539 329.237 510.93 329.237H506.375C506.072 329.237 505.893 328.892 506.072 328.645L509.278 324.158C509.351 324.06 509.461 324 509.581 324H519.135C519.437 324 519.616 324.345 519.437 324.592L516.964 328.053C516.61 328.547 516.964 329.237 517.572 329.237H521.332C521.643 329.237 521.817 329.595 521.626 329.842L514.541 338.859H514.545Z" transform="translate(506 324) scale(1.018395 1.000000) translate(-506 -324)" fill="#863BFF"/>
</g>
<g clip-path="url(#clip37_378_62179)">
<path d="M430.545 414.859C430.324 415.141 429.877 414.983 429.877 414.63V411.223C429.877 410.81 429.54 410.474 429.127 410.474H425.368C425.065 410.474 424.887 410.129 425.065 409.882L427.539 406.421C427.893 405.927 427.539 405.237 426.93 405.237H422.375C422.072 405.237 421.893 404.892 422.072 404.645L425.278 400.158C425.351 400.06 425.461 400 425.581 400H435.135C435.437 400 435.616 400.345 435.437 400.592L432.964 404.053C432.61 404.547 432.964 405.237 433.572 405.237H437.332C437.643 405.237 437.817 405.595 437.626 405.842L430.541 414.859H430.545Z" transform="translate(422 400) scale(1.018395 1.000000) translate(-422 -400)" fill="#863BFF"/>
</g>
<g clip-path="url(#clip38_378_62179)">
<path d="M344.545 376.859C344.324 377.141 343.877 376.983 343.877 376.63V373.223C343.877 372.81 343.54 372.474 343.127 372.474H339.368C339.065 372.474 338.887 372.129 339.065 371.882L341.539 368.421C341.893 367.927 341.539 367.237 340.93 367.237H336.375C336.072 367.237 335.893 366.892 336.072 366.645L339.278 362.158C339.351 362.06 339.461 362 339.581 362H349.135C349.437 362 349.616 362.345 349.437 362.592L346.964 366.053C346.61 366.547 346.964 367.237 347.572 367.237H351.332C351.643 367.237 351.817 367.595 351.626 367.842L344.541 376.859H344.545Z" transform="translate(336 362) scale(1.018395 1.000000) translate(-336 -362)" fill="#863BFF"/>
</g>
<g clip-path="url(#clip39_378_62179)">
<path d="M261.545 376.859C261.324 377.141 260.877 376.983 260.877 376.63V373.223C260.877 372.81 260.54 372.474 260.127 372.474H256.368C256.065 372.474 255.887 372.129 256.065 371.882L258.539 368.421C258.893 367.927 258.539 367.237 257.93 367.237H253.375C253.072 367.237 252.893 366.892 253.072 366.645L256.278 362.158C256.351 362.06 256.461 362 256.581 362H266.135C266.437 362 266.616 362.345 266.437 362.592L263.964 366.053C263.61 366.547 263.964 367.237 264.572 367.237H268.332C268.643 367.237 268.817 367.595 268.626 367.842L261.541 376.859H261.545Z" transform="translate(253 362) scale(1.018395 1.000000) translate(-253 -362)" fill="#863BFF"/>
</g>
<g clip-path="url(#clip40_378_62179)">
<path d="M261.545 452.859C261.324 453.141 260.877 452.983 260.877 452.63V449.223C260.877 448.81 260.54 448.474 260.127 448.474H256.368C256.065 448.474 255.887 448.129 256.065 447.882L258.539 444.421C258.893 443.927 258.539 443.237 257.93 443.237H253.375C253.072 443.237 252.893 442.892 253.072 442.645L256.278 438.158C256.351 438.06 256.461 438 256.581 438H266.135C266.437 438 266.616 438.345 266.437 438.592L263.964 442.053C263.61 442.547 263.964 443.237 264.572 443.237H268.332C268.643 443.237 268.817 443.595 268.626 443.842L261.541 452.859H261.545Z" transform="translate(253 438) scale(1.018395 1.000000) translate(-253 -438)" fill="#863BFF"/>
</g>
<g clip-path="url(#clip41_378_62179)">
<path d="M303.545 452.859C303.324 453.141 302.877 452.983 302.877 452.63V449.223C302.877 448.81 302.54 448.474 302.127 448.474H298.368C298.065 448.474 297.887 448.129 298.065 447.882L300.539 444.421C300.893 443.927 300.539 443.237 299.93 443.237H295.375C295.072 443.237 294.893 442.892 295.072 442.645L298.278 438.158C298.351 438.06 298.461 438 298.581 438H308.135C308.437 438 308.616 438.345 308.437 438.592L305.964 442.053C305.61 442.547 305.964 443.237 306.572 443.237H310.332C310.643 443.237 310.817 443.595 310.626 443.842L303.541 452.859H303.545Z" transform="translate(295 438) scale(1.018395 1.000000) translate(-295 -438)" fill="#863BFF"/>
</g>
<g clip-path="url(#clip42_378_62179)">
<path d="M303.545 414.859C303.324 415.141 302.877 414.983 302.877 414.63V411.223C302.877 410.81 302.54 410.474 302.127 410.474H298.368C298.065 410.474 297.887 410.129 298.065 409.882L300.539 406.421C300.893 405.927 300.539 405.237 299.93 405.237H295.375C295.072 405.237 294.893 404.892 295.072 404.645L298.278 400.158C298.351 400.06 298.461 400 298.581 400H308.135C308.437 400 308.616 400.345 308.437 400.592L305.964 404.053C305.61 404.547 305.964 405.237 306.572 405.237H310.332C310.643 405.237 310.817 405.595 310.626 405.842L303.541 414.859H303.545Z" transform="translate(295 400) scale(1.018395 1.000000) translate(-295 -400)" fill="#863BFF"/>
</g>
<g clip-path="url(#clip43_378_62179)">
<path d="M345.545 452.859C345.324 453.141 344.877 452.983 344.877 452.63V449.223C344.877 448.81 344.54 448.474 344.127 448.474H340.368C340.065 448.474 339.887 448.129 340.065 447.882L342.539 444.421C342.893 443.927 342.539 443.237 341.93 443.237H337.375C337.072 443.237 336.893 442.892 337.072 442.645L340.278 438.158C340.351 438.06 340.461 438 340.581 438H350.135C350.437 438 350.616 438.345 350.437 438.592L347.964 442.053C347.61 442.547 347.964 443.237 348.572 443.237H352.332C352.643 443.237 352.817 443.595 352.626 443.842L345.541 452.859H345.545Z" transform="translate(337 438) scale(1.018395 1.000000) translate(-337 -438)" fill="#863BFF"/>
</g>
<g clip-path="url(#clip44_378_62179)">
<path d="M345.545 414.859C345.324 415.141 344.877 414.983 344.877 414.63V411.223C344.877 410.81 344.54 410.474 344.127 410.474H340.368C340.065 410.474 339.887 410.129 340.065 409.882L342.539 406.421C342.893 405.927 342.539 405.237 341.93 405.237H337.375C337.072 405.237 336.893 404.892 337.072 404.645L340.278 400.158C340.351 400.06 340.461 400 340.581 400H350.135C350.437 400 350.616 400.345 350.437 400.592L347.964 404.053C347.61 404.547 347.964 405.237 348.572 405.237H352.332C352.643 405.237 352.817 405.595 352.626 405.842L345.541 414.859H345.545Z" transform="translate(337 400) scale(1.018395 1.000000) translate(-337 -400)" fill="#863BFF"/>
</g>
<g clip-path="url(#clip45_378_62179)">
<path d="M387.545 397.859C387.324 398.141 386.877 397.983 386.877 397.63V394.223C386.877 393.81 386.54 393.474 386.127 393.474H382.368C382.065 393.474 381.887 393.129 382.065 392.882L384.539 389.421C384.893 388.927 384.539 388.237 383.93 388.237H379.375C379.072 388.237 378.893 387.892 379.072 387.645L382.278 383.158C382.351 383.06 382.461 383 382.581 383H392.135C392.437 383 392.616 383.345 392.437 383.592L389.964 387.053C389.61 387.547 389.964 388.237 390.572 388.237H394.332C394.643 388.237 394.817 388.595 394.626 388.842L387.541 397.859H387.545Z" transform="translate(379 383) scale(1.018395 1.000000) translate(-379 -383)" fill="#863BFF"/>
</g>
<g clip-path="url(#clip46_378_62179)">
<path d="M387.545 452.859C387.324 453.141 386.877 452.983 386.877 452.63V449.223C386.877 448.81 386.54 448.474 386.127 448.474H382.368C382.065 448.474 381.887 448.129 382.065 447.882L384.539 444.421C384.893 443.927 384.539 443.237 383.93 443.237H379.375C379.072 443.237 378.893 442.892 379.072 442.645L382.278 438.158C382.351 438.06 382.461 438 382.581 438H392.135C392.437 438 392.616 438.345 392.437 438.592L389.964 442.053C389.61 442.547 389.964 443.237 390.572 443.237H394.332C394.643 443.237 394.817 443.595 394.626 443.842L387.541 452.859H387.545Z" transform="translate(379 438) scale(1.018395 1.000000) translate(-379 -438)" fill="#863BFF"/>
</g>
<g clip-path="url(#clip47_378_62179)">
<path d="M387.545 490.859C387.324 491.141 386.877 490.983 386.877 490.63V487.223C386.877 486.81 386.54 486.474 386.127 486.474H382.368C382.065 486.474 381.887 486.129 382.065 485.882L384.539 482.421C384.893 481.927 384.539 481.237 383.93 481.237H379.375C379.072 481.237 378.893 480.892 379.072 480.645L382.278 476.158C382.351 476.06 382.461 476 382.581 476H392.135C392.437 476 392.616 476.345 392.437 476.592L389.964 480.053C389.61 480.547 389.964 481.237 390.572 481.237H394.332C394.643 481.237 394.817 481.595 394.626 481.842L387.541 490.859H387.545Z" transform="translate(379 476) scale(1.018395 1.000000) translate(-379 -476)" fill="#863BFF"/>
</g>
<g clip-path="url(#clip48_378_62179)">
<path d="M387.545 530.859C387.324 531.141 386.877 530.983 386.877 530.63V527.223C386.877 526.81 386.54 526.474 386.127 526.474H382.368C382.065 526.474 381.887 526.129 382.065 525.882L384.539 522.421C384.893 521.927 384.539 521.237 383.93 521.237H379.375C379.072 521.237 378.893 520.892 379.072 520.645L382.278 516.158C382.351 516.06 382.461 516 382.581 516H392.135C392.437 516 392.616 516.345 392.437 516.592L389.964 520.053C389.61 520.547 389.964 521.237 390.572 521.237H394.332C394.643 521.237 394.817 521.595 394.626 521.842L387.541 530.859H387.545Z" transform="translate(379 516) scale(1.018395 1.000000) translate(-379 -516)" fill="#863BFF"/>
</g>
<g clip-path="url(#clip49_378_62179)">
<path d="M303.545 490.859C303.324 491.141 302.877 490.983 302.877 490.63V487.223C302.877 486.81 302.54 486.474 302.127 486.474H298.368C298.065 486.474 297.887 486.129 298.065 485.882L300.539 482.421C300.893 481.927 300.539 481.237 299.93 481.237H295.375C295.072 481.237 294.893 480.892 295.072 480.645L298.278 476.158C298.351 476.06 298.461 476 298.581 476H308.135C308.437 476 308.616 476.345 308.437 476.592L305.964 480.053C305.61 480.547 305.964 481.237 306.572 481.237H310.332C310.643 481.237 310.817 481.595 310.626 481.842L303.541 490.859H303.545Z" transform="translate(295 476) scale(1.018395 1.000000) translate(-295 -476)" fill="#863BFF"/>
</g>
<g clip-path="url(#clip50_378_62179)">
<path d="M303.545 530.859C303.324 531.141 302.877 530.983 302.877 530.63V527.223C302.877 526.81 302.54 526.474 302.127 526.474H298.368C298.065 526.474 297.887 526.129 298.065 525.882L300.539 522.421C300.893 521.927 300.539 521.237 299.93 521.237H295.375C295.072 521.237 294.893 520.892 295.072 520.645L298.278 516.158C298.351 516.06 298.461 516 298.581 516H308.135C308.437 516 308.616 516.345 308.437 516.592L305.964 520.053C305.61 520.547 305.964 521.237 306.572 521.237H310.332C310.643 521.237 310.817 521.595 310.626 521.842L303.541 530.859H303.545Z" transform="translate(295 516) scale(1.018395 1.000000) translate(-295 -516)" fill="#863BFF"/>
</g>
<g clip-path="url(#clip51_378_62179)">
<path d="M303.545 570.859C303.324 571.141 302.877 570.983 302.877 570.63V567.223C302.877 566.81 302.54 566.474 302.127 566.474H298.368C298.065 566.474 297.887 566.129 298.065 565.882L300.539 562.421C300.893 561.927 300.539 561.237 299.93 561.237H295.375C295.072 561.237 294.893 560.892 295.072 560.645L298.278 556.158C298.351 556.06 298.461 556 298.581 556H308.135C308.437 556 308.616 556.345 308.437 556.592L305.964 560.053C305.61 560.547 305.964 561.237 306.572 561.237H310.332C310.643 561.237 310.817 561.595 310.626 561.842L303.541 570.859H303.545Z" transform="translate(295 556) scale(1.018395 1.000000) translate(-295 -556)" fill="#863BFF"/>
</g>
<g clip-path="url(#clip52_378_62179)">
<path d="M261.545 490.859C261.324 491.141 260.877 490.983 260.877 490.63V487.223C260.877 486.81 260.54 486.474 260.127 486.474H256.368C256.065 486.474 255.887 486.129 256.065 485.882L258.539 482.421C258.893 481.927 258.539 481.237 257.93 481.237H253.375C253.072 481.237 252.893 480.892 253.072 480.645L256.278 476.158C256.351 476.06 256.461 476 256.581 476H266.135C266.437 476 266.616 476.345 266.437 476.592L263.964 480.053C263.61 480.547 263.964 481.237 264.572 481.237H268.332C268.643 481.237 268.817 481.595 268.626 481.842L261.541 490.859H261.545Z" transform="translate(253 476) scale(1.018395 1.000000) translate(-253 -476)" fill="#863BFF"/>
</g>
<g clip-path="url(#clip53_378_62179)">
<path d="M261.545 566.859C261.324 567.141 260.877 566.983 260.877 566.63V563.223C260.877 562.81 260.54 562.474 260.127 562.474H256.368C256.065 562.474 255.887 562.129 256.065 561.882L258.539 558.421C258.893 557.927 258.539 557.237 257.93 557.237H253.375C253.072 557.237 252.893 556.892 253.072 556.645L256.278 552.158C256.351 552.06 256.461 552 256.581 552H266.135C266.437 552 266.616 552.345 266.437 552.592L263.964 556.053C263.61 556.547 263.964 557.237 264.572 557.237H268.332C268.643 557.237 268.817 557.595 268.626 557.842L261.541 566.859H261.545Z" transform="translate(253 552) scale(1.018395 1.000000) translate(-253 -552)" fill="#863BFF"/>
</g>
<g clip-path="url(#clip54_378_62179)">
<path d="M208.014 528.929L208 521.036C208 520.848 208.07 520.679 208.158 520.619C208.27 520.537 208.567 520.4 208.739 520.523L214.219 524.438C214.786 524.84 215.474 524.653 215.809 524.062L220.229 516.298C220.34 516.105 220.512 516 220.74 516H227.889C228.102 516 228.261 516.114 228.33 516.215C228.423 516.357 228.488 516.563 228.372 516.769L217.868 535.173C217.719 535.494 217.352 535.617 217.059 535.407L208.014 528.929Z" transform="translate(208 516) scale(0.782890 0.820000) translate(-208 -516)" fill="#00F97A"/>
</g>
<g clip-path="url(#clip55_378_62179)">
<path d="M218.545 452.859C218.324 453.141 217.877 452.983 217.877 452.63V449.223C217.877 448.81 217.54 448.474 217.127 448.474H213.368C213.065 448.474 212.887 448.129 213.065 447.882L215.539 444.421C215.893 443.927 215.539 443.237 214.93 443.237H210.375C210.072 443.237 209.893 442.892 210.072 442.645L213.278 438.158C213.351 438.06 213.461 438 213.581 438H223.135C223.437 438 223.616 438.345 223.437 438.592L220.964 442.053C220.61 442.547 220.964 443.237 221.572 443.237H225.332C225.643 443.237 225.817 443.595 225.626 443.842L218.541 452.859H218.545Z" transform="translate(210 438) scale(1.018395 1.000000) translate(-210 -438)" fill="#863BFF"/>
</g>
<g clip-path="url(#clip56_378_62179)">
<path d="M218.545 593.859C218.324 594.141 217.877 593.983 217.877 593.63V590.223C217.877 589.81 217.54 589.474 217.127 589.474H213.368C213.065 589.474 212.887 589.129 213.065 588.882L215.539 585.421C215.893 584.927 215.539 584.237 214.93 584.237H210.375C210.072 584.237 209.893 583.892 210.072 583.645L213.278 579.158C213.351 579.06 213.461 579 213.581 579H223.135C223.437 579 223.616 579.345 223.437 579.592L220.964 583.053C220.61 583.547 220.964 584.237 221.572 584.237H225.332C225.643 584.237 225.817 584.595 225.626 584.842L218.541 593.859H218.545Z" transform="translate(210 579) scale(1.018395 1.000000) translate(-210 -579)" fill="#863BFF"/>
</g>
<g clip-path="url(#clip57_378_62179)">
<path d="M218.545 414.859C218.324 415.141 217.877 414.983 217.877 414.63V411.223C217.877 410.81 217.54 410.474 217.127 410.474H213.368C213.065 410.474 212.887 410.129 213.065 409.882L215.539 406.421C215.893 405.927 215.539 405.237 214.93 405.237H210.375C210.072 405.237 209.893 404.892 210.072 404.645L213.278 400.158C213.351 400.06 213.461 400 213.581 400H223.135C223.437 400 223.616 400.345 223.437 400.592L220.964 404.053C220.61 404.547 220.964 405.237 221.572 405.237H225.332C225.643 405.237 225.817 405.595 225.626 405.842L218.541 414.859H218.545Z" transform="translate(210 400) scale(1.018395 1.000000) translate(-210 -400)" fill="#863BFF"/>
</g>
<g clip-path="url(#clip58_378_62179)">
<path d="M176.545 338.859C176.324 339.141 175.877 338.983 175.877 338.63V335.223C175.877 334.81 175.54 334.474 175.127 334.474H171.368C171.065 334.474 170.887 334.129 171.065 333.882L173.539 330.421C173.893 329.927 173.539 329.237 172.93 329.237H168.375C168.072 329.237 167.893 328.892 168.072 328.645L171.278 324.158C171.351 324.06 171.461 324 171.581 324H181.135C181.437 324 181.616 324.345 181.437 324.592L178.964 328.053C178.61 328.547 178.964 329.237 179.572 329.237H183.332C183.643 329.237 183.817 329.595 183.626 329.842L176.541 338.859H176.545Z" transform="translate(168 324) scale(1.018395 1.000000) translate(-168 -324)" fill="#863BFF"/>
</g>
<g clip-path="url(#clip59_378_62179)">
<path d="M134.545 414.859C134.324 415.141 133.877 414.983 133.877 414.63V411.223C133.877 410.81 133.54 410.474 133.127 410.474H129.368C129.065 410.474 128.887 410.129 129.065 409.882L131.539 406.421C131.893 405.927 131.539 405.237 130.93 405.237H126.375C126.072 405.237 125.893 404.892 126.072 404.645L129.278 400.158C129.351 400.06 129.461 400 129.581 400H139.135C139.437 400 139.616 400.345 139.437 400.592L136.964 404.053C136.61 404.547 136.964 405.237 137.572 405.237H141.332C141.643 405.237 141.817 405.595 141.626 405.842L134.541 414.859H134.545Z" transform="translate(126 400) scale(1.018395 1.000000) translate(-126 -400)" fill="#863BFF"/>
</g>
<g clip-path="url(#clip60_378_62179)">
<path d="M92.5451 414.859C92.3237 415.141 91.8767 414.983 91.8767 414.63V411.223C91.8767 410.81 91.5403 410.474 91.1273 410.474H87.3677C87.0654 410.474 86.8866 410.129 87.0654 409.882L89.5392 406.421C89.8926 405.927 89.5392 405.237 88.9303 405.237H84.3745C84.0722 405.237 83.8934 404.892 84.0722 404.645L87.2783 400.158C87.3507 400.06 87.4614 400 87.5806 400H97.135C97.4373 400 97.6161 400.345 97.4373 400.592L94.9635 404.053C94.6101 404.547 94.9635 405.237 95.5724 405.237H99.332C99.6428 405.237 99.8173 405.595 99.6257 405.842L92.5409 414.859H92.5451Z" transform="translate(84 400) scale(1.018395 1.000000) translate(-84 -400)" fill="#863BFF"/>
</g>
<g clip-path="url(#clip61_378_62179)">
<path d="M50.5451 414.859C50.3237 415.141 49.8767 414.983 49.8767 414.63V411.223C49.8767 410.81 49.5403 410.474 49.1273 410.474H45.3677C45.0654 410.474 44.8866 410.129 45.0654 409.882L47.5392 406.421C47.8926 405.927 47.5392 405.237 46.9303 405.237H42.3745C42.0722 405.237 41.8934 404.892 42.0722 404.645L45.2783 400.158C45.3507 400.06 45.4614 400 45.5806 400H55.135C55.4373 400 55.6161 400.345 55.4373 400.592L52.9635 404.053C52.6101 404.547 52.9635 405.237 53.5724 405.237H57.332C57.6428 405.237 57.8173 405.595 57.6257 405.842L50.5409 414.859H50.5451Z" transform="translate(42 400) scale(1.018395 1.000000) translate(-42 -400)" fill="#863BFF"/>
</g>
<g clip-path="url(#clip62_378_62179)">
<path d="M8.54513 490.859C8.32373 491.141 7.87666 490.983 7.87666 490.63V487.223C7.87666 486.81 7.5403 486.474 7.1273 486.474H3.36772C3.06542 486.474 2.8866 486.129 3.06542 485.882L5.53917 482.421C5.89256 481.927 5.53917 481.237 4.93031 481.237H0.374535C0.0722355 481.237 -0.106589 480.892 0.0722355 480.645L3.27831 476.158C3.35069 476.06 3.46139 476 3.58061 476H13.135C13.4373 476 13.6161 476.345 13.4373 476.592L10.9635 480.053C10.6101 480.547 10.9635 481.237 11.5724 481.237H15.332C15.6428 481.237 15.8173 481.595 15.6257 481.842L8.54087 490.859H8.54513Z" transform="translate(0 476) scale(1.018395 1.000000) translate(0 -476)" fill="#863BFF"/>
</g>
<g clip-path="url(#clip63_378_62179)">
<path d="M134.545 452.859C134.324 453.141 133.877 452.983 133.877 452.63V449.223C133.877 448.81 133.54 448.474 133.127 448.474H129.368C129.065 448.474 128.887 448.129 129.065 447.882L131.539 444.421C131.893 443.927 131.539 443.237 130.93 443.237H126.375C126.072 443.237 125.893 442.892 126.072 442.645L129.278 438.158C129.351 438.06 129.461 438 129.581 438H139.135C139.437 438 139.616 438.345 139.437 438.592L136.964 442.053C136.61 442.547 136.964 443.237 137.572 443.237H141.332C141.643 443.237 141.817 443.595 141.626 443.842L134.541 452.859H134.545Z" transform="translate(126 438) scale(1.018395 1.000000) translate(-126 -438)" fill="#863BFF"/>
</g>
<g clip-path="url(#clip64_378_62179)">
<path d="M176.545 414.859C176.324 415.141 175.877 414.983 175.877 414.63V411.223C175.877 410.81 175.54 410.474 175.127 410.474H171.368C171.065 410.474 170.887 410.129 171.065 409.882L173.539 406.421C173.893 405.927 173.539 405.237 172.93 405.237H168.375C168.072 405.237 167.893 404.892 168.072 404.645L171.278 400.158C171.351 400.06 171.461 400 171.581 400H181.135C181.437 400 181.616 400.345 181.437 400.592L178.964 404.053C178.61 404.547 178.964 405.237 179.572 405.237H183.332C183.643 405.237 183.817 405.595 183.626 405.842L176.541 414.859H176.545Z" transform="translate(168 400) scale(1.018395 1.000000) translate(-168 -400)" fill="#863BFF"/>
</g>
<g clip-path="url(#clip65_378_62179)">
<path d="M176.545 490.859C176.324 491.141 175.877 490.983 175.877 490.63V487.223C175.877 486.81 175.54 486.474 175.127 486.474H171.368C171.065 486.474 170.887 486.129 171.065 485.882L173.539 482.421C173.893 481.927 173.539 481.237 172.93 481.237H168.375C168.072 481.237 167.893 480.892 168.072 480.645L171.278 476.158C171.351 476.06 171.461 476 171.581 476H181.135C181.437 476 181.616 476.345 181.437 476.592L178.964 480.053C178.61 480.547 178.964 481.237 179.572 481.237H183.332C183.643 481.237 183.817 481.595 183.626 481.842L176.541 490.859H176.545Z" transform="translate(168 476) scale(1.018395 1.000000) translate(-168 -476)" fill="#863BFF"/>
</g>
<g clip-path="url(#clip66_378_62179)">
<path d="M598.545 376.859C598.324 377.141 597.877 376.983 597.877 376.63V373.223C597.877 372.81 597.541 372.474 597.128 372.474H593.368C593.066 372.474 592.887 372.129 593.066 371.882L595.539 368.421C595.893 367.927 595.539 367.237 594.931 367.237H590.375C590.072 367.237 589.894 366.892 590.072 366.645L593.279 362.158C593.351 362.06 593.462 362 593.581 362H603.135C603.438 362 603.616 362.345 603.438 362.592L600.964 366.053C600.61 366.547 600.964 367.237 601.573 367.237H605.332C605.643 367.237 605.818 367.595 605.626 367.842L598.541 376.859H598.545Z" transform="translate(590 362) scale(1.018395 1.000000) translate(-590 -362)" fill="#863BFF"/>
</g>
<g clip-path="url(#clip67_378_62179)">
<path d="M598.545 566.859C598.324 567.141 597.877 566.983 597.877 566.63V563.223C597.877 562.81 597.541 562.474 597.128 562.474H593.368C593.066 562.474 592.887 562.129 593.066 561.882L595.539 558.421C595.893 557.927 595.539 557.237 594.931 557.237H590.375C590.072 557.237 589.894 556.892 590.072 556.645L593.279 552.158C593.351 552.06 593.462 552 593.581 552H603.135C603.438 552 603.616 552.345 603.438 552.592L600.964 556.053C600.61 556.547 600.964 557.237 601.573 557.237H605.332C605.643 557.237 605.818 557.595 605.626 557.842L598.541 566.859H598.545Z" transform="translate(590 552) scale(1.018395 1.000000) translate(-590 -552)" fill="#863BFF"/>
</g>
<g clip-path="url(#clip68_378_62179)">
<path d="M598.545 452.859C598.324 453.141 597.877 452.983 597.877 452.63V449.223C597.877 448.81 597.541 448.474 597.128 448.474H593.368C593.066 448.474 592.887 448.129 593.066 447.882L595.539 444.421C595.893 443.927 595.539 443.237 594.931 443.237H590.375C590.072 443.237 589.894 442.892 590.072 442.645L593.279 438.158C593.351 438.06 593.462 438 593.581 438H603.135C603.438 438 603.616 438.345 603.438 438.592L600.964 442.053C600.61 442.547 600.964 443.237 601.573 443.237H605.332C605.643 443.237 605.818 443.595 605.626 443.842L598.541 452.859H598.545Z" transform="translate(590 438) scale(1.018395 1.000000) translate(-590 -438)" fill="#863BFF"/>
</g>
<g clip-path="url(#clip69_378_62179)">
<path d="M430.545 376.859C430.324 377.141 429.877 376.983 429.877 376.63V373.223C429.877 372.81 429.54 372.474 429.127 372.474H425.368C425.065 372.474 424.887 372.129 425.065 371.882L427.539 368.421C427.893 367.927 427.539 367.237 426.93 367.237H422.375C422.072 367.237 421.893 366.892 422.072 366.645L425.278 362.158C425.351 362.06 425.461 362 425.581 362H435.135C435.437 362 435.616 362.345 435.437 362.592L432.964 366.053C432.61 366.547 432.964 367.237 433.572 367.237H437.332C437.643 367.237 437.817 367.595 437.626 367.842L430.541 376.859H430.545Z" transform="translate(422 362) scale(1.018395 1.000000) translate(-422 -362)" fill="#863BFF"/>
</g>
<g clip-path="url(#clip70_378_62179)">
<path d="M598.545 490.859C598.324 491.141 597.877 490.983 597.877 490.63V487.223C597.877 486.81 597.541 486.474 597.128 486.474H593.368C593.066 486.474 592.887 486.129 593.066 485.882L595.539 482.421C595.893 481.927 595.539 481.237 594.931 481.237H590.375C590.072 481.237 589.894 480.892 590.072 480.645L593.279 476.158C593.351 476.06 593.462 476 593.581 476H603.135C603.438 476 603.616 476.345 603.438 476.592L600.964 480.053C600.61 480.547 600.964 481.237 601.573 481.237H605.332C605.643 481.237 605.818 481.595 605.626 481.842L598.541 490.859H598.545Z" transform="translate(590 476) scale(1.018395 1.000000) translate(-590 -476)" fill="#863BFF"/>
</g>
<g clip-path="url(#clip71_378_62179)">
<path d="M514.545 415.859C514.324 416.141 513.877 415.983 513.877 415.63V412.223C513.877 411.81 513.54 411.474 513.127 411.474H509.368C509.065 411.474 508.887 411.129 509.065 410.882L511.539 407.421C511.893 406.927 511.539 406.237 510.93 406.237H506.375C506.072 406.237 505.893 405.892 506.072 405.645L509.278 401.158C509.351 401.06 509.461 401 509.581 401H519.135C519.437 401 519.616 401.345 519.437 401.592L516.964 405.053C516.61 405.547 516.964 406.237 517.572 406.237H521.332C521.643 406.237 521.817 406.595 521.626 406.842L514.541 415.859H514.545Z" transform="translate(506 401) scale(1.018395 1.000000) translate(-506 -401)" fill="#863BFF"/>
</g>
<g clip-path="url(#clip72_378_62179)">
<path d="M514.545 376.859C514.324 377.141 513.877 376.983 513.877 376.63V373.223C513.877 372.81 513.54 372.474 513.127 372.474H509.368C509.065 372.474 508.887 372.129 509.065 371.882L511.539 368.421C511.893 367.927 511.539 367.237 510.93 367.237H506.375C506.072 367.237 505.893 366.892 506.072 366.645L509.278 362.158C509.351 362.06 509.461 362 509.581 362H519.135C519.437 362 519.616 362.345 519.437 362.592L516.964 366.053C516.61 366.547 516.964 367.237 517.572 367.237H521.332C521.643 367.237 521.817 367.595 521.626 367.842L514.541 376.859H514.545Z" transform="translate(506 362) scale(1.018395 1.000000) translate(-506 -362)" fill="#863BFF"/>
</g>
<g clip-path="url(#clip73_378_62179)">
<path d="M598.545 528.859C598.324 529.141 597.877 528.983 597.877 528.63V525.223C597.877 524.81 597.541 524.474 597.128 524.474H593.368C593.066 524.474 592.887 524.129 593.066 523.882L595.539 520.421C595.893 519.927 595.539 519.237 594.931 519.237H590.375C590.072 519.237 589.894 518.892 590.072 518.645L593.279 514.158C593.351 514.06 593.462 514 593.581 514H603.135C603.438 514 603.616 514.345 603.438 514.592L600.964 518.053C600.61 518.547 600.964 519.237 601.573 519.237H605.332C605.643 519.237 605.818 519.595 605.626 519.842L598.541 528.859H598.545Z" transform="translate(590 514) scale(1.018395 1.000000) translate(-590 -514)" fill="#863BFF"/>
</g>
<g clip-path="url(#clip74_378_62179)">
<path d="M850.545 376.859C850.324 377.141 849.877 376.983 849.877 376.63V373.223C849.877 372.81 849.541 372.474 849.128 372.474H845.368C845.066 372.474 844.887 372.129 845.066 371.882L847.539 368.421C847.893 367.927 847.539 367.237 846.931 367.237H842.375C842.072 367.237 841.894 366.892 842.072 366.645L845.279 362.158C845.351 362.06 845.462 362 845.581 362H855.135C855.438 362 855.616 362.345 855.438 362.592L852.964 366.053C852.61 366.547 852.964 367.237 853.573 367.237H857.332C857.643 367.237 857.818 367.595 857.626 367.842L850.541 376.859H850.545Z" transform="translate(842 362) scale(1.018395 1.000000) translate(-842 -362)" fill="#863BFF"/>
</g>
<g clip-path="url(#clip75_378_62179)">
<path d="M850.545 300.859C850.324 301.141 849.877 300.983 849.877 300.63V297.223C849.877 296.81 849.541 296.474 849.128 296.474H845.368C845.066 296.474 844.887 296.129 845.066 295.882L847.539 292.421C847.893 291.927 847.539 291.237 846.931 291.237H842.375C842.072 291.237 841.894 290.892 842.072 290.645L845.279 286.158C845.351 286.06 845.462 286 845.581 286H855.135C855.438 286 855.616 286.345 855.438 286.592L852.964 290.053C852.61 290.547 852.964 291.237 853.573 291.237H857.332C857.643 291.237 857.818 291.595 857.626 291.842L850.541 300.859H850.545Z" transform="translate(842 286) scale(1.018395 1.000000) translate(-842 -286)" fill="#863BFF"/>
</g>
<g clip-path="url(#clip76_378_62179)">
<path d="M850.545 452.859C850.324 453.141 849.877 452.983 849.877 452.63V449.223C849.877 448.81 849.541 448.474 849.128 448.474H845.368C845.066 448.474 844.887 448.129 845.066 447.882L847.539 444.421C847.893 443.927 847.539 443.237 846.931 443.237H842.375C842.072 443.237 841.894 442.892 842.072 442.645L845.279 438.158C845.351 438.06 845.462 438 845.581 438H855.135C855.438 438 855.616 438.345 855.438 438.592L852.964 442.053C852.61 442.547 852.964 443.237 853.573 443.237H857.332C857.643 443.237 857.818 443.595 857.626 443.842L850.541 452.859H850.545Z" transform="translate(842 438) scale(1.018395 1.000000) translate(-842 -438)" fill="#863BFF"/>
</g>
<g clip-path="url(#clip77_378_62179)">
<path d="M556.545 452.859C556.324 453.141 555.877 452.983 555.877 452.63V449.223C555.877 448.81 555.54 448.474 555.127 448.474H551.368C551.065 448.474 550.887 448.129 551.065 447.882L553.539 444.421C553.893 443.927 553.539 443.237 552.93 443.237H548.375C548.072 443.237 547.893 442.892 548.072 442.645L551.278 438.158C551.351 438.06 551.461 438 551.581 438H561.135C561.437 438 561.616 438.345 561.437 438.592L558.964 442.053C558.61 442.547 558.964 443.237 559.572 443.237H563.332C563.643 443.237 563.817 443.595 563.626 443.842L556.541 452.859H556.545Z" transform="translate(548 438) scale(1.018395 1.000000) translate(-548 -438)" fill="#863BFF"/>
</g>
<g clip-path="url(#clip78_378_62179)">
<path d="M680.545 376.859C680.324 377.141 679.877 376.983 679.877 376.63V373.223C679.877 372.81 679.541 372.474 679.128 372.474H675.368C675.066 372.474 674.887 372.129 675.066 371.882L677.539 368.421C677.893 367.927 677.539 367.237 676.931 367.237H672.375C672.072 367.237 671.894 366.892 672.072 366.645L675.279 362.158C675.351 362.06 675.462 362 675.581 362H685.135C685.438 362 685.616 362.345 685.438 362.592L682.964 366.053C682.61 366.547 682.964 367.237 683.573 367.237H687.332C687.643 367.237 687.818 367.595 687.626 367.842L680.541 376.859H680.545Z" transform="translate(672 362) scale(1.018395 1.000000) translate(-672 -362)" fill="#863BFF"/>
</g>
<g clip-path="url(#clip79_378_62179)">
<path d="M850.545 490.859C850.324 491.141 849.877 490.983 849.877 490.63V487.223C849.877 486.81 849.541 486.474 849.128 486.474H845.368C845.066 486.474 844.887 486.129 845.066 485.882L847.539 482.421C847.893 481.927 847.539 481.237 846.931 481.237H842.375C842.072 481.237 841.894 480.892 842.072 480.645L845.279 476.158C845.351 476.06 845.462 476 845.581 476H855.135C855.438 476 855.616 476.345 855.438 476.592L852.964 480.053C852.61 480.547 852.964 481.237 853.573 481.237H857.332C857.643 481.237 857.818 481.595 857.626 481.842L850.541 490.859H850.545Z" transform="translate(842 476) scale(1.018395 1.000000) translate(-842 -476)" fill="#863BFF"/>
</g>
<g clip-path="url(#clip80_378_62179)">
<path d="M766.545 338.859C766.324 339.141 765.877 338.983 765.877 338.63V335.223C765.877 334.81 765.541 334.474 765.128 334.474H761.368C761.066 334.474 760.887 334.129 761.066 333.882L763.539 330.421C763.893 329.927 763.539 329.237 762.931 329.237H758.375C758.072 329.237 757.894 328.892 758.072 328.645L761.279 324.158C761.351 324.06 761.462 324 761.581 324H771.135C771.438 324 771.616 324.345 771.438 324.592L768.964 328.053C768.61 328.547 768.964 329.237 769.573 329.237H773.332C773.643 329.237 773.818 329.595 773.626 329.842L766.541 338.859H766.545Z" transform="translate(758 324) scale(1.018395 1.000000) translate(-758 -324)" fill="#863BFF"/>
</g>
<g clip-path="url(#clip81_378_62179)">
<path d="M680.545 452.859C680.324 453.141 679.877 452.983 679.877 452.63V449.223C679.877 448.81 679.541 448.474 679.128 448.474H675.368C675.066 448.474 674.887 448.129 675.066 447.882L677.539 444.421C677.893 443.927 677.539 443.237 676.931 443.237H672.375C672.072 443.237 671.894 442.892 672.072 442.645L675.279 438.158C675.351 438.06 675.462 438 675.581 438H685.135C685.438 438 685.616 438.345 685.438 438.592L682.964 442.053C682.61 442.547 682.964 443.237 683.573 443.237H687.332C687.643 443.237 687.818 443.595 687.626 443.842L680.541 452.859H680.545Z" transform="translate(672 438) scale(1.018395 1.000000) translate(-672 -438)" fill="#863BFF"/>
</g>
<g clip-path="url(#clip82_378_62179)">
<path d="M809.545 241.859C809.324 242.141 808.877 241.983 808.877 241.63V238.223C808.877 237.81 808.541 237.474 808.128 237.474H804.368C804.066 237.474 803.887 237.129 804.066 236.882L806.539 233.421C806.893 232.927 806.539 232.237 805.931 232.237H801.375C801.072 232.237 800.894 231.892 801.072 231.645L804.279 227.158C804.351 227.06 804.462 227 804.581 227H814.135C814.438 227 814.616 227.345 814.438 227.592L811.964 231.053C811.61 231.547 811.964 232.237 812.573 232.237H816.332C816.643 232.237 816.818 232.595 816.626 232.842L809.541 241.859H809.545Z" transform="translate(801 227) scale(1.018395 1.000000) translate(-801 -227)" fill="#863BFF"/>
</g>
<g clip-path="url(#clip83_378_62179)">
<path d="M766.545 414.859C766.324 415.141 765.877 414.983 765.877 414.63V411.223C765.877 410.81 765.541 410.474 765.128 410.474H761.368C761.066 410.474 760.887 410.129 761.066 409.882L763.539 406.421C763.893 405.927 763.539 405.237 762.931 405.237H758.375C758.072 405.237 757.894 404.892 758.072 404.645L761.279 400.158C761.351 400.06 761.462 400 761.581 400H771.135C771.438 400 771.616 400.345 771.438 400.592L768.964 404.053C768.61 404.547 768.964 405.237 769.573 405.237H773.332C773.643 405.237 773.818 405.595 773.626 405.842L766.541 414.859H766.545Z" transform="translate(758 400) scale(1.018395 1.000000) translate(-758 -400)" fill="#863BFF"/>
</g>
<g clip-path="url(#clip84_378_62179)">
<path d="M680.545 490.859C680.324 491.141 679.877 490.983 679.877 490.63V487.223C679.877 486.81 679.541 486.474 679.128 486.474H675.368C675.066 486.474 674.887 486.129 675.066 485.882L677.539 482.421C677.893 481.927 677.539 481.237 676.931 481.237H672.375C672.072 481.237 671.894 480.892 672.072 480.645L675.279 476.158C675.351 476.06 675.462 476 675.581 476H685.135C685.438 476 685.616 476.345 685.438 476.592L682.964 480.053C682.61 480.547 682.964 481.237 683.573 481.237H687.332C687.643 481.237 687.818 481.595 687.626 481.842L680.541 490.859H680.545Z" transform="translate(672 476) scale(1.018395 1.000000) translate(-672 -476)" fill="#863BFF"/>
</g>
<g clip-path="url(#clip85_378_62179)">
<path d="M1020.55 414.859C1020.32 415.141 1019.88 414.983 1019.88 414.63V411.223C1019.88 410.81 1019.54 410.474 1019.13 410.474H1015.37C1015.07 410.474 1014.89 410.129 1015.07 409.882L1017.54 406.421C1017.89 405.927 1017.54 405.237 1016.93 405.237H1012.37C1012.07 405.237 1011.89 404.892 1012.07 404.645L1015.28 400.158C1015.35 400.06 1015.46 400 1015.58 400H1025.14C1025.44 400 1025.62 400.345 1025.44 400.592L1022.96 404.053C1022.61 404.547 1022.96 405.237 1023.57 405.237H1027.33C1027.64 405.237 1027.82 405.595 1027.63 405.842L1020.54 414.859H1020.55Z" transform="translate(1012 400) scale(1.018395 1.000000) translate(-1012 -400)" fill="#863BFF"/>
</g>
<g clip-path="url(#clip86_378_62179)">
<path d="M893.545 414.859C893.324 415.141 892.877 414.983 892.877 414.63V411.223C892.877 410.81 892.541 410.474 892.128 410.474H888.368C888.066 410.474 887.887 410.129 888.066 409.882L890.539 406.421C890.893 405.927 890.539 405.237 889.931 405.237H885.375C885.072 405.237 884.894 404.892 885.072 404.645L888.279 400.158C888.351 400.06 888.462 400 888.581 400H898.135C898.438 400 898.616 400.345 898.438 400.592L895.964 404.053C895.61 404.547 895.964 405.237 896.573 405.237H900.332C900.643 405.237 900.818 405.595 900.626 405.842L893.541 414.859H893.545Z" transform="translate(885 400) scale(1.018395 1.000000) translate(-885 -400)" fill="#863BFF"/>
</g>
<g clip-path="url(#clip87_378_62179)">
<path d="M766.545 452.859C766.324 453.141 765.877 452.983 765.877 452.63V449.223C765.877 448.81 765.541 448.474 765.128 448.474H761.368C761.066 448.474 760.887 448.129 761.066 447.882L763.539 444.421C763.893 443.927 763.539 443.237 762.931 443.237H758.375C758.072 443.237 757.894 442.892 758.072 442.645L761.279 438.158C761.351 438.06 761.462 438 761.581 438H771.135C771.438 438 771.616 438.345 771.438 438.592L768.964 442.053C768.61 442.547 768.964 443.237 769.573 443.237H773.332C773.643 443.237 773.818 443.595 773.626 443.842L766.541 452.859H766.545Z" transform="translate(758 438) scale(1.018395 1.000000) translate(-758 -438)" fill="#863BFF"/>
</g>
<g clip-path="url(#clip88_378_62179)">
<path d="M977.545 414.859C977.324 415.141 976.877 414.983 976.877 414.63V411.223C976.877 410.81 976.541 410.474 976.128 410.474H972.368C972.066 410.474 971.887 410.129 972.066 409.882L974.539 406.421C974.893 405.927 974.539 405.237 973.931 405.237H969.375C969.072 405.237 968.894 404.892 969.072 404.645L972.279 400.158C972.351 400.06 972.462 400 972.581 400H982.135C982.438 400 982.616 400.345 982.438 400.592L979.964 404.053C979.61 404.547 979.964 405.237 980.573 405.237H984.332C984.643 405.237 984.818 405.595 984.626 405.842L977.541 414.859H977.545Z" transform="translate(969 400) scale(1.018395 1.000000) translate(-969 -400)" fill="#863BFF"/>
</g>
<g clip-path="url(#clip89_378_62179)">
<path d="M936.545 452.859C936.324 453.141 935.877 452.983 935.877 452.63V449.223C935.877 448.81 935.541 448.474 935.128 448.474H931.368C931.066 448.474 930.887 448.129 931.066 447.882L933.539 444.421C933.893 443.927 933.539 443.237 932.931 443.237H928.375C928.072 443.237 927.894 442.892 928.072 442.645L931.279 438.158C931.351 438.06 931.462 438 931.581 438H941.135C941.438 438 941.616 438.345 941.438 438.592L938.964 442.053C938.61 442.547 938.964 443.237 939.573 443.237H943.332C943.643 443.237 943.818 443.595 943.626 443.842L936.541 452.859H936.545Z" transform="translate(928 438) scale(1.018395 1.000000) translate(-928 -438)" fill="#863BFF"/>
</g>
<g clip-path="url(#clip90_378_62179)">
<path d="M893.545 452.859C893.324 453.141 892.877 452.983 892.877 452.63V449.223C892.877 448.81 892.541 448.474 892.128 448.474H888.368C888.066 448.474 887.887 448.129 888.066 447.882L890.539 444.421C890.893 443.927 890.539 443.237 889.931 443.237H885.375C885.072 443.237 884.894 442.892 885.072 442.645L888.279 438.158C888.351 438.06 888.462 438 888.581 438H898.135C898.438 438 898.616 438.345 898.438 438.592L895.964 442.053C895.61 442.547 895.964 443.237 896.573 443.237H900.332C900.643 443.237 900.818 443.595 900.626 443.842L893.541 452.859H893.545Z" transform="translate(885 438) scale(1.018395 1.000000) translate(-885 -438)" fill="#863BFF"/>
</g>
<g clip-path="url(#clip91_378_62179)">
<path d="M936.545 490.859C936.324 491.141 935.877 490.983 935.877 490.63V487.223C935.877 486.81 935.541 486.474 935.128 486.474H931.368C931.066 486.474 930.887 486.129 931.066 485.882L933.539 482.421C933.893 481.927 933.539 481.237 932.931 481.237H928.375C928.072 481.237 927.894 480.892 928.072 480.645L931.279 476.158C931.351 476.06 931.462 476 931.581 476H941.135C941.438 476 941.616 476.345 941.438 476.592L938.964 480.053C938.61 480.547 938.964 481.237 939.573 481.237H943.332C943.643 481.237 943.818 481.595 943.626 481.842L936.541 490.859H936.545Z" transform="translate(928 476) scale(1.018395 1.000000) translate(-928 -476)" fill="#863BFF"/>
</g>
<g clip-path="url(#clip92_378_62179)">
<path d="M936.545 529.859C936.324 530.141 935.877 529.983 935.877 529.63V526.223C935.877 525.81 935.541 525.474 935.128 525.474H931.368C931.066 525.474 930.887 525.129 931.066 524.882L933.539 521.421C933.893 520.927 933.539 520.237 932.931 520.237H928.375C928.072 520.237 927.894 519.892 928.072 519.645L931.279 515.158C931.351 515.06 931.462 515 931.581 515H941.135C941.438 515 941.616 515.345 941.438 515.592L938.964 519.053C938.61 519.547 938.964 520.237 939.573 520.237H943.332C943.643 520.237 943.818 520.595 943.626 520.842L936.541 529.859H936.545Z" transform="translate(928 515) scale(1.018395 1.000000) translate(-928 -515)" fill="#863BFF"/>
</g>
<g clip-path="url(#clip93_378_62179)">
<path d="M766.545 490.859C766.324 491.141 765.877 490.983 765.877 490.63V487.223C765.877 486.81 765.541 486.474 765.128 486.474H761.368C761.066 486.474 760.887 486.129 761.066 485.882L763.539 482.421C763.893 481.927 763.539 481.237 762.931 481.237H758.375C758.072 481.237 757.894 480.892 758.072 480.645L761.279 476.158C761.351 476.06 761.462 476 761.581 476H771.135C771.438 476 771.616 476.345 771.438 476.592L768.964 480.053C768.61 480.547 768.964 481.237 769.573 481.237H773.332C773.643 481.237 773.818 481.595 773.626 481.842L766.541 490.859H766.545Z" transform="translate(758 476) scale(1.018395 1.000000) translate(-758 -476)" fill="#863BFF"/>
</g>
<g clip-path="url(#clip94_378_62179)">
<path d="M1020.55 452.859C1020.32 453.141 1019.88 452.983 1019.88 452.63V449.223C1019.88 448.81 1019.54 448.474 1019.13 448.474H1015.37C1015.07 448.474 1014.89 448.129 1015.07 447.882L1017.54 444.421C1017.89 443.927 1017.54 443.237 1016.93 443.237H1012.37C1012.07 443.237 1011.89 442.892 1012.07 442.645L1015.28 438.158C1015.35 438.06 1015.46 438 1015.58 438H1025.14C1025.44 438 1025.62 438.345 1025.44 438.592L1022.96 442.053C1022.61 442.547 1022.96 443.237 1023.57 443.237H1027.33C1027.64 443.237 1027.82 443.595 1027.63 443.842L1020.54 452.859H1020.55Z" transform="translate(1012 438) scale(1.018395 1.000000) translate(-1012 -438)" fill="#863BFF"/>
</g>
<g clip-path="url(#clip95_378_62179)">
<path d="M893.545 490.859C893.324 491.141 892.877 490.983 892.877 490.63V487.223C892.877 486.81 892.541 486.474 892.128 486.474H888.368C888.066 486.474 887.887 486.129 888.066 485.882L890.539 482.421C890.893 481.927 890.539 481.237 889.931 481.237H885.375C885.072 481.237 884.894 480.892 885.072 480.645L888.279 476.158C888.351 476.06 888.462 476 888.581 476H898.135C898.438 476 898.616 476.345 898.438 476.592L895.964 480.053C895.61 480.547 895.964 481.237 896.573 481.237H900.332C900.643 481.237 900.818 481.595 900.626 481.842L893.541 490.859H893.545Z" transform="translate(885 476) scale(1.018395 1.000000) translate(-885 -476)" fill="#863BFF"/>
</g>
<g clip-path="url(#clip96_378_62179)">
<path d="M1020.55 490.859C1020.32 491.141 1019.88 490.983 1019.88 490.63V487.223C1019.88 486.81 1019.54 486.474 1019.13 486.474H1015.37C1015.07 486.474 1014.89 486.129 1015.07 485.882L1017.54 482.421C1017.89 481.927 1017.54 481.237 1016.93 481.237H1012.37C1012.07 481.237 1011.89 480.892 1012.07 480.645L1015.28 476.158C1015.35 476.06 1015.46 476 1015.58 476H1025.14C1025.44 476 1025.62 476.345 1025.44 476.592L1022.96 480.053C1022.61 480.547 1022.96 481.237 1023.57 481.237H1027.33C1027.64 481.237 1027.82 481.595 1027.63 481.842L1020.54 490.859H1020.55Z" transform="translate(1012 476) scale(1.018395 1.000000) translate(-1012 -476)" fill="#863BFF"/>
</g>
<g clip-path="url(#clip97_378_62179)">
<path d="M1020.55 529.859C1020.32 530.141 1019.88 529.983 1019.88 529.63V526.223C1019.88 525.81 1019.54 525.474 1019.13 525.474H1015.37C1015.07 525.474 1014.89 525.129 1015.07 524.882L1017.54 521.421C1017.89 520.927 1017.54 520.237 1016.93 520.237H1012.37C1012.07 520.237 1011.89 519.892 1012.07 519.645L1015.28 515.158C1015.35 515.06 1015.46 515 1015.58 515H1025.14C1025.44 515 1025.62 515.345 1025.44 515.592L1022.96 519.053C1022.61 519.547 1022.96 520.237 1023.57 520.237H1027.33C1027.64 520.237 1027.82 520.595 1027.63 520.842L1020.54 529.859H1020.55Z" transform="translate(1012 515) scale(1.018395 1.000000) translate(-1012 -515)" fill="#863BFF"/>
</g>
<g clip-path="url(#clip98_378_62179)">
<path d="M936.545 605.859C936.324 606.141 935.877 605.983 935.877 605.63V602.223C935.877 601.81 935.541 601.474 935.128 601.474H931.368C931.066 601.474 930.887 601.129 931.066 600.882L933.539 597.421C933.893 596.927 933.539 596.237 932.931 596.237H928.375C928.072 596.237 927.894 595.892 928.072 595.645L931.279 591.158C931.351 591.06 931.462 591 931.581 591H941.135C941.438 591 941.616 591.345 941.438 591.592L938.964 595.053C938.61 595.547 938.964 596.237 939.573 596.237H943.332C943.643 596.237 943.818 596.595 943.626 596.842L936.541 605.859H936.545Z" transform="translate(928 591) scale(1.018395 1.000000) translate(-928 -591)" fill="#863BFF"/>
</g>
<g clip-path="url(#clip99_378_62179)">
<path d="M893.545 529.859C893.324 530.141 892.877 529.983 892.877 529.63V526.223C892.877 525.81 892.541 525.474 892.128 525.474H888.368C888.066 525.474 887.887 525.129 888.066 524.882L890.539 521.421C890.893 520.927 890.539 520.237 889.931 520.237H885.375C885.072 520.237 884.894 519.892 885.072 519.645L888.279 515.158C888.351 515.06 888.462 515 888.581 515H898.135C898.438 515 898.616 515.345 898.438 515.592L895.964 519.053C895.61 519.547 895.964 520.237 896.573 520.237H900.332C900.643 520.237 900.818 520.595 900.626 520.842L893.541 529.859H893.545Z" transform="translate(885 515) scale(1.018395 1.000000) translate(-885 -515)" fill="#863BFF"/>
</g>
<g clip-path="url(#clip100_378_62179)">
<path d="M850.545 262.859C850.324 263.141 849.877 262.983 849.877 262.63V259.223C849.877 258.81 849.541 258.474 849.128 258.474H845.368C845.066 258.474 844.887 258.129 845.066 257.882L847.539 254.421C847.893 253.927 847.539 253.237 846.931 253.237H842.375C842.072 253.237 841.894 252.892 842.072 252.645L845.279 248.158C845.351 248.06 845.462 248 845.581 248H855.135C855.438 248 855.616 248.345 855.438 248.592L852.964 252.053C852.61 252.547 852.964 253.237 853.573 253.237H857.332C857.643 253.237 857.818 253.595 857.626 253.842L850.541 262.859H850.545Z" transform="translate(842 248) scale(1.018395 1.000000) translate(-842 -248)" fill="#863BFF"/>
</g>
<g clip-path="url(#clip101_378_62179)">
<path d="M969.014 450.929L969 443.036C969 442.848 969.07 442.679 969.158 442.619C969.27 442.537 969.567 442.4 969.739 442.523L975.219 446.438C975.786 446.84 976.474 446.653 976.809 446.062L981.229 438.298C981.34 438.105 981.512 438 981.74 438H988.889C989.102 438 989.261 438.114 989.33 438.215C989.423 438.357 989.488 438.563 989.372 438.769L978.868 457.173C978.719 457.494 978.352 457.617 978.059 457.407L969.014 450.929Z" transform="translate(969 438) scale(0.782890 0.820000) translate(-969 -438)" fill="#00F97A"/>
</g>
<g clip-path="url(#clip102_378_62179)">
<path d="M680.545 528.859C680.324 529.141 679.877 528.983 679.877 528.63V525.223C679.877 524.81 679.541 524.474 679.128 524.474H675.368C675.066 524.474 674.887 524.129 675.066 523.882L677.539 520.421C677.893 519.927 677.539 519.237 676.931 519.237H672.375C672.072 519.237 671.894 518.892 672.072 518.645L675.279 514.158C675.351 514.06 675.462 514 675.581 514H685.135C685.438 514 685.616 514.345 685.438 514.592L682.964 518.053C682.61 518.547 682.964 519.237 683.573 519.237H687.332C687.643 519.237 687.818 519.595 687.626 519.842L680.541 528.859H680.545Z" transform="translate(672 514) scale(1.018395 1.000000) translate(-672 -514)" fill="#863BFF"/>
</g>
<g clip-path="url(#clip103_378_62179)">
<path d="M977.545 490.859C977.324 491.141 976.877 490.983 976.877 490.63V487.223C976.877 486.81 976.541 486.474 976.128 486.474H972.368C972.066 486.474 971.887 486.129 972.066 485.882L974.539 482.421C974.893 481.927 974.539 481.237 973.931 481.237H969.375C969.072 481.237 968.894 480.892 969.072 480.645L972.279 476.158C972.351 476.06 972.462 476 972.581 476H982.135C982.438 476 982.616 476.345 982.438 476.592L979.964 480.053C979.61 480.547 979.964 481.237 980.573 481.237H984.332C984.643 481.237 984.818 481.595 984.626 481.842L977.541 490.859H977.545Z" transform="translate(969 476) scale(1.018395 1.000000) translate(-969 -476)" fill="#863BFF"/>
</g>
<g clip-path="url(#clip104_378_62179)">
<path d="M977.545 529.859C977.324 530.141 976.877 529.983 976.877 529.63V526.223C976.877 525.81 976.541 525.474 976.128 525.474H972.368C972.066 525.474 971.887 525.129 972.066 524.882L974.539 521.421C974.893 520.927 974.539 520.237 973.931 520.237H969.375C969.072 520.237 968.894 519.892 969.072 519.645L972.279 515.158C972.351 515.06 972.462 515 972.581 515H982.135C982.438 515 982.616 515.345 982.438 515.592L979.964 519.053C979.61 519.547 979.964 520.237 980.573 520.237H984.332C984.643 520.237 984.818 520.595 984.626 520.842L977.541 529.859H977.545Z" transform="translate(969 515) scale(1.018395 1.000000) translate(-969 -515)" fill="#863BFF"/>
</g>
<g clip-path="url(#clip105_378_62179)">
<path d="M977.545 568.859C977.324 569.141 976.877 568.983 976.877 568.63V565.223C976.877 564.81 976.541 564.474 976.128 564.474H972.368C972.066 564.474 971.887 564.129 972.066 563.882L974.539 560.421C974.893 559.927 974.539 559.237 973.931 559.237H969.375C969.072 559.237 968.894 558.892 969.072 558.645L972.279 554.158C972.351 554.06 972.462 554 972.581 554H982.135C982.438 554 982.616 554.345 982.438 554.592L979.964 558.053C979.61 558.547 979.964 559.237 980.573 559.237H984.332C984.643 559.237 984.818 559.595 984.626 559.842L977.541 568.859H977.545Z" transform="translate(969 554) scale(1.018395 1.000000) translate(-969 -554)" fill="#863BFF"/>
</g>
<g clip-path="url(#clip106_378_62179)">
<path d="M809.545 338.859C809.324 339.141 808.877 338.983 808.877 338.63V335.223C808.877 334.81 808.541 334.474 808.128 334.474H804.368C804.066 334.474 803.887 334.129 804.066 333.882L806.539 330.421C806.893 329.927 806.539 329.237 805.931 329.237H801.375C801.072 329.237 800.894 328.892 801.072 328.645L804.279 324.158C804.351 324.06 804.462 324 804.581 324H814.135C814.438 324 814.616 324.345 814.438 324.592L811.964 328.053C811.61 328.547 811.964 329.237 812.573 329.237H816.332C816.643 329.237 816.818 329.595 816.626 329.842L809.541 338.859H809.545Z" transform="translate(801 324) scale(1.018395 1.000000) translate(-801 -324)" fill="#863BFF"/>
</g>
<g clip-path="url(#clip107_378_62179)">
<path d="M639.545 452.859C639.324 453.141 638.877 452.983 638.877 452.63V449.223C638.877 448.81 638.541 448.474 638.128 448.474H634.368C634.066 448.474 633.887 448.129 634.066 447.882L636.539 444.421C636.893 443.927 636.539 443.237 635.931 443.237H631.375C631.072 443.237 630.894 442.892 631.072 442.645L634.279 438.158C634.351 438.06 634.462 438 634.581 438H644.135C644.438 438 644.616 438.345 644.438 438.592L641.964 442.053C641.61 442.547 641.964 443.237 642.573 443.237H646.332C646.643 443.237 646.818 443.595 646.626 443.842L639.541 452.859H639.545Z" transform="translate(631 438) scale(1.018395 1.000000) translate(-631 -438)" fill="#863BFF"/>
</g>
<g clip-path="url(#clip108_378_62179)">
<path d="M809.545 376.859C809.324 377.141 808.877 376.983 808.877 376.63V373.223C808.877 372.81 808.541 372.474 808.128 372.474H804.368C804.066 372.474 803.887 372.129 804.066 371.882L806.539 368.421C806.893 367.927 806.539 367.237 805.931 367.237H801.375C801.072 367.237 800.894 366.892 801.072 366.645L804.279 362.158C804.351 362.06 804.462 362 804.581 362H814.135C814.438 362 814.616 362.345 814.438 362.592L811.964 366.053C811.61 366.547 811.964 367.237 812.573 367.237H816.332C816.643 367.237 816.818 367.595 816.626 367.842L809.541 376.859H809.545Z" transform="translate(801 362) scale(1.018395 1.000000) translate(-801 -362)" fill="#863BFF"/>
</g>
<g clip-path="url(#clip109_378_62179)">
<path d="M723.545 452.859C723.324 453.141 722.877 452.983 722.877 452.63V449.223C722.877 448.81 722.541 448.474 722.128 448.474H718.368C718.066 448.474 717.887 448.129 718.066 447.882L720.539 444.421C720.893 443.927 720.539 443.237 719.931 443.237H715.375C715.072 443.237 714.894 442.892 715.072 442.645L718.279 438.158C718.351 438.06 718.462 438 718.581 438H728.135C728.438 438 728.616 438.345 728.438 438.592L725.964 442.053C725.61 442.547 725.964 443.237 726.573 443.237H730.332C730.643 443.237 730.818 443.595 730.626 443.842L723.541 452.859H723.545Z" transform="translate(715 438) scale(1.018395 1.000000) translate(-715 -438)" fill="#863BFF"/>
</g>
<g clip-path="url(#clip110_378_62179)">
<path d="M809.545 414.859C809.324 415.141 808.877 414.983 808.877 414.63V411.223C808.877 410.81 808.541 410.474 808.128 410.474H804.368C804.066 410.474 803.887 410.129 804.066 409.882L806.539 406.421C806.893 405.927 806.539 405.237 805.931 405.237H801.375C801.072 405.237 800.894 404.892 801.072 404.645L804.279 400.158C804.351 400.06 804.462 400 804.581 400H814.135C814.438 400 814.616 400.345 814.438 400.592L811.964 404.053C811.61 404.547 811.964 405.237 812.573 405.237H816.332C816.643 405.237 816.818 405.595 816.626 405.842L809.541 414.859H809.545Z" transform="translate(801 400) scale(1.018395 1.000000) translate(-801 -400)" fill="#863BFF"/>
</g>
<g clip-path="url(#clip111_378_62179)">
<path d="M514.545 490.859C514.324 491.141 513.877 490.983 513.877 490.63V487.223C513.877 486.81 513.54 486.474 513.127 486.474H509.368C509.065 486.474 508.887 486.129 509.065 485.882L511.539 482.421C511.893 481.927 511.539 481.237 510.93 481.237H506.375C506.072 481.237 505.893 480.892 506.072 480.645L509.278 476.158C509.351 476.06 509.461 476 509.581 476H519.135C519.437 476 519.616 476.345 519.437 476.592L516.964 480.053C516.61 480.547 516.964 481.237 517.572 481.237H521.332C521.643 481.237 521.817 481.595 521.626 481.842L514.541 490.859H514.545Z" transform="translate(506 476) scale(1.018395 1.000000) translate(-506 -476)" fill="#863BFF"/>
</g>
<g clip-path="url(#clip112_378_62179)">
<path d="M639.545 490.859C639.324 491.141 638.877 490.983 638.877 490.63V487.223C638.877 486.81 638.541 486.474 638.128 486.474H634.368C634.066 486.474 633.887 486.129 634.066 485.882L636.539 482.421C636.893 481.927 636.539 481.237 635.931 481.237H631.375C631.072 481.237 630.894 480.892 631.072 480.645L634.279 476.158C634.351 476.06 634.462 476 634.581 476H644.135C644.438 476 644.616 476.345 644.438 476.592L641.964 480.053C641.61 480.547 641.964 481.237 642.573 481.237H646.332C646.643 481.237 646.818 481.595 646.626 481.842L639.541 490.859H639.545Z" transform="translate(631 476) scale(1.018395 1.000000) translate(-631 -476)" fill="#863BFF"/>
</g>
<g clip-path="url(#clip113_378_62179)">
<path d="M723.545 490.859C723.324 491.141 722.877 490.983 722.877 490.63V487.223C722.877 486.81 722.541 486.474 722.128 486.474H718.368C718.066 486.474 717.887 486.129 718.066 485.882L720.539 482.421C720.893 481.927 720.539 481.237 719.931 481.237H715.375C715.072 481.237 714.894 480.892 715.072 480.645L718.279 476.158C718.351 476.06 718.462 476 718.581 476H728.135C728.438 476 728.616 476.345 728.438 476.592L725.964 480.053C725.61 480.547 725.964 481.237 726.573 481.237H730.332C730.643 481.237 730.818 481.595 730.626 481.842L723.541 490.859H723.545Z" transform="translate(715 476) scale(1.018395 1.000000) translate(-715 -476)" fill="#863BFF"/>
</g>
<g clip-path="url(#clip114_378_62179)">
<path d="M639.545 528.859C639.324 529.141 638.877 528.983 638.877 528.63V525.223C638.877 524.81 638.541 524.474 638.128 524.474H634.368C634.066 524.474 633.887 524.129 634.066 523.882L636.539 520.421C636.893 519.927 636.539 519.237 635.931 519.237H631.375C631.072 519.237 630.894 518.892 631.072 518.645L634.279 514.158C634.351 514.06 634.462 514 634.581 514H644.135C644.438 514 644.616 514.345 644.438 514.592L641.964 518.053C641.61 518.547 641.964 519.237 642.573 519.237H646.332C646.643 519.237 646.818 519.595 646.626 519.842L639.541 528.859H639.545Z" transform="translate(631 514) scale(1.018395 1.000000) translate(-631 -514)" fill="#863BFF"/>
</g>
<g clip-path="url(#clip115_378_62179)">
<path d="M430.545 566.859C430.324 567.141 429.877 566.983 429.877 566.63V563.223C429.877 562.81 429.54 562.474 429.127 562.474H425.368C425.065 562.474 424.887 562.129 425.065 561.882L427.539 558.421C427.893 557.927 427.539 557.237 426.93 557.237H422.375C422.072 557.237 421.893 556.892 422.072 556.645L425.278 552.158C425.351 552.06 425.461 552 425.581 552H435.135C435.437 552 435.616 552.345 435.437 552.592L432.964 556.053C432.61 556.547 432.964 557.237 433.572 557.237H437.332C437.643 557.237 437.817 557.595 437.626 557.842L430.541 566.859H430.545Z" transform="translate(422 552) scale(1.018395 1.000000) translate(-422 -552)" fill="#863BFF"/>
</g>
<g clip-path="url(#clip116_378_62179)">
<path d="M513.545 612.859C513.324 613.141 512.877 612.983 512.877 612.63V609.223C512.877 608.81 512.54 608.474 512.127 608.474H508.368C508.065 608.474 507.887 608.129 508.065 607.882L510.539 604.421C510.893 603.927 510.539 603.237 509.93 603.237H505.375C505.072 603.237 504.893 602.892 505.072 602.645L508.278 598.158C508.351 598.06 508.461 598 508.581 598H518.135C518.437 598 518.616 598.345 518.437 598.592L515.964 602.053C515.61 602.547 515.964 603.237 516.572 603.237H520.332C520.643 603.237 520.817 603.595 520.626 603.842L513.541 612.859H513.545Z" transform="translate(505 598) scale(1.018395 1.000000) translate(-505 -598)" fill="#863BFF"/>
</g>
<defs>
<clipPath id="clip0_378_62179">
<rect width="16" height="15" fill="white" transform="translate(590 324)"/>
</clipPath>
<clipPath id="clip1_378_62179">
<rect width="16" height="15" fill="white" transform="translate(590 400)"/>
</clipPath>
<clipPath id="clip2_378_62179">
<rect width="16" height="16" fill="white" transform="translate(842 324)"/>
</clipPath>
<clipPath id="clip3_378_62179">
<rect width="16" height="15" fill="white" transform="translate(842 400)"/>
</clipPath>
<clipPath id="clip4_378_62179">
<rect width="16" height="15" fill="white" transform="translate(672 400)"/>
</clipPath>
<clipPath id="clip5_378_62179">
<rect width="16" height="15" fill="white" transform="translate(758 362)"/>
</clipPath>
<clipPath id="clip6_378_62179">
<rect width="16" height="15" fill="white" transform="translate(885 362)"/>
</clipPath>
<clipPath id="clip7_378_62179">
<rect width="16" height="15" fill="white" transform="translate(928 362)"/>
</clipPath>
<clipPath id="clip8_378_62179">
<rect width="16" height="15" fill="white" transform="translate(1012 362)"/>
</clipPath>
<clipPath id="clip9_378_62179">
<rect width="16" height="15" fill="white" transform="translate(969 362)"/>
</clipPath>
<clipPath id="clip10_378_62179">
<rect width="16" height="15" fill="white" transform="translate(969 324)"/>
</clipPath>
<clipPath id="clip11_378_62179">
<rect width="16" height="15" fill="white" transform="translate(928 235)"/>
</clipPath>
<clipPath id="clip12_378_62179">
<rect width="16" height="15" fill="white" transform="translate(885 192)"/>
</clipPath>
<clipPath id="clip13_378_62179">
<rect width="16" height="15" fill="white" transform="translate(850 157)"/>
</clipPath>
<clipPath id="clip14_378_62179">
<rect width="16" height="15" fill="white" transform="translate(893 85)"/>
</clipPath>
<clipPath id="clip15_378_62179">
<rect width="16" height="15" fill="white" transform="translate(928 55)"/>
</clipPath>
<clipPath id="clip16_378_62179">
<rect width="16" height="15" fill="white" transform="translate(987 30)"/>
</clipPath>
<clipPath id="clip17_378_62179">
<rect width="16" height="15" fill="white" transform="translate(968 142)"/>
</clipPath>
<clipPath id="clip18_378_62179">
<rect width="16" height="15" fill="white" transform="translate(1184 139)"/>
</clipPath>
<clipPath id="clip19_378_62179">
<rect width="16" height="15" fill="white" transform="translate(1307 96)"/>
</clipPath>
<clipPath id="clip20_378_62179">
<rect width="16" height="15" fill="white" transform="translate(1264 200)"/>
</clipPath>
<clipPath id="clip21_378_62179">
<rect width="16" height="15" fill="white" transform="translate(1264 692)"/>
</clipPath>
<clipPath id="clip22_378_62179">
<rect width="16" height="16" fill="white" transform="translate(1429 92)"/>
</clipPath>
<clipPath id="clip23_378_62179">
<rect width="16" height="16" fill="white" transform="translate(1088 63)"/>
</clipPath>
<clipPath id="clip24_378_62179">
<rect width="16" height="15" fill="white" transform="translate(1045 19)"/>
</clipPath>
<clipPath id="clip25_378_62179">
<rect width="16" height="15" fill="white" transform="translate(1144 38)"/>
</clipPath>
<clipPath id="clip26_378_62179">
<rect width="16" height="15" fill="white" transform="translate(1184 55)"/>
</clipPath>
<clipPath id="clip27_378_62179">
<rect width="16" height="15" fill="white" transform="translate(1224 53)"/>
</clipPath>
<clipPath id="clip28_378_62179">
<rect width="16" height="15" fill="white" transform="translate(1267 38)"/>
</clipPath>
<clipPath id="clip29_378_62179">
<rect width="16" height="15" fill="white" transform="translate(1310 48)"/>
</clipPath>
<clipPath id="clip30_378_62179">
<rect width="16" height="15" fill="white" transform="translate(1351 30)"/>
</clipPath>
<clipPath id="clip31_378_62179">
<rect width="16" height="15" fill="white" transform="translate(1394 15)"/>
</clipPath>
<clipPath id="clip32_378_62179">
<rect width="16" height="15" fill="white" transform="translate(1434 19)"/>
</clipPath>
<clipPath id="clip33_378_62179">
<rect width="16" height="15" fill="white" transform="translate(1476 31)"/>
</clipPath>
<clipPath id="clip34_378_62179">
<rect width="16" height="15" fill="white" transform="translate(801 286)"/>
</clipPath>
<clipPath id="clip35_378_62179">
<rect width="16" height="15" fill="white" transform="translate(715 400)"/>
</clipPath>
<clipPath id="clip36_378_62179">
<rect width="16" height="15" fill="white" transform="translate(506 324)"/>
</clipPath>
<clipPath id="clip37_378_62179">
<rect width="16" height="15" fill="white" transform="translate(422 400)"/>
</clipPath>
<clipPath id="clip38_378_62179">
<rect width="16" height="15" fill="white" transform="translate(336 362)"/>
</clipPath>
<clipPath id="clip39_378_62179">
<rect width="16" height="15" fill="white" transform="translate(253 362)"/>
</clipPath>
<clipPath id="clip40_378_62179">
<rect width="16" height="15" fill="white" transform="translate(253 438)"/>
</clipPath>
<clipPath id="clip41_378_62179">
<rect width="16" height="15" fill="white" transform="translate(295 438)"/>
</clipPath>
<clipPath id="clip42_378_62179">
<rect width="16" height="15" fill="white" transform="translate(295 400)"/>
</clipPath>
<clipPath id="clip43_378_62179">
<rect width="16" height="15" fill="white" transform="translate(337 438)"/>
</clipPath>
<clipPath id="clip44_378_62179">
<rect width="16" height="15" fill="white" transform="translate(337 400)"/>
</clipPath>
<clipPath id="clip45_378_62179">
<rect width="16" height="15" fill="white" transform="translate(379 383)"/>
</clipPath>
<clipPath id="clip46_378_62179">
<rect width="16" height="15" fill="white" transform="translate(379 438)"/>
</clipPath>
<clipPath id="clip47_378_62179">
<rect width="16" height="15" fill="white" transform="translate(379 476)"/>
</clipPath>
<clipPath id="clip48_378_62179">
<rect width="16" height="15" fill="white" transform="translate(379 516)"/>
</clipPath>
<clipPath id="clip49_378_62179">
<rect width="16" height="15" fill="white" transform="translate(295 476)"/>
</clipPath>
<clipPath id="clip50_378_62179">
<rect width="16" height="15" fill="white" transform="translate(295 516)"/>
</clipPath>
<clipPath id="clip51_378_62179">
<rect width="16" height="15" fill="white" transform="translate(295 556)"/>
</clipPath>
<clipPath id="clip52_378_62179">
<rect width="16" height="15" fill="white" transform="translate(253 476)"/>
</clipPath>
<clipPath id="clip53_378_62179">
<rect width="16" height="15" fill="white" transform="translate(253 552)"/>
</clipPath>
<clipPath id="clip54_378_62179">
<rect width="16" height="16" fill="white" transform="translate(208 516)"/>
</clipPath>
<clipPath id="clip55_378_62179">
<rect width="16" height="15" fill="white" transform="translate(210 438)"/>
</clipPath>
<clipPath id="clip56_378_62179">
<rect width="16" height="15" fill="white" transform="translate(210 579)"/>
</clipPath>
<clipPath id="clip57_378_62179">
<rect width="16" height="15" fill="white" transform="translate(210 400)"/>
</clipPath>
<clipPath id="clip58_378_62179">
<rect width="16" height="15" fill="white" transform="translate(168 324)"/>
</clipPath>
<clipPath id="clip59_378_62179">
<rect width="16" height="15" fill="white" transform="translate(126 400)"/>
</clipPath>
<clipPath id="clip60_378_62179">
<rect width="16" height="15" fill="white" transform="translate(84 400)"/>
</clipPath>
<clipPath id="clip61_378_62179">
<rect width="16" height="15" fill="white" transform="translate(42 400)"/>
</clipPath>
<clipPath id="clip62_378_62179">
<rect width="16" height="15" fill="white" transform="translate(0 476)"/>
</clipPath>
<clipPath id="clip63_378_62179">
<rect width="16" height="15" fill="white" transform="translate(126 438)"/>
</clipPath>
<clipPath id="clip64_378_62179">
<rect width="16" height="15" fill="white" transform="translate(168 400)"/>
</clipPath>
<clipPath id="clip65_378_62179">
<rect width="16" height="15" fill="white" transform="translate(168 476)"/>
</clipPath>
<clipPath id="clip66_378_62179">
<rect width="16" height="15" fill="white" transform="translate(590 362)"/>
</clipPath>
<clipPath id="clip67_378_62179">
<rect width="16" height="15" fill="white" transform="translate(590 552)"/>
</clipPath>
<clipPath id="clip68_378_62179">
<rect width="16" height="15" fill="white" transform="translate(590 438)"/>
</clipPath>
<clipPath id="clip69_378_62179">
<rect width="16" height="15" fill="white" transform="translate(422 362)"/>
</clipPath>
<clipPath id="clip70_378_62179">
<rect width="16" height="15" fill="white" transform="translate(590 476)"/>
</clipPath>
<clipPath id="clip71_378_62179">
<rect width="16" height="15" fill="white" transform="translate(506 401)"/>
</clipPath>
<clipPath id="clip72_378_62179">
<rect width="16" height="15" fill="white" transform="translate(506 362)"/>
</clipPath>
<clipPath id="clip73_378_62179">
<rect width="16" height="15" fill="white" transform="translate(590 514)"/>
</clipPath>
<clipPath id="clip74_378_62179">
<rect width="16" height="15" fill="white" transform="translate(842 362)"/>
</clipPath>
<clipPath id="clip75_378_62179">
<rect width="16" height="15" fill="white" transform="translate(842 286)"/>
</clipPath>
<clipPath id="clip76_378_62179">
<rect width="16" height="15" fill="white" transform="translate(842 438)"/>
</clipPath>
<clipPath id="clip77_378_62179">
<rect width="16" height="15" fill="white" transform="translate(548 438)"/>
</clipPath>
<clipPath id="clip78_378_62179">
<rect width="16" height="15" fill="white" transform="translate(672 362)"/>
</clipPath>
<clipPath id="clip79_378_62179">
<rect width="16" height="15" fill="white" transform="translate(842 476)"/>
</clipPath>
<clipPath id="clip80_378_62179">
<rect width="16" height="15" fill="white" transform="translate(758 324)"/>
</clipPath>
<clipPath id="clip81_378_62179">
<rect width="16" height="15" fill="white" transform="translate(672 438)"/>
</clipPath>
<clipPath id="clip82_378_62179">
<rect width="16" height="15" fill="white" transform="translate(801 227)"/>
</clipPath>
<clipPath id="clip83_378_62179">
<rect width="16" height="15" fill="white" transform="translate(758 400)"/>
</clipPath>
<clipPath id="clip84_378_62179">
<rect width="16" height="15" fill="white" transform="translate(672 476)"/>
</clipPath>
<clipPath id="clip85_378_62179">
<rect width="16" height="15" fill="white" transform="translate(1012 400)"/>
</clipPath>
<clipPath id="clip86_378_62179">
<rect width="16" height="15" fill="white" transform="translate(885 400)"/>
</clipPath>
<clipPath id="clip87_378_62179">
<rect width="16" height="15" fill="white" transform="translate(758 438)"/>
</clipPath>
<clipPath id="clip88_378_62179">
<rect width="16" height="15" fill="white" transform="translate(969 400)"/>
</clipPath>
<clipPath id="clip89_378_62179">
<rect width="16" height="15" fill="white" transform="translate(928 438)"/>
</clipPath>
<clipPath id="clip90_378_62179">
<rect width="16" height="15" fill="white" transform="translate(885 438)"/>
</clipPath>
<clipPath id="clip91_378_62179">
<rect width="16" height="15" fill="white" transform="translate(928 476)"/>
</clipPath>
<clipPath id="clip92_378_62179">
<rect width="16" height="15" fill="white" transform="translate(928 515)"/>
</clipPath>
<clipPath id="clip93_378_62179">
<rect width="16" height="15" fill="white" transform="translate(758 476)"/>
</clipPath>
<clipPath id="clip94_378_62179">
<rect width="16" height="15" fill="white" transform="translate(1012 438)"/>
</clipPath>
<clipPath id="clip95_378_62179">
<rect width="16" height="15" fill="white" transform="translate(885 476)"/>
</clipPath>
<clipPath id="clip96_378_62179">
<rect width="16" height="15" fill="white" transform="translate(1012 476)"/>
</clipPath>
<clipPath id="clip97_378_62179">
<rect width="16" height="15" fill="white" transform="translate(1012 515)"/>
</clipPath>
<clipPath id="clip98_378_62179">
<rect width="16" height="15" fill="white" transform="translate(928 591)"/>
</clipPath>
<clipPath id="clip99_378_62179">
<rect width="16" height="15" fill="white" transform="translate(885 515)"/>
</clipPath>
<clipPath id="clip100_378_62179">
<rect width="16" height="15" fill="white" transform="translate(842 248)"/>
</clipPath>
<clipPath id="clip101_378_62179">
<rect width="16" height="16" fill="white" transform="translate(969 438)"/>
</clipPath>
<clipPath id="clip102_378_62179">
<rect width="16" height="15" fill="white" transform="translate(672 514)"/>
</clipPath>
<clipPath id="clip103_378_62179">
<rect width="16" height="15" fill="white" transform="translate(969 476)"/>
</clipPath>
<clipPath id="clip104_378_62179">
<rect width="16" height="15" fill="white" transform="translate(969 515)"/>
</clipPath>
<clipPath id="clip105_378_62179">
<rect width="16" height="15" fill="white" transform="translate(969 554)"/>
</clipPath>
<clipPath id="clip106_378_62179">
<rect width="16" height="15" fill="white" transform="translate(801 324)"/>
</clipPath>
<clipPath id="clip107_378_62179">
<rect width="16" height="15" fill="white" transform="translate(631 438)"/>
</clipPath>
<clipPath id="clip108_378_62179">
<rect width="16" height="15" fill="white" transform="translate(801 362)"/>
</clipPath>
<clipPath id="clip109_378_62179">
<rect width="16" height="15" fill="white" transform="translate(715 438)"/>
</clipPath>
<clipPath id="clip110_378_62179">
<rect width="16" height="15" fill="white" transform="translate(801 400)"/>
</clipPath>
<clipPath id="clip111_378_62179">
<rect width="16" height="15" fill="white" transform="translate(506 476)"/>
</clipPath>
<clipPath id="clip112_378_62179">
<rect width="16" height="15" fill="white" transform="translate(631 476)"/>
</clipPath>
<clipPath id="clip113_378_62179">
<rect width="16" height="15" fill="white" transform="translate(715 476)"/>
</clipPath>
<clipPath id="clip114_378_62179">
<rect width="16" height="15" fill="white" transform="translate(631 514)"/>
</clipPath>
<clipPath id="clip115_378_62179">
<rect width="16" height="15" fill="white" transform="translate(422 552)"/>
</clipPath>
<clipPath id="clip116_378_62179">
<rect width="16" height="15" fill="white" transform="translate(505 598)"/>
</clipPath>
</defs>
</svg>
