<svg width="2087" height="2008" viewBox="0 0 2087 2008" fill="none" xmlns="http://www.w3.org/2000/svg">
<path opacity="0.3" d="M1468.01 520.85L1278.82 37.74L1867.64 357.24L2086.2 875.62L1468.01 520.85Z" fill="#41B883"/>
<path opacity="0.37" d="M1299.57 458.91L1196.42 0L1732.19 327.87L1865.73 814.69L1299.57 458.91Z" fill="#3EB691"/>
<path opacity="0.44" d="M1150.7 456.31L1133.59 21.6101L1616.31 357.85L1664.83 813.12L1150.7 456.31Z" fill="#3AB49E"/>
<path opacity="0.51" d="M1032.28 487.74L1101.21 77.2302L1530.89 421.84L1494.39 845.56L1032.28 487.74Z" fill="#37B2AC"/>
<path opacity="0.59" d="M907.07 527.85L1062.04 141.55L1438.67 494.53L1317.14 886.69L907.07 527.85Z" fill="#33B1B9"/>
<path opacity="0.66" d="M785.43 551.32L1026.44 189.22L1350.02 550.56L1143.47 911.17L785.43 551.32Z" fill="#30AFC7"/>
<path opacity="0.73" d="M662.03 532.81L989.08 194.9L1259.62 564.62L968.05 893.67L662.03 532.81Z" fill="#2CADD4"/>
<path opacity="0.8" d="M533.21 449.08L946.3 135.38L1163.79 513.46L787.19 810.97L533.21 449.08Z" fill="#29ABE2"/>
<path opacity="0.69" d="M771.98 130.77L1034.71 488.12L731.12 807.78L437.74 463.35L771.98 130.77Z" fill="#32A4D5"/>
<path opacity="0.57" d="M603.05 272.4L911.01 609.02L680.44 950.84L347.65 623.85L603.05 272.4Z" fill="#3B9DC9"/>
<path opacity="0.46" d="M444.99 508.15L798.18 824.04L640.62 1188.01L268.43 878.48L444.99 508.15Z" fill="#4496BC"/>
<path opacity="0.34" d="M301.62 784.5L700.04 1079.66L615.49 1465.78L203.91 1173.7L301.62 784.5Z" fill="#4D8FAF"/>
<path opacity="0.23" d="M176.75 1047.94L620.41 1322.38L608.87 1730.65L157.89 1456.02L176.75 1047.94Z" fill="#5688A2"/>
<path opacity="0.11" d="M73.4697 1244.97L562.36 1498.67L623.83 1929.1L133.45 1671.92L73.4697 1244.97Z" fill="#5F8196"/>
</svg>
