<svg width="2251" height="1493" viewBox="0 0 2251 1493" fill="none" xmlns="http://www.w3.org/2000/svg">
<path opacity="0.2" d="M1562.33 759.73L1416.11 0L2080.88 372.72L2250.53 1154.68L1562.33 759.73Z" fill="#FCEE21"/>
<path opacity="0.29" d="M1562.24 751.53L1397.67 54.58L2004.16 344.86L2186.55 1085.89L1562.24 751.53Z" fill="#FAD02E"/>
<path opacity="0.37" d="M1540.91 808.27L1357.98 174.09L1906.18 381.92L2101.32 1082.03L1540.91 808.27Z" fill="#F8B33A"/>
<path opacity="0.46" d="M1496.01 900.55L1294.72 329.16L1784.64 454.54L1992.52 1113.72L1496.01 900.55Z" fill="#F69547"/>
<path opacity="0.54" d="M1425.25 999.01L1205.6 490.39L1637.23 533.33L1857.86 1151.58L1425.25 999.01Z" fill="#F37753"/>
<path opacity="0.63" d="M1326.3 1094.02L1088.3 648.18L1461.63 608.67L1695.01 1185.99L1326.3 1094.02Z" fill="#F15960"/>
<path opacity="0.71" d="M1196.87 1157.9L940.5 774.84L1255.55 652.88L1501.68 1189.28L1196.87 1157.9Z" fill="#EF3C6C"/>
<path opacity="0.8" d="M1038.65 1127.34L763.92 807.06L1020.69 602.65L1279.56 1098.13L1038.65 1127.34Z" fill="#ED1E79"/>
<path opacity="0.69" d="M897.36 579.09L1197.98 1046.57L966.26 1130.03L654.32 816.83L897.36 579.09Z" fill="#F03E8C"/>
<path opacity="0.57" d="M755.659 596.34L1098.04 1035.84L875.52 1173.54L526.35 867.41L755.659 596.34Z" fill="#F25E9F"/>
<path opacity="0.46" d="M607.11 640L991.25 1051.5L777.92 1243.45L391.53 944.4L607.11 640Z" fill="#F57EB2"/>
<path opacity="0.34" d="M462.53 695.35L888.41 1078.86L684.28 1325.06L260.66 1033.08L462.53 695.35Z" fill="#F79FC6"/>
<path opacity="0.23" d="M332.72 747.67L800.36 1103.2L605.42 1403.63L144.58 1118.73L332.72 747.67Z" fill="#FABFD9"/>
<path opacity="0.11" d="M228.5 782.26L737.89 1109.8L552.16 1464.48L54.0801 1186.65L228.5 782.26Z" fill="#FCDFEC"/>
</svg>
