<svg width="1478" height="707" viewBox="0 0 1478 707" fill="none" xmlns="http://www.w3.org/2000/svg">
<defs>
<symbol id="icon-vite" viewBox="0 0 15.554 14.859" preserveAspectRatio="xMidYMid meet">
<path d="M8.473 14.859C8.252 15.141 7.805 14.983 7.805 14.63V11.223C7.805 10.81 7.469 10.474 7.056 10.474H3.296C2.994 10.474 2.815 10.129 2.994 9.882L5.467 6.421C5.821 5.927 5.467 5.237 4.859 5.237H0.303C0 5.237 -0.178 4.892 0 4.645L3.207 0.158C3.279 0.06 3.39 0 3.509 0H13.063C13.366 0 13.544 0.345 13.366 0.592L10.892 4.053C10.538 4.547 10.892 5.237 11.501 5.237H15.26C15.571 5.237 15.746 5.595 15.554 5.842L8.469 14.859H8.473Z" fill="#863BFF"/>
</symbol>
<symbol id="icon-vue" viewBox="0 0 20.488 19.617" preserveAspectRatio="xMidYMid meet">
<path d="M0.014 12.929L0 5.036C0 4.848 0.07 4.679 0.158 4.619C0.27 4.537 0.567 4.4 0.739 4.523L6.219 8.438C6.786 8.84 7.474 8.653 7.809 8.062L12.229 0.298C12.34 0.105 12.512 0 12.74 0H19.889C20.102 0 20.261 0.114 20.33 0.215C20.423 0.357 20.488 0.563 20.372 0.769L9.868 19.173C9.719 19.494 9.352 19.617 9.059 19.407L0.014 12.929Z" fill="#00F97A"/>
</symbol>
</defs>
<use href="#icon-vite" x="590" y="324" width="16" height="16"/>
<use href="#icon-vite" x="590" y="400" width="16" height="16"/>
<use href="#icon-vue" x="842" y="324" width="16" height="16"/>
<use href="#icon-vite" x="842" y="400" width="16" height="16"/>
<use href="#icon-vite" x="672" y="400" width="16" height="16"/>
<use href="#icon-vite" x="758" y="362" width="16" height="16"/>
<use href="#icon-vite" x="885" y="362" width="16" height="16"/>
<use href="#icon-vite" x="928" y="362" width="16" height="16"/>
<use href="#icon-vite" x="1012" y="362" width="16" height="16"/>
<use href="#icon-vite" x="969" y="362" width="16" height="16"/>
<use href="#icon-vite" x="969" y="324" width="16" height="16"/>
<use href="#icon-vite" x="928" y="235" width="16" height="16"/>
<use href="#icon-vite" x="885" y="192" width="16" height="16"/>
<use href="#icon-vite" x="850" y="157" width="16" height="16"/>
<use href="#icon-vite" x="893" y="85" width="16" height="16"/>
<use href="#icon-vite" x="928" y="55" width="16" height="16"/>
<use href="#icon-vite" x="987" y="30" width="16" height="16"/>
<use href="#icon-vite" x="968" y="142" width="16" height="16"/>
<use href="#icon-vite" x="1184" y="139" width="16" height="16"/>
<use href="#icon-vite" x="1307" y="96" width="16" height="16"/>
<use href="#icon-vite" x="1264" y="200" width="16" height="16"/>
<use href="#icon-vite" x="1264" y="692" width="16" height="16"/>
<use href="#icon-vue" x="1429" y="92" width="16" height="16"/>
<use href="#icon-vue" x="1088" y="63" width="16" height="16"/>
<use href="#icon-vite" x="1045" y="19" width="16" height="16"/>
<use href="#icon-vite" x="1144" y="38" width="16" height="16"/>
<use href="#icon-vite" x="1184" y="55" width="16" height="16"/>
<use href="#icon-vite" x="1224" y="53" width="16" height="16"/>
<use href="#icon-vite" x="1267" y="38" width="16" height="16"/>
<use href="#icon-vite" x="1310" y="48" width="16" height="16"/>
<use href="#icon-vite" x="1351" y="30" width="16" height="16"/>
<use href="#icon-vite" x="1394" y="15" width="16" height="16"/>
<use href="#icon-vite" x="1434" y="19" width="16" height="16"/>
<use href="#icon-vite" x="1476" y="31" width="16" height="16"/>
<use href="#icon-vite" x="801" y="286" width="16" height="16"/>
<use href="#icon-vite" x="715" y="400" width="16" height="16"/>
<use href="#icon-vite" x="506" y="324" width="16" height="16"/>
<use href="#icon-vite" x="422" y="400" width="16" height="16"/>
<use href="#icon-vite" x="336" y="362" width="16" height="16"/>
<use href="#icon-vite" x="253" y="362" width="16" height="16"/>
<use href="#icon-vite" x="253" y="438" width="16" height="16"/>
<use href="#icon-vite" x="295" y="438" width="16" height="16"/>
<use href="#icon-vite" x="295" y="400" width="16" height="16"/>
<use href="#icon-vite" x="337" y="438" width="16" height="16"/>
<use href="#icon-vite" x="337" y="400" width="16" height="16"/>
<use href="#icon-vite" x="379" y="383" width="16" height="16"/>
<use href="#icon-vite" x="379" y="438" width="16" height="16"/>
<use href="#icon-vite" x="379" y="476" width="16" height="16"/>
<use href="#icon-vite" x="379" y="516" width="16" height="16"/>
<use href="#icon-vite" x="295" y="476" width="16" height="16"/>
<use href="#icon-vite" x="295" y="516" width="16" height="16"/>
<use href="#icon-vite" x="295" y="556" width="16" height="16"/>
<use href="#icon-vite" x="253" y="476" width="16" height="16"/>
<use href="#icon-vite" x="253" y="552" width="16" height="16"/>
<use href="#icon-vue" x="208" y="516" width="16" height="16"/>
<use href="#icon-vite" x="210" y="438" width="16" height="16"/>
<use href="#icon-vite" x="210" y="579" width="16" height="16"/>
<use href="#icon-vite" x="210" y="400" width="16" height="16"/>
<use href="#icon-vite" x="168" y="324" width="16" height="16"/>
<use href="#icon-vite" x="126" y="400" width="16" height="16"/>
<use href="#icon-vite" x="84" y="400" width="16" height="16"/>
<use href="#icon-vite" x="126" y="438" width="16" height="16"/>
<use href="#icon-vite" x="168" y="400" width="16" height="16"/>
<use href="#icon-vite" x="168" y="476" width="16" height="16"/>
<use href="#icon-vite" x="590" y="362" width="16" height="16"/>
<use href="#icon-vite" x="590" y="552" width="16" height="16"/>
<use href="#icon-vite" x="590" y="438" width="16" height="16"/>
<use href="#icon-vite" x="422" y="362" width="16" height="16"/>
<use href="#icon-vite" x="590" y="476" width="16" height="16"/>
<use href="#icon-vite" x="506" y="401" width="16" height="16"/>
<use href="#icon-vite" x="506" y="362" width="16" height="16"/>
<use href="#icon-vite" x="590" y="514" width="16" height="16"/>
<use href="#icon-vite" x="842" y="362" width="16" height="16"/>
<use href="#icon-vite" x="842" y="286" width="16" height="16"/>
<use href="#icon-vite" x="842" y="438" width="16" height="16"/>
<use href="#icon-vite" x="548" y="438" width="16" height="16"/>
<use href="#icon-vite" x="672" y="362" width="16" height="16"/>
<use href="#icon-vite" x="842" y="476" width="16" height="16"/>
<use href="#icon-vite" x="758" y="324" width="16" height="16"/>
<use href="#icon-vite" x="672" y="438" width="16" height="16"/>
<use href="#icon-vite" x="801" y="227" width="16" height="16"/>
<use href="#icon-vite" x="758" y="400" width="16" height="16"/>
<use href="#icon-vite" x="672" y="476" width="16" height="16"/>
<use href="#icon-vite" x="1012" y="400" width="16" height="16"/>
<use href="#icon-vite" x="885" y="400" width="16" height="16"/>
<use href="#icon-vite" x="758" y="438" width="16" height="16"/>
<use href="#icon-vite" x="969" y="400" width="16" height="16"/>
<use href="#icon-vite" x="928" y="438" width="16" height="16"/>
<use href="#icon-vite" x="885" y="438" width="16" height="16"/>
<use href="#icon-vite" x="928" y="476" width="16" height="16"/>
<use href="#icon-vite" x="928" y="515" width="16" height="16"/>
<use href="#icon-vite" x="758" y="476" width="16" height="16"/>
<use href="#icon-vite" x="1012" y="438" width="16" height="16"/>
<use href="#icon-vite" x="885" y="476" width="16" height="16"/>
<use href="#icon-vite" x="1012" y="476" width="16" height="16"/>
<use href="#icon-vite" x="1012" y="515" width="16" height="16"/>
<use href="#icon-vite" x="928" y="591" width="16" height="16"/>
<use href="#icon-vite" x="885" y="515" width="16" height="16"/>
<use href="#icon-vite" x="842" y="248" width="16" height="16"/>
<use href="#icon-vue" x="969" y="438" width="16" height="16"/>
<use href="#icon-vite" x="672" y="514" width="16" height="16"/>
<use href="#icon-vite" x="969" y="476" width="16" height="16"/>
<use href="#icon-vite" x="969" y="515" width="16" height="16"/>
<use href="#icon-vite" x="969" y="554" width="16" height="16"/>
<use href="#icon-vite" x="801" y="324" width="16" height="16"/>
<use href="#icon-vite" x="631" y="438" width="16" height="16"/>
<use href="#icon-vite" x="801" y="362" width="16" height="16"/>
<use href="#icon-vite" x="715" y="438" width="16" height="16"/>
<use href="#icon-vite" x="801" y="400" width="16" height="16"/>
<use href="#icon-vite" x="506" y="476" width="16" height="16"/>
<use href="#icon-vite" x="631" y="476" width="16" height="16"/>
<use href="#icon-vite" x="715" y="476" width="16" height="16"/>
<use href="#icon-vite" x="631" y="514" width="16" height="16"/>
<use href="#icon-vite" x="422" y="552" width="16" height="16"/>
<use href="#icon-vite" x="505" y="598" width="16" height="16"/>
</svg>