<svg width="265" height="134" viewBox="0 0 265 134" fill="none" xmlns="http://www.w3.org/2000/svg">
<g clip-path="url(#clip0_1_8950)">
<path d="M149.796 15.9951L156.187 10.2551C156.512 9.96071 156.837 9.62762 157.163 9.2558C157.488 8.88398 157.651 8.45019 157.651 7.95442C157.651 7.39669 157.449 6.9629 157.046 6.65304C156.644 6.3277 156.171 6.16503 155.629 6.16503C154.978 6.16503 154.467 6.36643 154.095 6.76924C153.739 7.17205 153.537 7.66781 153.491 8.25653L150.005 8.0009C150.052 7.14881 150.23 6.41291 150.54 5.79321C150.849 5.15801 151.26 4.63126 151.771 4.21296C152.282 3.79466 152.879 3.48481 153.561 3.28341C154.258 3.06651 155.009 2.95806 155.815 2.95806C156.558 2.95806 157.256 3.06651 157.906 3.28341C158.557 3.48481 159.122 3.79466 159.603 4.21296C160.083 4.61577 160.455 5.12702 160.718 5.74673C160.997 6.36643 161.137 7.08684 161.137 7.90794C161.137 8.43469 161.082 8.91496 160.974 9.34876C160.865 9.76706 160.71 10.1544 160.509 10.5107C160.323 10.8515 160.099 11.1691 159.835 11.4635C159.572 11.7579 159.285 12.0445 158.975 12.3233L153.979 16.6225H161.276V19.6901H149.796V15.9951ZM163.177 11.4635C163.177 10.4875 163.262 9.49594 163.432 8.48892C163.618 7.4819 163.936 6.56784 164.385 5.74673C164.85 4.92562 165.477 4.25944 166.268 3.74818C167.058 3.22143 168.065 2.95806 169.289 2.95806C170.513 2.95806 171.52 3.22143 172.31 3.74818C173.1 4.25944 173.72 4.92562 174.169 5.74673C174.634 6.56784 174.951 7.4819 175.122 8.48892C175.308 9.49594 175.4 10.4875 175.4 11.4635C175.4 12.4395 175.308 13.4311 175.122 14.4381C174.951 15.4451 174.634 16.3592 174.169 17.1803C173.72 18.0014 173.1 18.6753 172.31 19.202C171.52 19.7133 170.513 19.9689 169.289 19.9689C168.065 19.9689 167.058 19.7133 166.268 19.202C165.477 18.6753 164.85 18.0014 164.385 17.1803C163.936 16.3592 163.618 15.4451 163.432 14.4381C163.262 13.4311 163.177 12.4395 163.177 11.4635ZM166.663 11.4635C166.663 11.8973 166.678 12.4163 166.709 13.0205C166.756 13.6247 166.864 14.2057 167.034 14.7634C167.205 15.3212 167.461 15.7937 167.801 16.181C168.158 16.5683 168.653 16.762 169.289 16.762C169.908 16.762 170.396 16.5683 170.753 16.181C171.109 15.7937 171.372 15.3212 171.543 14.7634C171.713 14.2057 171.814 13.6247 171.845 13.0205C171.891 12.4163 171.915 11.8973 171.915 11.4635C171.915 11.0297 171.891 10.5107 171.845 9.90649C171.814 9.30228 171.713 8.72131 171.543 8.16357C171.372 7.60584 171.109 7.13332 170.753 6.746C170.396 6.35869 169.908 6.16503 169.289 6.16503C168.653 6.16503 168.158 6.35869 167.801 6.746C167.461 7.13332 167.205 7.60584 167.034 8.16357C166.864 8.72131 166.756 9.30228 166.709 9.90649C166.678 10.5107 166.663 11.0297 166.663 11.4635ZM177.301 15.9951L183.692 10.2551C184.017 9.96071 184.343 9.62762 184.668 9.2558C184.993 8.88398 185.156 8.45019 185.156 7.95442C185.156 7.39669 184.955 6.9629 184.552 6.65304C184.149 6.3277 183.677 6.16503 183.134 6.16503C182.484 6.16503 181.972 6.36643 181.601 6.76924C181.244 7.17205 181.043 7.66781 180.996 8.25653L177.51 8.0009C177.557 7.14881 177.735 6.41291 178.045 5.79321C178.355 5.15801 178.765 4.63126 179.277 4.21296C179.788 3.79466 180.384 3.48481 181.066 3.28341C181.763 3.06651 182.515 2.95806 183.32 2.95806C184.064 2.95806 184.761 3.06651 185.412 3.28341C186.062 3.48481 186.628 3.79466 187.108 4.21296C187.588 4.61577 187.96 5.12702 188.224 5.74673C188.502 6.36643 188.642 7.08684 188.642 7.90794C188.642 8.43469 188.588 8.91496 188.479 9.34876C188.371 9.76706 188.216 10.1544 188.014 10.5107C187.829 10.8515 187.604 11.1691 187.341 11.4635C187.077 11.7579 186.791 12.0445 186.481 12.3233L181.484 16.6225H188.781V19.6901H177.301V15.9951ZM196.585 9.11637C196.771 9.06989 196.957 9.03116 197.143 9.00017C197.329 8.96919 197.522 8.9537 197.724 8.9537C198.498 8.9537 199.203 9.09313 199.838 9.37199C200.474 9.65086 201.016 10.0304 201.465 10.5107C201.914 10.991 202.263 11.5642 202.511 12.2304C202.759 12.8811 202.883 13.5782 202.883 14.3219C202.883 15.174 202.72 15.9486 202.395 16.6458C202.085 17.3274 201.651 17.9162 201.093 18.4119C200.551 18.9077 199.9 19.295 199.141 19.5739C198.398 19.8372 197.6 19.9689 196.748 19.9689C195.88 19.9689 195.074 19.8372 194.331 19.5739C193.587 19.295 192.936 18.9077 192.379 18.4119C191.836 17.9162 191.403 17.3274 191.077 16.6458C190.767 15.9486 190.613 15.174 190.613 14.3219C190.613 13.7332 190.667 13.1987 190.775 12.7184C190.884 12.2226 191.023 11.7579 191.193 11.3241C191.379 10.8903 191.589 10.4797 191.821 10.0924C192.069 9.68959 192.324 9.27904 192.588 8.86074L196.19 3.23693H200.443L196.585 9.11637ZM199.397 14.1824C199.397 13.4388 199.149 12.8268 198.653 12.3466C198.173 11.8508 197.538 11.6029 196.748 11.6029C195.957 11.6029 195.315 11.8508 194.819 12.3466C194.338 12.8268 194.098 13.4388 194.098 14.1824C194.098 14.9261 194.338 15.5458 194.819 16.0416C195.315 16.5218 195.957 16.762 196.748 16.762C197.538 16.762 198.173 16.5218 198.653 16.0416C199.149 15.5458 199.397 14.9261 199.397 14.1824Z" fill="#41B883"/>
<path d="M52.5142 6.44389H47.8199V3.23692H60.8337V6.44389H56.1394V19.6901H52.5142V6.44389ZM65.956 3.23692H68.9539L76.1114 19.6901H72.0214L70.6038 16.2042H64.2131L62.842 19.6901H58.8449L65.956 3.23692ZM67.3504 8.02414L65.3518 13.1367H69.3722L67.3504 8.02414ZM89.7993 3.23692H93.7499L96.3759 13.7874H96.4224L99.8618 3.23692H103.231L106.648 14.0663H106.694L109.459 3.23692H113.131L108.321 19.6901H105.091L101.465 8.303H101.419L97.7935 19.6901H94.6795L89.7993 3.23692ZM119.583 3.23692H122.58L129.738 19.6901H125.648L124.23 16.2042H117.84L116.469 19.6901H112.471L119.583 3.23692ZM120.977 8.02414L118.978 13.1367H122.999L120.977 8.02414ZM131.393 3.23692H136.319L143.314 14.6705H143.361V3.23692H146.986V19.6901H142.245L135.065 7.97766H135.018V19.6901H131.393V3.23692Z" fill="#34495E"/>
<path d="M83.7664 1.99364C84.273 1.6632 84.1188 0.972025 84.7962 0.958257C85.4735 0.944488 85.6442 1.83943 86.6162 1.88349C87.5882 1.92755 87.9241 2.47829 87.6625 2.83076C87.401 3.18323 86.7677 3.73121 87.266 5.05573C87.7644 6.38025 86.3188 7.07693 85.8397 10.6347C85.3606 14.1924 85.0522 15.1672 84.1519 16.5661C83.2515 17.965 82.4007 18.2404 82.1143 19.4657C81.8279 20.6884 81.9573 21.0904 82.1088 21.7403C82.2602 22.3901 81.9298 23.0786 81.5168 22.7812C81.1038 22.4838 80.5228 23.0703 80.5503 22.2414C80.5779 21.4126 80.0712 19.9642 79.2397 19.8678C78.4081 19.7714 77.6784 19.1711 77.103 18.0586C76.5275 16.9489 76.0016 16.5055 75.5335 14.9222C75.1287 13.5481 76.1365 11.6866 76.7836 10.7228C77.4306 9.75902 79.672 5.81024 80.2171 5.39168C80.7651 4.97312 81.0735 3.25483 81.6985 2.7867C82.5659 2.13683 83.2597 2.32684 83.7636 1.99639L83.7664 1.99364Z" fill="#34495E"/>
<path d="M97.7197 55.1539C96.8322 54.0734 95.7324 53.2438 94.4204 52.665C93.147 52.0861 91.6613 51.7967 89.9634 51.7967C88.2655 51.7967 86.6834 52.1247 85.217 52.7807C83.7893 53.4367 82.5351 54.3629 81.4547 55.5591C80.4128 56.7168 79.5831 58.1059 78.9657 59.7267C78.3869 61.3474 78.0975 63.1031 78.0975 64.994C78.0975 66.9234 78.3869 68.6985 78.9657 70.3192C79.5831 71.9013 80.4128 73.2905 81.4547 74.4867C82.4965 75.6444 83.7121 76.5512 85.1013 77.2072C86.529 77.8632 88.0533 78.1912 89.674 78.1912C91.5262 78.1912 93.1663 77.8054 94.594 77.0336C96.0218 76.2618 97.1988 75.1813 98.1249 73.7922L105.65 79.4068C103.913 81.8379 101.714 83.6322 99.051 84.7899C96.3884 85.9475 93.6486 86.5264 90.8317 86.5264C87.6288 86.5264 84.6768 86.0247 81.9756 85.0214C79.2744 84.0181 76.9398 82.5903 74.9718 80.7381C73.0038 78.8472 71.4602 76.5705 70.3412 73.9079C69.2607 71.2453 68.7205 68.274 68.7205 64.994C68.7205 61.714 69.2607 58.7426 70.3412 56.08C71.4602 53.4174 73.0038 51.16 74.9718 49.3078C76.9398 47.4169 79.2744 45.9699 81.9756 44.9666C84.6768 43.9633 87.6288 43.4616 90.8317 43.4616C91.9893 43.4616 93.1856 43.5774 94.4204 43.8089C95.6938 44.0018 96.9286 44.3298 98.1249 44.7929C99.3597 45.256 100.537 45.8734 101.656 46.6452C102.775 47.4169 103.778 48.3623 104.666 49.4814L97.7197 55.1539ZM108.345 64.994C108.345 61.714 108.885 58.7426 109.966 56.08C111.085 53.4174 112.629 51.16 114.597 49.3078C116.565 47.4169 118.899 45.9699 121.6 44.9666C124.302 43.9633 127.254 43.4616 130.456 43.4616C133.659 43.4616 136.611 43.9633 139.313 44.9666C142.014 45.9699 144.348 47.4169 146.316 49.3078C148.284 51.16 149.809 53.4174 150.889 56.08C152.008 58.7426 152.568 61.714 152.568 64.994C152.568 68.274 152.008 71.2453 150.889 73.9079C149.809 76.5705 148.284 78.8472 146.316 80.7381C144.348 82.5903 142.014 84.0181 139.313 85.0214C136.611 86.0247 133.659 86.5264 130.456 86.5264C127.254 86.5264 124.302 86.0247 121.6 85.0214C118.899 84.0181 116.565 82.5903 114.597 80.7381C112.629 78.8472 111.085 76.5705 109.966 73.9079C108.885 71.2453 108.345 68.274 108.345 64.994ZM117.722 64.994C117.722 66.9234 118.012 68.6985 118.59 70.3192C119.208 71.9013 120.076 73.2905 121.195 74.4867C122.314 75.6444 123.646 76.5512 125.189 77.2072C126.771 77.8632 128.527 78.1912 130.456 78.1912C132.386 78.1912 134.122 77.8632 135.666 77.2072C137.248 76.5512 138.599 75.6444 139.718 74.4867C140.837 73.2905 141.686 71.9013 142.265 70.3192C142.882 68.6985 143.191 66.9234 143.191 64.994C143.191 63.1031 142.882 61.3474 142.265 59.7267C141.686 58.1059 140.837 56.7168 139.718 55.5591C138.599 54.3629 137.248 53.4367 135.666 52.7807C134.122 52.1247 132.386 51.7967 130.456 51.7967C128.527 51.7967 126.771 52.1247 125.189 52.7807C123.646 53.4367 122.314 54.3629 121.195 55.5591C120.076 56.7168 119.208 58.1059 118.59 59.7267C118.012 61.3474 117.722 63.1031 117.722 64.994ZM158.705 44.5035H170.976L188.399 72.9818H188.515V44.5035H197.544V85.4845H185.736L167.851 56.3116H167.735V85.4845H158.705V44.5035ZM206.252 44.5035H233.746V52.8386H215.281V61.1737H232.357V69.5088H215.281V85.4845H206.252V44.5035Z" fill="#41B883"/>
<path d="M18.2963 37.1954C17.0474 39.1936 15.9234 41.1086 14.9243 42.9403C13.9252 44.772 13.0717 46.6453 12.364 48.5603C11.698 50.4336 11.1776 52.411 10.8029 54.4925C10.4283 56.5324 10.2409 58.7596 10.2409 61.1741C10.2409 63.5886 10.4283 65.8366 10.8029 67.9181C11.1776 69.958 11.698 71.9354 12.364 73.8504C13.0717 75.7237 13.9252 77.5762 14.9243 79.408C15.9234 81.2397 17.0474 83.1546 18.2963 85.1529L11.8645 88.8995L11.7396 88.6498C8.86714 84.3619 6.63995 80.0116 5.05802 75.5988C3.51772 71.1444 2.74756 66.3362 2.74756 61.1741C2.74756 56.012 3.51772 51.2246 5.05802 46.8118C6.63995 42.3575 8.86714 37.9863 11.7396 33.6985L11.8645 33.4487L18.2963 37.1954Z" fill="#41B883"/>
<path d="M232.308 86.8712C233.557 84.8729 234.681 82.958 235.68 81.1262C236.68 79.2945 237.512 77.442 238.178 75.5687C238.886 73.6537 239.427 71.6763 239.802 69.6364C240.176 67.5549 240.364 65.3069 240.364 62.8924C240.364 60.4779 240.176 58.2507 239.802 56.2108C239.427 54.1293 238.886 52.1519 238.178 50.2786C237.512 48.3636 236.68 46.4903 235.68 44.6586C234.681 42.8269 233.557 40.9119 232.308 38.9137L238.74 35.167L238.865 35.4168C241.738 39.7046 243.944 44.0758 245.484 48.5301C247.066 52.9429 247.857 57.7303 247.857 62.8924C247.857 68.0545 247.066 72.8627 245.484 77.3171C243.944 81.7299 241.738 86.0802 238.865 90.3681L238.74 90.6178L232.308 86.8712Z" fill="#41B883"/>
<path d="M58.6684 42.9078L44.1026 68.2968L29.5395 42.9078H19.627L44.1026 85.2897L68.5809 42.9078H58.6684Z" fill="#41B883"/>
<path d="M49.6674 42.9078L44.1027 52.7192L38.5407 42.9078H29.5396L44.1027 68.2968L58.6685 42.9078H49.6674Z" fill="#34495E"/>
<path d="M252.499 39.496C252.135 39.9559 251.395 39.6998 251.395 39.116V33.4902C251.395 32.8073 250.841 32.2566 250.158 32.2566H243.946C243.445 32.2566 243.151 31.6893 243.445 31.279L247.529 25.5624C248.112 24.7446 247.529 23.6073 246.524 23.6073H239.007C238.506 23.6073 238.211 23.04 238.506 22.6297L243.8 15.2168C243.916 15.0544 244.103 14.958 244.302 14.958H260.079C260.58 14.958 260.875 15.5252 260.58 15.9355L256.497 21.6522C255.913 22.47 256.497 23.6073 257.502 23.6073H263.714C264.228 23.6073 264.518 24.2021 264.198 24.6069L252.499 39.4988V39.496Z" fill="#863BFF"/>
<path d="M97.7605 113.607V118.316H96.7894V114.538H95.1002V113.607H97.7605ZM97.7605 117.903C98.0708 118.391 98.5142 118.755 99.0906 118.994C99.667 119.233 100.345 119.371 101.126 119.406C101.498 119.415 101.95 119.424 102.483 119.433C103.015 119.433 103.573 119.433 104.159 119.433C104.744 119.424 105.311 119.411 105.861 119.393C106.411 119.375 106.885 119.353 107.284 119.327C107.249 119.398 107.209 119.491 107.165 119.606C107.12 119.721 107.08 119.841 107.045 119.965C107.009 120.089 106.983 120.205 106.965 120.311C106.593 120.32 106.149 120.329 105.635 120.338C105.13 120.355 104.602 120.364 104.052 120.364C103.502 120.373 102.97 120.373 102.456 120.364C101.942 120.355 101.503 120.346 101.139 120.338C100.261 120.302 99.5118 120.16 98.8911 119.912C98.2704 119.664 97.7516 119.278 97.3348 118.755C97.0422 119.038 96.7407 119.322 96.4303 119.606C96.1288 119.899 95.814 120.191 95.4859 120.484L94.9671 119.5C95.2598 119.287 95.5746 119.043 95.9115 118.768C96.2574 118.484 96.5811 118.196 96.8826 117.903H97.7605ZM95.2332 109.244L95.9914 108.685C96.2663 108.889 96.5412 109.12 96.8161 109.377C97.0998 109.634 97.357 109.891 97.5875 110.149C97.827 110.406 98.0132 110.645 98.1462 110.867L97.3348 111.492C97.2107 111.27 97.0333 111.026 96.8028 110.76C96.5722 110.486 96.3195 110.219 96.0446 109.962C95.7785 109.696 95.5081 109.457 95.2332 109.244ZM98.5186 109.55H106.872V110.388H98.5186V109.55ZM98.3191 116.56H107.072V117.411H98.3191V116.56ZM102.123 108.353H103.094V118.928H102.123V108.353ZM100.075 113.806V114.871H105.223V113.806H100.075ZM100.075 112.037V113.088H105.223V112.037H100.075ZM99.1438 111.292H106.18V115.615H99.1438V111.292ZM116.383 108.353H117.394V113.567H116.383V108.353ZM114.653 119.007H119.402V119.912H114.653V119.007ZM113.297 110.242H120.573V111.146H113.297V110.242ZM113.722 113.141H120.267V114.072H113.722V113.141ZM114.148 115.509H119.894V120.537H118.937V116.414H115.079V120.577H114.148V115.509ZM110.384 108.353L111.275 108.699C111.115 109.018 110.938 109.355 110.743 109.71C110.548 110.064 110.357 110.406 110.171 110.734C109.985 111.053 109.803 111.337 109.625 111.585L108.934 111.279C109.102 111.022 109.275 110.725 109.453 110.388C109.63 110.042 109.803 109.692 109.971 109.337C110.14 108.974 110.277 108.645 110.384 108.353ZM111.993 109.869L112.871 110.242C112.561 110.747 112.215 111.279 111.833 111.838C111.461 112.388 111.084 112.924 110.703 113.447C110.322 113.971 109.962 114.423 109.625 114.804L108.987 114.472C109.244 114.17 109.51 113.829 109.785 113.447C110.06 113.066 110.33 112.667 110.596 112.25C110.871 111.833 111.129 111.421 111.368 111.013C111.607 110.605 111.816 110.224 111.993 109.869ZM108.295 111.159L108.787 110.494C109.036 110.698 109.288 110.924 109.546 111.173C109.803 111.421 110.038 111.669 110.251 111.918C110.463 112.157 110.627 112.374 110.743 112.569L110.211 113.341C110.087 113.128 109.918 112.893 109.705 112.636C109.501 112.379 109.275 112.122 109.027 111.864C108.779 111.607 108.535 111.372 108.295 111.159ZM111.567 112.955L112.312 112.636C112.507 112.929 112.694 113.239 112.871 113.567C113.048 113.895 113.204 114.214 113.337 114.525C113.478 114.835 113.58 115.114 113.643 115.363L112.858 115.735C112.787 115.487 112.685 115.203 112.552 114.884C112.419 114.565 112.268 114.237 112.1 113.9C111.931 113.563 111.754 113.248 111.567 112.955ZM108.269 114.299C108.863 114.281 109.568 114.259 110.384 114.232C111.208 114.197 112.055 114.157 112.924 114.112L112.911 114.937C112.086 114.99 111.275 115.044 110.477 115.097C109.679 115.141 108.969 115.177 108.348 115.203L108.269 114.299ZM111.913 116.148L112.658 115.895C112.853 116.303 113.035 116.746 113.204 117.225C113.381 117.704 113.505 118.116 113.576 118.462L112.751 118.741C112.689 118.387 112.578 117.97 112.419 117.491C112.259 117.003 112.091 116.555 111.913 116.148ZM109 115.961L109.852 116.108C109.763 116.737 109.639 117.358 109.479 117.97C109.32 118.573 109.133 119.087 108.92 119.513C108.858 119.468 108.779 119.424 108.681 119.38C108.592 119.335 108.495 119.291 108.388 119.247C108.291 119.194 108.202 119.154 108.122 119.127C108.353 118.719 108.535 118.236 108.668 117.677C108.81 117.11 108.92 116.538 109 115.961ZM110.53 114.684H111.434V120.617H110.53V114.684ZM126.479 119.233H134.007V120.205H126.479V119.233ZM127.011 112.702H133.715V113.66H127.011V112.702ZM129.857 108.459H130.881V119.699H129.857V108.459ZM121.823 110.854H126.239V111.771H121.823V110.854ZM123.925 114.831L124.922 113.66V120.59H123.925V114.831ZM123.925 108.353H124.922V111.306H123.925V108.353ZM124.829 113.913C124.944 113.993 125.113 114.126 125.335 114.312C125.556 114.498 125.796 114.702 126.053 114.924C126.31 115.137 126.545 115.336 126.758 115.522C126.971 115.709 127.121 115.846 127.21 115.935L126.598 116.746C126.483 116.604 126.323 116.427 126.119 116.214C125.915 116.001 125.694 115.78 125.454 115.549C125.224 115.318 125.002 115.106 124.789 114.91C124.576 114.707 124.399 114.547 124.257 114.432L124.829 113.913ZM125.867 110.854H126.079L126.266 110.814L126.824 111.186C126.496 112.002 126.066 112.782 125.534 113.527C125.002 114.263 124.417 114.933 123.778 115.536C123.149 116.139 122.519 116.649 121.889 117.065C121.854 116.968 121.805 116.861 121.743 116.746C121.681 116.631 121.615 116.52 121.544 116.414C121.482 116.307 121.424 116.223 121.371 116.161C121.974 115.806 122.568 115.363 123.153 114.831C123.738 114.29 124.27 113.696 124.749 113.048C125.237 112.392 125.609 111.727 125.867 111.053V110.854ZM141.443 110.947H146.923V111.864H141.443V110.947ZM141.629 113.66H146.684V114.591H141.629V113.66ZM141.137 116.52H147.216V117.464H141.137V116.52ZM141.616 108.725L142.414 108.446C142.635 108.774 142.835 109.142 143.012 109.55C143.199 109.949 143.323 110.304 143.385 110.614L142.52 110.933C142.467 110.623 142.352 110.264 142.174 109.856C142.006 109.439 141.82 109.062 141.616 108.725ZM145.713 108.34L146.67 108.579C146.493 108.978 146.307 109.39 146.112 109.816C145.925 110.233 145.744 110.587 145.566 110.88L144.742 110.654C144.857 110.441 144.972 110.202 145.087 109.936C145.212 109.661 145.327 109.386 145.433 109.111C145.548 108.827 145.642 108.57 145.713 108.34ZM143.651 111.372H144.609V120.604H143.651V111.372ZM134.978 111.213H141.31V112.077H134.978V111.213ZM135.657 109.018H140.512V114.272H135.59V113.407H139.581V109.883H135.657V109.018ZM136.362 115.642H137.279V120.59H136.362V115.642ZM136.747 115.642H140.698V119.872H136.747V118.994H139.727V116.52H136.747V115.642ZM137.306 109.337L138.264 109.377C138.175 110.681 138.029 111.878 137.825 112.968C137.621 114.059 137.328 115.044 136.947 115.921C136.574 116.799 136.069 117.562 135.43 118.209C135.395 118.147 135.337 118.067 135.258 117.97C135.178 117.863 135.093 117.761 135.005 117.664C134.916 117.566 134.836 117.491 134.765 117.438C135.36 116.87 135.825 116.183 136.162 115.376C136.508 114.569 136.765 113.656 136.934 112.636C137.111 111.616 137.235 110.517 137.306 109.337Z" fill="#34495E"/>
<path d="M152.457 110.175H157.152V113.953H152.457V113.048H156.247V111.066H152.457V110.175ZM153.441 118.768H156.979V119.593H153.441V118.768ZM153.108 115.456H157.325V120.165H156.434V116.281H153.986V120.471H153.108V115.456ZM151.991 110.175H152.922V113.301C152.922 113.798 152.904 114.343 152.869 114.937C152.842 115.522 152.785 116.125 152.696 116.746C152.616 117.367 152.492 117.974 152.324 118.568C152.164 119.163 151.951 119.712 151.685 120.218C151.632 120.156 151.556 120.08 151.459 119.992C151.37 119.912 151.273 119.836 151.166 119.766C151.069 119.703 150.985 119.655 150.914 119.619C151.242 118.99 151.481 118.302 151.632 117.557C151.783 116.813 151.88 116.072 151.924 115.336C151.969 114.591 151.991 113.913 151.991 113.301V110.175ZM153.587 108.592L154.452 108.353C154.62 108.69 154.789 109.058 154.957 109.457C155.135 109.856 155.263 110.202 155.343 110.494L154.452 110.774C154.372 110.481 154.248 110.131 154.079 109.723C153.92 109.315 153.756 108.938 153.587 108.592ZM159.001 110.854H163.204V111.785H159.001V110.854ZM159.347 108.34L160.304 108.499C160.171 109.315 160.007 110.109 159.812 110.88C159.617 111.652 159.387 112.37 159.121 113.035C158.855 113.691 158.549 114.272 158.203 114.777C158.158 114.724 158.088 114.658 157.99 114.578C157.901 114.489 157.808 114.405 157.711 114.325C157.613 114.237 157.524 114.166 157.445 114.112C157.782 113.66 158.07 113.128 158.309 112.516C158.549 111.904 158.753 111.244 158.921 110.534C159.098 109.816 159.24 109.084 159.347 108.34ZM161.661 111.359L162.606 111.439C162.428 112.893 162.167 114.197 161.821 115.349C161.484 116.502 161.023 117.518 160.437 118.395C159.852 119.265 159.098 120.009 158.176 120.63C158.141 120.568 158.088 120.484 158.017 120.377C157.946 120.271 157.87 120.165 157.79 120.058C157.711 119.961 157.64 119.881 157.578 119.819C158.447 119.278 159.152 118.604 159.693 117.797C160.234 116.99 160.659 116.05 160.97 114.977C161.28 113.895 161.51 112.689 161.661 111.359ZM159.44 111.665C159.617 112.871 159.87 114.01 160.198 115.083C160.526 116.156 160.947 117.101 161.462 117.917C161.976 118.732 162.606 119.367 163.351 119.819C163.244 119.899 163.124 120.014 162.991 120.165C162.867 120.315 162.765 120.453 162.685 120.577C161.914 120.054 161.262 119.358 160.73 118.489C160.198 117.62 159.764 116.618 159.427 115.482C159.09 114.339 158.819 113.115 158.615 111.811L159.44 111.665ZM170.932 112.343H173.686V113.141H170.932V112.343ZM170.081 116.201H174.564V116.932H170.081V116.201ZM165.612 108.911H169.35V109.736H165.612V108.911ZM169.07 108.911H169.243L169.403 108.872L170.028 109.191C169.709 109.927 169.265 110.587 168.698 111.173C168.13 111.749 167.501 112.246 166.809 112.663C166.117 113.07 165.412 113.403 164.694 113.66C164.632 113.545 164.548 113.416 164.441 113.274C164.335 113.124 164.237 113.004 164.149 112.915C164.645 112.765 165.142 112.565 165.638 112.317C166.135 112.068 166.605 111.78 167.048 111.452C167.492 111.124 167.886 110.76 168.232 110.361C168.587 109.962 168.866 109.537 169.07 109.084V108.911ZM171.159 108.353C171.478 109.036 171.908 109.665 172.449 110.242C172.99 110.809 173.615 111.306 174.324 111.731C175.034 112.148 175.796 112.463 176.612 112.676C176.515 112.773 176.404 112.902 176.28 113.062C176.164 113.212 176.076 113.35 176.014 113.474C175.162 113.208 174.373 112.844 173.646 112.383C172.928 111.913 172.289 111.359 171.73 110.72C171.172 110.082 170.715 109.377 170.36 108.606L171.159 108.353ZM173.885 108.446L174.617 108.965C174.298 109.266 173.943 109.568 173.553 109.869C173.171 110.171 172.821 110.428 172.502 110.641L171.903 110.188C172.116 110.038 172.342 109.86 172.582 109.656C172.83 109.452 173.07 109.244 173.3 109.031C173.531 108.818 173.726 108.623 173.885 108.446ZM175.482 109.776L176.213 110.295C175.894 110.596 175.535 110.898 175.136 111.199C174.745 111.492 174.382 111.74 174.045 111.944L173.433 111.492C173.655 111.341 173.89 111.168 174.138 110.973C174.386 110.769 174.63 110.565 174.87 110.361C175.109 110.149 175.313 109.953 175.482 109.776ZM166.037 112.396H169.283V115.589H168.392V113.195H166.037V112.396ZM165.692 114.591H166.543C166.49 114.928 166.423 115.292 166.343 115.682C166.264 116.072 166.184 116.445 166.104 116.799C166.033 117.154 165.958 117.473 165.878 117.757L165.053 117.611C165.124 117.345 165.199 117.039 165.279 116.693C165.359 116.347 165.434 115.992 165.505 115.629C165.576 115.256 165.638 114.91 165.692 114.591ZM168.405 116.613H169.323C169.323 116.613 169.318 116.662 169.31 116.759C169.31 116.857 169.301 116.941 169.283 117.012C169.23 117.677 169.172 118.227 169.11 118.662C169.048 119.096 168.977 119.433 168.897 119.672C168.817 119.921 168.715 120.103 168.591 120.218C168.476 120.333 168.352 120.413 168.219 120.457C168.086 120.502 167.917 120.533 167.713 120.55C167.536 120.559 167.283 120.559 166.955 120.55C166.636 120.55 166.295 120.541 165.931 120.524C165.913 120.391 165.878 120.244 165.825 120.085C165.78 119.925 165.714 119.783 165.625 119.659C165.998 119.695 166.343 119.717 166.663 119.726C166.991 119.735 167.221 119.739 167.354 119.739C167.478 119.739 167.576 119.73 167.647 119.712C167.727 119.703 167.793 119.677 167.846 119.633C167.926 119.553 167.997 119.406 168.059 119.194C168.13 118.981 168.192 118.679 168.245 118.289C168.299 117.89 168.352 117.376 168.405 116.746V116.613ZM170.573 112.343H171.425V113.407C171.425 113.691 171.385 113.988 171.305 114.299C171.225 114.6 171.079 114.893 170.866 115.177C170.662 115.46 170.365 115.717 169.975 115.948C169.93 115.895 169.868 115.828 169.788 115.748C169.709 115.66 169.624 115.58 169.536 115.509C169.456 115.429 169.385 115.367 169.323 115.323C169.686 115.128 169.953 114.924 170.121 114.711C170.298 114.489 170.418 114.268 170.48 114.046C170.542 113.815 170.573 113.594 170.573 113.381V112.343ZM174.324 116.201H174.511L174.67 116.174L175.229 116.387C174.936 117.203 174.519 117.89 173.978 118.449C173.438 119.007 172.808 119.46 172.09 119.805C171.38 120.151 170.604 120.417 169.762 120.604C169.718 120.497 169.651 120.369 169.562 120.218C169.483 120.076 169.403 119.956 169.323 119.859C170.086 119.717 170.799 119.5 171.464 119.207C172.13 118.914 172.71 118.533 173.207 118.063C173.712 117.584 174.085 117.008 174.324 116.334V116.201ZM171.331 116.866C171.722 117.637 172.342 118.271 173.194 118.768C174.054 119.265 175.069 119.593 176.24 119.752C176.142 119.859 176.036 119.992 175.92 120.151C175.805 120.32 175.717 120.466 175.654 120.59C174.431 120.36 173.384 119.952 172.515 119.367C171.646 118.772 170.994 118.014 170.56 117.092L171.331 116.866ZM166.131 114.591H168.738V115.376H165.984L166.131 114.591ZM165.731 116.613H168.658V117.385H165.585L165.731 116.613ZM173.234 112.343H174.098V114.418C174.098 114.516 174.103 114.596 174.111 114.658C174.12 114.72 174.138 114.76 174.165 114.777C174.191 114.813 174.262 114.831 174.377 114.831C174.422 114.831 174.484 114.831 174.564 114.831C174.644 114.831 174.714 114.831 174.777 114.831C174.83 114.831 174.883 114.831 174.936 114.831C174.998 114.822 175.038 114.813 175.056 114.804C175.091 114.795 175.122 114.777 175.149 114.751C175.176 114.715 175.198 114.671 175.215 114.618C175.233 114.556 175.242 114.467 175.242 114.352C175.251 114.237 175.26 114.095 175.269 113.926C175.357 113.997 175.468 114.068 175.601 114.139C175.743 114.21 175.876 114.263 176 114.299C175.991 114.467 175.974 114.636 175.947 114.804C175.929 114.973 175.898 115.097 175.854 115.177C175.81 115.247 175.752 115.31 175.681 115.363C175.619 115.416 175.544 115.456 175.455 115.482C175.384 115.509 175.291 115.531 175.176 115.549C175.06 115.558 174.958 115.562 174.87 115.562C174.79 115.562 174.675 115.562 174.524 115.562C174.382 115.562 174.276 115.562 174.205 115.562C174.072 115.562 173.939 115.545 173.806 115.509C173.673 115.474 173.562 115.42 173.473 115.349C173.384 115.27 173.322 115.163 173.287 115.03C173.251 114.897 173.234 114.671 173.234 114.352V112.343ZM165.266 110.494L165.838 109.962C166.148 110.14 166.468 110.352 166.796 110.601C167.133 110.849 167.39 111.071 167.567 111.266L166.969 111.878C166.791 111.665 166.538 111.43 166.21 111.173C165.891 110.916 165.576 110.689 165.266 110.494ZM177.902 113.82H189.608V114.804H177.902V113.82ZM178.847 110.534H188.703V111.519H178.847V110.534ZM183.183 108.366H184.234V120.59H183.183V108.366ZM182.93 114.325L183.782 114.684C183.471 115.216 183.103 115.735 182.678 116.241C182.252 116.746 181.795 117.225 181.308 117.677C180.829 118.121 180.328 118.529 179.805 118.901C179.29 119.265 178.776 119.579 178.262 119.845C178.199 119.766 178.124 119.672 178.035 119.566C177.956 119.46 177.871 119.358 177.783 119.26C177.694 119.154 177.61 119.069 177.53 119.007C178.035 118.777 178.545 118.493 179.06 118.156C179.583 117.819 180.084 117.447 180.563 117.039C181.042 116.622 181.481 116.183 181.88 115.722C182.287 115.261 182.638 114.795 182.93 114.325ZM184.487 114.325C184.779 114.795 185.13 115.261 185.537 115.722C185.954 116.174 186.402 116.613 186.881 117.039C187.36 117.456 187.861 117.832 188.384 118.169C188.907 118.497 189.422 118.772 189.927 118.994C189.856 119.065 189.772 119.149 189.674 119.247C189.586 119.344 189.497 119.446 189.408 119.553C189.328 119.659 189.257 119.761 189.195 119.859C188.69 119.593 188.176 119.273 187.652 118.901C187.129 118.529 186.624 118.116 186.136 117.664C185.648 117.212 185.192 116.733 184.766 116.227C184.349 115.722 183.981 115.208 183.662 114.684L184.487 114.325ZM191.337 110.215H202.816V111.186H191.337V110.215ZM196.471 108.366H197.509V120.59H196.471V108.366ZM196.591 114.259L197.429 114.591C197.101 115.159 196.72 115.713 196.285 116.254C195.851 116.786 195.376 117.287 194.862 117.757C194.348 118.218 193.811 118.639 193.252 119.021C192.703 119.393 192.144 119.712 191.576 119.978C191.532 119.89 191.466 119.792 191.377 119.686C191.297 119.588 191.213 119.491 191.124 119.393C191.035 119.287 190.951 119.202 190.871 119.14C191.43 118.91 191.984 118.622 192.534 118.276C193.093 117.93 193.625 117.544 194.13 117.119C194.636 116.693 195.097 116.236 195.514 115.748C195.93 115.261 196.29 114.764 196.591 114.259ZM197.469 114.299C197.859 114.973 198.356 115.624 198.959 116.254C199.562 116.875 200.227 117.433 200.954 117.93C201.69 118.427 202.439 118.821 203.202 119.114C203.122 119.185 203.033 119.273 202.936 119.38C202.847 119.486 202.759 119.593 202.67 119.699C202.59 119.814 202.524 119.921 202.47 120.018C201.708 119.672 200.958 119.225 200.222 118.675C199.486 118.125 198.808 117.504 198.187 116.813C197.575 116.121 197.057 115.394 196.631 114.631L197.469 114.299ZM193.119 113.567L193.771 112.955C193.984 113.133 194.206 113.332 194.436 113.554C194.676 113.767 194.902 113.975 195.115 114.179C195.336 114.383 195.509 114.565 195.633 114.724L194.955 115.416C194.822 115.247 194.649 115.057 194.436 114.844C194.232 114.631 194.015 114.414 193.784 114.192C193.554 113.962 193.332 113.753 193.119 113.567ZM193.665 111.492L194.649 111.678C194.418 112.645 194.073 113.518 193.612 114.299C193.159 115.07 192.627 115.713 192.015 116.227C191.962 116.165 191.887 116.094 191.789 116.015C191.692 115.926 191.59 115.842 191.483 115.762C191.386 115.682 191.301 115.62 191.231 115.576C191.834 115.123 192.339 114.547 192.747 113.846C193.164 113.137 193.47 112.352 193.665 111.492ZM199.517 113.594L200.182 113.008C200.484 113.23 200.803 113.483 201.14 113.767C201.486 114.041 201.814 114.316 202.125 114.591C202.435 114.866 202.688 115.101 202.883 115.296L202.178 115.988C201.991 115.775 201.748 115.531 201.446 115.256C201.145 114.973 200.821 114.689 200.475 114.405C200.138 114.112 199.819 113.842 199.517 113.594ZM199.97 111.492L200.941 111.665C200.763 112.498 200.502 113.257 200.156 113.939C199.81 114.622 199.398 115.194 198.919 115.655C198.857 115.602 198.773 115.54 198.666 115.469C198.569 115.398 198.467 115.332 198.36 115.27C198.254 115.199 198.161 115.145 198.081 115.11C198.569 114.693 198.968 114.174 199.278 113.554C199.597 112.924 199.828 112.237 199.97 111.492Z" fill="#34495E"/>
<path d="M89.3281 109.247H47.624V119.755H89.3281V109.247Z" fill="url(#paint0_linear_1_8950)"/>
</g>
<defs>
<linearGradient id="paint0_linear_1_8950" x1="47.624" y1="114.501" x2="89.3281" y2="114.501" gradientUnits="userSpaceOnUse">
<stop stop-color="#41B883" stop-opacity="0"/>
<stop offset="1" stop-color="#41B883"/>
</linearGradient>
<clipPath id="clip0_1_8950">
<rect width="264.333" height="133.091" fill="white"/>
</clipPath>
</defs>
</svg>
