<svg width="455" height="230" viewBox="0 0 455 230" fill="none" xmlns="http://www.w3.org/2000/svg">
<g clip-path="url(#clip0_378_62304)">
<path d="M257.798 27.0979L268.53 17.4586C269.076 16.9643 269.622 16.4049 270.169 15.7805C270.715 15.1561 270.988 14.4276 270.988 13.595C270.988 12.6584 270.65 11.9299 269.974 11.4096C269.297 10.8632 268.504 10.5901 267.593 10.5901C266.5 10.5901 265.642 10.9283 265.017 11.6047C264.419 12.2812 264.081 13.1137 264.003 14.1024L258.149 13.6731C258.227 12.2421 258.526 11.0063 259.046 9.96564C259.567 8.89893 260.256 8.01435 261.115 7.31189C261.973 6.60943 262.975 6.08908 264.12 5.75086C265.29 5.38662 266.552 5.2045 267.905 5.2045C269.154 5.2045 270.325 5.38662 271.417 5.75086C272.51 6.08908 273.46 6.60943 274.266 7.31189C275.073 7.98834 275.697 8.8469 276.14 9.88759C276.608 10.9283 276.842 12.1381 276.842 13.517C276.842 14.4016 276.751 15.2081 276.569 15.9366C276.387 16.639 276.127 17.2895 275.788 17.8879C275.476 18.4602 275.099 18.9936 274.657 19.4879C274.214 19.9822 273.733 20.4636 273.213 20.9319L264.822 28.1516H277.076V33.303H257.798V27.0979ZM280.268 19.4879C280.268 17.8488 280.411 16.1837 280.698 14.4926C281.01 12.8015 281.543 11.2665 282.298 9.88759C283.078 8.50868 284.132 7.38994 285.459 6.53137C286.786 5.64679 288.477 5.2045 290.532 5.2045C292.588 5.2045 294.279 5.64679 295.606 6.53137C296.932 7.38994 297.973 8.50868 298.728 9.88759C299.508 11.2665 300.041 12.8015 300.328 14.4926C300.64 16.1837 300.796 17.8488 300.796 19.4879C300.796 21.127 300.64 22.7921 300.328 24.4832C300.041 26.1743 299.508 27.7093 298.728 29.0882C297.973 30.4672 296.932 31.5989 295.606 32.4835C294.279 33.3421 292.588 33.7713 290.532 33.7713C288.477 33.7713 286.786 33.3421 285.459 32.4835C284.132 31.5989 283.078 30.4672 282.298 29.0882C281.543 27.7093 281.01 26.1743 280.698 24.4832C280.411 22.7921 280.268 21.127 280.268 19.4879ZM286.122 19.4879C286.122 20.2164 286.148 21.088 286.2 22.1026C286.278 23.1173 286.46 24.093 286.747 25.0296C287.033 25.9662 287.462 26.7597 288.035 27.4101C288.633 28.0606 289.465 28.3858 290.532 28.3858C291.573 28.3858 292.392 28.0606 292.991 27.4101C293.589 26.7597 294.031 25.9662 294.318 25.0296C294.604 24.093 294.773 23.1173 294.825 22.1026C294.903 21.088 294.942 20.2164 294.942 19.4879C294.942 18.7594 294.903 17.8879 294.825 16.8732C294.773 15.8585 294.604 14.8829 294.318 13.9463C294.031 13.0096 293.589 12.2161 292.991 11.5657C292.392 10.9153 291.573 10.5901 290.532 10.5901C289.465 10.5901 288.633 10.9153 288.035 11.5657C287.462 12.2161 287.033 13.0096 286.747 13.9463C286.46 14.8829 286.278 15.8585 286.2 16.8732C286.148 17.8879 286.122 18.7594 286.122 19.4879ZM303.988 27.0979L314.72 17.4586C315.267 16.9643 315.813 16.4049 316.359 15.7805C316.906 15.1561 317.179 14.4276 317.179 13.595C317.179 12.6584 316.841 11.9299 316.164 11.4096C315.488 10.8632 314.694 10.5901 313.784 10.5901C312.691 10.5901 311.832 10.9283 311.208 11.6047C310.609 12.2812 310.271 13.1137 310.193 14.1024L304.339 13.6731C304.417 12.2421 304.717 11.0063 305.237 9.96564C305.757 8.89893 306.447 8.01435 307.305 7.31189C308.164 6.60943 309.166 6.08908 310.31 5.75086C311.481 5.38662 312.743 5.2045 314.096 5.2045C315.345 5.2045 316.515 5.38662 317.608 5.75086C318.701 6.08908 319.65 6.60943 320.457 7.31189C321.264 7.98834 321.888 8.8469 322.33 9.88759C322.799 10.9283 323.033 12.1381 323.033 13.517C323.033 14.4016 322.942 15.2081 322.759 15.9366C322.577 16.639 322.317 17.2895 321.979 17.8879C321.667 18.4602 321.29 18.9936 320.847 19.4879C320.405 19.9822 319.924 20.4636 319.403 20.9319L311.013 28.1516H323.267V33.303H303.988V27.0979ZM336.372 15.5463C336.684 15.4683 336.996 15.4032 337.308 15.3512C337.62 15.2992 337.946 15.2731 338.284 15.2731C339.585 15.2731 340.768 15.5073 341.835 15.9756C342.902 16.4439 343.812 17.0813 344.567 17.8879C345.321 18.6944 345.907 19.657 346.323 20.7758C346.739 21.8685 346.948 23.0393 346.948 24.2881C346.948 25.719 346.674 27.0199 346.128 28.1907C345.608 29.3354 344.879 30.3241 343.943 31.1566C343.032 31.9892 341.939 32.6396 340.664 33.1079C339.416 33.5502 338.076 33.7713 336.645 33.7713C335.188 33.7713 333.835 33.5502 332.586 33.1079C331.337 32.6396 330.245 31.9892 329.308 31.1566C328.397 30.3241 327.669 29.3354 327.122 28.1907C326.602 27.0199 326.342 25.719 326.342 24.2881C326.342 23.2994 326.433 22.4018 326.615 21.5953C326.797 20.7628 327.031 19.9822 327.318 19.2538C327.63 18.5253 327.981 17.8358 328.371 17.1854C328.788 16.509 329.217 15.8195 329.659 15.117L335.708 5.67281H342.85L336.372 15.5463ZM341.094 24.0539C341.094 22.8051 340.677 21.7774 339.845 20.9709C339.038 20.1383 337.972 19.7221 336.645 19.7221C335.318 19.7221 334.238 20.1383 333.406 20.9709C332.599 21.7774 332.196 22.8051 332.196 24.0539C332.196 25.3027 332.599 26.3434 333.406 27.176C334.238 27.9825 335.318 28.3858 336.645 28.3858C337.972 28.3858 339.038 27.9825 339.845 27.176C340.677 26.3434 341.094 25.3027 341.094 24.0539Z" fill="#41B883"/>
<path d="M90.1891 11.0584H82.3059V5.67281H104.16V11.0584H96.2771V33.303H90.1891V11.0584ZM112.762 5.67281H117.797L129.817 33.303H122.948L120.568 27.4492H109.835L107.533 33.303H100.821L112.762 5.67281ZM115.104 13.7121L111.748 22.2978H118.499L115.104 13.7121ZM152.803 5.67281H159.438L163.847 23.3905H163.925L169.701 5.67281H175.36L181.097 23.8588H181.175L185.819 5.67281H191.985L183.907 33.303H178.482L172.394 14.1804H172.316L166.228 33.303H160.999L152.803 5.67281ZM202.819 5.67281H207.853L219.873 33.303H213.005L210.624 27.4492H199.892L197.589 33.303H190.877L202.819 5.67281ZM205.16 13.7121L201.804 22.2978H208.556L205.16 13.7121ZM222.652 5.67281H230.926L242.672 24.8735H242.75V5.67281H248.838V33.303H240.877L228.818 13.6341H228.74V33.303H222.652V5.67281Z" fill="#34495E"/>
<path d="M144.188 3.43146C145.06 2.86271 144.794 1.67308 145.96 1.64938C147.126 1.62568 147.42 3.16605 149.093 3.24188C150.766 3.31771 151.344 4.26563 150.894 4.8723C150.444 5.47896 149.354 6.42214 150.212 8.70188C151.069 10.9816 148.581 12.1807 147.756 18.3043C146.932 24.4278 146.401 26.1056 144.851 28.5133C143.301 30.921 141.837 31.395 141.344 33.5041C140.851 35.6085 141.074 36.3005 141.334 37.419C141.595 38.5376 141.026 39.7225 140.315 39.2106C139.604 38.6987 138.604 39.7082 138.652 38.2816C138.699 36.855 137.827 34.362 136.396 34.1961C134.964 34.0302 133.708 32.997 132.718 31.0822C131.727 29.1721 130.822 28.4091 130.016 25.6838C129.319 23.3188 131.054 20.1148 132.168 18.4559C133.282 16.7971 137.14 10.0005 138.078 9.28011C139.021 8.55969 139.552 5.60219 140.628 4.79646C142.121 3.67792 143.315 4.00495 144.183 3.4362L144.188 3.43146Z" fill="#34495E"/>
<path d="M166.906 93.3708C165.415 91.5564 163.568 90.1631 161.365 89.1911C159.227 88.219 156.732 87.733 153.88 87.733C151.029 87.733 148.372 88.2838 145.91 89.3855C143.512 90.4871 141.406 92.0424 139.591 94.0513C137.842 95.9953 136.449 98.3282 135.412 101.05C134.44 103.772 133.954 106.72 133.954 109.896C133.954 113.136 134.44 116.117 135.412 118.838C136.449 121.495 137.842 123.828 139.591 125.837C141.341 127.781 143.382 129.304 145.715 130.406C148.113 131.507 150.673 132.058 153.394 132.058C156.505 132.058 159.259 131.41 161.657 130.114C164.054 128.818 166.031 127.003 167.586 124.671L180.223 134.099C177.307 138.182 173.613 141.195 169.142 143.139C164.67 145.083 160.069 146.055 155.339 146.055C149.96 146.055 145.002 145.213 140.466 143.528C135.93 141.843 132.01 139.446 128.705 136.335C125.4 133.16 122.808 129.336 120.928 124.865C119.114 120.394 118.207 115.404 118.207 109.896C118.207 104.387 119.114 99.3975 120.928 94.9261C122.808 90.4547 125.4 86.6637 128.705 83.5532C132.01 80.3779 135.93 77.9478 140.466 76.2629C145.002 74.578 149.96 73.7356 155.339 73.7356C157.283 73.7356 159.291 73.93 161.365 74.3188C163.504 74.6428 165.577 75.1937 167.586 75.9713C169.66 76.7489 171.636 77.7858 173.516 79.0818C175.395 80.3779 177.08 81.9655 178.57 83.8448L166.906 93.3708ZM184.75 109.896C184.75 104.387 185.657 99.3975 187.471 94.9261C189.351 90.4547 191.943 86.6637 195.248 83.5532C198.553 80.3779 202.473 77.9478 207.009 76.2629C211.546 74.578 216.503 73.7356 221.882 73.7356C227.26 73.7356 232.218 74.578 236.754 76.2629C241.29 77.9478 245.211 80.3779 248.515 83.5532C251.82 86.6637 254.38 90.4547 256.195 94.9261C258.074 99.3975 259.014 104.387 259.014 109.896C259.014 115.404 258.074 120.394 256.195 124.865C254.38 129.336 251.82 133.16 248.515 136.335C245.211 139.446 241.29 141.843 236.754 143.528C232.218 145.213 227.26 146.055 221.882 146.055C216.503 146.055 211.546 145.213 207.009 143.528C202.473 141.843 198.553 139.446 195.248 136.335C191.943 133.16 189.351 129.336 187.471 124.865C185.657 120.394 184.75 115.404 184.75 109.896ZM200.497 109.896C200.497 113.136 200.983 116.117 201.955 118.838C202.992 121.495 204.45 123.828 206.329 125.837C208.208 127.781 210.444 129.304 213.036 130.406C215.693 131.507 218.641 132.058 221.882 132.058C225.122 132.058 228.038 131.507 230.63 130.406C233.287 129.304 235.555 127.781 237.434 125.837C239.314 123.828 240.739 121.495 241.711 118.838C242.748 116.117 243.266 113.136 243.266 109.896C243.266 106.72 242.748 103.772 241.711 101.05C240.739 98.3282 239.314 95.9953 237.434 94.0513C235.555 92.0424 233.287 90.4871 230.63 89.3855C228.038 88.2838 225.122 87.733 221.882 87.733C218.641 87.733 215.693 88.2838 213.036 89.3855C210.444 90.4871 208.208 92.0424 206.329 94.0513C204.45 95.9953 202.992 98.3282 201.955 101.05C200.983 103.772 200.497 106.72 200.497 109.896ZM269.32 75.4853H289.927L319.186 123.31H319.38V75.4853H334.544V144.306H314.715L284.678 95.3149H284.484V144.306H269.32V75.4853ZM349.167 75.4853H395.339V89.4827H364.33V103.48H393.006V117.477H364.33V144.306H349.167V75.4853Z" fill="#41B883"/>
<path d="M30.7255 64.063C28.6282 67.4187 26.7406 70.6346 25.0627 73.7106C23.3849 76.7867 21.9517 79.9326 20.7633 83.1485C19.6447 86.2944 18.7708 89.6152 18.1417 93.1107C17.5125 96.5362 17.1979 100.276 17.1979 104.331C17.1979 108.386 17.5125 112.161 18.1417 115.657C18.7708 119.082 19.6447 122.403 20.7633 125.619C21.9517 128.765 23.3849 131.876 25.0627 134.952C26.7406 138.028 28.6282 141.244 30.7255 144.599L19.9244 150.891L19.7146 150.472C14.8908 143.271 11.1506 135.966 8.49407 128.555C5.9074 121.075 4.61406 113 4.61406 104.331C4.61406 95.6624 5.9074 87.6227 8.49407 80.2123C11.1506 72.7319 14.8908 65.3913 19.7146 58.1906L19.9244 57.7711L30.7255 64.063Z" fill="#41B883"/>
<path d="M400.768 147.557C402.865 144.201 404.753 140.985 406.431 137.909C408.108 134.833 409.507 131.722 410.625 128.576C411.814 125.361 412.722 122.04 413.352 118.614C413.981 115.119 414.295 111.344 414.295 107.289C414.295 103.234 413.981 99.4939 413.352 96.0683C412.722 92.5728 411.814 89.252 410.625 86.1061C409.507 82.8902 408.108 79.7443 406.431 76.6682C404.753 73.5922 402.865 70.3763 400.768 67.0206L411.569 60.7287L411.779 61.1482C416.602 68.3489 420.308 75.6895 422.894 83.1699C425.551 90.5803 426.879 98.62 426.879 107.289C426.879 115.958 425.551 124.032 422.894 131.513C420.308 138.923 416.602 146.229 411.779 153.429L411.569 153.849L400.768 147.557Z" fill="#41B883"/>
<path d="M100.986 73.8522L75.9138 117.551L50.8462 73.8522H33.7837L75.9138 146.799L118.049 73.8522H100.986Z" fill="#41B883"/>
<path d="M85.4925 73.8522L75.9138 90.7393L66.3399 73.8522H50.8462L75.9138 117.551L100.986 73.8522H85.4925Z" fill="#34495E"/>
<path d="M434.629 67.9798C434.004 68.7714 432.729 68.3306 432.729 67.3258V57.6428C432.729 56.4674 431.776 55.5195 430.601 55.5195H419.908C419.046 55.5195 418.538 54.5431 419.046 53.8369L426.074 43.9976C427.079 42.5899 426.074 40.6325 424.344 40.6325H411.405C410.543 40.6325 410.036 39.6561 410.543 38.9499L419.657 26.1909C419.856 25.9113 420.178 25.7454 420.52 25.7454H447.677C448.54 25.7454 449.047 26.7218 448.54 27.428L441.511 37.2673C440.506 38.675 441.511 40.6325 443.241 40.6325H453.934C454.82 40.6325 455.318 41.6562 454.768 42.3529L434.629 67.9846V67.9798Z" fill="#863BFF"/>
<path d="M174.319 197.607H177.245V196.133H174.319V197.607ZM174.319 193.273V194.725H177.245V193.273H174.319ZM182.271 193.273H179.256V194.725H182.271V193.273ZM182.271 197.607V196.133H179.256V197.607H182.271ZM177.245 204.554V202.164H171.438V200.466H177.245V199.104H172.398V191.777H177.245V190.347H171.438V188.65H177.245V186.84H179.256V188.65H185.332V190.347H179.256V191.777H184.259V199.104H179.256V200.466H185.622V202.164H179.256V204.554H177.245ZM169.829 190.504L167.953 191.174C167.685 190.191 167.149 188.627 166.791 187.443L168.601 186.907C169.025 188.069 169.561 189.543 169.829 190.504ZM170.343 196.981L171.281 197.339C170.857 199.327 170.254 201.427 169.472 203.102C169.874 203.325 170.365 203.705 171.08 204.152C172.644 205.09 174.677 205.224 177.29 205.224C180.015 205.224 183.768 205.023 186.247 204.71C186.002 205.269 185.689 206.296 185.644 206.855C183.902 206.966 179.814 207.1 177.201 207.1C174.274 207.1 172.353 206.855 170.745 205.917C169.829 205.403 169.025 204.621 168.556 204.621C168.042 204.621 167.283 206.073 166.657 207.435L165.272 205.514C166.032 204.509 166.814 203.638 167.506 203.191C168.109 201.985 168.623 200.377 168.98 198.858H166.121C166.657 197.54 167.327 195.731 167.886 193.988H165.63V192.112H170.455C169.963 193.698 169.338 195.53 168.779 197.071H170.03L170.343 196.981ZM188.749 201.181L190.425 201.471C190.201 203.459 189.822 205.604 189.352 206.966C188.995 206.788 188.191 206.52 187.744 206.386C188.258 205.045 188.548 203.013 188.749 201.181ZM191.251 201.427L192.748 201.136C193.06 202.722 193.329 204.777 193.418 206.14L191.81 206.453C191.743 205.09 191.497 203.013 191.251 201.427ZM193.552 201.002L194.982 200.555C195.495 201.918 196.054 203.683 196.277 204.867L194.758 205.358C194.557 204.174 194.043 202.365 193.552 201.002ZM193.373 195.686L194.914 195.261C195.495 196.736 196.143 198.701 196.366 199.863L194.736 200.421C194.669 200.064 194.579 199.684 194.468 199.238C189.687 199.952 188.928 200.109 188.459 200.354C188.37 199.975 188.034 199.014 187.833 198.478C188.325 198.389 188.839 197.875 189.531 197.048C189.866 196.713 190.514 195.865 191.251 194.792C189.129 195.038 188.638 195.15 188.303 195.306C188.191 194.904 187.9 193.988 187.699 193.497C188.079 193.407 188.481 192.961 188.95 192.313C189.442 191.643 190.983 189.119 191.877 186.751L193.753 187.533C192.792 189.521 191.586 191.553 190.358 193.206L192.457 193.028C193.016 192.134 193.597 191.151 194.066 190.191L195.786 191.241C194.401 193.653 192.658 196.066 190.916 198.031L194.043 197.629C193.82 196.959 193.597 196.267 193.373 195.686ZM204.899 200.533H199.293V204.465H204.899V200.533ZM197.349 207.301V198.657H206.91V207.212H204.899V206.341H199.293V207.301H197.349ZM208.071 191.598H203.09V194.681H207.491V196.579H196.903V194.681H200.946V191.598H196.277V189.677H200.946V186.818H203.09V189.677H208.071V191.598ZM218.883 198.902L217.587 200.622C217.163 199.997 216.314 198.992 215.554 198.121V207.301H213.544V198.634C212.628 199.528 211.645 200.31 210.707 200.913C210.551 200.354 210.104 199.26 209.836 198.858C212.181 197.495 214.549 195.06 215.979 192.469H210.462V190.593H214.683C214.281 189.766 213.432 188.515 212.673 187.667L214.281 186.751C215.108 187.622 216.001 188.806 216.381 189.61L214.773 190.593H217.073L217.431 190.504L218.548 191.285C217.9 192.938 216.962 194.524 215.89 195.976C216.783 196.78 218.436 198.433 218.883 198.902ZM225.629 204.487H230.632V206.52H217.878V204.487H223.507V195.619H218.883V193.631H223.507V186.84H225.629V193.631H230.141V195.619H225.629V204.487ZM240.171 200.757H236.731V204.375H240.171V200.757ZM239.88 193.296H237.646C237.557 193.944 237.445 194.569 237.334 195.172H239.88V193.296ZM239.88 189.677H238.026C237.959 190.325 237.914 190.95 237.847 191.576H239.88V189.677ZM236.261 198.947H242.181V206.162H236.731V207.324H234.832V201.672C234.43 202.253 234.028 202.767 233.536 203.258C233.313 202.879 232.643 202.097 232.218 201.739C233.514 200.511 234.385 198.88 234.988 196.937H233.603V195.172H235.457C235.547 194.569 235.658 193.944 235.748 193.296H232.553V191.576H235.971C236.038 190.95 236.083 190.325 236.127 189.677H233.715V187.912H241.801V191.576H243.03V193.296H241.801V196.937H236.909C236.708 197.629 236.507 198.322 236.261 198.947ZM250.223 186.795L252.211 187.265C251.607 188.605 250.982 190.101 250.424 191.084L248.726 190.638C249.262 189.61 249.887 187.957 250.223 186.795ZM253.037 200.332V202.275H248.838V207.324H246.85V202.275H242.873V200.332H246.85V197.473H243.655V195.574H246.85V193.005H243.365V191.107H244.973C244.772 190.101 244.169 188.65 243.521 187.555L245.197 186.997C245.911 188.091 246.537 189.565 246.76 190.571L245.331 191.107H252.59V193.005H248.838V195.574H252.166V197.473H248.838V200.332H253.037Z" fill="#34495E"/>
<path d="M272.454 198.545V205.358C274.129 204.487 275.469 203.169 276.519 201.516C275.804 199.93 275.224 198.165 274.777 196.289C274.442 197.026 274.084 197.696 273.66 198.299C273.347 197.897 272.543 197.138 272.074 196.78L272.096 196.736H265.484C265.44 197.339 265.395 197.92 265.328 198.545H272.454ZM266.825 203.281H270.6V200.22H266.825V203.281ZM270.577 192.804H265.551V194.145C265.551 194.435 265.551 194.725 265.551 195.038H270.577V192.804ZM279.378 192.961H275.983L275.894 193.251C276.296 195.395 276.899 197.451 277.658 199.282C278.463 197.451 278.999 195.306 279.378 192.961ZM282.372 192.961H281.232C280.808 196.2 280.026 199.126 278.82 201.561C279.803 203.236 281.031 204.554 282.506 205.47C281.992 205.894 281.299 206.721 280.942 207.324C279.624 206.386 278.53 205.112 277.614 203.616C276.519 205.157 275.179 206.43 273.504 207.324C273.236 206.877 272.789 206.341 272.32 205.894H270.6V204.956H266.825V206.319H265.038V200.846C264.68 202.812 264.099 204.755 263.184 206.341C262.849 205.961 262.044 205.336 261.598 205.135C263.452 201.918 263.63 197.384 263.63 194.145V188.426C266.311 188.136 269.46 187.622 271.247 187.019L272.833 188.515C270.823 189.163 268.076 189.61 265.551 189.9V191.129H272.431V196.267C273.861 193.944 274.643 190.459 275.067 186.862L277.145 187.153C276.966 188.471 276.743 189.766 276.452 191.017H282.372V192.961ZM300.13 201.315H294.68C295.797 201.918 297.092 202.611 298.343 203.348C299.036 202.745 299.639 202.074 300.13 201.315ZM301.403 199.796L302.565 200.22C301.962 201.873 301.046 203.191 299.884 204.241C300.979 204.889 301.984 205.514 302.699 206.006L301.627 207.368C300.845 206.788 299.728 206.073 298.477 205.313C297.025 206.252 295.327 206.899 293.451 207.346C293.272 206.877 292.87 206.207 292.535 205.827C294.121 205.537 295.573 205.023 296.846 204.331C295.707 203.638 294.546 202.968 293.518 202.387L294.456 201.315H293.674V199.841H301.091L301.403 199.796ZM302.677 189.186L304.196 190.235C303.302 191.04 302.207 191.888 301.269 192.536C302.342 193.117 303.525 193.608 304.799 193.944C304.397 194.323 303.838 195.083 303.548 195.574C302.52 195.261 301.537 194.837 300.644 194.323V196.847C300.644 197.361 300.711 197.518 301.024 197.518H302.409C302.721 197.518 303.257 197.495 303.503 197.428C303.525 197.853 303.57 198.456 303.637 198.88C303.391 198.97 302.9 198.992 302.453 198.992H300.823C299.259 198.992 298.946 198.366 298.946 196.825V195.06H296.333V195.15C296.333 196.646 295.886 198.433 293.92 199.595C293.674 199.26 293.071 198.679 292.669 198.389V198.746H288.112C288.023 199.394 287.934 200.064 287.822 200.667H292.714C292.714 200.667 292.692 201.203 292.647 201.471C292.379 204.532 292.133 205.872 291.575 206.453C291.15 206.877 290.681 207.011 289.989 207.056C289.386 207.123 288.246 207.1 287.04 207.056C286.996 206.52 286.75 205.782 286.415 205.291C287.599 205.403 288.76 205.425 289.207 205.425C289.587 205.425 289.81 205.403 290.011 205.224C290.302 204.956 290.525 204.107 290.704 202.231H285.812C286.102 200.868 286.437 198.813 286.616 197.16H290.815V195.15H287.353V194.837C286.593 195.217 285.812 195.552 285.052 195.82C284.806 195.373 284.315 194.636 283.935 194.279C285.343 193.854 286.772 193.184 288.023 192.358C287.398 191.799 286.482 191.151 285.722 190.682L286.906 189.565C287.733 190.034 288.76 190.727 289.43 191.285C290.123 190.705 290.704 190.034 291.195 189.342H286.37V187.689H292.29L292.625 187.622L293.943 188.247C292.982 190.437 291.396 192.179 289.52 193.519H292.669V198.232C294.322 197.317 294.568 196.155 294.568 195.105V193.43H299.214C297.07 191.888 295.417 189.856 294.3 187.399L295.953 186.907C296.355 187.756 296.846 188.56 297.427 189.32C298.321 188.627 299.348 187.689 299.951 186.974L301.448 188.046C300.51 188.918 299.393 189.789 298.455 190.437C298.902 190.883 299.371 191.263 299.884 191.643C300.845 190.928 301.984 189.9 302.677 189.186ZM326.623 197.83H318.916C320.904 200.533 324.121 203.102 327.159 204.42C326.667 204.844 326.019 205.671 325.64 206.207C322.825 204.8 319.966 202.275 317.844 199.506V207.301H315.655V199.595C313.533 202.342 310.673 204.755 307.881 206.185C307.524 205.671 306.831 204.867 306.362 204.42C309.4 203.08 312.594 200.533 314.56 197.83H307.01V195.775H315.655V192.38H308.618V190.325H315.655V186.818H317.844V190.325H325.059V192.38H317.844V195.775H326.623V197.83ZM333.369 192.157L335.379 192.536C335.156 193.43 334.887 194.256 334.552 195.06C335.446 195.82 336.384 196.691 336.92 197.272L335.513 198.746C335.111 198.232 334.418 197.54 333.681 196.847C332.944 198.165 332.028 199.282 330.978 200.153C330.643 199.774 329.817 199.081 329.37 198.791C331.358 197.317 332.721 194.949 333.369 192.157ZM348.916 198.232L347.441 199.662C346.749 198.902 345.453 197.786 344.225 196.758C343.711 197.652 343.13 198.433 342.482 199.059C342.125 198.768 341.321 198.255 340.807 198.009C342.84 200.801 346.123 203.281 349.474 204.532C348.938 204.956 348.268 205.827 347.91 206.408C345.006 205.112 342.237 202.856 340.137 200.198V207.301H337.948V200.265C335.826 202.879 333.056 205.09 330.241 206.386C329.906 205.872 329.258 205.023 328.767 204.621C332.363 203.191 335.96 200.22 337.948 197.093V191.777H329.616V189.766H337.948V186.818H340.137V189.766H348.737V191.777H340.137V196.981C340.338 197.317 340.539 197.629 340.762 197.942C342.304 196.602 343.331 194.502 343.823 192.157L345.833 192.514C345.632 193.385 345.386 194.234 345.051 195.016C346.414 196.066 348.044 197.361 348.916 198.232Z" fill="#34495E"/>
<path d="M153.78 188.033H81.9944V206.12H153.78V188.033Z" fill="url(#paint0_linear_378_62304)"/>
</g>
<defs>
<linearGradient id="paint0_linear_378_62304" x1="81.9944" y1="197.077" x2="153.78" y2="197.077" gradientUnits="userSpaceOnUse">
<stop stop-color="#41B883" stop-opacity="0"/>
<stop offset="1" stop-color="#41B883"/>
</linearGradient>
<clipPath id="clip0_378_62304">
<rect width="455" height="229.074" fill="white"/>
</clipPath>
</defs>
</svg>
