<svg width="840" height="828" viewBox="0 0 840 828" fill="none" xmlns="http://www.w3.org/2000/svg">
<g clip-path="url(#clip0_1_8768)">
<path d="M96.6699 46.54H164.6L619.54 290.48L542.21 303.01L96.6699 46.54Z" fill="url(#paint0_linear_1_8768)"/>
<path d="M840 348.73L630.07 827.8L643.229 652.1L542.21 393.51L231.52 223.3L332.48 80L840 348.73Z" fill="url(#paint1_linear_1_8768)"/>
<mask id="mask0_1_8768" style="mask-type:luminance" maskUnits="userSpaceOnUse" x="96" y="0" width="548" height="653">
<path d="M96.6699 137.29L542.21 393.77L643.23 652.36V0H96.6699V137.29Z" fill="white"/>
</mask>
<g mask="url(#mask0_1_8768)">
<path d="M197.69 305.13L96.6699 46.54L542.21 303.01L643.23 561.6L197.69 305.13Z" fill="url(#paint2_linear_1_8768)"/>
</g>
<path d="M0 150.32L453.05 407.95L542.21 393.51L96.67 137.29L0 150.32Z" fill="url(#paint3_linear_1_8768)"/>
<path d="M706.46 323.81L774.15 360.34L840 348.73L740.15 295.26L706.46 323.81Z" fill="url(#paint4_linear_1_8768)"/>
<path d="M234.02 27.32L711.01 282.58L774.15 269.85L303.85 16.02L234.02 27.32Z" fill="url(#paint5_linear_1_8768)"/>
<path d="M281.8 52.88L186.04 97.98L542.21 303.01L658.06 400.17L711.01 282.58L281.8 52.88Z" fill="url(#paint6_linear_1_8768)"/>
<path d="M542.21 303.01L643.24 561.6L774.16 269.85L711.02 282.58L658.06 400.17L619.55 290.48C619.55 290.48 538.9 303.55 542.21 303.01Z" fill="url(#paint7_linear_1_8768)"/>
<path d="M453.05 407.95L630.07 827.8L840 348.73L774.15 360.34L643.23 652.1L542.21 393.51L453.05 407.95Z" fill="url(#paint8_linear_1_8768)"/>
<path d="M96.6699 46.54H164.6L619.54 290.48L542.21 303.01L96.6699 46.54Z" fill="url(#paint9_linear_1_8768)"/>
<path opacity="0.7" d="M840 348.73L774.151 360.34L643.23 652.1L711.01 641.18L840 348.73Z" fill="url(#paint10_linear_1_8768)"/>
<path opacity="0.5" d="M774.15 269.85L711.01 282.58L616.4 492.91L643.23 561.6L774.15 269.85Z" fill="url(#paint11_linear_1_8768)"/>
</g>
<defs>
<linearGradient id="paint0_linear_1_8768" x1="96.6699" y1="174.77" x2="619.54" y2="174.77" gradientUnits="userSpaceOnUse">
<stop offset="0.23" stop-color="white" stop-opacity="0"/>
<stop offset="0.31" stop-color="#F3F4F6" stop-opacity="0.08"/>
<stop offset="0.46" stop-color="#D4DADE" stop-opacity="0.28"/>
<stop offset="0.65" stop-color="#A3AEB7" stop-opacity="0.61"/>
<stop offset="0.84" stop-color="#687A89"/>
</linearGradient>
<linearGradient id="paint1_linear_1_8768" x1="231.52" y1="453.9" x2="840" y2="453.9" gradientUnits="userSpaceOnUse">
<stop offset="0.29" stop-color="white" stop-opacity="0"/>
<stop offset="0.4" stop-color="#EDFAF4" stop-opacity="0.12"/>
<stop offset="0.62" stop-color="#C0F0D9" stop-opacity="0.42"/>
<stop offset="0.94" stop-color="#7AE0AF" stop-opacity="0.9"/>
<stop offset="1" stop-color="#6CDDA7"/>
</linearGradient>
<linearGradient id="paint2_linear_1_8768" x1="96.6699" y1="304.07" x2="643.23" y2="304.07" gradientUnits="userSpaceOnUse">
<stop offset="0.58" stop-color="white" stop-opacity="0"/>
<stop offset="0.63" stop-color="#F9FAFA" stop-opacity="0.06"/>
<stop offset="0.71" stop-color="#EAECEE" stop-opacity="0.22"/>
<stop offset="0.82" stop-color="#D1D7DB" stop-opacity="0.47"/>
<stop offset="0.94" stop-color="#B0B9C1" stop-opacity="0.83"/>
<stop offset="1" stop-color="#A0ABB5"/>
</linearGradient>
<linearGradient id="paint3_linear_1_8768" x1="197.47" y1="-21.32" x2="330.77" y2="509.52" gradientUnits="userSpaceOnUse">
<stop offset="0.47" stop-color="white" stop-opacity="0"/>
<stop offset="0.79" stop-color="#87D2B0" stop-opacity="0.5"/>
<stop offset="1" stop-color="#41B883" stop-opacity="0.8"/>
</linearGradient>
<linearGradient id="paint4_linear_1_8768" x1="728.85" y1="244.28" x2="786.87" y2="364.55" gradientUnits="userSpaceOnUse">
<stop stop-color="white" stop-opacity="0"/>
<stop offset="0.11" stop-color="#F2FAF6" stop-opacity="0.07"/>
<stop offset="0.32" stop-color="#D1EEE1" stop-opacity="0.24"/>
<stop offset="0.59" stop-color="#9CDABE" stop-opacity="0.52"/>
<stop offset="0.92" stop-color="#53BE8F" stop-opacity="0.9"/>
<stop offset="1" stop-color="#41B883"/>
</linearGradient>
<linearGradient id="paint5_linear_1_8768" x1="161.46" y1="286.19" x2="662.67" y2="84.89" gradientUnits="userSpaceOnUse">
<stop offset="0.43" stop-color="white" stop-opacity="0"/>
<stop offset="0.55" stop-color="#FBFBFC" stop-opacity="0.02"/>
<stop offset="0.64" stop-color="#F0F1F3" stop-opacity="0.1"/>
<stop offset="0.73" stop-color="#DDE1E4" stop-opacity="0.22"/>
<stop offset="0.82" stop-color="#C2C9CF" stop-opacity="0.4"/>
<stop offset="0.9" stop-color="#A0ABB5" stop-opacity="0.63"/>
<stop offset="0.98" stop-color="#768794" stop-opacity="0.9"/>
<stop offset="1" stop-color="#687A89"/>
</linearGradient>
<linearGradient id="paint6_linear_1_8768" x1="186.04" y1="226.53" x2="711.01" y2="226.53" gradientUnits="userSpaceOnUse">
<stop offset="0.39" stop-color="white" stop-opacity="0"/>
<stop offset="0.5" stop-color="#E6E9EB" stop-opacity="0.26"/>
<stop offset="0.62" stop-color="#CDD3D8" stop-opacity="0.52"/>
<stop offset="0.73" stop-color="#B9C1C9" stop-opacity="0.73"/>
<stop offset="0.84" stop-color="#ABB5BE" stop-opacity="0.88"/>
<stop offset="0.93" stop-color="#A3ADB7" stop-opacity="0.97"/>
<stop offset="1" stop-color="#A0ABB5"/>
</linearGradient>
<linearGradient id="paint7_linear_1_8768" x1="532.91" y1="341.11" x2="789.17" y2="449.89" gradientUnits="userSpaceOnUse">
<stop stop-color="white"/>
<stop offset="0.24" stop-color="#8FAAC2"/>
<stop offset="0.25" stop-color="#89A4BC"/>
<stop offset="0.43" stop-color="#4C6278"/>
<stop offset="0.51" stop-color="#34495E"/>
<stop offset="0.54" stop-color="#394F64"/>
<stop offset="0.59" stop-color="#4A6176"/>
<stop offset="0.64" stop-color="#667F94"/>
<stop offset="0.7" stop-color="#8CA8BE"/>
<stop offset="0.73" stop-color="#A5C3D9"/>
<stop offset="0.77" stop-color="#BAD1E2"/>
<stop offset="0.83" stop-color="#DFEAF1"/>
<stop offset="0.88" stop-color="#F6F9FB"/>
<stop offset="0.91" stop-color="white"/>
</linearGradient>
<linearGradient id="paint8_linear_1_8768" x1="473.37" y1="464.64" x2="822.53" y2="629.61" gradientUnits="userSpaceOnUse">
<stop stop-color="white" stop-opacity="0.5"/>
<stop offset="0.25" stop-color="#41B883" stop-opacity="0.5"/>
<stop offset="0.62" stop-color="#41B883"/>
</linearGradient>
<linearGradient id="paint9_linear_1_8768" x1="96.6699" y1="174.77" x2="619.54" y2="174.77" gradientUnits="userSpaceOnUse">
<stop offset="0.54" stop-color="white" stop-opacity="0"/>
<stop offset="0.6" stop-color="#F6F7F8" stop-opacity="0.06"/>
<stop offset="0.7" stop-color="#DDE1E4" stop-opacity="0.22"/>
<stop offset="0.82" stop-color="#B5BEC5" stop-opacity="0.49"/>
<stop offset="0.95" stop-color="#7E8D9A" stop-opacity="0.85"/>
<stop offset="1" stop-color="#687A89"/>
</linearGradient>
<linearGradient id="paint10_linear_1_8768" x1="719.49" y1="542.55" x2="814.66" y2="370.34" gradientUnits="userSpaceOnUse">
<stop stop-color="#41B883" stop-opacity="0"/>
<stop offset="0.38" stop-color="#41B883"/>
<stop offset="1" stop-color="white" stop-opacity="0.9"/>
</linearGradient>
<linearGradient id="paint11_linear_1_8768" x1="717.39" y1="461.22" x2="670.98" y2="293.69" gradientUnits="userSpaceOnUse">
<stop stop-color="#34495E" stop-opacity="0"/>
<stop offset="0.38" stop-color="#34495E" stop-opacity="0.5"/>
<stop offset="0.46" stop-color="#384C61" stop-opacity="0.51"/>
<stop offset="0.55" stop-color="#44576B" stop-opacity="0.53"/>
<stop offset="0.64" stop-color="#596A7B" stop-opacity="0.57"/>
<stop offset="0.73" stop-color="#768492" stop-opacity="0.63"/>
<stop offset="0.82" stop-color="#9CA6B0" stop-opacity="0.71"/>
<stop offset="0.91" stop-color="#C9CFD4" stop-opacity="0.8"/>
<stop offset="1" stop-color="white" stop-opacity="0.9"/>
</linearGradient>
<clipPath id="clip0_1_8768">
<rect width="840" height="827.8" fill="white"/>
</clipPath>
</defs>
</svg>
