<svg width="455" height="230" viewBox="0 0 455 230" fill="none" xmlns="http://www.w3.org/2000/svg">
<g clip-path="url(#clip0_1_6014)">
<path d="M257.798 27.0979L268.53 17.4586C269.076 16.9642 269.622 16.4049 270.169 15.7805C270.715 15.156 270.988 14.4276 270.988 13.595C270.988 12.6584 270.65 11.9299 269.974 11.4096C269.297 10.8632 268.504 10.59 267.593 10.59C266.5 10.59 265.642 10.9283 265.017 11.6047C264.419 12.2811 264.081 13.1137 264.003 14.1024L258.149 13.6731C258.227 12.2421 258.526 11.0063 259.046 9.96562C259.567 8.89892 260.256 8.01434 261.115 7.31187C261.973 6.60941 262.975 6.08907 264.12 5.75085C265.29 5.38661 266.552 5.20448 267.905 5.20448C269.154 5.20448 270.325 5.38661 271.417 5.75085C272.51 6.08907 273.46 6.60941 274.266 7.31187C275.073 7.98832 275.697 8.84689 276.14 9.88757C276.608 10.9283 276.842 12.1381 276.842 13.517C276.842 14.4015 276.751 15.2081 276.569 15.9366C276.387 16.639 276.127 17.2895 275.788 17.8878C275.476 18.4602 275.099 18.9936 274.657 19.4879C274.214 19.9822 273.733 20.4635 273.213 20.9319L264.822 28.1516H277.076V33.303H257.798V27.0979ZM280.268 19.4879C280.268 17.8488 280.411 16.1837 280.698 14.4926C281.01 12.8015 281.543 11.2665 282.298 9.88757C283.078 8.50866 284.132 7.38992 285.459 6.53136C286.786 5.64678 288.477 5.20448 290.532 5.20448C292.588 5.20448 294.279 5.64678 295.606 6.53136C296.932 7.38992 297.973 8.50866 298.728 9.88757C299.508 11.2665 300.041 12.8015 300.328 14.4926C300.64 16.1837 300.796 17.8488 300.796 19.4879C300.796 21.127 300.64 22.7921 300.328 24.4832C300.041 26.1743 299.508 27.7093 298.728 29.0882C297.973 30.4671 296.932 31.5989 295.606 32.4835C294.279 33.342 292.588 33.7713 290.532 33.7713C288.477 33.7713 286.786 33.342 285.459 32.4835C284.132 31.5989 283.078 30.4671 282.298 29.0882C281.543 27.7093 281.01 26.1743 280.698 24.4832C280.411 22.7921 280.268 21.127 280.268 19.4879ZM286.122 19.4879C286.122 20.2164 286.148 21.088 286.2 22.1026C286.278 23.1173 286.46 24.0929 286.747 25.0296C287.033 25.9662 287.462 26.7597 288.035 27.4101C288.633 28.0606 289.465 28.3858 290.532 28.3858C291.573 28.3858 292.392 28.0606 292.991 27.4101C293.589 26.7597 294.031 25.9662 294.318 25.0296C294.604 24.0929 294.773 23.1173 294.825 22.1026C294.903 21.088 294.942 20.2164 294.942 19.4879C294.942 18.7594 294.903 17.8878 294.825 16.8732C294.773 15.8585 294.604 14.8829 294.318 13.9462C294.031 13.0096 293.589 12.2161 292.991 11.5657C292.392 10.9152 291.573 10.59 290.532 10.59C289.465 10.59 288.633 10.9152 288.035 11.5657C287.462 12.2161 287.033 13.0096 286.747 13.9462C286.46 14.8829 286.278 15.8585 286.2 16.8732C286.148 17.8878 286.122 18.7594 286.122 19.4879ZM303.988 27.0979L314.72 17.4586C315.267 16.9642 315.813 16.4049 316.359 15.7805C316.906 15.156 317.179 14.4276 317.179 13.595C317.179 12.6584 316.841 11.9299 316.164 11.4096C315.488 10.8632 314.694 10.59 313.784 10.59C312.691 10.59 311.832 10.9283 311.208 11.6047C310.609 12.2811 310.271 13.1137 310.193 14.1024L304.339 13.6731C304.417 12.2421 304.717 11.0063 305.237 9.96562C305.757 8.89892 306.447 8.01434 307.305 7.31187C308.164 6.60941 309.166 6.08907 310.31 5.75085C311.481 5.38661 312.743 5.20448 314.096 5.20448C315.345 5.20448 316.515 5.38661 317.608 5.75085C318.701 6.08907 319.65 6.60941 320.457 7.31187C321.264 7.98832 321.888 8.84689 322.33 9.88757C322.799 10.9283 323.033 12.1381 323.033 13.517C323.033 14.4015 322.942 15.2081 322.759 15.9366C322.577 16.639 322.317 17.2895 321.979 17.8878C321.667 18.4602 321.29 18.9936 320.847 19.4879C320.405 19.9822 319.924 20.4635 319.403 20.9319L311.013 28.1516H323.267V33.303H303.988V27.0979ZM336.372 15.5463C336.684 15.4683 336.996 15.4032 337.308 15.3512C337.62 15.2991 337.946 15.2731 338.284 15.2731C339.585 15.2731 340.768 15.5073 341.835 15.9756C342.902 16.4439 343.812 17.0813 344.567 17.8878C345.321 18.6944 345.907 19.657 346.323 20.7758C346.739 21.8685 346.948 23.0392 346.948 24.2881C346.948 25.719 346.674 27.0199 346.128 28.1906C345.608 29.3354 344.879 30.324 343.943 31.1566C343.032 31.9891 341.939 32.6396 340.664 33.1079C339.416 33.5502 338.076 33.7713 336.645 33.7713C335.188 33.7713 333.835 33.5502 332.586 33.1079C331.337 32.6396 330.245 31.9891 329.308 31.1566C328.397 30.324 327.669 29.3354 327.122 28.1906C326.602 27.0199 326.342 25.719 326.342 24.2881C326.342 23.2994 326.433 22.4018 326.615 21.5953C326.797 20.7627 327.031 19.9822 327.318 19.2537C327.63 18.5253 327.981 17.8358 328.371 17.1854C328.788 16.5089 329.217 15.8195 329.659 15.117L335.708 5.67279H342.85L336.372 15.5463ZM341.094 24.0539C341.094 22.8051 340.677 21.7774 339.845 20.9709C339.038 20.1383 337.972 19.7221 336.645 19.7221C335.318 19.7221 334.238 20.1383 333.406 20.9709C332.599 21.7774 332.196 22.8051 332.196 24.0539C332.196 25.3027 332.599 26.3434 333.406 27.176C334.238 27.9825 335.318 28.3858 336.645 28.3858C337.972 28.3858 339.038 27.9825 339.845 27.176C340.677 26.3434 341.094 25.3027 341.094 24.0539Z" fill="#41B883"/>
<path d="M90.1891 11.0583H82.3059V5.67279H104.16V11.0583H96.2771V33.303H90.1891V11.0583ZM112.762 5.67279H117.797L129.817 33.303H122.948L120.568 27.4491H109.835L107.533 33.303H100.821L112.762 5.67279ZM115.104 13.7121L111.748 22.2978H118.499L115.104 13.7121ZM152.803 5.67279H159.438L163.847 23.3905H163.925L169.701 5.67279H175.36L181.097 23.8588H181.175L185.819 5.67279H191.985L183.907 33.303H178.482L172.394 14.1804H172.316L166.228 33.303H160.999L152.803 5.67279ZM202.819 5.67279H207.853L219.873 33.303H213.005L210.624 27.4491H199.892L197.589 33.303H190.877L202.819 5.67279ZM205.16 13.7121L201.804 22.2978H208.556L205.16 13.7121ZM222.652 5.67279H230.926L242.672 24.8735H242.75V5.67279H248.838V33.303H240.877L228.818 13.634H228.74V33.303H222.652V5.67279Z" fill="white"/>
<path d="M144.188 3.43619C145.06 2.86744 144.794 1.67781 145.96 1.65411C147.126 1.63041 147.42 3.17078 149.093 3.24661C150.766 3.32244 151.344 4.27036 150.894 4.87703C150.444 5.48369 149.354 6.42687 150.212 8.70661C151.069 10.9863 148.581 12.1855 147.756 18.309C146.927 24.4278 146.401 26.1104 144.851 28.5181C143.301 30.9258 141.837 31.3997 141.344 33.5088C140.851 35.6132 141.074 36.3052 141.334 37.4237C141.595 38.5423 141.026 39.7272 140.315 39.2153C139.604 38.7034 138.604 39.713 138.652 38.2864C138.699 36.8597 137.827 34.3667 136.396 34.2008C134.964 34.0349 133.708 33.0017 132.718 31.0869C131.727 29.1769 130.822 28.4138 130.016 25.6885C129.319 23.3235 131.054 20.1195 132.168 18.4607C133.282 16.8018 137.14 10.0053 138.078 9.28484C139.021 8.56442 139.552 5.60692 140.628 4.80119C142.121 3.68265 143.315 4.00968 144.183 3.44093L144.188 3.43619Z" fill="white"/>
<path d="M166.906 93.3708L166.173 93.9725L166.773 94.7029L167.505 94.105L166.906 93.3708ZM161.365 89.1911L160.973 90.0541L160.983 90.0583L161.365 89.1911ZM145.91 89.3855L145.523 88.5201L145.514 88.5241L145.91 89.3855ZM139.591 94.0513L138.888 93.4159L138.887 93.4171L139.591 94.0513ZM135.412 101.05L134.526 100.713L134.522 100.722L134.519 100.731L135.412 101.05ZM135.412 118.838L134.519 119.157L134.524 119.17L134.529 119.183L135.412 118.838ZM139.591 125.837L138.877 126.46L138.882 126.465L138.887 126.471L139.591 125.837ZM145.715 130.406L145.311 131.263L145.32 131.267L145.715 130.406ZM161.657 130.114L162.108 130.948V130.948L161.657 130.114ZM167.586 124.671L168.153 123.911L167.352 123.313L166.798 124.145L167.586 124.671ZM180.223 134.099L180.994 134.65L181.534 133.895L180.79 133.34L180.223 134.099ZM169.142 143.139L169.519 144.009V144.009L169.142 143.139ZM140.466 143.528L140.796 142.64V142.64L140.466 143.528ZM128.705 136.335L128.048 137.019L128.055 137.025L128.705 136.335ZM120.928 124.865L120.05 125.221L120.054 125.232L120.928 124.865ZM120.928 94.9261L120.054 94.5588L120.05 94.5697L120.928 94.9261ZM128.705 83.5532L129.354 84.2435L129.361 84.2368L128.705 83.5532ZM140.466 76.2629L140.136 75.3743V75.3743L140.466 76.2629ZM161.365 74.3188L161.19 75.2505L161.207 75.2536L161.223 75.256L161.365 74.3188ZM167.586 75.9713L167.244 76.8553L167.253 76.8589L167.586 75.9713ZM173.516 79.0818L172.978 79.8622V79.8622L173.516 79.0818ZM178.57 83.8448L179.17 84.579L179.894 83.9879L179.313 83.2558L178.57 83.8448ZM166.906 93.3708L167.638 92.7691C166.051 90.837 164.083 89.3542 161.748 88.3238L161.365 89.1911L160.983 90.0583C163.054 90.972 164.78 92.2757 166.173 93.9725L166.906 93.3708ZM161.365 89.1911L161.757 88.3281C159.472 87.2894 156.839 86.7851 153.88 86.7851V87.733V88.6809C156.625 88.6809 158.981 89.1486 160.973 90.054L161.365 89.1911ZM153.88 87.733V86.7851C150.903 86.7851 148.114 87.361 145.523 88.5202L145.91 89.3855L146.297 90.2507C148.631 89.2066 151.155 88.6809 153.88 88.6809V87.733ZM145.91 89.3855L145.514 88.5241C142.996 89.6808 140.786 91.3141 138.888 93.4159L139.591 94.0513L140.295 94.6866C142.025 92.7706 144.028 91.2934 146.305 90.2468L145.91 89.3855ZM139.591 94.0513L138.887 93.4171C137.051 95.4574 135.6 97.8939 134.526 100.713L135.412 101.05L136.297 101.387C137.297 98.7625 138.633 96.5333 140.296 94.6854L139.591 94.0513ZM135.412 101.05L134.519 100.731C133.507 103.565 133.006 106.622 133.006 109.896H133.954H134.902C134.902 106.818 135.372 103.979 136.304 101.369L135.412 101.05ZM133.954 109.896H133.006C133.006 113.231 133.506 116.321 134.519 119.157L135.412 118.838L136.304 118.519C135.373 115.912 134.902 113.04 134.902 109.896H133.954ZM135.412 118.838L134.529 119.183C135.602 121.934 137.05 124.363 138.877 126.46L139.591 125.837L140.306 125.214C138.633 123.293 137.295 121.056 136.295 118.494L135.412 118.838ZM139.591 125.837L138.887 126.471C140.72 128.507 142.862 130.107 145.311 131.263L145.715 130.406L146.12 129.548C143.903 128.501 141.963 127.055 140.296 125.203L139.591 125.837ZM145.715 130.406L145.32 131.267C147.845 132.427 150.541 133.006 153.394 133.006V132.058V131.11C150.805 131.11 148.381 130.587 146.111 129.544L145.715 130.406ZM153.394 132.058V133.006C156.64 133.006 159.553 132.329 162.108 130.948L161.657 130.114L161.206 129.28C158.965 130.491 156.37 131.11 153.394 131.11V132.058ZM161.657 130.114L162.108 130.948C164.645 129.576 166.736 127.654 168.375 125.196L167.586 124.671L166.798 124.145C165.326 126.353 163.464 128.06 161.206 129.28L161.657 130.114ZM167.586 124.671L167.019 125.43L179.656 134.859L180.223 134.099L180.79 133.34L168.153 123.911L167.586 124.671ZM180.223 134.099L179.451 133.548C176.632 137.495 173.073 140.397 168.764 142.27L169.142 143.139L169.519 144.009C174.153 141.994 177.981 138.868 180.994 134.65L180.223 134.099ZM169.142 143.139L168.764 142.27C164.408 144.164 159.935 145.108 155.339 145.108V146.055V147.003C160.203 147.003 164.933 146.003 169.519 144.009L169.142 143.139ZM155.339 146.055V145.108C150.06 145.108 145.216 144.281 140.796 142.64L140.466 143.528L140.136 144.417C144.789 146.145 149.86 147.003 155.339 147.003V146.055ZM140.466 143.528L140.796 142.64C136.371 140.996 132.561 138.663 129.354 135.645L128.705 136.335L128.055 137.025C131.458 140.228 135.489 142.691 140.136 144.417L140.466 143.528ZM128.705 136.335L129.361 135.652C126.155 132.571 123.634 128.857 121.802 124.498L120.928 124.865L120.054 125.232C121.981 129.816 124.644 133.749 128.048 137.019L128.705 136.335ZM120.928 124.865L121.807 124.509C120.044 120.165 119.154 115.299 119.154 109.896H118.207H117.259C117.259 115.509 118.183 120.622 120.05 125.221L120.928 124.865ZM118.207 109.896H119.154C119.154 104.492 120.044 99.6258 121.807 95.2825L120.928 94.9261L120.05 94.5697C118.183 99.1691 117.259 104.282 117.259 109.896H118.207ZM120.928 94.9261L121.802 95.2934C123.634 90.9356 126.152 87.2571 129.354 84.2435L128.705 83.5532L128.055 82.8629C124.647 86.0704 121.981 89.9738 120.054 94.5588L120.928 94.9261ZM128.705 83.5532L129.361 84.2368C132.567 81.1564 136.375 78.7937 140.796 77.1515L140.466 76.2629L140.136 75.3743C135.485 77.1018 131.452 79.5993 128.048 82.8697L128.705 83.5532ZM140.466 76.2629L140.796 77.1515C145.216 75.51 150.06 74.6835 155.339 74.6835V73.7356V72.7877C149.86 72.7877 144.789 73.6461 140.136 75.3743L140.466 76.2629ZM155.339 73.7356V74.6835C157.219 74.6835 159.17 74.8716 161.19 75.2505L161.365 74.3188L161.54 73.3871C159.413 72.9884 157.346 72.7877 155.339 72.7877V73.7356ZM161.365 74.3188L161.223 75.256C163.293 75.5697 165.3 76.1028 167.244 76.8553L167.586 75.9713L167.928 75.0873C165.855 74.2846 163.714 73.716 161.507 73.3816L161.365 74.3188ZM167.586 75.9713L167.253 76.8589C169.252 77.6084 171.16 78.6087 172.978 79.8622L173.516 79.0818L174.054 78.3015C172.113 76.9628 170.068 75.8894 167.919 75.0837L167.586 75.9713ZM173.516 79.0818L172.978 79.8622C174.776 81.1023 176.393 82.6244 177.828 84.4339L178.57 83.8448L179.313 83.2558C177.767 81.3067 176.014 79.6535 174.054 78.3015L173.516 79.0818ZM178.57 83.8448L177.971 83.1106L166.306 92.6366L166.906 93.3708L167.505 94.105L179.17 84.579L178.57 83.8448ZM187.471 94.9261L186.597 94.5588L186.593 94.5697L187.471 94.9261ZM195.248 83.5532L195.897 84.2435L195.904 84.2368L195.248 83.5532ZM207.009 76.2629L206.679 75.3743V75.3743L207.009 76.2629ZM236.754 76.2629L237.084 75.3743V75.3743L236.754 76.2629ZM248.516 83.5532L247.859 84.2368L247.866 84.2435L248.516 83.5532ZM256.195 94.9261L255.316 95.2826L255.321 95.2934L256.195 94.9261ZM256.195 124.865L255.321 124.498L255.316 124.509L256.195 124.865ZM248.516 136.335L249.165 137.025L249.172 137.019L248.516 136.335ZM236.754 143.528L236.424 142.64V142.64L236.754 143.528ZM207.009 143.528L207.339 142.64V142.64L207.009 143.528ZM195.248 136.335L194.591 137.019L194.598 137.025L195.248 136.335ZM187.471 124.865L186.593 125.221L186.597 125.232L187.471 124.865ZM201.955 118.838L201.062 119.157L201.067 119.17L201.072 119.183L201.955 118.838ZM206.329 125.837L205.637 126.485L205.642 126.49L205.647 126.496L206.329 125.837ZM213.036 130.406L212.665 131.278L212.673 131.281L213.036 130.406ZM230.63 130.406L230.267 129.53L230.259 129.533L230.63 130.406ZM237.434 125.837L238.116 126.496L238.121 126.49L238.126 126.485L237.434 125.837ZM241.711 118.838L240.825 118.501L240.821 118.513L241.711 118.838ZM241.711 101.05L240.819 101.369L240.822 101.378L240.825 101.387L241.711 101.05ZM237.434 94.0513L236.742 94.6988L236.747 94.7045L236.753 94.7101L237.434 94.0513ZM230.63 89.3855L230.259 90.2579L230.267 90.2611L230.63 89.3855ZM213.036 89.3855L212.673 88.5098L212.665 88.5131L213.036 89.3855ZM206.329 94.0513L207.01 94.7101L207.016 94.7045L207.021 94.6988L206.329 94.0513ZM201.955 101.05L201.069 100.713L201.065 100.722L201.062 100.731L201.955 101.05ZM184.75 109.896H185.698C185.698 104.492 186.587 99.6258 188.35 95.2825L187.471 94.9261L186.593 94.5697C184.727 99.1691 183.802 104.282 183.802 109.896H184.75ZM187.471 94.9261L188.345 95.2934C190.177 90.9356 192.695 87.2571 195.897 84.2435L195.248 83.5532L194.598 82.8629C191.19 86.0704 188.524 89.9738 186.597 94.5588L187.471 94.9261ZM195.248 83.5532L195.904 84.2368C199.11 81.1564 202.918 78.7937 207.339 77.1515L207.009 76.2629L206.679 75.3743C202.028 77.1018 197.995 79.5993 194.591 82.8697L195.248 83.5532ZM207.009 76.2629L207.339 77.1515C211.759 75.51 216.603 74.6835 221.882 74.6835V73.7356V72.7877C216.403 72.7877 211.332 73.6461 206.679 75.3743L207.009 76.2629ZM221.882 73.7356V74.6835C227.16 74.6835 232.004 75.51 236.424 77.1515L236.754 76.2629L237.084 75.3743C232.431 73.6461 227.36 72.7877 221.882 72.7877V73.7356ZM236.754 76.2629L236.424 77.1515C240.845 78.7937 244.653 81.1564 247.859 84.2368L248.516 83.5532L249.172 82.8697C245.768 79.5993 241.735 77.1018 237.084 75.3743L236.754 76.2629ZM248.516 83.5532L247.866 84.2435C251.065 87.2547 253.55 90.9294 255.316 95.2825L256.195 94.9261L257.073 94.5697C255.21 89.98 252.576 86.0728 249.165 82.8629L248.516 83.5532ZM256.195 94.9261L255.321 95.2934C257.145 99.6337 258.066 104.496 258.066 109.896H259.014H259.961C259.961 104.278 259.003 99.1612 257.068 94.5588L256.195 94.9261ZM259.014 109.896H258.066C258.066 115.295 257.145 120.157 255.321 124.498L256.195 124.865L257.068 125.232C259.003 120.63 259.961 115.513 259.961 109.896H259.014ZM256.195 124.865L255.316 124.509C253.549 128.863 251.063 132.573 247.859 135.652L248.516 136.335L249.172 137.019C252.578 133.746 255.211 129.81 257.073 125.221L256.195 124.865ZM248.516 136.335L247.866 135.645C244.659 138.663 240.849 140.996 236.424 142.64L236.754 143.528L237.084 144.417C241.731 142.691 245.762 140.228 249.165 137.025L248.516 136.335ZM236.754 143.528L236.424 142.64C232.004 144.281 227.16 145.108 221.882 145.108V146.055V147.003C227.36 147.003 232.431 146.145 237.084 144.417L236.754 143.528ZM221.882 146.055V145.108C216.603 145.108 211.759 144.281 207.339 142.64L207.009 143.528L206.679 144.417C211.332 146.145 216.403 147.003 221.882 147.003V146.055ZM207.009 143.528L207.339 142.64C202.914 140.996 199.104 138.663 195.897 135.645L195.248 136.335L194.598 137.025C198.001 140.228 202.032 142.691 206.679 144.417L207.009 143.528ZM195.248 136.335L195.904 135.652C192.698 132.571 190.177 128.857 188.345 124.498L187.471 124.865L186.597 125.232C188.524 129.816 191.187 133.749 194.591 137.019L195.248 136.335ZM187.471 124.865L188.35 124.509C186.587 120.165 185.698 115.299 185.698 109.896H184.75H183.802C183.802 115.509 184.727 120.622 186.593 125.221L187.471 124.865ZM200.497 109.896H199.549C199.549 113.231 200.049 116.321 201.062 119.157L201.955 118.838L202.847 118.519C201.916 115.912 201.445 113.04 201.445 109.896H200.497ZM201.955 118.838L201.072 119.183C202.151 121.948 203.672 124.385 205.637 126.485L206.329 125.837L207.021 125.189C205.227 123.272 203.832 121.043 202.838 118.494L201.955 118.838ZM206.329 125.837L205.647 126.496C207.619 128.535 209.961 130.129 212.665 131.278L213.036 130.406L213.407 129.533C210.927 128.479 208.798 127.027 207.01 125.178L206.329 125.837ZM213.036 130.406L212.673 131.281C215.459 132.436 218.533 133.006 221.882 133.006V132.058V131.11C218.75 131.11 215.927 130.578 213.399 129.53L213.036 130.406ZM221.882 132.058V133.006C225.23 133.006 228.275 132.436 231.001 131.278L230.63 130.406L230.259 129.533C227.801 130.578 225.013 131.11 221.882 131.11V132.058ZM230.63 130.406L230.993 131.281C233.762 130.133 236.141 128.539 238.116 126.496L237.434 125.837L236.753 125.178C234.969 127.023 232.812 128.475 230.267 129.53L230.63 130.406ZM237.434 125.837L238.126 126.485C240.095 124.38 241.587 121.937 242.601 119.164L241.711 118.838L240.821 118.513C239.891 121.054 238.532 123.276 236.742 125.189L237.434 125.837ZM241.711 118.838L242.597 119.176C243.679 116.335 244.214 113.238 244.214 109.896H243.266H242.319C242.319 113.033 241.817 115.898 240.825 118.501L241.711 118.838ZM243.266 109.896H244.214C244.214 106.615 243.678 103.551 242.597 100.713L241.711 101.05L240.825 101.387C241.818 103.992 242.319 106.825 242.319 109.896H243.266ZM241.711 101.05L242.604 100.731C241.59 97.8913 240.095 95.4401 238.116 93.3924L237.434 94.0513L236.753 94.7101C238.532 96.5506 239.889 98.7652 240.819 101.369L241.711 101.05ZM237.434 94.0513L238.126 93.4037C236.151 91.2917 233.769 89.6608 230.993 88.5098L230.63 89.3855L230.267 90.2611C232.805 91.3134 234.959 92.793 236.742 94.6988L237.434 94.0513ZM230.63 89.3855L231.001 88.5131C228.275 87.3546 225.23 86.7851 221.882 86.7851V87.733V88.6809C225.013 88.6809 227.801 89.213 230.259 90.2579L230.63 89.3855ZM221.882 87.733V86.7851C218.533 86.7851 215.459 87.3548 212.673 88.5098L213.036 89.3855L213.399 90.2611C215.927 89.2128 218.75 88.6809 221.882 88.6809V87.733ZM213.036 89.3855L212.665 88.5131C209.954 89.6651 207.608 91.2959 205.637 93.4037L206.329 94.0513L207.021 94.6988C208.808 92.7888 210.933 91.3091 213.407 90.2579L213.036 89.3855ZM206.329 94.0513L205.647 93.3924C203.672 95.4357 202.148 97.8803 201.069 100.713L201.955 101.05L202.841 101.387C203.835 98.7762 205.227 96.555 207.01 94.7101L206.329 94.0513ZM201.955 101.05L201.062 100.731C200.05 103.565 199.549 106.622 199.549 109.896H200.497H201.445C201.445 106.818 201.915 103.979 202.847 101.369L201.955 101.05ZM269.32 75.4853V74.5374H268.372V75.4853H269.32ZM289.927 75.4853L290.736 74.9906L290.459 74.5374H289.927V75.4853ZM319.186 123.31L318.377 123.804L318.655 124.258H319.186V123.31ZM319.38 123.31V124.258H320.328V123.31H319.38ZM319.38 75.4853V74.5374H318.432V75.4853H319.38ZM334.544 75.4853H335.492V74.5374H334.544V75.4853ZM334.544 144.306V145.254H335.492V144.306H334.544ZM314.715 144.306L313.906 144.801L314.184 145.254H314.715V144.306ZM284.678 95.3149L285.487 94.8195L285.209 94.367H284.678V95.3149ZM284.484 95.3149V94.367H283.536V95.3149H284.484ZM284.484 144.306V145.254H285.432V144.306H284.484ZM269.32 144.306H268.372V145.254H269.32V144.306ZM269.32 75.4853V76.4332H289.927V75.4853V74.5374H269.32V75.4853ZM289.927 75.4853L289.119 75.98L318.377 123.804L319.186 123.31L319.995 122.815L290.736 74.9906L289.927 75.4853ZM319.186 123.31V124.258H319.38V123.31V122.362H319.186V123.31ZM319.38 123.31H320.328V75.4853H319.38H318.432V123.31H319.38ZM319.38 75.4853V76.4332H334.544V75.4853V74.5374H319.38V75.4853ZM334.544 75.4853H333.596V144.306H334.544H335.492V75.4853H334.544ZM334.544 144.306V143.358H314.715V144.306V145.254H334.544V144.306ZM314.715 144.306L315.523 143.81L285.487 94.8195L284.678 95.3149L283.87 95.8104L313.906 144.801L314.715 144.306ZM284.678 95.3149V94.367H284.484V95.3149V96.2628H284.678V95.3149ZM284.484 95.3149H283.536V144.306H284.484H285.432V95.3149H284.484ZM284.484 144.306V143.358H269.32V144.306V145.254H284.484V144.306ZM269.32 144.306H270.268V75.4853H269.32H268.372V144.306H269.32ZM349.167 75.4853V74.5374H348.219V75.4853H349.167ZM395.339 75.4853H396.286V74.5374H395.339V75.4853ZM395.339 89.4827V90.4306H396.286V89.4827H395.339ZM364.33 89.4827V88.5348H363.382V89.4827H364.33ZM364.33 103.48H363.382V104.428H364.33V103.48ZM393.006 103.48H393.954V102.532H393.006V103.48ZM393.006 117.477V118.425H393.954V117.477H393.006ZM364.33 117.477V116.53H363.382V117.477H364.33ZM364.33 144.306V145.254H365.278V144.306H364.33ZM349.167 144.306H348.219V145.254H349.167V144.306ZM349.167 75.4853V76.4332H395.339V75.4853V74.5374H349.167V75.4853ZM395.339 75.4853H394.391V89.4827H395.339H396.286V75.4853H395.339ZM395.339 89.4827V88.5348H364.33V89.4827V90.4306H395.339V89.4827ZM364.33 89.4827H363.382V103.48H364.33H365.278V89.4827H364.33ZM364.33 103.48V104.428H393.006V103.48V102.532H364.33V103.48ZM393.006 103.48H392.058V117.477H393.006H393.954V103.48H393.006ZM393.006 117.477V116.53H364.33V117.477V118.425H393.006V117.477ZM364.33 117.477H363.382V144.306H364.33H365.278V117.477H364.33ZM364.33 144.306V143.358H349.167V144.306V145.254H364.33V144.306ZM349.167 144.306H350.114V75.4853H349.167H348.219V144.306H349.167Z" fill="#41B883"/>
<path d="M30.7255 64.063C28.6282 67.4187 26.7406 70.6346 25.0627 73.7106C23.3849 76.7867 21.9517 79.9326 20.7633 83.1485C19.6447 86.2944 18.7708 89.6152 18.1417 93.1107C17.5125 96.5362 17.1979 100.276 17.1979 104.331C17.1979 108.386 17.5125 112.161 18.1417 115.657C18.7708 119.082 19.6447 122.403 20.7633 125.619C21.9517 128.765 23.3849 131.876 25.0627 134.952C26.7406 138.028 28.6282 141.244 30.7255 144.599L19.9244 150.891L19.7146 150.472C14.8908 143.271 11.1506 135.966 8.49407 128.555C5.9074 121.075 4.61406 113 4.61406 104.331C4.61406 95.6624 5.9074 87.6227 8.49407 80.2123C11.1506 72.7319 14.8908 65.3913 19.7146 58.1906L19.9244 57.7711L30.7255 64.063Z" fill="#41B883"/>
<path d="M399.82 147.557C401.917 144.201 403.805 140.985 405.483 137.909C407.161 134.833 408.559 131.722 409.677 128.576C410.866 125.36 411.775 122.04 412.404 118.614C413.033 115.119 413.348 111.343 413.348 107.289C413.348 103.234 413.033 99.4937 412.404 96.0681C411.775 92.5726 410.866 89.2519 409.677 86.106C408.559 82.8901 407.161 79.7442 405.483 76.6681C403.805 73.5921 401.917 70.3762 399.82 67.0205L410.621 60.7286L410.831 61.1481C415.655 68.3488 419.36 75.6894 421.947 83.1697C424.603 90.5802 425.931 98.6199 425.931 107.289C425.931 115.958 424.603 124.032 421.947 131.513C419.36 138.923 415.655 146.229 410.831 153.429L410.621 153.849L399.82 147.557Z" fill="#41B883"/>
<path d="M100.986 73.8522L75.9186 117.551L50.8462 73.8522H33.7837L75.9186 146.799L118.049 73.8522H100.986Z" fill="#41B883"/>
<path d="M85.4925 73.8522L75.9186 90.7393L66.3399 73.8522H50.8462L75.9186 117.551L100.986 73.8522H85.4925Z" fill="#34495E"/>
<path d="M434.629 67.9798C434.004 68.7714 432.729 68.3306 432.729 67.3258V57.6428C432.729 56.4674 431.776 55.5195 430.601 55.5195H419.908C419.046 55.5195 418.538 54.5431 419.046 53.8369L426.074 43.9976C427.079 42.5899 426.074 40.6325 424.344 40.6325H411.405C410.543 40.6325 410.036 39.6561 410.543 38.9499L419.657 26.1909C419.856 25.9113 420.178 25.7454 420.52 25.7454H447.677C448.54 25.7454 449.047 26.7218 448.54 27.428L441.511 37.2673C440.506 38.675 441.511 40.6325 443.241 40.6325H453.934C454.82 40.6325 455.318 41.6562 454.768 42.3529L434.629 67.9846V67.9798Z" fill="#863BFF"/>
<path d="M168.139 195.411V203.318H166.508V196.974H163.671V195.411H168.139ZM168.139 202.626C168.66 203.445 169.404 204.055 170.372 204.457C171.34 204.859 172.48 205.09 173.79 205.15C174.415 205.165 175.175 205.18 176.068 205.194C176.962 205.194 177.9 205.194 178.883 205.194C179.866 205.18 180.819 205.157 181.742 205.127C182.666 205.098 183.462 205.06 184.132 205.016C184.073 205.135 184.006 205.291 183.931 205.485C183.857 205.678 183.79 205.879 183.73 206.088C183.671 206.296 183.626 206.49 183.596 206.669C182.971 206.684 182.226 206.698 181.363 206.713C180.514 206.743 179.628 206.758 178.704 206.758C177.781 206.773 176.888 206.773 176.024 206.758C175.16 206.743 174.423 206.728 173.812 206.713C172.338 206.654 171.08 206.416 170.037 205.999C168.995 205.582 168.124 204.934 167.424 204.055C166.932 204.532 166.426 205.008 165.905 205.485C165.399 205.976 164.87 206.468 164.319 206.959L163.448 205.306C163.939 204.949 164.468 204.539 165.034 204.078C165.614 203.601 166.158 203.117 166.664 202.626H168.139ZM163.894 188.084L165.168 187.146C165.629 187.488 166.091 187.875 166.553 188.307C167.029 188.739 167.461 189.171 167.848 189.603C168.25 190.035 168.563 190.437 168.786 190.809L167.424 191.859C167.215 191.487 166.917 191.077 166.53 190.63C166.143 190.169 165.719 189.722 165.257 189.29C164.81 188.843 164.356 188.441 163.894 188.084ZM169.412 188.598H183.44V190.005H169.412V188.598ZM169.077 200.369H183.775V201.799H169.077V200.369ZM175.465 186.587H177.096V204.346H175.465V186.587ZM172.025 195.746V197.533H180.67V195.746H172.025ZM172.025 192.775V194.539H180.67V192.775H172.025ZM170.462 191.524H182.278V198.783H170.462V191.524ZM199.411 186.587H201.109V195.343H199.411V186.587ZM196.507 204.48H204.482V205.999H196.507V204.48ZM194.229 189.759H206.448V191.278H194.229V189.759ZM194.944 194.629H205.934V196.192H194.944V194.629ZM195.659 198.605H205.308V207.048H203.7V200.124H197.222V207.115H195.659V198.605ZM189.337 186.587L190.834 187.168C190.566 187.704 190.268 188.27 189.94 188.866C189.613 189.461 189.292 190.035 188.98 190.586C188.667 191.122 188.362 191.598 188.064 192.015L186.902 191.501C187.185 191.07 187.476 190.571 187.773 190.005C188.071 189.424 188.362 188.836 188.645 188.24C188.928 187.63 189.158 187.079 189.337 186.587ZM192.04 189.134L193.514 189.759C192.993 190.608 192.412 191.501 191.772 192.44C191.146 193.363 190.514 194.264 189.873 195.142C189.233 196.021 188.63 196.781 188.064 197.421L186.992 196.862C187.423 196.356 187.87 195.783 188.332 195.142C188.794 194.502 189.248 193.832 189.694 193.132C190.156 192.432 190.588 191.74 190.99 191.055C191.392 190.37 191.742 189.729 192.04 189.134ZM185.83 191.3L186.657 190.184C187.074 190.526 187.498 190.906 187.93 191.323C188.362 191.74 188.756 192.157 189.114 192.574C189.471 192.976 189.747 193.341 189.94 193.668L189.047 194.964C188.838 194.606 188.555 194.212 188.198 193.78C187.855 193.348 187.476 192.916 187.059 192.484C186.642 192.052 186.232 191.658 185.83 191.3ZM191.325 194.316L192.576 193.78C192.904 194.271 193.216 194.793 193.514 195.343C193.812 195.894 194.073 196.431 194.296 196.952C194.534 197.473 194.706 197.942 194.81 198.359L193.492 198.985C193.373 198.568 193.201 198.091 192.978 197.555C192.755 197.019 192.502 196.468 192.219 195.902C191.936 195.336 191.638 194.807 191.325 194.316ZM185.785 196.572C186.783 196.542 187.967 196.505 189.337 196.46C190.722 196.401 192.144 196.334 193.604 196.259L193.581 197.644C192.196 197.734 190.834 197.823 189.493 197.912C188.153 197.987 186.962 198.046 185.919 198.091L185.785 196.572ZM191.906 199.677L193.157 199.253C193.484 199.938 193.79 200.682 194.073 201.486C194.37 202.291 194.579 202.983 194.698 203.564L193.313 204.033C193.209 203.437 193.023 202.737 192.755 201.933C192.487 201.114 192.204 200.362 191.906 199.677ZM187.014 199.364L188.444 199.61C188.295 200.667 188.086 201.71 187.818 202.737C187.55 203.75 187.237 204.614 186.88 205.328C186.776 205.254 186.642 205.18 186.478 205.105C186.329 205.031 186.165 204.956 185.986 204.882C185.823 204.792 185.674 204.725 185.54 204.681C185.927 203.996 186.232 203.184 186.455 202.246C186.694 201.293 186.88 200.332 187.014 199.364ZM189.583 197.22H191.102V207.182H189.583V197.22ZM216.366 204.859H229.009V206.49H216.366V204.859ZM217.259 193.892H228.517V195.5H217.259V193.892ZM222.039 186.766H223.759V205.641H222.039V186.766ZM208.547 190.787H215.964V192.328H208.547V190.787ZM212.077 197.466L213.752 195.5V207.138H212.077V197.466ZM212.077 186.587H213.752V191.546H212.077V186.587ZM213.596 195.924C213.789 196.058 214.072 196.282 214.445 196.594C214.817 196.907 215.219 197.25 215.651 197.622C216.083 197.979 216.477 198.314 216.835 198.627C217.192 198.94 217.445 199.171 217.594 199.32L216.567 200.682C216.373 200.444 216.105 200.146 215.763 199.789C215.42 199.431 215.048 199.059 214.646 198.672C214.258 198.285 213.886 197.927 213.529 197.6C213.171 197.257 212.873 196.989 212.635 196.795L213.596 195.924ZM215.338 190.787H215.695L216.008 190.72L216.946 191.345C216.395 192.715 215.673 194.026 214.78 195.276C213.886 196.513 212.903 197.637 211.831 198.649C210.774 199.662 209.716 200.518 208.659 201.218C208.6 201.054 208.518 200.876 208.413 200.682C208.309 200.489 208.197 200.302 208.078 200.124C207.974 199.945 207.877 199.804 207.788 199.699C208.801 199.104 209.798 198.359 210.781 197.466C211.764 196.557 212.658 195.559 213.462 194.472C214.281 193.37 214.906 192.253 215.338 191.122V190.787ZM241.495 190.943H250.699V192.484H241.495V190.943ZM241.808 195.5H250.297V197.063H241.808V195.5ZM240.982 200.302H251.19V201.888H240.982V200.302ZM241.786 187.213L243.126 186.744C243.498 187.294 243.833 187.913 244.131 188.598C244.444 189.268 244.653 189.863 244.757 190.385L243.305 190.921C243.215 190.399 243.022 189.796 242.724 189.111C242.441 188.411 242.128 187.778 241.786 187.213ZM248.666 186.565L250.274 186.967C249.976 187.637 249.664 188.329 249.336 189.044C249.023 189.744 248.718 190.34 248.42 190.831L247.035 190.452C247.229 190.094 247.422 189.692 247.616 189.245C247.824 188.784 248.018 188.322 248.197 187.86C248.39 187.384 248.547 186.952 248.666 186.565ZM245.204 191.658H246.812V207.16H245.204V191.658ZM230.639 191.39H241.272V192.842H230.639V191.39ZM231.779 187.704H239.932V196.527H231.667V195.075H238.368V189.156H231.779V187.704ZM232.962 198.828H234.504V207.138H232.962V198.828ZM233.61 198.828H240.245V205.932H233.61V204.457H238.614V200.302H233.61V198.828ZM234.548 188.24L236.157 188.307C236.008 190.496 235.762 192.507 235.42 194.338C235.077 196.17 234.586 197.823 233.945 199.297C233.32 200.772 232.471 202.052 231.399 203.139C231.339 203.035 231.242 202.901 231.108 202.737C230.974 202.559 230.833 202.387 230.684 202.223C230.535 202.06 230.401 201.933 230.282 201.844C231.28 200.891 232.062 199.737 232.627 198.381C233.208 197.026 233.64 195.492 233.923 193.78C234.221 192.067 234.429 190.221 234.548 188.24Z" fill="white"/>
<path d="M262.342 189.647H270.227V195.991H262.342V194.472H268.708V191.144H262.342V189.647ZM263.995 204.078H269.937V205.462H263.995V204.078ZM263.436 198.515H270.517V206.423H269.021V199.9H264.911V206.937H263.436V198.515ZM261.56 189.647H263.124V194.897C263.124 195.731 263.094 196.647 263.034 197.644C262.99 198.627 262.893 199.64 262.744 200.682C262.61 201.725 262.401 202.745 262.118 203.742C261.85 204.74 261.493 205.663 261.046 206.512C260.957 206.408 260.83 206.282 260.666 206.133C260.517 205.999 260.354 205.872 260.175 205.753C260.011 205.649 259.87 205.567 259.751 205.507C260.302 204.45 260.704 203.296 260.957 202.045C261.21 200.794 261.374 199.55 261.448 198.314C261.523 197.063 261.56 195.924 261.56 194.897V189.647ZM264.24 186.989L265.692 186.587C265.975 187.153 266.258 187.771 266.541 188.441C266.839 189.111 267.055 189.692 267.189 190.184L265.692 190.653C265.558 190.161 265.35 189.573 265.067 188.888C264.799 188.203 264.523 187.57 264.24 186.989ZM273.332 190.787H280.391V192.35H273.332V190.787ZM273.913 186.565L275.521 186.833C275.298 188.203 275.022 189.536 274.694 190.831C274.367 192.127 273.98 193.333 273.533 194.45C273.086 195.552 272.572 196.527 271.992 197.376C271.917 197.287 271.798 197.175 271.634 197.041C271.485 196.892 271.329 196.751 271.165 196.617C271.001 196.468 270.852 196.349 270.718 196.259C271.284 195.5 271.768 194.606 272.17 193.579C272.572 192.551 272.915 191.442 273.198 190.251C273.496 189.044 273.734 187.816 273.913 186.565ZM277.799 191.635L279.385 191.769C279.088 194.212 278.648 196.401 278.067 198.337C277.502 200.273 276.727 201.978 275.744 203.452C274.761 204.911 273.496 206.162 271.947 207.205C271.887 207.101 271.798 206.959 271.679 206.78C271.56 206.602 271.433 206.423 271.299 206.244C271.165 206.08 271.046 205.946 270.942 205.842C272.401 204.934 273.585 203.802 274.493 202.447C275.402 201.092 276.117 199.513 276.638 197.711C277.159 195.894 277.546 193.869 277.799 191.635ZM274.069 192.149C274.367 194.174 274.791 196.088 275.342 197.89C275.893 199.692 276.601 201.278 277.464 202.648C278.328 204.018 279.385 205.083 280.636 205.842C280.458 205.976 280.257 206.17 280.033 206.423C279.825 206.676 279.653 206.907 279.519 207.115C278.224 206.237 277.129 205.068 276.236 203.608C275.342 202.149 274.613 200.466 274.047 198.56C273.481 196.639 273.027 194.584 272.684 192.395L274.069 192.149ZM293.369 193.288H297.993V194.629H293.369V193.288ZM291.939 199.766H299.467V200.995H291.939V199.766ZM284.434 187.525H290.711V188.91H284.434V187.525ZM290.241 187.525H290.532L290.8 187.458L291.85 187.994C291.314 189.23 290.569 190.34 289.616 191.323C288.663 192.291 287.606 193.125 286.444 193.825C285.283 194.51 284.099 195.068 282.892 195.5C282.788 195.306 282.647 195.09 282.468 194.852C282.289 194.599 282.125 194.398 281.977 194.249C282.81 193.996 283.644 193.661 284.478 193.244C285.312 192.827 286.102 192.343 286.846 191.792C287.591 191.241 288.253 190.63 288.834 189.96C289.43 189.29 289.899 188.575 290.241 187.816V187.525ZM293.748 186.587C294.285 187.734 295.007 188.791 295.915 189.759C296.824 190.712 297.874 191.546 299.065 192.261C300.256 192.961 301.537 193.489 302.907 193.847C302.743 194.011 302.557 194.227 302.348 194.495C302.155 194.748 302.006 194.979 301.902 195.187C300.472 194.74 299.147 194.13 297.926 193.355C296.719 192.566 295.647 191.635 294.709 190.563C293.771 189.491 293.004 188.307 292.408 187.012L293.748 186.587ZM298.328 186.744L299.556 187.615C299.02 188.121 298.424 188.627 297.769 189.134C297.129 189.64 296.541 190.072 296.005 190.429L294.999 189.67C295.357 189.417 295.737 189.119 296.139 188.776C296.556 188.434 296.958 188.084 297.345 187.726C297.732 187.369 298.06 187.041 298.328 186.744ZM301.008 188.977L302.237 189.848C301.701 190.355 301.098 190.861 300.427 191.367C299.772 191.859 299.162 192.276 298.596 192.618L297.568 191.859C297.941 191.606 298.335 191.315 298.752 190.988C299.169 190.645 299.579 190.303 299.981 189.96C300.383 189.603 300.725 189.275 301.008 188.977ZM285.148 193.378H290.599V198.739H289.102V194.718H285.148V193.378ZM284.568 197.063H285.997C285.908 197.629 285.796 198.24 285.662 198.895C285.528 199.55 285.394 200.176 285.26 200.772C285.141 201.367 285.014 201.903 284.88 202.38L283.495 202.134C283.615 201.687 283.741 201.174 283.875 200.593C284.009 200.012 284.136 199.416 284.255 198.806C284.374 198.18 284.478 197.6 284.568 197.063ZM289.125 200.459H290.666C290.666 200.459 290.658 200.541 290.644 200.705C290.644 200.868 290.629 201.01 290.599 201.129C290.51 202.246 290.413 203.169 290.308 203.899C290.204 204.629 290.085 205.194 289.951 205.596C289.817 206.013 289.646 206.319 289.437 206.512C289.244 206.706 289.035 206.84 288.812 206.914C288.588 206.989 288.306 207.041 287.963 207.071C287.665 207.086 287.241 207.086 286.69 207.071C286.154 207.071 285.58 207.056 284.97 207.026C284.94 206.803 284.88 206.557 284.791 206.289C284.717 206.021 284.605 205.783 284.456 205.574C285.081 205.634 285.662 205.671 286.198 205.686C286.749 205.701 287.137 205.708 287.36 205.708C287.568 205.708 287.732 205.693 287.851 205.663C287.985 205.649 288.097 205.604 288.186 205.529C288.32 205.395 288.44 205.15 288.544 204.792C288.663 204.435 288.767 203.929 288.857 203.273C288.946 202.603 289.035 201.74 289.125 200.682V200.459ZM292.766 193.288H294.195V195.075C294.195 195.552 294.128 196.051 293.994 196.572C293.86 197.078 293.614 197.57 293.257 198.046C292.915 198.523 292.416 198.955 291.76 199.342C291.686 199.253 291.582 199.141 291.448 199.007C291.314 198.858 291.172 198.724 291.023 198.605C290.889 198.471 290.77 198.367 290.666 198.292C291.276 197.964 291.723 197.622 292.006 197.265C292.304 196.892 292.505 196.52 292.609 196.148C292.714 195.76 292.766 195.388 292.766 195.031V193.288ZM299.065 199.766H299.378L299.646 199.722L300.584 200.079C300.092 201.449 299.392 202.603 298.484 203.541C297.576 204.48 296.518 205.239 295.312 205.82C294.121 206.401 292.818 206.847 291.403 207.16C291.329 206.981 291.217 206.765 291.068 206.512C290.934 206.274 290.8 206.073 290.666 205.909C291.947 205.671 293.145 205.306 294.262 204.815C295.379 204.323 296.355 203.683 297.188 202.894C298.037 202.089 298.663 201.122 299.065 199.99V199.766ZM294.039 200.883C294.694 202.179 295.737 203.244 297.166 204.078C298.611 204.911 300.316 205.462 302.281 205.731C302.118 205.909 301.939 206.133 301.745 206.401C301.552 206.684 301.403 206.929 301.299 207.138C299.244 206.751 297.486 206.066 296.027 205.083C294.568 204.085 293.473 202.812 292.743 201.263L294.039 200.883ZM285.305 197.063H289.683V198.381H285.059L285.305 197.063ZM284.635 200.459H289.549V201.754H284.389L284.635 200.459ZM297.233 193.288H298.685V196.773C298.685 196.937 298.693 197.071 298.707 197.175C298.722 197.279 298.752 197.346 298.797 197.376C298.841 197.436 298.961 197.466 299.154 197.466C299.229 197.466 299.333 197.466 299.467 197.466C299.601 197.466 299.72 197.466 299.824 197.466C299.914 197.466 300.003 197.466 300.092 197.466C300.197 197.451 300.264 197.436 300.293 197.421C300.353 197.406 300.405 197.376 300.45 197.332C300.494 197.272 300.532 197.198 300.561 197.108C300.591 197.004 300.606 196.855 300.606 196.661C300.621 196.468 300.636 196.23 300.651 195.947C300.8 196.066 300.986 196.185 301.209 196.304C301.448 196.423 301.671 196.513 301.879 196.572C301.864 196.855 301.835 197.138 301.79 197.421C301.76 197.704 301.708 197.912 301.634 198.046C301.559 198.165 301.462 198.27 301.343 198.359C301.239 198.448 301.112 198.515 300.964 198.56C300.844 198.605 300.688 198.642 300.494 198.672C300.301 198.687 300.13 198.694 299.981 198.694C299.847 198.694 299.653 198.694 299.4 198.694C299.162 198.694 298.983 198.694 298.864 198.694C298.64 198.694 298.417 198.664 298.194 198.605C297.97 198.545 297.784 198.456 297.635 198.337C297.486 198.203 297.382 198.024 297.323 197.801C297.263 197.577 297.233 197.198 297.233 196.661V193.288ZM283.853 190.184L284.813 189.29C285.335 189.588 285.871 189.945 286.422 190.362C286.988 190.779 287.419 191.151 287.717 191.479L286.712 192.507C286.414 192.149 285.99 191.755 285.439 191.323C284.903 190.891 284.374 190.511 283.853 190.184ZM305.074 195.768H324.731V197.421H305.074V195.768ZM306.66 190.251H323.212V191.903H306.66V190.251ZM313.942 186.609H315.706V207.138H313.942V186.609ZM313.517 196.617L314.947 197.22C314.426 198.113 313.808 198.985 313.093 199.833C312.378 200.682 311.611 201.486 310.792 202.246C309.988 202.99 309.147 203.675 308.268 204.301C307.404 204.911 306.541 205.44 305.677 205.887C305.573 205.753 305.446 205.596 305.297 205.418C305.163 205.239 305.022 205.068 304.873 204.904C304.724 204.725 304.582 204.584 304.448 204.48C305.297 204.092 306.153 203.616 307.017 203.05C307.896 202.484 308.737 201.859 309.541 201.174C310.345 200.474 311.083 199.737 311.753 198.962C312.438 198.188 313.026 197.406 313.517 196.617ZM316.131 196.617C316.622 197.406 317.21 198.188 317.895 198.962C318.595 199.722 319.347 200.459 320.152 201.174C320.956 201.874 321.797 202.506 322.676 203.072C323.554 203.623 324.418 204.085 325.267 204.457C325.148 204.576 325.006 204.718 324.843 204.882C324.694 205.045 324.545 205.217 324.396 205.395C324.262 205.574 324.143 205.745 324.038 205.909C323.19 205.462 322.326 204.926 321.447 204.301C320.569 203.675 319.72 202.983 318.901 202.223C318.082 201.464 317.315 200.66 316.6 199.811C315.9 198.962 315.282 198.098 314.746 197.22L316.131 196.617ZM327.635 189.714H346.912V191.345H327.635V189.714ZM336.257 186.609H337.999V207.138H336.257V186.609ZM336.458 196.505L337.865 197.063C337.314 198.017 336.674 198.947 335.944 199.856C335.215 200.749 334.418 201.591 333.554 202.38C332.69 203.154 331.79 203.862 330.851 204.502C329.928 205.127 328.99 205.663 328.037 206.11C327.962 205.961 327.851 205.798 327.702 205.619C327.568 205.455 327.426 205.291 327.277 205.127C327.128 204.949 326.987 204.807 326.853 204.703C327.791 204.316 328.722 203.832 329.645 203.251C330.583 202.67 331.477 202.022 332.326 201.308C333.174 200.593 333.949 199.826 334.649 199.007C335.349 198.188 335.952 197.354 336.458 196.505ZM337.932 196.572C338.588 197.704 339.422 198.798 340.434 199.856C341.447 200.898 342.564 201.836 343.785 202.67C345.021 203.504 346.279 204.167 347.56 204.658C347.426 204.777 347.277 204.926 347.113 205.105C346.964 205.284 346.815 205.462 346.666 205.641C346.532 205.835 346.421 206.013 346.331 206.177C345.051 205.596 343.792 204.844 342.556 203.921C341.32 202.998 340.181 201.955 339.139 200.794C338.111 199.632 337.24 198.411 336.525 197.131L337.932 196.572ZM330.628 195.343L331.723 194.316C332.08 194.614 332.452 194.949 332.839 195.321C333.241 195.679 333.621 196.029 333.979 196.371C334.351 196.714 334.641 197.019 334.85 197.287L333.711 198.448C333.487 198.165 333.197 197.845 332.839 197.488C332.497 197.131 332.132 196.766 331.745 196.393C331.358 196.006 330.985 195.656 330.628 195.343ZM331.544 191.859L333.197 192.172C332.81 193.795 332.229 195.262 331.454 196.572C330.695 197.868 329.801 198.947 328.774 199.811C328.685 199.707 328.558 199.588 328.394 199.454C328.23 199.305 328.059 199.163 327.88 199.029C327.717 198.895 327.575 198.791 327.456 198.716C328.469 197.957 329.317 196.989 330.003 195.813C330.702 194.621 331.216 193.303 331.544 191.859ZM341.372 195.388L342.489 194.405C342.996 194.778 343.532 195.202 344.098 195.679C344.678 196.14 345.229 196.602 345.751 197.063C346.272 197.525 346.696 197.92 347.024 198.247L345.84 199.409C345.527 199.052 345.118 198.642 344.611 198.18C344.105 197.704 343.561 197.227 342.981 196.751C342.415 196.259 341.879 195.805 341.372 195.388ZM342.132 191.859L343.762 192.149C343.465 193.549 343.025 194.822 342.445 195.969C341.864 197.116 341.171 198.076 340.367 198.851C340.263 198.761 340.121 198.657 339.943 198.538C339.779 198.419 339.608 198.307 339.429 198.203C339.25 198.084 339.094 197.994 338.96 197.935C339.779 197.235 340.449 196.364 340.97 195.321C341.506 194.264 341.894 193.11 342.132 191.859Z" fill="white"/>
<path d="M153.762 188.034H81.9758V206.12H153.762V188.034Z" fill="url(#paint0_linear_1_6014)"/>
</g>
<defs>
<linearGradient id="paint0_linear_1_6014" x1="81.9758" y1="197.077" x2="153.766" y2="197.077" gradientUnits="userSpaceOnUse">
<stop stop-color="#41B883" stop-opacity="0"/>
<stop offset="1" stop-color="#41B883"/>
</linearGradient>
<clipPath id="clip0_1_6014">
<rect width="455" height="229.074" fill="white"/>
</clipPath>
</defs>
</svg>
