<svg width="455" height="230" viewBox="0 0 455 230" fill="none" xmlns="http://www.w3.org/2000/svg">
<g clip-path="url(#clip0_1_5729)">
<path d="M257.845 27.9424L268.846 18.062C269.406 17.5553 269.966 16.982 270.526 16.342C271.086 15.7019 271.366 14.9552 271.366 14.1019C271.366 13.1418 271.019 12.3952 270.326 11.8618C269.633 11.3018 268.819 11.0218 267.886 11.0218C266.766 11.0218 265.886 11.3685 265.246 12.0618C264.632 12.7552 264.286 13.6085 264.206 14.6219L258.205 14.1819C258.285 12.7152 258.592 11.4485 259.125 10.3818C259.659 9.28838 260.366 8.38168 261.246 7.66166C262.126 6.94163 263.152 6.40828 264.326 6.0616C265.526 5.68826 266.819 5.50158 268.206 5.50158C269.486 5.50158 270.686 5.68826 271.806 6.0616C272.926 6.40828 273.899 6.94163 274.726 7.66166C275.553 8.35502 276.193 9.23505 276.646 10.3017C277.126 11.3685 277.366 12.6085 277.366 14.0219C277.366 14.9286 277.273 15.7553 277.086 16.502C276.899 17.222 276.633 17.8887 276.286 18.502C275.966 19.0887 275.579 19.6354 275.126 20.1421C274.673 20.6488 274.179 21.1421 273.646 21.6221L265.046 29.0224H277.606V34.3026H257.845V27.9424ZM280.878 20.1421C280.878 18.462 281.025 16.7553 281.318 15.0219C281.638 13.2885 282.185 11.7151 282.958 10.3017C283.758 8.88837 284.838 7.74166 286.198 6.86163C287.558 5.95493 289.292 5.50158 291.398 5.50158C293.505 5.50158 295.239 5.95493 296.599 6.86163C297.959 7.74166 299.025 8.88837 299.799 10.3017C300.599 11.7151 301.145 13.2885 301.439 15.0219C301.759 16.7553 301.919 18.462 301.919 20.1421C301.919 21.8221 301.759 23.5289 301.439 25.2623C301.145 26.9957 300.599 28.569 299.799 29.9824C299.025 31.3958 297.959 32.5559 296.599 33.4626C295.239 34.3426 293.505 34.7826 291.398 34.7826C289.292 34.7826 287.558 34.3426 286.198 33.4626C284.838 32.5559 283.758 31.3958 282.958 29.9824C282.185 28.569 281.638 26.9957 281.318 25.2623C281.025 23.5289 280.878 21.8221 280.878 20.1421ZM286.878 20.1421C286.878 20.8888 286.905 21.7821 286.958 22.8222C287.038 23.8622 287.225 24.8623 287.518 25.8223C287.812 26.7823 288.252 27.5957 288.838 28.2624C289.452 28.9291 290.305 29.2624 291.398 29.2624C292.465 29.2624 293.305 28.9291 293.919 28.2624C294.532 27.5957 294.985 26.7823 295.279 25.8223C295.572 24.8623 295.745 23.8622 295.799 22.8222C295.879 21.7821 295.919 20.8888 295.919 20.1421C295.919 19.3954 295.879 18.502 295.799 17.462C295.745 16.422 295.572 15.4219 295.279 14.4619C294.985 13.5019 294.532 12.6885 293.919 12.0218C293.305 11.3551 292.465 11.0218 291.398 11.0218C290.305 11.0218 289.452 11.3551 288.838 12.0218C288.252 12.6885 287.812 13.5019 287.518 14.4619C287.225 15.4219 287.038 16.422 286.958 17.462C286.905 18.502 286.878 19.3954 286.878 20.1421ZM305.191 27.9424L316.191 18.062C316.751 17.5553 317.311 16.982 317.871 16.342C318.431 15.7019 318.711 14.9552 318.711 14.1019C318.711 13.1418 318.365 12.3952 317.671 11.8618C316.978 11.3018 316.165 11.0218 315.231 11.0218C314.111 11.0218 313.231 11.3685 312.591 12.0618C311.978 12.7552 311.631 13.6085 311.551 14.6219L305.551 14.1819C305.631 12.7152 305.938 11.4485 306.471 10.3818C307.004 9.28838 307.711 8.38168 308.591 7.66166C309.471 6.94163 310.498 6.40828 311.671 6.0616C312.871 5.68826 314.164 5.50158 315.551 5.50158C316.831 5.50158 318.031 5.68826 319.151 6.0616C320.271 6.40828 321.245 6.94163 322.071 7.66166C322.898 8.35502 323.538 9.23505 323.991 10.3017C324.472 11.3685 324.712 12.6085 324.712 14.0219C324.712 14.9286 324.618 15.7553 324.432 16.502C324.245 17.222 323.978 17.8887 323.631 18.502C323.311 19.0887 322.925 19.6354 322.471 20.1421C322.018 20.6488 321.525 21.1421 320.991 21.6221L312.391 29.0224H324.952V34.3026H305.191V27.9424ZM338.384 16.102C338.704 16.0219 339.024 15.9553 339.344 15.9019C339.664 15.8486 339.997 15.8219 340.344 15.8219C341.677 15.8219 342.891 16.0619 343.984 16.542C345.077 17.022 346.011 17.6753 346.784 18.502C347.558 19.3287 348.158 20.3154 348.584 21.4621C349.011 22.5822 349.224 23.7822 349.224 25.0623C349.224 26.529 348.944 27.8624 348.384 29.0624C347.851 30.2358 347.104 31.2491 346.144 32.1025C345.211 32.9559 344.091 33.6226 342.784 34.1026C341.504 34.5559 340.131 34.7826 338.664 34.7826C337.17 34.7826 335.784 34.5559 334.504 34.1026C333.224 33.6226 332.104 32.9559 331.144 32.1025C330.21 31.2491 329.464 30.2358 328.904 29.0624C328.37 27.8624 328.103 26.529 328.103 25.0623C328.103 24.0489 328.197 23.1289 328.384 22.3022C328.57 21.4488 328.81 20.6488 329.104 19.9021C329.424 19.1554 329.784 18.4487 330.184 17.782C330.61 17.0887 331.05 16.382 331.504 15.6619L337.704 5.9816H345.024L338.384 16.102ZM343.224 24.8223C343.224 23.5422 342.797 22.4888 341.944 21.6621C341.117 20.8088 340.024 20.3821 338.664 20.3821C337.304 20.3821 336.197 20.8088 335.344 21.6621C334.517 22.4888 334.104 23.5422 334.104 24.8223C334.104 26.1023 334.517 27.169 335.344 28.0224C336.197 28.8491 337.304 29.2624 338.664 29.2624C340.024 29.2624 341.117 28.8491 341.944 28.0224C342.797 27.169 343.224 26.1023 343.224 24.8223Z" fill="#41B883"/>
<path d="M90.393 11.5018H82.3127V5.9816H104.714V11.5018H96.6332V34.3026H90.393V11.5018ZM113.531 5.9816H118.691L131.011 34.3026H123.971L121.531 28.3024H110.531L108.17 34.3026H101.29L113.531 5.9816ZM115.931 14.2219L112.491 23.0222H119.411L115.931 14.2219ZM154.572 5.9816H161.373L165.893 24.1422H165.973L171.893 5.9816H177.693L183.573 24.6222H183.653L188.414 5.9816H194.734L186.454 34.3026H180.893L174.653 14.7019H174.573L168.333 34.3026H162.973L154.572 5.9816ZM205.839 5.9816H210.999L223.319 34.3026H216.279L213.839 28.3024H202.838L200.478 34.3026H193.598L205.839 5.9816ZM208.239 14.2219L204.799 23.0222H211.719L208.239 14.2219ZM226.168 5.9816H234.648L246.688 25.6623H246.768V5.9816H253.009V34.3026H244.848L232.488 14.1419H232.408V34.3026H226.168V5.9816Z" fill="#34495E"/>
<path d="M144.188 3.43172C145.06 2.86293 144.794 1.6732 145.96 1.6495C147.126 1.6258 147.42 3.16628 149.093 3.24212C150.766 3.31796 151.344 4.26595 150.894 4.87266C150.444 5.47937 149.354 6.42262 150.212 8.70253C151.069 10.9824 148.581 12.1817 147.757 18.3057C146.932 24.4297 146.401 26.1076 144.851 28.5155C143.301 30.9234 141.837 31.3974 141.344 33.5066C140.851 35.6112 141.074 36.3032 141.334 37.4218C141.595 38.5405 141.026 39.7255 140.315 39.2135C139.604 38.7016 138.604 39.7112 138.652 38.2845C138.699 36.8578 137.827 34.3646 136.396 34.1987C134.964 34.0328 133.708 32.9995 132.718 31.0845C131.727 29.1743 130.822 28.4112 130.016 25.6857C129.32 23.3205 131.054 20.1163 132.168 18.4573C133.282 16.7984 137.14 10.0013 138.078 9.28081C139.021 8.56034 139.552 5.60261 140.628 4.79682C142.121 3.6782 143.316 4.00525 144.183 3.43646L144.188 3.43172Z" fill="#34495E"/>
<path d="M168.206 95.101C166.678 93.2412 164.785 91.8131 162.527 90.8167C160.335 89.8204 157.778 89.3222 154.855 89.3222C151.932 89.3222 149.209 89.8868 146.685 91.016C144.227 92.1452 142.069 93.7393 140.209 95.7984C138.415 97.7911 136.987 100.182 135.925 102.972C134.928 105.762 134.43 108.784 134.43 112.039C134.43 115.36 134.928 118.415 135.925 121.205C136.987 123.929 138.415 126.32 140.209 128.379C142.002 130.372 144.095 131.932 146.486 133.062C148.943 134.191 151.567 134.755 154.357 134.755C157.545 134.755 160.368 134.091 162.826 132.763C165.283 131.434 167.309 129.574 168.904 127.183L181.856 136.848C178.867 141.032 175.081 144.121 170.498 146.114C165.914 148.106 161.198 149.103 156.35 149.103C150.836 149.103 145.755 148.239 141.106 146.512C136.456 144.785 132.437 142.328 129.05 139.139C125.662 135.885 123.005 131.966 121.079 127.383C119.219 122.799 118.289 117.685 118.289 112.039C118.289 106.393 119.219 101.278 121.079 96.6952C123.005 92.112 125.662 88.2262 129.05 85.0379C132.437 81.7832 136.456 79.2924 141.106 77.5654C145.755 75.8384 150.836 74.9749 156.35 74.9749C158.342 74.9749 160.401 75.1742 162.527 75.5727C164.719 75.9048 166.844 76.4694 168.904 77.2665C171.029 78.0635 173.055 79.1263 174.981 80.4548C176.907 81.7832 178.634 83.4106 180.162 85.3368L168.206 95.101ZM186.496 112.039C186.496 106.393 187.426 101.278 189.286 96.6952C191.212 92.112 193.869 88.2262 197.256 85.0379C200.644 81.7832 204.663 79.2924 209.312 77.5654C213.962 75.8384 219.043 74.9749 224.556 74.9749C230.069 74.9749 235.151 75.8384 239.8 77.5654C244.45 79.2924 248.468 81.7832 251.856 85.0379C255.244 88.2262 257.867 92.112 259.727 96.6952C261.653 101.278 262.617 106.393 262.617 112.039C262.617 117.685 261.653 122.799 259.727 127.383C257.867 131.966 255.244 135.885 251.856 139.139C248.468 142.328 244.45 144.785 239.8 146.512C235.151 148.239 230.069 149.103 224.556 149.103C219.043 149.103 213.962 148.239 209.312 146.512C204.663 144.785 200.644 142.328 197.256 139.139C193.869 135.885 191.212 131.966 189.286 127.383C187.426 122.799 186.496 117.685 186.496 112.039ZM202.637 112.039C202.637 115.36 203.135 118.415 204.131 121.205C205.194 123.929 206.688 126.32 208.615 128.379C210.541 130.372 212.833 131.932 215.49 133.062C218.213 134.191 221.235 134.755 224.556 134.755C227.877 134.755 230.866 134.191 233.523 133.062C236.247 131.932 238.571 130.372 240.498 128.379C242.424 126.32 243.885 123.929 244.882 121.205C245.944 118.415 246.476 115.36 246.476 112.039C246.476 108.784 245.944 105.762 244.882 102.972C243.885 100.182 242.424 97.7911 240.498 95.7984C238.571 93.7393 236.247 92.1452 233.523 91.016C230.866 89.8868 227.877 89.3222 224.556 89.3222C221.235 89.3222 218.213 89.8868 215.49 91.016C212.833 92.1452 210.541 93.7393 208.615 95.7984C206.688 97.7911 205.194 100.182 204.131 102.972C203.135 105.762 202.637 108.784 202.637 112.039ZM273.181 76.7683H294.303L324.293 125.788H324.493V76.7683H340.035V147.309H319.71L288.923 97.0937H288.724V147.309H273.181V76.7683ZM355.023 76.7683H402.35V91.1156H370.566V105.463H399.958V119.81H370.566V147.309H355.023V76.7683Z" fill="#41B883"/>
<path d="M31.4936 65.3035C29.3439 68.7431 27.4091 72.0393 25.6893 75.1923C23.9695 78.3452 22.5006 81.5698 21.2824 84.8661C20.1358 88.0907 19.2401 91.4944 18.5952 95.0773C17.9503 98.5886 17.6278 102.422 17.6278 106.578C17.6278 110.735 17.9503 114.604 18.5952 118.187C19.2401 121.698 20.1358 125.102 21.2824 128.398C22.5006 131.623 23.9695 134.812 25.6893 137.965C27.4091 141.117 29.3439 144.414 31.4936 147.853L20.4225 154.303L20.2075 153.873C15.2631 146.492 11.4294 139.004 8.70642 131.408C6.05508 123.74 4.72942 115.464 4.72942 106.578C4.72942 97.6928 6.05508 89.4522 8.70642 81.8565C11.4294 74.1891 15.2631 66.665 20.2075 59.2842L20.4225 58.8543L31.4936 65.3035Z" fill="#41B883"/>
<path d="M399.875 150.811C402.025 147.371 403.96 144.075 405.679 140.922C407.399 137.769 408.832 134.581 409.979 131.356C411.197 128.06 412.129 124.656 412.773 121.145C413.418 117.562 413.741 113.692 413.741 109.536C413.741 105.38 413.418 101.546 412.773 98.0351C412.129 94.4522 411.197 91.0484 409.979 87.8238C408.832 84.5276 407.399 81.303 405.679 78.15C403.96 74.9971 402.025 71.7008 399.875 68.2612L410.946 61.812L411.161 62.242C416.106 69.6227 419.903 77.1468 422.555 84.8142C425.278 92.4099 426.639 100.651 426.639 109.536C426.639 118.422 425.278 126.698 422.555 134.366C419.903 141.961 416.106 149.45 411.161 156.83L410.946 157.26L399.875 150.811Z" fill="#41B883"/>
<path d="M100.986 73.8578L75.9139 117.56L50.8463 73.8578H33.7838L75.9139 146.81L118.049 73.8578H100.986Z" fill="#41B883"/>
<path d="M85.4926 73.8578L75.9139 90.7462L66.3399 73.8578H50.8463L75.9139 117.56L100.986 73.8578H85.4926Z" fill="#34495E"/>
<path d="M434.629 67.985C434.004 68.7766 432.729 68.3358 432.729 67.3309V57.6472C432.729 56.4717 431.776 55.5237 430.601 55.5237H419.908C419.045 55.5237 418.538 54.5473 419.045 53.841L426.074 44.0009C427.079 42.5931 426.074 40.6355 424.344 40.6355H411.405C410.543 40.6355 410.036 39.6591 410.543 38.9529L419.657 26.1929C419.856 25.9133 420.178 25.7474 420.519 25.7474H447.677C448.54 25.7474 449.047 26.7238 448.54 27.4301L441.511 37.2702C440.506 38.6779 441.511 40.6355 443.241 40.6355H453.934C454.82 40.6355 455.318 41.6594 454.768 42.3561L434.629 67.9897V67.985Z" fill="#863BFF"/>
<path d="M168.276 195.176V203.281H166.605V196.779H163.697V195.176H168.276ZM168.276 202.571C168.81 203.411 169.573 204.037 170.566 204.449C171.558 204.861 172.725 205.098 174.069 205.159C174.71 205.174 175.488 205.189 176.404 205.204C177.32 205.204 178.282 205.204 179.289 205.204C180.296 205.189 181.273 205.166 182.22 205.136C183.166 205.105 183.983 205.067 184.67 205.021C184.609 205.143 184.54 205.304 184.464 205.502C184.387 205.7 184.319 205.906 184.257 206.12C184.196 206.334 184.151 206.532 184.12 206.715C183.479 206.731 182.716 206.746 181.83 206.761C180.96 206.792 180.052 206.807 179.106 206.807C178.159 206.822 177.244 206.822 176.358 206.807C175.473 206.792 174.717 206.777 174.092 206.761C172.58 206.7 171.291 206.456 170.222 206.029C169.154 205.601 168.261 204.937 167.543 204.037C167.04 204.525 166.521 205.014 165.986 205.502C165.467 206.006 164.926 206.509 164.361 207.013L163.468 205.319C163.972 204.952 164.513 204.533 165.093 204.06C165.689 203.571 166.246 203.075 166.765 202.571H168.276ZM163.926 187.666L165.231 186.704C165.704 187.055 166.177 187.452 166.65 187.895C167.139 188.338 167.581 188.78 167.978 189.223C168.39 189.666 168.711 190.078 168.94 190.459L167.543 191.535C167.33 191.154 167.024 190.734 166.627 190.276C166.231 189.803 165.796 189.345 165.322 188.902C164.864 188.444 164.399 188.032 163.926 187.666ZM169.581 188.193H183.96V189.635H169.581V188.193ZM169.238 200.259H184.303V201.724H169.238V200.259ZM175.786 186.132H177.457V204.334H175.786V186.132ZM172.26 195.519V197.351H181.121V195.519H172.26ZM172.26 192.474V194.283H181.121V192.474H172.26ZM170.657 191.192H182.769V198.633H170.657V191.192ZM200.331 186.132H202.071V195.107H200.331V186.132ZM197.354 204.472H205.528V206.029H197.354V204.472ZM195.019 189.383H207.543V190.94H195.019V189.383ZM195.751 194.374H207.016V195.977H195.751V194.374ZM196.484 198.45H206.375V207.105H204.727V200.007H198.087V207.173H196.484V198.45ZM190.004 186.132L191.538 186.727C191.264 187.277 190.958 187.857 190.623 188.467C190.287 189.078 189.959 189.666 189.638 190.23C189.318 190.78 189.005 191.268 188.699 191.696L187.509 191.169C187.799 190.726 188.096 190.215 188.402 189.635C188.707 189.04 189.005 188.437 189.295 187.826C189.585 187.2 189.821 186.636 190.004 186.132ZM192.775 188.742L194.286 189.383C193.752 190.253 193.156 191.169 192.5 192.131C191.859 193.077 191.21 194.001 190.554 194.901C189.898 195.802 189.279 196.58 188.699 197.237L187.6 196.664C188.043 196.145 188.501 195.557 188.974 194.901C189.447 194.245 189.913 193.558 190.371 192.84C190.844 192.123 191.287 191.413 191.699 190.711C192.111 190.009 192.47 189.353 192.775 188.742ZM186.41 190.963L187.257 189.818C187.684 190.169 188.119 190.558 188.562 190.986C189.005 191.413 189.409 191.841 189.775 192.268C190.142 192.68 190.424 193.054 190.623 193.39L189.707 194.718C189.493 194.352 189.203 193.947 188.837 193.504C188.486 193.062 188.096 192.619 187.669 192.176C187.242 191.734 186.822 191.329 186.41 190.963ZM192.042 194.054L193.324 193.504C193.66 194.008 193.981 194.542 194.286 195.107C194.591 195.672 194.858 196.221 195.087 196.756C195.332 197.29 195.507 197.771 195.614 198.198L194.263 198.839C194.141 198.412 193.965 197.923 193.736 197.374C193.508 196.824 193.248 196.26 192.958 195.68C192.668 195.1 192.363 194.558 192.042 194.054ZM186.364 196.366C187.387 196.336 188.6 196.298 190.004 196.252C191.424 196.191 192.882 196.122 194.378 196.046L194.355 197.465C192.935 197.557 191.538 197.649 190.165 197.74C188.791 197.817 187.57 197.878 186.501 197.923L186.364 196.366ZM192.637 199.549L193.92 199.114C194.255 199.816 194.568 200.579 194.858 201.404C195.164 202.228 195.377 202.938 195.499 203.533L194.08 204.014C193.973 203.403 193.782 202.686 193.508 201.862C193.233 201.022 192.943 200.251 192.637 199.549ZM187.623 199.228L189.089 199.48C188.936 200.564 188.722 201.633 188.447 202.686C188.173 203.724 187.852 204.609 187.486 205.342C187.379 205.265 187.242 205.189 187.074 205.113C186.921 205.036 186.753 204.96 186.57 204.884C186.402 204.792 186.249 204.724 186.112 204.678C186.509 203.976 186.822 203.144 187.051 202.182C187.295 201.205 187.486 200.221 187.623 199.228ZM190.256 197.03H191.813V207.242H190.256V197.03ZM217.709 204.861H230.668V206.532H217.709V204.861ZM218.625 193.619H230.164V195.267H218.625V193.619ZM223.524 186.315H225.287V205.662H223.524V186.315ZM209.695 190.436H217.297V192.016H209.695V190.436ZM213.313 197.282L215.03 195.267V207.196H213.313V197.282ZM213.313 186.132H215.03V191.215H213.313V186.132ZM214.87 195.702C215.068 195.84 215.358 196.069 215.74 196.389C216.121 196.71 216.533 197.061 216.976 197.443C217.419 197.809 217.823 198.152 218.19 198.473C218.556 198.793 218.815 199.03 218.968 199.183L217.915 200.579C217.716 200.335 217.442 200.03 217.09 199.663C216.739 199.297 216.358 198.916 215.946 198.519C215.549 198.122 215.167 197.755 214.801 197.42C214.435 197.069 214.129 196.794 213.885 196.595L214.87 195.702ZM216.655 190.436H217.022L217.342 190.368L218.304 191.009C217.739 192.413 216.999 193.756 216.083 195.038C215.167 196.305 214.16 197.458 213.061 198.496C211.977 199.534 210.893 200.411 209.81 201.129C209.748 200.961 209.665 200.778 209.558 200.579C209.451 200.381 209.336 200.19 209.214 200.007C209.107 199.824 209.008 199.679 208.917 199.572C209.955 198.961 210.977 198.198 211.985 197.282C212.992 196.351 213.908 195.328 214.732 194.214C215.572 193.085 216.213 191.94 216.655 190.78V190.436ZM243.467 190.597H252.9V192.176H243.467V190.597ZM243.787 195.267H252.488V196.87H243.787V195.267ZM242.94 200.19H253.404V201.816H242.94V200.19ZM243.764 186.773L245.138 186.292C245.52 186.857 245.863 187.49 246.169 188.193C246.489 188.879 246.703 189.49 246.81 190.024L245.321 190.574C245.23 190.039 245.031 189.421 244.726 188.719C244.436 188.002 244.116 187.353 243.764 186.773ZM250.816 186.109L252.465 186.521C252.16 187.208 251.839 187.918 251.503 188.65C251.183 189.368 250.87 189.978 250.565 190.482L249.145 190.093C249.343 189.727 249.542 189.314 249.74 188.857C249.954 188.383 250.152 187.91 250.336 187.437C250.534 186.949 250.694 186.506 250.816 186.109ZM247.268 191.329H248.916V207.219H247.268V191.329ZM232.339 191.055H243.238V192.543H232.339V191.055ZM233.507 187.277H241.864V196.321H233.393V194.832H240.261V188.765H233.507V187.277ZM234.721 198.679H236.3V207.196H234.721V198.679ZM235.384 198.679H242.185V205.96H235.384V204.449H240.513V200.19H235.384V198.679ZM236.346 187.826L237.995 187.895C237.842 190.139 237.59 192.199 237.239 194.077C236.888 195.954 236.384 197.649 235.728 199.16C235.087 200.671 234.217 201.984 233.118 203.098C233.057 202.991 232.958 202.854 232.82 202.686C232.683 202.503 232.538 202.327 232.385 202.159C232.232 201.991 232.095 201.862 231.973 201.77C232.996 200.793 233.797 199.61 234.377 198.221C234.972 196.832 235.415 195.26 235.705 193.504C236.01 191.749 236.224 189.856 236.346 187.826Z" fill="#34495E"/>
<path d="M262.425 189.269H270.507V195.771H262.425V194.214H268.95V190.803H262.425V189.269ZM264.119 204.06H270.21V205.479H264.119V204.06ZM263.547 198.358H270.805V206.464H269.271V199.778H265.058V206.99H263.547V198.358ZM261.624 189.269H263.226V194.649C263.226 195.504 263.196 196.443 263.135 197.465C263.089 198.473 262.99 199.511 262.837 200.579C262.7 201.648 262.486 202.693 262.196 203.716C261.921 204.739 261.555 205.685 261.097 206.555C261.005 206.448 260.876 206.319 260.708 206.166C260.555 206.029 260.387 205.899 260.204 205.777C260.036 205.67 259.891 205.586 259.769 205.525C260.334 204.441 260.746 203.258 261.005 201.976C261.265 200.694 261.433 199.419 261.509 198.152C261.585 196.87 261.624 195.702 261.624 194.649V189.269ZM264.371 186.544L265.859 186.132C266.149 186.712 266.439 187.345 266.729 188.032C267.035 188.719 267.256 189.314 267.393 189.818L265.859 190.299C265.722 189.795 265.508 189.192 265.218 188.49C264.944 187.788 264.661 187.139 264.371 186.544ZM273.69 190.436H280.925V192.039H273.69V190.436ZM274.285 186.109L275.934 186.384C275.705 187.788 275.422 189.154 275.087 190.482C274.751 191.81 274.354 193.047 273.896 194.191C273.438 195.321 272.911 196.321 272.316 197.191C272.24 197.099 272.118 196.985 271.95 196.847C271.797 196.695 271.637 196.55 271.469 196.412C271.301 196.26 271.148 196.137 271.011 196.046C271.591 195.267 272.087 194.352 272.499 193.298C272.911 192.245 273.263 191.108 273.553 189.887C273.858 188.65 274.102 187.391 274.285 186.109ZM278.269 191.306L279.895 191.444C279.589 193.947 279.139 196.191 278.544 198.175C277.964 200.16 277.17 201.907 276.163 203.418C275.155 204.914 273.858 206.197 272.27 207.265C272.209 207.158 272.118 207.013 271.996 206.83C271.873 206.647 271.744 206.464 271.606 206.28C271.469 206.113 271.347 205.975 271.24 205.868C272.736 204.937 273.949 203.777 274.88 202.388C275.812 200.999 276.544 199.381 277.079 197.534C277.613 195.672 278.01 193.596 278.269 191.306ZM274.445 191.833C274.751 193.909 275.186 195.87 275.751 197.717C276.315 199.564 277.04 201.19 277.926 202.594C278.811 203.998 279.895 205.09 281.177 205.868C280.994 206.006 280.788 206.204 280.559 206.464C280.345 206.723 280.169 206.96 280.032 207.173C278.704 206.273 277.582 205.075 276.666 203.579C275.751 202.083 275.003 200.358 274.423 198.404C273.843 196.435 273.377 194.329 273.026 192.085L274.445 191.833ZM294.228 193.001H298.967V194.374H294.228V193.001ZM292.762 199.641H300.478V200.9H292.762V199.641ZM285.069 187.094H291.503V188.513H285.069V187.094ZM291.022 187.094H291.32L291.595 187.025L292.671 187.574C292.121 188.841 291.358 189.978 290.381 190.986C289.404 191.978 288.321 192.833 287.13 193.55C285.939 194.252 284.726 194.825 283.489 195.267C283.383 195.069 283.238 194.848 283.054 194.603C282.871 194.344 282.703 194.138 282.551 193.985C283.405 193.726 284.26 193.382 285.115 192.955C285.97 192.528 286.779 192.031 287.542 191.467C288.305 190.902 288.984 190.276 289.58 189.589C290.19 188.902 290.671 188.17 291.022 187.391V187.094ZM294.617 186.132C295.166 187.307 295.907 188.391 296.838 189.383C297.769 190.36 298.845 191.215 300.066 191.948C301.287 192.665 302.6 193.207 304.004 193.573C303.836 193.741 303.646 193.962 303.432 194.237C303.234 194.497 303.081 194.733 302.974 194.947C301.509 194.489 300.15 193.863 298.899 193.069C297.662 192.26 296.563 191.306 295.601 190.207C294.64 189.108 293.854 187.895 293.243 186.567L294.617 186.132ZM299.311 186.292L300.57 187.185C300.02 187.704 299.41 188.223 298.738 188.742C298.082 189.261 297.479 189.704 296.929 190.07L295.899 189.292C296.265 189.032 296.655 188.727 297.067 188.376C297.494 188.025 297.906 187.666 298.303 187.3C298.7 186.933 299.036 186.597 299.311 186.292ZM302.058 188.582L303.317 189.475C302.768 189.994 302.15 190.513 301.463 191.032C300.791 191.535 300.165 191.963 299.585 192.314L298.532 191.535C298.914 191.276 299.318 190.978 299.746 190.642C300.173 190.291 300.593 189.94 301.005 189.589C301.417 189.223 301.768 188.887 302.058 188.582ZM285.802 193.092H291.389V198.587H289.855V194.466H285.802V193.092ZM285.207 196.87H286.672C286.58 197.45 286.466 198.076 286.329 198.748C286.191 199.419 286.054 200.06 285.916 200.671C285.794 201.281 285.665 201.831 285.527 202.319L284.108 202.068C284.23 201.61 284.359 201.083 284.497 200.488C284.634 199.892 284.764 199.282 284.886 198.656C285.008 198.015 285.115 197.42 285.207 196.87ZM289.877 200.35H291.457C291.457 200.35 291.45 200.434 291.434 200.602C291.434 200.77 291.419 200.915 291.389 201.037C291.297 202.182 291.198 203.128 291.091 203.876C290.984 204.624 290.862 205.204 290.725 205.616C290.587 206.044 290.412 206.357 290.198 206.555C290 206.754 289.786 206.891 289.557 206.967C289.328 207.044 289.038 207.097 288.687 207.128C288.382 207.143 287.947 207.143 287.382 207.128C286.832 207.128 286.245 207.112 285.619 207.082C285.588 206.853 285.527 206.601 285.436 206.326C285.359 206.052 285.245 205.807 285.092 205.594C285.733 205.655 286.329 205.693 286.878 205.708C287.443 205.723 287.84 205.731 288.069 205.731C288.282 205.731 288.45 205.716 288.572 205.685C288.71 205.67 288.824 205.624 288.916 205.548C289.053 205.41 289.175 205.159 289.282 204.792C289.404 204.426 289.511 203.907 289.603 203.235C289.694 202.548 289.786 201.663 289.877 200.579V200.35ZM293.61 193.001H295.075V194.832C295.075 195.321 295.006 195.832 294.869 196.366C294.731 196.885 294.48 197.389 294.113 197.878C293.762 198.366 293.251 198.809 292.579 199.206C292.503 199.114 292.396 199 292.259 198.862C292.121 198.709 291.976 198.572 291.824 198.45C291.686 198.313 291.564 198.206 291.457 198.129C292.083 197.794 292.541 197.443 292.831 197.076C293.136 196.695 293.342 196.313 293.449 195.931C293.556 195.535 293.61 195.153 293.61 194.787V193.001ZM300.066 199.641H300.387L300.662 199.595L301.623 199.961C301.119 201.365 300.402 202.548 299.471 203.51C298.54 204.472 297.456 205.25 296.22 205.845C294.999 206.441 293.663 206.899 292.213 207.219C292.137 207.036 292.022 206.815 291.869 206.555C291.732 206.311 291.595 206.105 291.457 205.937C292.77 205.693 293.999 205.319 295.144 204.815C296.288 204.311 297.288 203.655 298.143 202.846C299.013 202.022 299.654 201.03 300.066 199.87V199.641ZM294.915 200.785C295.586 202.113 296.655 203.205 298.12 204.06C299.601 204.914 301.348 205.479 303.363 205.754C303.195 205.937 303.012 206.166 302.814 206.441C302.615 206.731 302.463 206.983 302.356 207.196C300.249 206.799 298.448 206.097 296.952 205.09C295.456 204.067 294.335 202.762 293.587 201.175L294.915 200.785ZM285.962 196.87H290.45V198.221H285.71L285.962 196.87ZM285.275 200.35H290.312V201.678H285.023L285.275 200.35ZM298.189 193.001H299.677V196.573C299.677 196.74 299.685 196.878 299.7 196.985C299.715 197.091 299.746 197.16 299.791 197.191C299.837 197.252 299.959 197.282 300.158 197.282C300.234 197.282 300.341 197.282 300.478 197.282C300.616 197.282 300.738 197.282 300.845 197.282C300.936 197.282 301.028 197.282 301.119 197.282C301.226 197.267 301.295 197.252 301.325 197.237C301.387 197.221 301.44 197.191 301.486 197.145C301.532 197.084 301.57 197.008 301.6 196.916C301.631 196.809 301.646 196.656 301.646 196.458C301.661 196.26 301.677 196.015 301.692 195.725C301.844 195.847 302.035 195.97 302.264 196.092C302.508 196.214 302.737 196.305 302.951 196.366C302.936 196.656 302.905 196.946 302.86 197.237C302.829 197.527 302.776 197.74 302.699 197.878C302.623 198 302.524 198.107 302.402 198.198C302.295 198.29 302.165 198.358 302.012 198.404C301.89 198.45 301.73 198.488 301.532 198.519C301.333 198.534 301.158 198.542 301.005 198.542C300.868 198.542 300.669 198.542 300.41 198.542C300.165 198.542 299.982 198.542 299.86 198.542C299.631 198.542 299.402 198.511 299.173 198.45C298.944 198.389 298.753 198.297 298.601 198.175C298.448 198.038 298.341 197.855 298.28 197.626C298.219 197.397 298.189 197.008 298.189 196.458V193.001ZM284.474 189.818L285.458 188.902C285.993 189.208 286.542 189.574 287.107 190.001C287.687 190.429 288.13 190.81 288.435 191.146L287.405 192.199C287.099 191.833 286.664 191.429 286.1 190.986C285.55 190.543 285.008 190.154 284.474 189.818ZM306.225 195.542H326.374V197.237H306.225V195.542ZM307.851 189.887H324.817V191.581H307.851V189.887ZM315.315 186.155H317.124V207.196H315.315V186.155ZM314.88 196.412L316.345 197.03C315.811 197.946 315.178 198.839 314.445 199.709C313.712 200.579 312.926 201.404 312.087 202.182C311.262 202.945 310.4 203.647 309.499 204.289C308.614 204.914 307.729 205.456 306.843 205.914C306.737 205.777 306.607 205.616 306.454 205.433C306.317 205.25 306.172 205.075 306.019 204.907C305.867 204.724 305.722 204.579 305.584 204.472C306.454 204.075 307.332 203.586 308.217 203.006C309.118 202.426 309.98 201.785 310.804 201.083C311.629 200.366 312.384 199.61 313.071 198.816C313.773 198.023 314.376 197.221 314.88 196.412ZM317.559 196.412C318.063 197.221 318.665 198.023 319.368 198.816C320.085 199.595 320.856 200.35 321.68 201.083C322.504 201.8 323.367 202.449 324.267 203.029C325.168 203.594 326.053 204.067 326.923 204.449C326.801 204.571 326.656 204.716 326.488 204.884C326.336 205.052 326.183 205.227 326.03 205.41C325.893 205.594 325.771 205.769 325.664 205.937C324.794 205.479 323.909 204.93 323.008 204.289C322.108 203.647 321.237 202.938 320.398 202.159C319.558 201.381 318.772 200.556 318.04 199.686C317.322 198.816 316.689 197.931 316.139 197.03L317.559 196.412ZM329.35 189.337H349.11V191.009H329.35V189.337ZM338.188 186.155H339.974V207.196H338.188V186.155ZM338.394 196.298L339.837 196.87C339.272 197.847 338.616 198.801 337.868 199.732C337.12 200.648 336.303 201.51 335.418 202.319C334.532 203.113 333.609 203.838 332.647 204.495C331.701 205.136 330.739 205.685 329.762 206.143C329.686 205.99 329.572 205.823 329.419 205.639C329.282 205.471 329.137 205.304 328.984 205.136C328.831 204.952 328.686 204.807 328.549 204.701C329.511 204.304 330.465 203.808 331.411 203.212C332.373 202.617 333.288 201.953 334.159 201.22C335.029 200.488 335.822 199.702 336.54 198.862C337.257 198.023 337.875 197.168 338.394 196.298ZM339.905 196.366C340.577 197.527 341.432 198.648 342.47 199.732C343.508 200.801 344.653 201.762 345.904 202.617C347.171 203.472 348.461 204.151 349.774 204.655C349.636 204.777 349.484 204.93 349.316 205.113C349.163 205.296 349.01 205.479 348.858 205.662C348.72 205.861 348.606 206.044 348.514 206.212C347.202 205.616 345.912 204.846 344.645 203.899C343.378 202.953 342.21 201.884 341.142 200.694C340.089 199.503 339.196 198.252 338.463 196.939L339.905 196.366ZM332.418 195.107L333.54 194.054C333.907 194.359 334.288 194.703 334.685 195.084C335.097 195.451 335.486 195.809 335.853 196.16C336.234 196.511 336.532 196.824 336.746 197.099L335.578 198.29C335.349 198 335.051 197.672 334.685 197.305C334.334 196.939 333.96 196.565 333.563 196.183C333.166 195.786 332.785 195.428 332.418 195.107ZM333.357 191.535L335.051 191.856C334.655 193.52 334.059 195.023 333.266 196.366C332.487 197.694 331.571 198.801 330.518 199.686C330.426 199.58 330.297 199.457 330.129 199.32C329.961 199.167 329.785 199.022 329.602 198.885C329.434 198.748 329.289 198.641 329.167 198.564C330.205 197.786 331.075 196.794 331.777 195.588C332.495 194.367 333.021 193.016 333.357 191.535ZM343.431 195.153L344.576 194.146C345.095 194.527 345.645 194.962 346.225 195.451C346.82 195.924 347.385 196.397 347.919 196.87C348.453 197.343 348.888 197.748 349.224 198.084L348.011 199.274C347.69 198.908 347.27 198.488 346.751 198.015C346.232 197.527 345.675 197.038 345.08 196.55C344.5 196.046 343.95 195.58 343.431 195.153ZM344.21 191.535L345.881 191.833C345.576 193.268 345.126 194.573 344.53 195.748C343.935 196.924 343.225 197.908 342.401 198.702C342.294 198.61 342.149 198.503 341.966 198.381C341.798 198.259 341.623 198.145 341.439 198.038C341.256 197.916 341.096 197.824 340.959 197.763C341.798 197.046 342.485 196.153 343.019 195.084C343.569 194.001 343.966 192.818 344.21 191.535Z" fill="#34495E"/>
<path d="M153.762 188.048H81.9758V206.135H153.762V188.048Z" fill="url(#paint0_linear_1_5729)"/>
</g>
<defs>
<linearGradient id="paint0_linear_1_5729" x1="81.9758" y1="197.091" x2="153.762" y2="197.091" gradientUnits="userSpaceOnUse">
<stop stop-color="#41B883" stop-opacity="0"/>
<stop offset="1" stop-color="#41B883"/>
</linearGradient>
<clipPath id="clip0_1_5729">
<rect width="455" height="229.091" fill="white"/>
</clipPath>
</defs>
</svg>
