<svg width="362" height="182" viewBox="0 0 362 182" fill="none" xmlns="http://www.w3.org/2000/svg">
<g clip-path="url(#clip0_497_97422)">
<path d="M204.82 21.5438L213.347 13.8852C213.781 13.4925 214.215 13.0481 214.649 12.552C215.083 12.0559 215.3 11.4771 215.3 10.8156C215.3 10.0715 215.031 9.4927 214.494 9.07929C213.957 8.6452 213.326 8.42816 212.603 8.42816C211.734 8.42816 211.052 8.69688 210.556 9.23432C210.081 9.77176 209.812 10.4332 209.75 11.2187L205.099 10.8776C205.161 9.74075 205.399 8.75889 205.812 7.93206C206.226 7.08456 206.773 6.38176 207.456 5.82365C208.138 5.26554 208.934 4.85212 209.843 4.5834C210.773 4.29401 211.776 4.14932 212.851 4.14932C213.843 4.14932 214.773 4.29401 215.641 4.5834C216.509 4.85212 217.264 5.26554 217.905 5.82365C218.545 6.36109 219.042 7.04322 219.393 7.87005C219.765 8.69688 219.951 9.65807 219.951 10.7536C219.951 11.4564 219.879 12.0972 219.734 12.676C219.589 13.2341 219.383 13.7509 219.114 14.2263C218.866 14.6811 218.566 15.1048 218.215 15.4976C217.863 15.8903 217.481 16.2727 217.068 16.6448L210.401 22.3809H220.137V26.4737H204.82V21.5438ZM222.673 15.4976C222.673 14.1953 222.787 12.8724 223.014 11.5288C223.262 10.1852 223.686 8.9656 224.286 7.87005C224.906 6.7745 225.743 5.88566 226.797 5.20352C227.851 4.50072 229.195 4.14932 230.828 4.14932C232.461 4.14932 233.805 4.50072 234.859 5.20352C235.913 5.88566 236.74 6.7745 237.339 7.87005C237.959 8.9656 238.383 10.1852 238.61 11.5288C238.859 12.8724 238.983 14.1953 238.983 15.4976C238.983 16.7998 238.859 18.1227 238.61 19.4663C238.383 20.8099 237.959 22.0295 237.339 23.1251C236.74 24.2206 235.913 25.1198 234.859 25.8226C233.805 26.5047 232.461 26.8458 230.828 26.8458C229.195 26.8458 227.851 26.5047 226.797 25.8226C225.743 25.1198 224.906 24.2206 224.286 23.1251C223.686 22.0295 223.262 20.8099 223.014 19.4663C222.787 18.1227 222.673 16.7998 222.673 15.4976ZM227.324 15.4976C227.324 16.0763 227.345 16.7688 227.386 17.575C227.448 18.3811 227.593 19.1563 227.82 19.9004C228.048 20.6446 228.389 21.275 228.844 21.7918C229.319 22.3086 229.98 22.567 230.828 22.567C231.655 22.567 232.306 22.3086 232.781 21.7918C233.257 21.275 233.608 20.6446 233.836 19.9004C234.063 19.1563 234.197 18.3811 234.239 17.575C234.301 16.7688 234.332 16.0763 234.332 15.4976C234.332 14.9188 234.301 14.2263 234.239 13.4201C234.197 12.614 234.063 11.8388 233.836 11.0947C233.608 10.3505 233.257 9.72008 232.781 9.20331C232.306 8.68654 231.655 8.42816 230.828 8.42816C229.98 8.42816 229.319 8.68654 228.844 9.20331C228.389 9.72008 228.048 10.3505 227.82 11.0947C227.593 11.8388 227.448 12.614 227.386 13.4201C227.345 14.2263 227.324 14.9188 227.324 15.4976ZM241.519 21.5438L250.045 13.8852C250.48 13.4925 250.914 13.0481 251.348 12.552C251.782 12.0559 251.999 11.4771 251.999 10.8156C251.999 10.0715 251.73 9.4927 251.193 9.07929C250.655 8.6452 250.025 8.42816 249.301 8.42816C248.433 8.42816 247.751 8.69688 247.255 9.23432C246.779 9.77176 246.511 10.4332 246.449 11.2187L241.798 10.8776C241.86 9.74075 242.098 8.75889 242.511 7.93206C242.924 7.08456 243.472 6.38176 244.154 5.82365C244.836 5.26554 245.632 4.85212 246.542 4.5834C247.472 4.29401 248.474 4.14932 249.549 4.14932C250.542 4.14932 251.472 4.29401 252.34 4.5834C253.208 4.85212 253.963 5.26554 254.603 5.82365C255.244 6.36109 255.74 7.04322 256.092 7.87005C256.464 8.69688 256.65 9.65807 256.65 10.7536C256.65 11.4564 256.577 12.0972 256.433 12.676C256.288 13.2341 256.081 13.7509 255.813 14.2263C255.565 14.6811 255.265 15.1048 254.913 15.4976C254.562 15.8903 254.18 16.2727 253.766 16.6448L247.1 22.3809H256.836V26.4737H241.519V21.5438ZM267.248 12.3659C267.496 12.3039 267.744 12.2522 267.992 12.2109C268.24 12.1696 268.498 12.1489 268.767 12.1489C269.8 12.1489 270.741 12.3349 271.588 12.707C272.436 13.0791 273.159 13.5855 273.759 14.2263C274.358 14.8671 274.823 15.6319 275.154 16.5208C275.485 17.3889 275.65 18.3191 275.65 19.3113C275.65 20.4482 275.433 21.4817 274.999 22.4119C274.586 23.3214 274.007 24.1069 273.263 24.7684C272.539 25.4299 271.671 25.9466 270.658 26.3187C269.666 26.6701 268.601 26.8458 267.465 26.8458C266.307 26.8458 265.232 26.6701 264.24 26.3187C263.248 25.9466 262.38 25.4299 261.635 24.7684C260.912 24.1069 260.333 23.3214 259.899 22.4119C259.486 21.4817 259.279 20.4482 259.279 19.3113C259.279 18.5258 259.351 17.8127 259.496 17.1719C259.641 16.5104 259.827 15.8903 260.054 15.3115C260.302 14.7327 260.581 14.185 260.891 13.6682C261.222 13.1308 261.563 12.583 261.914 12.0249L266.72 4.52139H272.395L267.248 12.3659ZM270.999 19.1253C270.999 18.1331 270.669 17.3166 270.007 16.6758C269.366 16.0143 268.519 15.6836 267.465 15.6836C266.41 15.6836 265.553 16.0143 264.891 16.6758C264.25 17.3166 263.93 18.1331 263.93 19.1253C263.93 20.1175 264.25 20.9443 264.891 21.6058C265.553 22.2466 266.41 22.567 267.465 22.567C268.519 22.567 269.366 22.2466 270.007 21.6058C270.669 20.9443 270.999 20.1175 270.999 19.1253Z" fill="#41B883"/>
<path d="M71.6561 8.80023H65.3928V4.52139H82.7563V8.80023H76.493V26.4737H71.6561V8.80023ZM89.5907 4.52139H93.5905L103.14 26.4737H97.6833L95.7919 21.8228H87.2652L85.4359 26.4737H80.1028L89.5907 4.52139ZM91.451 10.9086L88.7845 17.73H94.1486L91.451 10.9086ZM121.403 4.52139H126.674L130.178 18.5982H130.24L134.829 4.52139H139.325L143.883 18.9702H143.945L147.634 4.52139H152.533L146.115 26.4737H141.805L136.968 11.2807H136.906L132.069 26.4737H127.914L121.403 4.52139ZM161.141 4.52139H165.141L174.691 26.4737H169.234L167.342 21.8228H158.815L156.986 26.4737H151.653L161.141 4.52139ZM163.001 10.9086L160.335 17.73H165.699L163.001 10.9086ZM176.899 4.52139H183.472L192.805 19.7764H192.867V4.52139H197.704V26.4737H191.378L181.798 10.8466H181.736V26.4737H176.899V4.52139Z" fill="#34495E"/>
<path d="M114.558 2.72631C115.251 2.27444 115.04 1.32927 115.967 1.31044C116.893 1.29161 117.127 2.51544 118.456 2.57569C119.785 2.63594 120.244 3.38906 119.887 3.87106C119.529 4.35306 118.663 5.10242 119.344 6.91369C120.026 8.72495 118.049 9.67765 117.394 14.5428C116.739 19.408 116.317 20.741 115.086 22.654C113.854 24.5669 112.691 24.9435 112.299 26.6192C111.907 28.2911 112.084 28.8409 112.291 29.7296C112.499 30.6183 112.047 31.5597 111.482 31.153C110.917 30.7463 110.122 31.5484 110.16 30.4149C110.198 29.2815 109.505 27.3008 108.368 27.169C107.23 27.0372 106.233 26.2163 105.446 24.695C104.659 23.1774 103.939 22.5711 103.299 20.4059C102.746 18.5269 104.124 15.9813 105.009 14.6633C105.894 13.3454 108.959 7.94547 109.704 7.37309C110.454 6.80072 110.876 4.45097 111.73 3.81081C112.917 2.92213 113.865 3.18196 114.555 2.73008L114.558 2.72631Z" fill="#34495E"/>
<path d="M132.607 74.1166C131.422 72.675 129.955 71.568 128.205 70.7958C126.506 70.0235 124.523 69.6373 122.258 69.6373C119.993 69.6373 117.882 70.075 115.925 70.9502C114.02 71.8255 112.347 73.0611 110.905 74.6572C109.515 76.2018 108.408 78.0553 107.584 80.2177C106.812 82.3801 106.426 84.7227 106.426 87.2456C106.426 89.8199 106.812 92.1882 107.584 94.3506C108.408 96.4616 109.515 98.3151 110.905 99.9111C112.295 101.456 113.917 102.666 115.771 103.541C117.676 104.416 119.709 104.854 121.872 104.854C124.343 104.854 126.531 104.339 128.436 103.309C130.341 102.279 131.912 100.838 133.147 98.9844L143.187 106.476C140.87 109.719 137.935 112.113 134.383 113.658C130.83 115.203 127.175 115.975 123.416 115.975C119.143 115.975 115.204 115.305 111.6 113.967C107.996 112.628 104.881 110.723 102.256 108.252C99.6298 105.729 97.5704 102.691 96.0773 99.1388C94.6357 95.5863 93.9149 91.6219 93.9149 87.2456C93.9149 82.8692 94.6357 78.9048 96.0773 75.3523C97.5704 71.7997 99.6298 68.7878 102.256 66.3165C104.881 63.7936 107.996 61.8629 111.6 60.5243C115.204 59.1856 119.143 58.5163 123.416 58.5163C124.961 58.5163 126.557 58.6708 128.205 58.9797C129.904 59.2371 131.551 59.6748 133.147 60.2926C134.795 60.9104 136.365 61.7342 137.858 62.7639C139.351 63.7936 140.69 65.0551 141.874 66.5482L132.607 74.1166ZM146.784 87.2456C146.784 82.8692 147.504 78.9048 148.946 75.3523C150.439 71.7997 152.499 68.7878 155.124 66.3165C157.75 63.7936 160.865 61.8629 164.469 60.5243C168.073 59.1856 172.012 58.5163 176.285 58.5163C180.558 58.5163 184.497 59.1856 188.101 60.5243C191.705 61.8629 194.82 63.7936 197.446 66.3165C200.072 68.7878 202.105 71.7997 203.547 75.3523C205.04 78.9048 205.787 82.8692 205.787 87.2456C205.787 91.6219 205.04 95.5863 203.547 99.1388C202.105 102.691 200.072 105.729 197.446 108.252C194.82 110.723 191.705 112.628 188.101 113.967C184.497 115.305 180.558 115.975 176.285 115.975C172.012 115.975 168.073 115.305 164.469 113.967C160.865 112.628 157.75 110.723 155.124 108.252C152.499 105.729 150.439 102.691 148.946 99.1388C147.504 95.5863 146.784 91.6219 146.784 87.2456ZM159.295 87.2456C159.295 89.8199 159.681 92.1882 160.453 94.3506C161.277 96.4616 162.435 98.3151 163.928 99.9111C165.422 101.456 167.198 102.666 169.257 103.541C171.368 104.416 173.711 104.854 176.285 104.854C178.859 104.854 181.176 104.416 183.236 103.541C185.347 102.666 187.149 101.456 188.642 99.9111C190.135 98.3151 191.268 96.4616 192.04 94.3506C192.864 92.1882 193.276 89.8199 193.276 87.2456C193.276 84.7227 192.864 82.3801 192.04 80.2177C191.268 78.0553 190.135 76.2018 188.642 74.6572C187.149 73.0611 185.347 71.8255 183.236 70.9502C181.176 70.075 178.859 69.6373 176.285 69.6373C173.711 69.6373 171.368 70.075 169.257 70.9502C167.198 71.8255 165.422 73.0611 163.928 74.6572C162.435 76.2018 161.277 78.0553 160.453 80.2177C159.681 82.3801 159.295 84.7227 159.295 87.2456ZM213.975 59.9064H230.348L253.594 97.9032H253.748V59.9064H265.796V114.585H250.041L226.178 75.6612H226.023V114.585H213.975V59.9064ZM277.414 59.9064H314.098V71.0274H289.461V82.1484H312.244V93.2694H289.461V114.585H277.414V59.9064Z" fill="#41B883"/>
<path d="M24.4115 50.4754C22.7452 53.1415 21.2455 55.6965 19.9125 58.1404C18.5794 60.5844 17.4408 63.0838 16.4965 65.6389C15.6078 68.1383 14.9135 70.7767 14.4136 73.5539C13.9137 76.2755 13.6638 79.2471 13.6638 82.4686C13.6638 85.6902 13.9137 88.6896 14.4136 91.4668C14.9135 94.1884 15.6078 96.8267 16.4965 99.3818C17.4408 101.881 18.5794 104.353 19.9125 106.797C21.2455 109.241 22.7452 111.796 24.4115 114.462L15.83 119.461L15.6634 119.128C11.8308 113.407 8.85924 107.602 6.74858 101.715C4.69346 95.7714 3.66589 89.3561 3.66589 82.4686C3.66589 75.5812 4.69346 69.1937 6.74858 63.306C8.85924 57.3628 11.8308 51.5307 15.6634 45.8097L15.83 45.4764L24.4115 50.4754Z" fill="#41B883"/>
<path d="M318.414 116.812C320.08 114.146 321.58 111.591 322.913 109.147C324.246 106.703 325.357 104.231 326.245 101.732C327.19 99.1766 327.912 96.5382 328.412 93.8166C328.911 91.0394 329.161 88.04 329.161 84.8185C329.161 81.5969 328.911 78.6253 328.412 75.9037C327.912 73.1265 327.19 70.4882 326.245 67.9887C325.357 65.4337 324.246 62.9342 322.913 60.4903C321.58 58.0464 320.08 55.4913 318.414 52.8252L326.995 47.8263L327.162 48.1595C330.994 53.8806 333.938 59.7127 335.993 65.6559C338.104 71.5435 339.159 77.931 339.159 84.8185C339.159 91.7059 338.104 98.1212 335.993 104.064C333.938 109.952 330.994 115.756 327.162 121.477L326.995 121.811L318.414 116.812Z" fill="#41B883"/>
<path d="M80.2326 58.6759L60.3125 93.3949L40.3961 58.6759H26.8398L60.3125 116.633L93.7888 58.6759H80.2326Z" fill="#41B883"/>
<path d="M67.9212 58.6759L60.3109 72.0928L52.7043 58.6759H40.3945L60.3109 93.3949L80.231 58.6759H67.9212Z" fill="#34495E"/>
<path d="M345.317 54.0103C344.82 54.6392 343.807 54.289 343.807 53.4906V45.7975C343.807 44.8636 343.05 44.1105 342.116 44.1105H333.621C332.936 44.1105 332.533 43.3348 332.936 42.7737L338.52 34.9563C339.318 33.8379 338.52 32.2827 337.145 32.2827H326.865C326.18 32.2827 325.777 31.5069 326.18 30.9459L333.421 20.8088C333.579 20.5866 333.836 20.4548 334.107 20.4548H355.684C356.369 20.4548 356.772 21.2306 356.369 21.7916L350.785 29.6091C349.986 30.7275 350.785 32.2827 352.159 32.2827H360.654C361.358 32.2827 361.754 33.096 361.317 33.6496L345.317 54.0141V54.0103Z" fill="#863BFF"/>
<path d="M138.498 156.343H140.823V155.171H138.498V156.343ZM138.498 152.9V154.053H140.823V152.9H138.498ZM144.816 152.9H142.42V154.053H144.816V152.9ZM144.816 156.343V155.171H142.42V156.343H144.816ZM140.823 161.862V159.963H136.208V158.614H140.823V157.532H136.972V151.71H140.823V150.575H136.208V149.226H140.823V147.788H142.42V149.226H147.247V150.575H142.42V151.71H146.395V157.532H142.42V158.614H147.478V159.963H142.42V161.862H140.823ZM134.931 150.699L133.44 151.231C133.227 150.45 132.801 149.208 132.517 148.267L133.954 147.842C134.292 148.764 134.718 149.936 134.931 150.699ZM135.339 155.846L136.084 156.13C135.747 157.709 135.268 159.377 134.647 160.708C134.966 160.886 135.357 161.188 135.924 161.542C137.167 162.288 138.782 162.394 140.858 162.394C143.023 162.394 146.005 162.235 147.975 161.986C147.78 162.43 147.531 163.246 147.496 163.69C146.111 163.779 142.864 163.885 140.787 163.885C138.462 163.885 136.936 163.69 135.658 162.945C134.931 162.536 134.292 161.915 133.919 161.915C133.511 161.915 132.907 163.069 132.41 164.151L131.31 162.625C131.914 161.826 132.535 161.134 133.085 160.779C133.564 159.821 133.972 158.543 134.256 157.336H131.985C132.41 156.289 132.943 154.852 133.387 153.467H131.594V151.977H135.427C135.037 153.237 134.54 154.692 134.096 155.917H135.09L135.339 155.846ZM149.963 159.182L151.294 159.413C151.116 160.992 150.814 162.696 150.442 163.779C150.158 163.637 149.519 163.424 149.164 163.317C149.572 162.252 149.803 160.637 149.963 159.182ZM151.95 159.377L153.139 159.147C153.388 160.407 153.601 162.039 153.672 163.122L152.394 163.37C152.341 162.288 152.146 160.637 151.95 159.377ZM153.778 159.04L154.914 158.685C155.322 159.768 155.766 161.17 155.943 162.11L154.737 162.501C154.577 161.56 154.169 160.123 153.778 159.04ZM153.636 154.816L154.861 154.479C155.322 155.65 155.837 157.212 156.014 158.135L154.719 158.579C154.666 158.295 154.595 157.993 154.506 157.638C150.708 158.206 150.105 158.33 149.732 158.525C149.661 158.224 149.395 157.461 149.235 157.035C149.625 156.964 150.034 156.555 150.584 155.899C150.85 155.633 151.365 154.958 151.95 154.106C150.264 154.302 149.874 154.39 149.608 154.515C149.519 154.195 149.288 153.467 149.128 153.077C149.43 153.006 149.75 152.651 150.122 152.136C150.513 151.604 151.737 149.599 152.447 147.717L153.938 148.338C153.175 149.918 152.217 151.533 151.24 152.846L152.909 152.704C153.352 151.994 153.814 151.214 154.186 150.45L155.553 151.285C154.453 153.201 153.068 155.118 151.684 156.68L154.169 156.36C153.991 155.828 153.814 155.278 153.636 154.816ZM162.794 158.667H158.339V161.791H162.794V158.667ZM156.795 164.045V157.177H164.391V163.974H162.794V163.282H158.339V164.045H156.795ZM165.314 151.568H161.356V154.018H164.853V155.526H156.44V154.018H159.653V151.568H155.943V150.042H159.653V147.771H161.356V150.042H165.314V151.568ZM173.904 157.372L172.874 158.738C172.537 158.241 171.863 157.443 171.259 156.751V164.045H169.662V157.159C168.935 157.869 168.154 158.49 167.408 158.969C167.284 158.525 166.929 157.656 166.716 157.336C168.58 156.254 170.461 154.319 171.597 152.261H167.213V150.77H170.567C170.248 150.113 169.573 149.119 168.97 148.445L170.248 147.717C170.904 148.409 171.614 149.35 171.916 149.989L170.638 150.77H172.466L172.75 150.699L173.638 151.32C173.123 152.633 172.378 153.893 171.526 155.047C172.236 155.686 173.549 156.999 173.904 157.372ZM179.264 161.809H183.239V163.424H173.105V161.809H177.578V154.763H173.904V153.183H177.578V147.788H179.264V153.183H182.848V154.763H179.264V161.809ZM190.817 158.845H188.084V161.72H190.817V158.845ZM190.586 152.917H188.812C188.741 153.432 188.652 153.929 188.563 154.408H190.586V152.917ZM190.586 150.042H189.113C189.06 150.557 189.025 151.054 188.971 151.551H190.586V150.042ZM187.711 157.407H192.414V163.14H188.084V164.063H186.575V159.573C186.256 160.034 185.937 160.442 185.546 160.833C185.369 160.531 184.836 159.91 184.499 159.626C185.528 158.65 186.22 157.354 186.7 155.81H185.599V154.408H187.072C187.143 153.929 187.232 153.432 187.303 152.917H184.765V151.551H187.481C187.534 151.054 187.569 150.557 187.605 150.042H185.688V148.64H192.113V151.551H193.089V152.917H192.113V155.81H188.226C188.066 156.36 187.906 156.91 187.711 157.407ZM198.803 147.753L200.383 148.125C199.904 149.19 199.407 150.379 198.963 151.16L197.614 150.805C198.04 149.989 198.537 148.676 198.803 147.753ZM201.04 158.508V160.052H197.703V164.063H196.124V160.052H192.964V158.508H196.124V156.236H193.586V154.728H196.124V152.687H193.355V151.178H194.633C194.473 150.379 193.994 149.226 193.479 148.356L194.81 147.913C195.378 148.782 195.875 149.953 196.053 150.752L194.917 151.178H200.685V152.687H197.703V154.728H200.347V156.236H197.703V158.508H201.04Z" fill="#34495E"/>
<path d="M216.466 157.088V162.501C217.797 161.809 218.862 160.762 219.696 159.448C219.128 158.188 218.667 156.786 218.312 155.295C218.046 155.881 217.762 156.414 217.425 156.893C217.176 156.573 216.537 155.97 216.165 155.686L216.182 155.65H210.929C210.894 156.13 210.858 156.591 210.805 157.088H216.466ZM211.994 160.85H214.993V158.419H211.994V160.85ZM214.975 152.527H210.982V153.592C210.982 153.822 210.982 154.053 210.982 154.302H214.975V152.527ZM221.968 152.651H219.27L219.199 152.882C219.519 154.586 219.998 156.218 220.601 157.674C221.24 156.218 221.666 154.515 221.968 152.651ZM224.346 152.651H223.441C223.104 155.224 222.483 157.549 221.524 159.484C222.305 160.815 223.281 161.862 224.453 162.59C224.044 162.927 223.494 163.583 223.21 164.063C222.163 163.317 221.294 162.306 220.566 161.117C219.696 162.341 218.631 163.353 217.3 164.063C217.087 163.708 216.732 163.282 216.36 162.927H214.993V162.181H211.994V163.264H210.574V158.916C210.29 160.478 209.829 162.022 209.101 163.282C208.835 162.98 208.196 162.483 207.841 162.323C209.314 159.768 209.456 156.165 209.456 153.592V149.048C211.586 148.818 214.088 148.409 215.508 147.93L216.768 149.119C215.171 149.634 212.988 149.989 210.982 150.22V151.196H216.448V155.278C217.584 153.432 218.205 150.663 218.543 147.806L220.193 148.037C220.051 149.084 219.874 150.113 219.643 151.107H224.346V152.651ZM238.455 159.289H234.125C235.012 159.768 236.042 160.318 237.035 160.904C237.586 160.424 238.065 159.892 238.455 159.289ZM239.467 158.082L240.39 158.419C239.911 159.732 239.183 160.779 238.26 161.613C239.13 162.128 239.928 162.625 240.496 163.016L239.644 164.098C239.023 163.637 238.136 163.069 237.142 162.465C235.988 163.211 234.64 163.725 233.149 164.08C233.007 163.708 232.687 163.175 232.421 162.874C233.681 162.643 234.835 162.235 235.846 161.684C234.941 161.134 234.018 160.602 233.202 160.14L233.947 159.289H233.326V158.117H239.218L239.467 158.082ZM240.478 149.652L241.685 150.486C240.975 151.125 240.106 151.799 239.36 152.314C240.212 152.775 241.153 153.166 242.164 153.432C241.845 153.734 241.401 154.337 241.171 154.728C240.354 154.479 239.573 154.142 238.863 153.734V155.739C238.863 156.147 238.917 156.272 239.165 156.272H240.265C240.514 156.272 240.94 156.254 241.135 156.201C241.153 156.538 241.188 157.017 241.242 157.354C241.046 157.425 240.656 157.443 240.301 157.443H239.005C237.763 157.443 237.515 156.946 237.515 155.721V154.319H235.438V154.39C235.438 155.579 235.083 156.999 233.521 157.922C233.326 157.656 232.847 157.194 232.528 156.964V157.248H228.907C228.836 157.762 228.765 158.295 228.676 158.774H232.563C232.563 158.774 232.545 159.2 232.51 159.413C232.297 161.844 232.102 162.909 231.658 163.37C231.321 163.708 230.948 163.814 230.398 163.85C229.919 163.903 229.014 163.885 228.055 163.85C228.02 163.424 227.825 162.838 227.558 162.448C228.499 162.536 229.422 162.554 229.777 162.554C230.078 162.554 230.256 162.536 230.416 162.394C230.646 162.181 230.824 161.507 230.966 160.016H227.079C227.31 158.934 227.576 157.301 227.718 155.988H231.055V154.39H228.304V154.142C227.7 154.444 227.079 154.71 226.476 154.923C226.281 154.568 225.89 153.982 225.588 153.698C226.706 153.361 227.842 152.829 228.836 152.172C228.339 151.728 227.612 151.214 227.008 150.841L227.949 149.953C228.605 150.326 229.422 150.876 229.954 151.32C230.504 150.859 230.966 150.326 231.356 149.776H227.523V148.463H232.226L232.492 148.409L233.539 148.906C232.776 150.646 231.516 152.03 230.025 153.095H232.528V156.839C233.841 156.112 234.036 155.189 234.036 154.355V153.024H237.728C236.024 151.799 234.711 150.184 233.823 148.232L235.136 147.842C235.456 148.516 235.846 149.155 236.308 149.758C237.018 149.208 237.834 148.463 238.313 147.895L239.502 148.747C238.757 149.439 237.87 150.131 237.124 150.646C237.479 151.001 237.852 151.302 238.26 151.604C239.023 151.036 239.928 150.22 240.478 149.652ZM259.504 156.52H253.381C254.96 158.667 257.516 160.708 259.93 161.755C259.539 162.093 259.024 162.749 258.723 163.175C256.487 162.057 254.215 160.052 252.529 157.851V164.045H250.79V157.922C249.104 160.105 246.832 162.022 244.614 163.158C244.33 162.749 243.779 162.11 243.407 161.755C245.82 160.691 248.358 158.667 249.92 156.52H243.921V154.887H250.79V152.19H245.199V150.557H250.79V147.771H252.529V150.557H258.261V152.19H252.529V154.887H259.504V156.52ZM264.863 152.012L266.461 152.314C266.283 153.024 266.07 153.68 265.804 154.319C266.514 154.923 267.259 155.615 267.685 156.076L266.567 157.248C266.248 156.839 265.697 156.289 265.112 155.739C264.526 156.786 263.798 157.674 262.964 158.366C262.698 158.064 262.041 157.514 261.687 157.283C263.266 156.112 264.349 154.231 264.863 152.012ZM277.215 156.839L276.044 157.975C275.494 157.372 274.465 156.484 273.489 155.668C273.08 156.378 272.619 156.999 272.104 157.496C271.82 157.265 271.181 156.857 270.773 156.662C272.388 158.88 274.997 160.85 277.659 161.844C277.233 162.181 276.701 162.874 276.417 163.335C274.11 162.306 271.909 160.513 270.241 158.401V164.045H268.502V158.454C266.816 160.531 264.615 162.288 262.379 163.317C262.112 162.909 261.598 162.235 261.207 161.915C264.065 160.779 266.922 158.419 268.502 155.934V151.71H261.882V150.113H268.502V147.771H270.241V150.113H277.074V151.71H270.241V155.846C270.401 156.112 270.56 156.36 270.738 156.609C271.962 155.544 272.779 153.876 273.169 152.012L274.766 152.296C274.607 152.988 274.411 153.663 274.145 154.284C275.228 155.118 276.523 156.147 277.215 156.839Z" fill="#34495E"/>
<path d="M122.179 149.393H65.1445V163.763H122.179V149.393Z" fill="url(#paint0_linear_497_97422)"/>
</g>
<defs>
<linearGradient id="paint0_linear_497_97422" x1="65.1445" y1="156.578" x2="122.179" y2="156.578" gradientUnits="userSpaceOnUse">
<stop stop-color="#41B883" stop-opacity="0"/>
<stop offset="1" stop-color="#41B883"/>
</linearGradient>
<clipPath id="clip0_497_97422">
<rect width="361.5" height="182" fill="white"/>
</clipPath>
</defs>
</svg>
