<svg width="265" height="134" viewBox="0 0 265 134" fill="none" xmlns="http://www.w3.org/2000/svg">
<g clip-path="url(#clip0_497_97289)">
<path d="M149.767 16.0856L156.002 10.4856C156.319 10.1984 156.637 9.87348 156.954 9.51073C157.272 9.14798 157.43 8.72477 157.43 8.24111C157.43 7.69698 157.234 7.27378 156.841 6.97148C156.448 6.65408 155.987 6.49538 155.458 6.49538C154.823 6.49538 154.324 6.69187 153.961 7.08484C153.614 7.47782 153.417 7.96149 153.372 8.53584L149.971 8.28645C150.017 7.45515 150.19 6.73721 150.493 6.13263C150.795 5.51293 151.195 4.99904 151.694 4.59095C152.193 4.18285 152.775 3.88056 153.44 3.68407C154.12 3.47247 154.853 3.36667 155.639 3.36667C156.365 3.36667 157.045 3.47247 157.68 3.68407C158.314 3.88056 158.866 4.18285 159.335 4.59095C159.803 4.98392 160.166 5.4827 160.423 6.08728C160.695 6.69187 160.831 7.39469 160.831 8.19576C160.831 8.70966 160.778 9.17821 160.672 9.60141C160.567 10.0095 160.415 10.3874 160.219 10.735C160.037 11.0675 159.818 11.3774 159.561 11.6645C159.304 11.9517 159.025 12.2313 158.723 12.5034L153.848 16.6977H160.967V19.6904H149.767V16.0856ZM162.822 11.6645C162.822 10.7123 162.905 9.745 163.071 8.76256C163.252 7.78011 163.562 6.88835 164 6.08728C164.454 5.28621 165.066 4.63629 165.837 4.13751C166.608 3.62361 167.59 3.36667 168.784 3.36667C169.978 3.36667 170.961 3.62361 171.732 4.13751C172.502 4.63629 173.107 5.28621 173.545 6.08728C173.999 6.88835 174.309 7.78011 174.475 8.76256C174.656 9.745 174.747 10.7123 174.747 11.6645C174.747 12.6168 174.656 13.5841 174.475 14.5665C174.309 15.549 173.999 16.4407 173.545 17.2418C173.107 18.0429 172.502 18.7004 171.732 19.2143C170.961 19.713 169.978 19.9624 168.784 19.9624C167.59 19.9624 166.608 19.713 165.837 19.2143C165.066 18.7004 164.454 18.0429 164 17.2418C163.562 16.4407 163.252 15.549 163.071 14.5665C162.905 13.5841 162.822 12.6168 162.822 11.6645ZM166.222 11.6645C166.222 12.0878 166.237 12.5941 166.268 13.1836C166.313 13.773 166.419 14.3398 166.585 14.8839C166.751 15.4281 167.001 15.8891 167.333 16.2669C167.681 16.6448 168.165 16.8337 168.784 16.8337C169.389 16.8337 169.865 16.6448 170.213 16.2669C170.56 15.8891 170.817 15.4281 170.983 14.8839C171.15 14.3398 171.248 13.773 171.278 13.1836C171.323 12.5941 171.346 12.0878 171.346 11.6645C171.346 11.2413 171.323 10.735 171.278 10.1455C171.248 9.55607 171.15 8.98928 170.983 8.44515C170.817 7.90103 170.56 7.44004 170.213 7.06217C169.865 6.68431 169.389 6.49538 168.784 6.49538C168.165 6.49538 167.681 6.68431 167.333 7.06217C167.001 7.44004 166.751 7.90103 166.585 8.44515C166.419 8.98928 166.313 9.55607 166.268 10.1455C166.237 10.735 166.222 11.2413 166.222 11.6645ZM176.601 16.0856L182.836 10.4856C183.154 10.1984 183.471 9.87348 183.788 9.51073C184.106 9.14798 184.264 8.72477 184.264 8.24111C184.264 7.69698 184.068 7.27378 183.675 6.97148C183.282 6.65408 182.821 6.49538 182.292 6.49538C181.657 6.49538 181.158 6.69187 180.796 7.08484C180.448 7.47782 180.252 7.96149 180.206 8.53584L176.805 8.28645C176.851 7.45515 177.025 6.73721 177.327 6.13263C177.629 5.51293 178.03 4.99904 178.528 4.59095C179.027 4.18285 179.609 3.88056 180.274 3.68407C180.954 3.47247 181.687 3.36667 182.473 3.36667C183.199 3.36667 183.879 3.47247 184.514 3.68407C185.149 3.88056 185.7 4.18285 186.169 4.59095C186.637 4.98392 187 5.4827 187.257 6.08728C187.529 6.69187 187.665 7.39469 187.665 8.19576C187.665 8.70966 187.612 9.17821 187.507 9.60141C187.401 10.0095 187.25 10.3874 187.053 10.735C186.872 11.0675 186.653 11.3774 186.396 11.6645C186.139 11.9517 185.859 12.2313 185.557 12.5034L180.682 16.6977H187.801V19.6904H176.601V16.0856ZM195.414 9.3747C195.596 9.32935 195.777 9.29157 195.958 9.26134C196.14 9.23111 196.329 9.21599 196.525 9.21599C197.281 9.21599 197.969 9.35202 198.588 9.62409C199.208 9.89615 199.737 10.2665 200.175 10.735C200.614 11.2036 200.954 11.7628 201.196 12.4127C201.438 13.0475 201.558 13.7277 201.558 14.4532C201.558 15.2845 201.4 16.0402 201.082 16.7204C200.78 17.3854 200.357 17.9598 199.813 18.4434C199.284 18.9271 198.649 19.3049 197.908 19.577C197.183 19.834 196.404 19.9624 195.573 19.9624C194.727 19.9624 193.941 19.834 193.215 19.577C192.49 19.3049 191.855 18.9271 191.311 18.4434C190.782 17.9598 190.359 17.3854 190.041 16.7204C189.739 16.0402 189.588 15.2845 189.588 14.4532C189.588 13.8788 189.641 13.3574 189.746 12.8888C189.852 12.4052 189.988 11.9517 190.155 11.5285C190.336 11.1053 190.54 10.7048 190.767 10.3269C191.008 9.93393 191.258 9.5334 191.515 9.12531L195.029 3.63873H199.178L195.414 9.3747ZM198.158 14.3172C198.158 13.5917 197.916 12.9946 197.432 12.5261C196.964 12.0424 196.344 11.8006 195.573 11.8006C194.802 11.8006 194.175 12.0424 193.691 12.5261C193.223 12.9946 192.988 13.5917 192.988 14.3172C192.988 15.0426 193.223 15.6472 193.691 16.1309C194.175 16.5994 194.802 16.8337 195.573 16.8337C196.344 16.8337 196.964 16.5994 197.432 16.1309C197.916 15.6472 198.158 15.0426 198.158 14.3172Z" fill="#41B883"/>
<path d="M52.3947 6.76744H47.815V3.63873H60.5112V6.76744H55.9315V19.6904H52.3947V6.76744ZM65.5085 3.63873H68.4332L75.4161 19.6904H71.4259L70.0429 16.2896H63.8081L62.4705 19.6904H58.571L65.5085 3.63873ZM66.8688 8.30912L64.9191 13.2969H68.8413L66.8688 8.30912ZM88.77 3.63873H92.6242L95.1861 13.9317H95.2314L98.5869 3.63873H101.874L105.207 14.2038H105.252L107.95 3.63873H111.532L106.839 19.6904H103.688L100.151 8.58118H100.106L96.5691 19.6904H93.5311L88.77 3.63873ZM117.826 3.63873H120.751L127.734 19.6904H123.744L122.361 16.2896H116.126L114.788 19.6904H110.889L117.826 3.63873ZM119.187 8.30912L117.237 13.2969H121.159L119.187 8.30912ZM129.348 3.63873H134.155L140.979 14.7933H141.024V3.63873H144.561V19.6904H139.936L132.931 8.26378H132.885V19.6904H129.348V3.63873Z" fill="#34495E"/>
<path d="M83.7633 1.99349C84.27 1.66308 84.1158 0.971963 84.7931 0.958196C85.4705 0.944428 85.6412 1.8393 86.6132 1.88335C87.5851 1.92741 87.921 2.47809 87.6595 2.83053C87.3979 3.18297 86.7646 3.73091 87.263 5.05531C87.7613 6.37971 86.3158 7.07633 85.8367 10.6338C85.3576 14.1912 85.0492 15.1659 84.1488 16.5647C83.2484 17.9634 82.3976 18.2388 82.1113 19.4641C81.8249 20.6866 81.9543 21.0886 82.1058 21.7384C82.2572 22.3882 81.9268 23.0766 81.5138 22.7792C81.1008 22.4818 80.5198 23.0683 80.5473 22.2395C80.5749 21.4107 80.0682 19.9624 79.2367 19.8661C78.4052 19.7697 77.6755 19.1694 77.1 18.057C76.5246 16.9474 75.9987 16.5041 75.5306 14.9209C75.1258 13.5469 76.1336 11.6856 76.7806 10.7219C77.4277 9.75818 79.669 5.80975 80.2142 5.39123C80.7621 4.97271 81.0705 3.25456 81.6955 2.78648C82.5628 2.13667 83.2567 2.32665 83.7606 1.99624L83.7633 1.99349Z" fill="#34495E"/>
<path d="M96.9616 53.8916C96.0957 52.8375 95.0228 52.0281 93.7428 51.4634C92.5004 50.8987 91.051 50.6164 89.3946 50.6164C87.7381 50.6164 86.1946 50.9364 84.764 51.5764C83.3711 52.2164 82.1476 53.1199 81.0934 54.2869C80.077 55.4163 79.2676 56.7716 78.6652 58.3528C78.1005 59.934 77.8182 61.6469 77.8182 63.4916C77.8182 65.3739 78.1005 67.1057 78.6652 68.6868C79.2676 70.2304 80.077 71.5857 81.0934 72.7527C82.1099 73.8821 83.2958 74.7668 84.6511 75.4068C86.044 76.0468 87.5311 76.3668 89.1122 76.3668C90.9193 76.3668 92.5193 75.9903 93.9122 75.2374C95.3051 74.4845 96.4534 73.4304 97.3569 72.0751L104.698 77.5527C103.004 79.9244 100.858 81.675 98.2604 82.8044C95.6628 83.9338 92.9898 84.4985 90.2416 84.4985C87.1169 84.4985 84.237 84.0091 81.6017 83.0303C78.9664 82.0515 76.6888 80.6585 74.7688 78.8515C72.8488 77.0068 71.3429 74.7856 70.2512 72.188C69.197 69.5904 68.67 66.6916 68.67 63.4916C68.67 60.2916 69.197 57.3928 70.2512 54.7952C71.3429 52.1975 72.8488 49.9952 74.7688 48.1881C76.6888 46.3435 78.9664 44.9317 81.6017 43.9529C84.237 42.9741 87.1169 42.4847 90.2416 42.4847C91.371 42.4847 92.5381 42.5976 93.7428 42.8235C94.9851 43.0117 96.1898 43.3317 97.3569 43.7835C98.5616 44.2352 99.7098 44.8376 100.802 45.5905C101.893 46.3435 102.872 47.2658 103.738 48.3576L96.9616 53.8916ZM107.328 63.4916C107.328 60.2916 107.855 57.3928 108.909 54.7952C110.001 52.1975 111.507 49.9952 113.427 48.1881C115.347 46.3435 117.624 44.9317 120.26 43.9529C122.895 42.9741 125.775 42.4847 128.899 42.4847C132.024 42.4847 134.904 42.9741 137.539 43.9529C140.175 44.9317 142.452 46.3435 144.372 48.1881C146.292 49.9952 147.779 52.1975 148.833 54.7952C149.925 57.3928 150.471 60.2916 150.471 63.4916C150.471 66.6916 149.925 69.5904 148.833 72.188C147.779 74.7856 146.292 77.0068 144.372 78.8515C142.452 80.6585 140.175 82.0515 137.539 83.0303C134.904 84.0091 132.024 84.4985 128.899 84.4985C125.775 84.4985 122.895 84.0091 120.26 83.0303C117.624 82.0515 115.347 80.6585 113.427 78.8515C111.507 77.0068 110.001 74.7856 108.909 72.188C107.855 69.5904 107.328 66.6916 107.328 63.4916ZM116.476 63.4916C116.476 65.3739 116.758 67.1057 117.323 68.6868C117.925 70.2304 118.772 71.5857 119.864 72.7527C120.956 73.8821 122.255 74.7668 123.761 75.4068C125.304 76.0468 127.017 76.3668 128.899 76.3668C130.782 76.3668 132.476 76.0468 133.982 75.4068C135.525 74.7668 136.843 73.8821 137.935 72.7527C139.026 71.5857 139.855 70.2304 140.419 68.6868C141.022 67.1057 141.323 65.3739 141.323 63.4916C141.323 61.6469 141.022 59.934 140.419 58.3528C139.855 56.7716 139.026 55.4163 137.935 54.2869C136.843 53.1199 135.525 52.2164 133.982 51.5764C132.476 50.9364 130.782 50.6164 128.899 50.6164C127.017 50.6164 125.304 50.9364 123.761 51.5764C122.255 52.2164 120.956 53.1199 119.864 54.2869C118.772 55.4163 117.925 56.7716 117.323 58.3528C116.758 59.934 116.476 61.6469 116.476 63.4916ZM156.459 43.5011H168.43L185.428 71.2845H185.541V43.5011H194.35V83.4821H182.83L165.381 55.021H165.268V83.4821H156.459V43.5011ZM202.845 43.5011H229.668V51.6328H211.654V59.7645H228.313V67.8963H211.654V83.4821H202.845V43.5011Z" fill="#41B883"/>
<path d="M17.8498 37.2179C16.6314 39.1673 15.5348 41.0356 14.5601 42.8226C13.5853 44.6096 12.7528 46.4372 12.0623 48.3055C11.4125 50.1331 10.9048 52.0623 10.5393 54.0929C10.1738 56.083 9.99102 58.2559 9.99102 60.6115C9.99102 62.9671 10.1738 65.1602 10.5393 67.1909C10.9048 69.181 11.4125 71.1102 12.0623 72.9784C12.7528 74.806 13.5853 76.6133 14.5601 78.4004C15.5348 80.1874 16.6314 82.0556 17.8498 84.0051L11.575 87.6603L11.4531 87.4166C8.65076 83.2334 6.47792 78.9893 4.93459 74.6842C3.43187 70.3385 2.68052 65.6476 2.68052 60.6115C2.68052 55.5754 3.43187 50.9048 4.93459 46.5997C6.47792 42.254 8.65076 37.9895 11.4531 33.8063L11.575 33.5626L17.8498 37.2179Z" fill="#41B883"/>
<path d="M232.822 85.7233C234.041 83.7738 235.137 81.9056 236.112 80.1186C237.087 78.3315 237.899 76.5242 238.549 74.6966C239.239 72.8284 239.767 70.8992 240.133 68.9091C240.498 66.8784 240.681 64.6853 240.681 62.3297C240.681 59.9741 240.498 57.8012 240.133 55.8111C239.767 53.7805 239.239 51.8513 238.549 50.0237C237.899 48.1554 237.087 46.3278 236.112 44.5408C235.137 42.7538 234.041 40.8855 232.822 38.9361L239.097 35.2808L239.219 35.5245C242.021 39.7077 244.174 43.9722 245.677 48.3179C247.22 52.623 247.992 57.2936 247.992 62.3297C247.992 67.3658 247.22 72.0567 245.677 76.4024C244.174 80.7075 242.021 84.9516 239.219 89.1348L239.097 89.3785L232.822 85.7233Z" fill="#41B883"/>
<path d="M58.666 42.9041L44.1003 68.2908L29.5374 42.9041H19.625L44.1003 85.2822L68.5784 42.9041H58.666Z" fill="#41B883"/>
<path d="M49.6667 42.9041L44.102 52.7146L38.5401 42.9041H29.5391L44.102 68.2908L58.6677 42.9041H49.6667Z" fill="#34495E"/>
<path d="M252.497 39.4925C252.134 39.9524 251.393 39.6963 251.393 39.1126V33.4873C251.393 32.8044 250.839 32.2538 250.157 32.2538H243.945C243.444 32.2538 243.149 31.6866 243.444 31.2763L247.527 25.5602C248.111 24.7424 247.527 23.6052 246.522 23.6052H239.005C238.504 23.6052 238.209 23.038 238.504 22.6277L243.799 15.2155C243.915 15.053 244.102 14.9567 244.3 14.9567H260.077C260.578 14.9567 260.873 15.5239 260.578 15.9341L256.495 21.6503C255.911 22.468 256.495 23.6052 257.5 23.6052H263.712C264.227 23.6052 264.516 24.2 264.196 24.6047L252.497 39.4953V39.4925Z" fill="#863BFF"/>
<path d="M101.269 114.694H102.969V113.838H101.269V114.694ZM101.269 112.177V113.02H102.969V112.177H101.269ZM105.888 112.177H104.136V113.02H105.888V112.177ZM105.888 114.694V113.838H104.136V114.694H105.888ZM102.969 118.73V117.341H99.5946V116.355H102.969V115.564H100.153V111.307H102.969V110.477H99.5946V109.49H102.969V108.439H104.136V109.49H107.666V110.477H104.136V111.307H107.043V115.564H104.136V116.355H107.835V117.341H104.136V118.73H102.969ZM98.6602 110.568L97.5702 110.957C97.4144 110.386 97.103 109.477 96.8954 108.79L97.9465 108.478C98.193 109.153 98.5045 110.01 98.6602 110.568ZM98.9587 114.331L99.5037 114.538C99.2572 115.693 98.9068 116.913 98.4526 117.887C98.6862 118.016 98.9717 118.237 99.3869 118.496C100.295 119.041 101.476 119.119 102.995 119.119C104.578 119.119 106.758 119.003 108.198 118.821C108.056 119.145 107.874 119.742 107.848 120.067C106.836 120.132 104.461 120.209 102.943 120.209C101.243 120.209 100.127 120.067 99.1923 119.522C98.6602 119.223 98.193 118.769 97.9205 118.769C97.6221 118.769 97.1808 119.612 96.8175 120.404L96.0129 119.288C96.4541 118.704 96.9083 118.198 97.3106 117.938C97.661 117.238 97.9595 116.303 98.1671 115.421H96.506C96.8175 114.655 97.2068 113.604 97.5312 112.592H96.2205V111.502H99.0236C98.7381 112.423 98.3747 113.487 98.0503 114.383H98.777L98.9587 114.331ZM109.652 116.771L110.625 116.939C110.495 118.094 110.275 119.34 110.002 120.132C109.794 120.028 109.327 119.872 109.068 119.794C109.366 119.016 109.535 117.835 109.652 116.771ZM111.105 116.913L111.975 116.745C112.156 117.666 112.312 118.86 112.364 119.651L111.43 119.833C111.391 119.041 111.248 117.835 111.105 116.913ZM112.442 116.667L113.272 116.407C113.571 117.199 113.895 118.224 114.025 118.912L113.142 119.197C113.026 118.509 112.727 117.458 112.442 116.667ZM112.338 113.578L113.233 113.332C113.571 114.188 113.947 115.33 114.077 116.005L113.13 116.329C113.091 116.122 113.039 115.901 112.974 115.642C110.197 116.057 109.756 116.148 109.483 116.29C109.431 116.07 109.236 115.512 109.12 115.2C109.405 115.148 109.704 114.85 110.106 114.37C110.301 114.175 110.677 113.682 111.105 113.059C109.872 113.202 109.587 113.267 109.392 113.358C109.327 113.124 109.159 112.592 109.042 112.306C109.262 112.255 109.496 111.995 109.768 111.619C110.054 111.229 110.949 109.763 111.468 108.387L112.559 108.842C112.001 109.997 111.3 111.177 110.586 112.138L111.806 112.034C112.13 111.515 112.468 110.944 112.74 110.386L113.739 110.996C112.935 112.397 111.923 113.799 110.91 114.941L112.727 114.707C112.597 114.318 112.468 113.916 112.338 113.578ZM119.034 116.394H115.777V118.678H119.034V116.394ZM114.648 120.326V115.304H120.202V120.274H119.034V119.768H115.777V120.326H114.648ZM120.877 111.203H117.983V112.994H120.539V114.097H114.388V112.994H116.737V111.203H114.025V110.087H116.737V108.426H117.983V110.087H120.877V111.203ZM127.158 115.447L126.405 116.446C126.158 116.083 125.665 115.499 125.224 114.993V120.326H124.056V115.291C123.524 115.81 122.953 116.264 122.408 116.615C122.317 116.29 122.058 115.654 121.902 115.421C123.265 114.629 124.64 113.215 125.471 111.71H122.265V110.619H124.718C124.484 110.139 123.991 109.413 123.55 108.919L124.484 108.387C124.965 108.894 125.484 109.581 125.704 110.048L124.77 110.619H126.106L126.314 110.568L126.963 111.022C126.587 111.982 126.042 112.903 125.419 113.747C125.938 114.214 126.898 115.174 127.158 115.447ZM131.077 118.691H133.983V119.872H126.574V118.691H129.844V113.539H127.158V112.384H129.844V108.439H131.077V112.384H133.698V113.539H131.077V118.691ZM139.525 116.524H137.526V118.626H139.525V116.524ZM139.356 112.19H138.058C138.006 112.566 137.941 112.929 137.877 113.28H139.356V112.19ZM139.356 110.087H138.279C138.24 110.464 138.214 110.827 138.175 111.19H139.356V110.087ZM137.254 115.473H140.693V119.664H137.526V120.339H136.423V117.056C136.19 117.393 135.956 117.692 135.67 117.977C135.541 117.757 135.151 117.303 134.905 117.095C135.658 116.381 136.164 115.434 136.514 114.305H135.709V113.28H136.787C136.838 112.929 136.903 112.566 136.955 112.19H135.1V111.19H137.085C137.124 110.827 137.15 110.464 137.176 110.087H135.774V109.062H140.472V111.19H141.186V112.19H140.472V114.305H137.63C137.513 114.707 137.396 115.109 137.254 115.473ZM145.364 108.413L146.519 108.686C146.169 109.464 145.805 110.334 145.481 110.905L144.495 110.645C144.806 110.048 145.17 109.088 145.364 108.413ZM146.999 116.277V117.406H144.56V120.339H143.405V117.406H141.095V116.277H143.405V114.616H141.549V113.513H143.405V112.021H141.38V110.918H142.315C142.198 110.334 141.848 109.49 141.471 108.855L142.444 108.53C142.86 109.166 143.223 110.022 143.353 110.606L142.522 110.918H146.74V112.021H144.56V113.513H146.493V114.616H144.56V116.277H146.999Z" fill="#34495E"/>
<path d="M158.278 115.239V119.197C159.251 118.691 160.03 117.925 160.64 116.965C160.225 116.044 159.887 115.019 159.628 113.929C159.433 114.357 159.225 114.746 158.979 115.096C158.797 114.863 158.33 114.422 158.058 114.214L158.071 114.188H154.229C154.203 114.538 154.177 114.876 154.138 115.239H158.278ZM155.008 117.99H157.201V116.213H155.008V117.99ZM157.188 111.904H154.268V112.683C154.268 112.851 154.268 113.02 154.268 113.202H157.188V111.904ZM162.301 111.995H160.328L160.277 112.164C160.51 113.409 160.861 114.603 161.302 115.667C161.769 114.603 162.08 113.358 162.301 111.995ZM164.04 111.995H163.378C163.132 113.877 162.677 115.577 161.977 116.991C162.548 117.964 163.261 118.73 164.118 119.262C163.819 119.509 163.417 119.989 163.209 120.339C162.444 119.794 161.808 119.054 161.276 118.185C160.64 119.08 159.861 119.82 158.888 120.339C158.732 120.08 158.473 119.768 158.2 119.509H157.201V118.964H155.008V119.755H153.97V116.576C153.762 117.718 153.425 118.847 152.893 119.768C152.698 119.548 152.231 119.184 151.971 119.067C153.048 117.199 153.152 114.564 153.152 112.683V109.361C154.709 109.192 156.539 108.894 157.577 108.543L158.499 109.413C157.331 109.789 155.735 110.048 154.268 110.217V110.931H158.265V113.916C159.096 112.566 159.55 110.542 159.796 108.452L161.003 108.621C160.899 109.387 160.77 110.139 160.601 110.866H164.04V111.995ZM174.357 116.848H171.19C171.839 117.199 172.592 117.601 173.318 118.029C173.721 117.679 174.071 117.29 174.357 116.848ZM175.096 115.966L175.771 116.213C175.421 117.173 174.889 117.938 174.214 118.548C174.85 118.925 175.434 119.288 175.849 119.574L175.226 120.365C174.772 120.028 174.123 119.612 173.396 119.171C172.553 119.716 171.567 120.093 170.476 120.352C170.373 120.08 170.139 119.69 169.944 119.47C170.866 119.301 171.709 119.003 172.449 118.6C171.787 118.198 171.112 117.809 170.515 117.471L171.06 116.848H170.606V115.992H174.915L175.096 115.966ZM175.836 109.802L176.718 110.412C176.199 110.879 175.563 111.372 175.018 111.748C175.641 112.086 176.329 112.371 177.069 112.566C176.835 112.787 176.511 113.228 176.342 113.513C175.745 113.332 175.174 113.085 174.655 112.787V114.253C174.655 114.551 174.694 114.642 174.876 114.642H175.68C175.862 114.642 176.173 114.629 176.316 114.59C176.329 114.837 176.355 115.187 176.394 115.434C176.251 115.486 175.966 115.499 175.706 115.499H174.759C173.85 115.499 173.669 115.135 173.669 114.24V113.215H172.151V113.267C172.151 114.136 171.891 115.174 170.749 115.849C170.606 115.654 170.256 115.317 170.022 115.148V115.356H167.375C167.323 115.732 167.271 116.122 167.206 116.472H170.048C170.048 116.472 170.035 116.783 170.009 116.939C169.854 118.717 169.711 119.496 169.386 119.833C169.14 120.08 168.867 120.157 168.465 120.183C168.115 120.222 167.453 120.209 166.752 120.183C166.726 119.872 166.583 119.444 166.389 119.158C167.077 119.223 167.751 119.236 168.011 119.236C168.231 119.236 168.361 119.223 168.478 119.119C168.647 118.964 168.776 118.47 168.88 117.38H166.038C166.207 116.589 166.402 115.395 166.506 114.435H168.945V113.267H166.934V113.085C166.493 113.306 166.038 113.5 165.597 113.656C165.454 113.397 165.169 112.968 164.948 112.761C165.766 112.514 166.596 112.125 167.323 111.645C166.96 111.32 166.428 110.944 165.986 110.671L166.674 110.022C167.154 110.295 167.751 110.697 168.141 111.022C168.543 110.684 168.88 110.295 169.166 109.893H166.363V108.932H169.802L169.996 108.894L170.762 109.257C170.204 110.529 169.283 111.541 168.193 112.319H170.022V115.058C170.983 114.525 171.125 113.851 171.125 113.241V112.268H173.825C172.579 111.372 171.618 110.191 170.97 108.764L171.93 108.478C172.163 108.971 172.449 109.439 172.786 109.88C173.305 109.477 173.902 108.932 174.253 108.517L175.122 109.14C174.577 109.646 173.928 110.152 173.383 110.529C173.643 110.788 173.915 111.009 174.214 111.229C174.772 110.814 175.434 110.217 175.836 109.802ZM189.747 114.824H185.27C186.425 116.394 188.294 117.887 190.059 118.652C189.773 118.899 189.397 119.379 189.176 119.69C187.541 118.873 185.88 117.406 184.647 115.797V120.326H183.376V115.849C182.143 117.445 180.482 118.847 178.86 119.677C178.652 119.379 178.25 118.912 177.977 118.652C179.742 117.874 181.598 116.394 182.74 114.824H178.353V113.63H183.376V111.658H179.288V110.464H183.376V108.426H184.647V110.464H188.839V111.658H184.647V113.63H189.747V114.824ZM193.666 111.528L194.834 111.748C194.704 112.268 194.549 112.748 194.354 113.215C194.873 113.656 195.418 114.162 195.73 114.5L194.912 115.356C194.678 115.058 194.276 114.655 193.848 114.253C193.42 115.019 192.888 115.667 192.278 116.174C192.083 115.953 191.603 115.551 191.343 115.382C192.498 114.525 193.29 113.15 193.666 111.528ZM202.698 115.058L201.842 115.888C201.439 115.447 200.687 114.798 199.973 114.201C199.675 114.72 199.337 115.174 198.961 115.538C198.753 115.369 198.286 115.071 197.988 114.928C199.169 116.55 201.076 117.99 203.023 118.717C202.711 118.964 202.322 119.47 202.114 119.807C200.427 119.054 198.818 117.744 197.598 116.2V120.326H196.327V116.238C195.094 117.757 193.485 119.041 191.85 119.794C191.655 119.496 191.279 119.003 190.993 118.769C193.082 117.938 195.172 116.213 196.327 114.396V111.307H191.486V110.139H196.327V108.426H197.598V110.139H202.594V111.307H197.598V114.331C197.715 114.525 197.832 114.707 197.962 114.889C198.857 114.11 199.454 112.89 199.74 111.528L200.907 111.735C200.791 112.242 200.648 112.735 200.453 113.189C201.245 113.799 202.192 114.551 202.698 115.058Z" fill="#34495E"/>
<path d="M89.3364 109.237H47.6328V119.744H89.3364V109.237Z" fill="url(#paint0_linear_497_97289)"/>
</g>
<defs>
<linearGradient id="paint0_linear_497_97289" x1="47.6328" y1="114.491" x2="89.3364" y2="114.491" gradientUnits="userSpaceOnUse">
<stop stop-color="#41B883" stop-opacity="0"/>
<stop offset="1" stop-color="#41B883"/>
</linearGradient>
<clipPath id="clip0_497_97289">
<rect width="264.33" height="133.079" fill="white"/>
</clipPath>
</defs>
</svg>
