<?xml version="1.0" encoding="UTF-8"?>
<svg id="_圖層_4" data-name="圖層 4" xmlns="http://www.w3.org/2000/svg" xmlns:xlink="http://www.w3.org/1999/xlink" viewBox="0 0 1859.01 362.36">
  <defs>
    <style>
      .cls-1 {
        fill: #fff;
      }

      .cls-2 {
        fill: url(#_未命名漸層_3-4);
      }

      .cls-3 {
        fill: url(#_未命名漸層_3-3);
      }

      .cls-4 {
        fill: url(#_未命名漸層_3-2);
      }

      .cls-5 {
        fill: url(#_未命名漸層_3);
      }

      .cls-6 {
        fill: #06bc86;
      }
    </style>
    <linearGradient id="_未命名漸層_3" data-name="未命名漸層 3" x1="166.34" y1="112.44" x2="262.18" y2="330.19" gradientUnits="userSpaceOnUse">
      <stop offset="0" stop-color="#73d574"/>
      <stop offset=".14" stop-color="#77d572"/>
      <stop offset=".54" stop-color="#00bc9d"/>
      <stop offset="1" stop-color="#00a4c1"/>
    </linearGradient>
    <linearGradient id="_未命名漸層_3-2" data-name="未命名漸層 3" x1="167.11" y1="112.09" x2="262.95" y2="329.85" xlink:href="#_未命名漸層_3"/>
    <linearGradient id="_未命名漸層_3-3" data-name="未命名漸層 3" x1="34.68" y1="170.38" x2="130.52" y2="388.13" xlink:href="#_未命名漸層_3"/>
    <linearGradient id="_未命名漸層_3-4" data-name="未命名漸層 3" x1="18.45" y1="177.53" x2="114.28" y2="395.28" xlink:href="#_未命名漸層_3"/>
  </defs>
  <g>
    <path class="cls-6" d="M1821.64,205.71h-.49s-.49.02-.49.02c0-3.34,0-6.69,0-10.03.33.02.65.02.98.01v10Z"/>
    <path d="M912.11,256.65c-1.18-2.37-2.26-4.52-3.43-6.86,0-43.59,0-87.4,0-131.21,0-2.11.39-4.13.84-6.23,1.53-7.1,12.52-12.05,20.68-5.56,1.17.93,2.25,1.99,3.16,3.13,1.73,3.48,1.29,7.13,1.3,10.72.02,10.83.01,21.66.02,32.49,0,1.12,0,2.25,0,3.31.66.12,1.11.33,1.25.2,4.96-4.43,11.01-6.35,17.31-7.98,6.73-1.75,13.48-.82,20.21-.77,2.46.02,5.07.88,7.33,1.94,6.13,2.89,12.23,5.84,17.21,10.71,6.18,6.04,10.37,13.17,12.61,21.44,1.05,3.88,2.01,7.81,2.01,11.88,0,17.83.17,35.65-.06,53.47-.12,9.53-6.38,13.39-13.46,13.24-4.73-.1-8.74-2.22-10.93-6.84-.42-.88-.87-1.74-1.53-3.06,0-15.82-.07-32.14.04-48.45.04-5.28-1.03-10.18-2.8-15.15-1.58-4.45-4.35-7.84-8-10.21-4.31-2.8-9.15-4.41-14.62-4.35-6.12.07-11.38,1.57-16.44,5.07-5.37,3.71-7.6,9.05-9.16,14.86-1.15,4.29-1.04,8.74-1.01,13.17.07,13.83-.1,27.66.09,41.48.07,5.11-2,8.81-5.84,11.78-3.06,2.37-9.69,2.44-13.36.15-1.1-.68-2.13-1.47-3.42-2.37Z"/>
    <path d="M1120.75,224.71h6.07c5.35,1.28,7.79,4.58,9.75,9.07v7.92c-1.67,4.49-5.36,7.4-9.28,9.53-4.56,2.47-9.03,5.26-14.19,6.62-4.95,1.3-9.76,3.06-15.02,2.85-4.49-.18-9,.08-13.49-.11-4.49-.19-8.72-1.8-12.82-3.44-9.26-3.71-17.15-9.56-23.3-17.34-5.7-7.23-9.23-15.54-10.98-24.74-1.2-6.29-1.26-12.58-.59-18.7,1.12-10.3,5.32-19.56,11.49-28.07,4.57-6.31,10.78-10.44,17.07-14.39,4.53-2.85,9.95-4.08,15.29-5.28,6.57-1.49,13.19-1.28,19.7-.72,8.89.76,17.02,4.28,24.27,9.51,7.25,5.23,12.73,11.97,16.32,20.21,2.59,5.93,4.52,12.01,4.6,18.55.04,2.83,0,5.66,0,8.57-1.49,2.38-2.11,5.3-4.86,7.01-3.12,1.94-6.4,2.89-10.03,2.89-20.65,0-41.3,0-61.95,0-1.64,0-3.27,0-4.92,0,.86,5.04,3.6,8.87,6.66,12.24,4.43,4.86,10.18,7.77,16.74,8.88,2.22.38,4.49,1.04,6.69.87,8.36-.65,16.07-3.12,22.32-9.06.6-.57,1.18-1.21,1.86-1.66.66-.43,1.45-.67,2.62-1.18ZM1119.79,192.58c-.28-4.47-2.14-7.88-4.7-10.75-6.03-6.77-13.77-9.9-22.8-10.11-2.33-.05-4.47.7-6.71.92-3.15.32-5.8,1.76-8.46,3.17-3.87,2.05-6.82,5.28-9.46,8.62-1.75,2.22-3.97,4.76-2.73,8.15h54.85Z"/>
    <path d="M612.8,227.33c1.33,2.13,2.53,4.05,3.8,6.08v6.84c-1.39,4.75-4.59,7.13-8.14,9.65-3.45,2.46-7.15,4.45-10.73,6.61-2.75,1.66-6.16,2.29-9.36,3.09-8.12,2.03-16.54,1.72-24.6.76-8.16-.97-15.73-4.77-22.62-9.65-11.17-7.92-18.29-18.61-22.25-31.52-.84-2.74-.98-5.72-1.19-8.61-.21-2.82.07-5.67-.15-8.48-.51-6.45.99-12.58,3.19-18.47,2.72-7.27,6.64-14.05,12.18-19.52,7.2-7.11,15.81-11.77,25.71-14.61,7.52-2.15,15.02-2.32,22.38-1.48,6.17.71,12.23,2.92,17.92,6.17,5.24,3,9.69,6.67,13.67,11.03,6.43,7.05,10.69,15.12,12.15,24.73.55,3.59.82,7.12.84,10.7.03,8.08-4.62,13.93-13.85,13.94-20.65.03-41.29.01-61.94.02-1.63,0-3.27,0-5.43,0,3.22,10.81,10.12,17.32,20.24,20.53,3.86,1.23,7.99,2.33,12,1.43,3.87-.86,7.93-1.04,11.58-2.94,3.69-1.92,6.92-4.33,9.78-8,3.11-.4,6.47-.83,9.21-1.18,2.2,1.13,3.78,1.93,5.6,2.86ZM544.89,192.44h54.56c.02-9.76-12.68-20.08-24.59-20.75-15.84-.88-28.95,11.27-29.97,20.75Z"/>
    <path d="M758.61,252.38c-1.66,4.8-5.13,6.6-8.93,8.3h-5.4c-6.74-1.81-9.29-6.16-9.93-12.1-6.34,5.51-13.5,9.04-21.35,11.25-1.06.3-2.14.73-3.21.75-4.83.08-9.67-.11-14.49.09-3.98.17-7.67-1.06-11.21-2.33-7.8-2.8-14.96-7.04-20.9-12.82-6.3-6.13-10.54-13.69-13.59-22-3.25-8.85-3.46-17.98-2.71-27.08.37-4.48,1.94-8.95,3.64-13.29,2.58-6.58,6.44-12.36,11-17.52,3.4-3.85,7.86-6.85,12.1-9.87,6.23-4.44,13.73-5.86,20.89-8.03,5.56.44,11.09-.32,16.74.72,7.24,1.34,13.83,3.92,20.28,7.22,5.97,3.05,10.82,7.52,14.92,12.64,4.11,5.13,7.51,10.83,9.46,17.22,1.17,3.82,2.65,7.62,2.67,11.67.07,18.5.03,36.99.03,55.17ZM672.55,203.91c-.29,6.48.95,10.64,3.47,15.72,6.06,12.25,22.28,19.25,35.97,14.5,12.86-4.46,21.27-15.98,21.66-29.73.07-2.33-.7-4.47-.93-6.7-.47-4.47-2.12-8.63-4.77-11.94-6.57-8.19-14.75-13.47-25.97-13.24-7.83.16-14.21,3.2-19.67,8.17-6.67,6.06-10.1,13.81-9.75,23.22Z"/>
    <path class="cls-6" d="M1333.61,248.84c0,9.84-.15,19.48.06,29.11.11,4.89-.74,9.3-4.1,13.27-1.37.7-2.94,1.51-4.75,2.43h-6.27c-1.48-.74-3.05-1.52-4.85-2.41-.87-1.26-1.89-2.72-3.04-4.38,0-29.07-.02-58.38.04-87.69,0-1.72.48-3.49.98-5.16,2.82-9.52,7.24-18.18,14.42-25.17,6.06-5.91,13.36-9.98,21.18-13.01,5.16-2,17.61-3.11,23.79-2.01,9.18,1.63,17.61,5.04,25.17,10.84,8.83,6.76,14.09,15.73,17.68,25.88,2.12,5.98,3.34,12.24,2.62,18.61-.77,6.81-1.99,13.64-5,19.85-4.18,8.62-10.08,16.05-18.18,21.27-5.19,3.34-11,5.7-16.98,7.47-2.19.65-4.37,1.08-6.68,1.04-3.83-.08-7.67-.16-11.49.02-5.69.27-10.72-1.93-15.65-4.18-3.04-1.39-5.7-3.62-8.95-5.75ZM1333.67,206.5c0,2-.01,3.99.01,5.99,0,.3.14.61.25.91,2.47,7.18,4.41,12.58,12.3,18.34,3.78,2.76,8.18,4.41,12.79,4.85,3.69.35,7.4.09,11.19-.72,8.27-1.75,13.89-6.9,18.35-13.39,4.03-5.87,6.37-14.92,4.14-22.92-1.57-5.64-3.78-11.03-7.96-15.08-5.96-5.76-13.14-9.03-21.76-8.87-7.67.14-14.18,2.98-19.63,8.01-6.59,6.07-10.1,13.71-9.67,22.88Z"/>
    <path class="cls-6" d="M1820.66,194.48c0,3.25,0,6.5,0,9.76-1.24,6.22-7.29,9.34-12.77,9.6-4.98.24-9.99.05-14.99.05-15.49,0-30.98,0-46.47,0-1.48,0-2.95,0-4.72,0-.45,3.55,1.48,6.23,3.32,8.51,4.36,5.42,9.64,10.05,16.81,11.5,4.12.83,8.38,2.88,12.71.48,4.83.13,9.04-1.76,13.13-3.92,1.68-.89,3.23-2.04,4.75-3.2,6.15-4.69,9.03-4.83,15.94-.29,2.24,1.47,3.35,6.75,2.77,9.38-1.17,5.35-4.95,8.48-9.43,11.07-4.38,2.53-8.68,5.15-13.65,6.62-7.57,2.24-15.25,3.23-23.09,2.6-3.32-.27-6.62-1.06-9.85-1.9-3.05-.8-6.2-1.62-8.94-3.09-7.11-3.8-13.76-8.09-18.73-14.72-3.27-4.36-5.73-9-7.84-13.84-1.54-3.53-2.9-7.21-3.01-11.19-.06-2.33-.98-4.67-.85-6.97.41-7.64,1.46-15.16,4.87-22.23,2.28-4.73,5.49-8.73,8.63-12.91,4.82-6.42,11.52-9.91,18.47-13.13,4.73-2.19,9.77-3.65,15.13-4.07,2.37-.18,4.7-1.06,7.17-.83,7.49.67,14.86,1.61,21.81,4.8,7.8,3.58,14,8.78,19.28,15.39,4.73,5.92,7.33,12.64,9.47,19.64.27.9.06,1.93.08,2.9ZM1796.8,194.49c-.54-5.59-3.29-9.76-7.08-13.05-7.44-6.46-17.69-8.38-27.77-5.75-1.54.4-3.24.43-4.63,1.11-4.13,2.02-7.6,4.94-10.7,8.36-2.42,2.67-3.6,5.88-5.2,9.34h55.39Z"/>
    <path class="cls-6" d="M1564.35,248.69c-3.61,2.02-6.43,4.65-10.08,6.18-4.47,1.87-8.95,3.08-13.69,4.11-5.69,1.24-10.93-.99-16.44-.44-2.36.24-5.04-.84-7.32-1.88-6.27-2.87-12.5-5.72-17.64-10.68-5.6-5.4-10.07-11.42-13.25-18.48-1.65-3.66-2.41-7.55-3.37-11.42-1.01-4.05-1.07-8.12-.87-12.19.33-6.92,2.04-13.46,4.79-19.92,3.25-7.61,8.29-13.62,14.37-18.86,5.87-5.06,12.84-8.25,20.27-10.33,7.28-2.04,14.89-1.78,22.11-.79,10.38,1.42,19.74,5.95,27.58,13.34,8.49,8,13.18,18.09,16.56,28.91.9,2.87,1.12,6.05,1.15,9.09.11,14.82.05,29.63.05,43.93-1.3,4.57-4.07,7.52-7.52,10.34h-8.71c-4.65-1.55-6.78-5.69-8-10.9ZM1534.78,175.67c-5.6,0-9.81.79-13.17,2.58-6.68,3.55-11.74,8.63-14.61,15.7-.97,2.37-1.05,5.01-1.75,7.43-1.48,5.14-.28,9.94,1.27,14.68.88,2.69,2.26,5.26,3.71,7.72,3.06,5.2,7.43,8.91,13.16,10.95,5.92,2.11,11.82,2.7,18.05,1.09,5.11-1.32,9.63-3.49,13.5-6.95,6.66-5.96,9.16-13.77,9.75-22.43.16-2.35-.84-4.46-.96-6.68-.25-4.53-2.16-8.6-4.69-11.88-6.01-7.77-13.84-12.77-24.25-12.22Z"/>
    <path d="M882.59,174.49c-1.45,1.99-2.81,4.46-4.72,6.38-4.96,4.97-11.16,5.06-16.23.19-4.42-4.25-9.89-6.32-15.49-8.17-1.51-.5-3.28-.23-4.93-.25-2.83-.03-5.66,0-8.38,0-1.56.71-2.96,1.46-4.44,2.01-5.24,1.93-9.64,4.78-13,9.48-2.09,2.92-4.34,5.63-5.02,9.23-.99,5.32-2.9,10.46-.97,16.15.78,2.28.75,5.03,1.8,7.38,3.8,8.54,9.88,14.63,19.08,17.11,4.62,1.24,9.27,3.09,14.11.77,3.92.41,7.19-1.5,10.5-3.08,1.73-.83,3.32-2.09,4.72-3.42,2.05-1.96,4.07-3.7,7.17-3.59.69.03,1.41-.65,1.97-.93,6.05,1.15,10.23,4.41,12.83,9.83.03,3.61.51,7.43-1.95,10.73-.57.76-.86,1.82-1.57,2.36-5.36,4.03-10.9,7.67-17.25,10.17-3.87,1.53-7.99,2.07-11.77,3.75-.55.24-1.3.06-1.96.06-4.5.02-9-.12-13.48.08-5.62.25-10.77-1.58-15.8-3.54-9.26-3.62-17.02-9.61-23.25-17.27-5.38-6.61-8.82-14.34-10.88-22.67-1.81-7.35-.77-14.78-.96-22.17,2.51-8.72,4.82-17.46,10.75-24.78,3.14-3.87,6.44-7.54,10.12-10.82,4.2-3.74,9.1-6.5,14.28-8.71,3.96-1.69,8.21-2.46,12.27-3.81.75-.25,1.62-.15,2.43-.16,2.66-.03,5.33.05,7.99-.07,6.56-.3,12.72,1.4,18.89,3.38,7.51,2.4,13.66,7.04,19.58,11.9,2.19,1.8,3.66,4.87,3.58,8.15-.03,1.16,0,2.33,0,4.36Z"/>
    <path d="M436.63,171.82c-3.11-1.95-6.32-.87-9.36-1.04-3.15-.18-6.32-.04-9.34-.04-3.97-1.89-6.83-4.59-8.25-9.47v-5.17c1.44-4.74,4.08-7.82,9.65-9.36h17.05c.09-1.36.23-2.62.23-3.88.03-6.49-.2-13,.08-19.48.37-8.37,6.78-12.9,13.72-12.54,4.45.23,8.49,2.06,10.56,6.59.47,1.03,1.06,2,1.78,3.34v25.74h26.17c6,2.46,8.51,6.61,8.61,12.06.1,5.53-2.68,9.53-8.23,12.15-7.17,0-14.99,0-22.81,0-1.3,0-2.72-.33-3.84,1.67,0,.43,0,1.4,0,2.37,0,14.65-.04,29.3,0,43.96,0,3.75,1.01,7.22,2.84,10.58,2.02,3.7,4.84,5.42,9.02,5.51,2.99.06,5.84-.35,8.64-1.24,5.22-1.65,10.14.15,12.71,4.75.55.99,1.09,2,1.74,3.21-.27,2.82.39,5.83-.81,8.98-1.43,3.77-3.61,6-7.43,7.24-5.59,1.82-11.25,3.17-17.1,2.8-9.39-.6-18.07-3.48-25.08-9.99-4.21-3.91-6.76-9.07-8.44-14.49-1.79-5.79-2.24-11.79-2.17-17.88.17-15.31.06-30.62.06-46.38Z"/>
    <path class="cls-6" d="M1684.77,185.64c-1.98-1.43-4.13-3.13-6.42-4.61-5.88-3.79-12.25-6.75-19.33-6.18-12.91,1.03-23.38,8.13-28.07,22.17-1.87,5.61-1.84,11.58-.22,17.18,2.27,7.85,6.53,14.32,13.61,18.67,2.46,1.51,5.01,2.76,8.02,2.9,1.73.08,3.44.87,5.17.89,8.16.09,15.57-1.93,21.64-7.84,1.33-1.3,3.26-1.99,5.53-3.31,2.46.32,5.47.72,8.45,1.11,1.51,1.55,2.91,2.97,4.15,4.24.5,1.58,1.24,2.93,1.3,4.3.2,4.71-1.25,8.57-5.28,11.63-5.94,4.51-12.15,8.27-19.4,10.22-2.95.79-5.82,1.81-8.96,1.72-4.16-.12-8.33-.16-12.49.03-3,.13-5.84-.62-8.54-1.5-7.69-2.48-14.89-6.25-20.71-11.8-4.37-4.17-7.91-9.15-10.8-14.74-2.83-5.46-3.3-11.25-4.92-16.86-1.28-4.46-1.32-8.96-.64-13.18,1.74-10.98,5.24-21.35,13.02-29.89,2.74-3.01,5.57-5.97,8.75-8.35,5.2-3.88,10.86-7.19,17.33-8.75,2.04-.49,4-1.07,6.16-1.07,2.23,0,4.48-.98,6.67-.81,4.95.39,9.87,1.07,14.72,2.26,6.74,1.65,12.8,4.73,18.4,8.69,2.01,1.42,3.65,3.37,5.66,5.27.45,2.7.93,5.55,1.3,7.71-1.59,5.16-4.09,8.51-8.76,9.87h-5.33Z"/>
    <path class="cls-6" d="M1436.26,110.51c2.25-2.28,3.89-3.93,5.24-5.29,7.69-3.16,14.79-1.03,18.12,7.23v124.5c.86,1.34,1.81,2.83,2.95,4.6,0,2.29.33,4.99-.08,7.57-.63,4.02-4.91,8.11-9.06,9.62-6.93,2.53-15.34-1.42-17.19-7.97-.43-1.54-.59-3.2-.59-4.8-.03-30.32-.02-60.63-.02-90.95,0-11.33-.05-22.65.03-33.98.02-3.56.4-7.12.61-10.53Z"/>
    <path d="M1170.62,251.79c0-20.05-.13-40.2.06-60.34.08-8.47,2.63-16.36,7.32-23.51,6.17-9.39,14.92-15.18,25.58-18.15,4.17-1.16,8.44-2.11,12.85-2.06,3.33.04,6.66,0,9.81,0,6.26,1.71,9.21,5.9,9.31,12.04.11,6.31-2.77,10.75-9.08,12.89-2.78,0-5.79-.19-8.77.03-12.23.93-20.93,9.73-21.06,21.63-.2,18.81-.05,37.62-.05,55.99-1.61,5.22-4.66,8.59-10.29,10.25-8.14.23-11.65-1.62-15.68-8.79Z"/>
    <path class="cls-6" d="M1249.62,238.66c2.6-4.93,5.28-9.34,10.77-10.93h7.92c2.73,1.09,5.17,2.45,7.38,4.44,5.62,5.06,7.09,14.58,1.18,21.76-5.58,6.78-15.79,7.8-22.39,1.96-2.92-2.58-4.78-6.02-4.86-10.12-.05-2.32,0-4.64,0-7.11Z"/>
  </g>
  <g>
    <path class="cls-5" d="M311.23,253.62v-86.47c0-6.45-6.88-10.57-12.57-7.53-23.83,12.74-47.39,25.34-70.94,37.94-.69.37-1.32.87-2,1.27-17.79,10.5-14.23,10.46-33.71-.59-20.83-11.83-42.09-22.89-63.17-34.29-2.87-1.55-5.74-3.1-8.66-4.67-5.69-3.07-12.6,1.05-12.6,7.51v86.68c0,3.11,1.7,5.98,4.43,7.48,8.35,4.6,16.54,9.12,24.76,13.58,20.77,11.28,41.72,22.24,62.25,33.93,7.43,4.23,13.33,4.16,20.82-.03,28.77-16.08,57.85-31.59,86.91-47.31,2.76-1.49,4.48-4.38,4.48-7.51Z"/>
    <path class="cls-4" d="M356.3,131.33c-22.7-12.54-44.61-24.7-66.64-36.68-25.01-13.6-50.15-26.94-76.01-40.79-2.53-1.36-5.59-1.36-8.12,0-49.87,26.76-99.36,53.95-148.91,80.62-3.17,1.71-5.14,4.89-5.39,8.37h-.06v120.78h25.99v-99.31c0-4.49,4.76-7.38,8.75-5.31,40.89,21.15,79.51,43.43,119.47,64.56,2.5,1.32,5.5,1.32,8,0,47.52-25.07,94.29-51.33,142.82-77.22,5.98-3.19,6.03-11.74.1-15.02Z"/>
    <circle class="cls-3" cx="63.94" cy="236.86" r="20.22"/>
    <path class="cls-2" d="M76.37,247.67h-24.87l-6.56,49.79c-.38,2.9,1.88,5.48,4.8,5.48h28.37c2.93,0,5.19-2.58,4.8-5.48l-6.56-49.79Z"/>
  </g>
  <path class="cls-1" d="M263.64,176.18l-72.82-36.31c-6.45-3.22-14.04,1.48-14.04,8.69v72.61c0,7.21,7.58,11.9,14.04,8.69l72.82-36.31c7.17-3.57,7.17-13.8,0-17.37Z"/>
</svg>