<svg width="228" height="141" viewBox="0 0 228 141" fill="none" xmlns="http://www.w3.org/2000/svg">
<path d="M157.561 35.6582L139.637 4.47334C138.222 2.01581 134.752 0 131.93 0H96.0812C93.251 0 89.7893 2.01581 88.3742 4.47334L70.45 35.6582C69.0349 38.1157 69.0349 42.1393 70.45 44.5969L88.3742 75.7817C89.7893 78.2393 93.259 80.2551 96.0812 80.2551H131.93C134.76 80.2551 138.222 78.2393 139.637 75.7817L157.561 44.5969C158.976 42.1393 158.976 38.1157 157.561 35.6582ZM150.358 41.6655L133.505 70.9952C133.129 71.6537 131.618 72.5291 130.858 72.5291H97.1445C96.385 72.5291 94.882 71.6537 94.4982 70.9952L77.6453 41.6655C77.2695 41.0069 77.2695 39.2562 77.6453 38.5976L94.4982 9.26792C94.874 8.60937 96.385 7.73398 97.1445 7.73398H130.858C131.618 7.73398 133.121 8.60937 133.505 9.26792L150.358 38.5976C150.733 39.2562 150.733 41.0069 150.358 41.6655Z" fill="#00251A"/>
<path d="M114.006 40.6538H87.3672V46.3318H114.006V40.6538Z" fill="#00251A"/>
<path d="M114.006 50.8372H92.5957V56.5152H114.006V50.8372Z" fill="#00251A"/>
<path d="M114.006 61.0205H97.8164V66.6985H114.006V61.0205Z" fill="#00251A"/>
<path d="M43.4115 106.067V106.171C43.4115 107.087 42.9558 107.553 42.0364 107.553H1.3751C0.463697 107.553 0 107.095 0 106.171V106.067C0 105.151 0.455702 104.686 1.3751 104.686H19.1155V96.5662C19.1155 95.6506 19.5712 95.1848 20.4906 95.1848H22.929C23.8404 95.1848 24.3041 95.6426 24.3041 96.5662V104.686H42.0444C42.9558 104.686 43.4195 105.143 43.4195 106.067H43.4115ZM15.6617 116.483C13.2713 124.145 9.92149 131.237 5.29252 138.079C4.78086 138.794 4.17326 138.898 3.41376 138.489L1.83879 137.621C1.02333 137.164 0.871425 136.497 1.38309 135.734C5.24456 129.759 8.45045 122.764 10.8329 114.901C11.0887 114.034 11.6963 113.729 12.5598 114.034L14.7983 114.797C15.6138 115.054 15.9176 115.664 15.6617 116.483ZM31.5713 114.492C35.8405 121.896 39.5501 129.092 42.5481 136.087C42.8999 136.907 42.652 137.565 41.8366 137.926L39.8059 138.794C38.9904 139.155 38.3828 138.842 38.0231 138.031C34.8172 130.369 31.2595 123.221 27.6059 116.692C27.1502 115.873 27.3501 115.214 28.1176 114.805L29.7405 113.938C30.5 113.528 31.1156 113.737 31.5713 114.5V114.492Z" fill="#00251A"/>
<path d="M76.9024 95.8596C76.7026 96.2692 76.4947 96.7752 76.1909 97.3936H91.5408C92.4522 97.3936 92.9159 97.8513 92.9159 98.7749V98.8793C92.9159 99.5941 92.764 100.052 92.3563 100.614C91.237 101.995 89.6141 103.674 87.5275 105.666H101.302C102.214 105.666 102.678 106.123 102.678 107.047V133.799C102.678 139.212 102.014 139.926 95.9699 139.926C95.3623 139.926 93.2757 139.822 89.822 139.726C88.9106 139.677 88.3989 139.212 88.3989 138.344C88.3509 137.477 88.8546 137.019 89.822 137.067C93.0758 137.172 94.9066 137.324 95.4103 137.324C97.5929 137.324 97.6488 137.276 97.6488 133.951V128.081H69.4913C68.7798 132.265 67.3087 136.096 64.8144 139.774C64.3027 140.537 63.5912 140.641 62.8797 140.079L61.4086 138.85C60.7451 138.288 60.6491 137.678 61.0568 136.963C64.1588 131.855 65.374 125.784 65.374 115.263V111.127L63.2394 112.862C62.4799 113.472 61.7684 113.319 61.3606 112.452L60.849 111.432C60.4972 110.669 60.5932 110.107 61.2567 109.545C65.9816 105.561 69.6912 100.558 72.3854 94.6389C72.7372 93.8759 73.2968 93.6189 74.1123 93.7715L75.991 94.1329C76.9584 94.3337 77.3102 95.0003 76.9024 95.8677V95.8596ZM69.8911 125.575H80.7639V117.969H70.3947C70.3467 120.724 70.1948 123.173 69.8831 125.575H69.8911ZM80.7639 108.26H70.3947V115.512H80.7639V108.26ZM70.6506 105.658H82.2909C83.9139 104.18 85.7446 102.285 87.8313 99.8912H74.7678C73.8005 101.522 72.4814 103.417 70.6506 105.658ZM97.6409 108.26H85.7446V115.512H97.6409V108.26ZM97.6409 117.961H85.7446V125.567H97.6409V117.961Z" fill="#00251A"/>
<path d="M158.634 121.487C158.634 122.25 158.378 122.716 157.723 123.117C154.365 125.213 150.303 127.253 145.579 129.197H165.302C166.213 129.197 166.677 129.655 166.677 130.578C166.677 131.341 166.221 131.751 165.302 131.751H147.058V136.955C147.058 139.918 146.298 140.424 140.398 140.424C138.367 140.424 136.025 140.376 133.331 140.223C132.515 140.175 132.011 139.709 131.955 138.842C131.908 137.975 132.411 137.517 133.379 137.565C136.68 137.67 138.815 137.822 139.83 137.822C142.069 137.822 141.813 138.079 141.813 135.726V131.743H122.09C121.179 131.743 120.715 131.285 120.715 130.361C120.715 129.598 121.171 129.189 122.09 129.189H141.813V128.217C141.813 127.301 142.269 126.836 143.188 126.836H144.611C147.106 125.816 149.848 124.49 153.198 122.7H130.125C129.213 122.7 128.75 122.242 128.75 121.318C128.75 120.708 129.205 120.346 130.125 120.346H157.267C158.178 120.346 158.642 120.756 158.642 121.471L158.634 121.487ZM124.528 97.8994C127.422 97.5942 130.828 96.9839 134.746 96.2129C135.657 96.0121 136.217 96.4137 136.369 97.2328C136.52 98.052 136.169 98.6142 135.249 98.7668C132.963 99.2246 130.62 99.5859 128.39 99.9393L128.494 102.694H134.85C135.761 102.694 136.225 103.152 136.225 104.075C136.225 104.485 135.769 104.686 134.85 104.686H128.598L128.75 108.412H134.85C135.761 108.412 136.225 108.87 136.225 109.794C136.225 110.203 135.769 110.46 134.85 110.46H128.854L129.005 114.339H158.386L158.49 110.46H152.542C151.631 110.46 151.167 110.002 151.167 109.079C151.167 108.669 151.623 108.412 152.542 108.412H158.594L158.698 104.686H152.55C151.639 104.686 151.175 104.228 151.175 103.304C151.175 102.895 151.631 102.694 152.55 102.694H158.802L158.954 99.1202H152.246C151.335 99.1202 150.871 98.6624 150.871 97.7388C150.871 97.0722 151.327 96.7188 152.246 96.7188H162.767C163.679 96.7188 164.19 97.2328 164.142 98.1484L163.431 114.331H165.054C165.965 114.331 166.429 114.789 166.429 115.712V121.326C166.429 122.242 165.973 122.708 165.054 122.708H162.767C161.856 122.708 161.392 122.25 161.392 121.326V116.676H126.015V121.326C126.015 122.242 125.56 122.708 124.64 122.708H122.354C121.442 122.708 120.979 122.25 120.979 121.326V115.712C120.979 114.797 121.434 114.331 122.354 114.331H123.929L123.265 99.3691C123.217 98.5018 123.673 97.9878 124.536 97.8914L124.528 97.8994ZM149.736 96.7751C148.976 97.538 148.057 98.3572 146.89 99.2727L149.632 101.16C150.391 101.722 150.495 102.389 149.888 103.104L149.28 103.867L149.328 103.915C150.295 104.268 150.495 105.039 149.784 105.754C149.024 106.573 148.057 107.384 146.89 108.308L149.632 110.195C150.391 110.757 150.447 111.368 149.888 112.139L149.736 112.339C149.176 113.054 148.513 113.102 147.753 112.54C146.226 111.416 145.059 110.597 144.299 110.034C142.924 110.854 141.149 111.769 139.063 112.588C138.303 112.894 137.744 112.741 137.184 112.227C136.52 111.617 136.728 110.95 137.696 110.54C138.919 109.978 140.238 109.263 141.661 108.396C140.19 107.529 138.967 106.814 138 106.356C137.136 105.898 136.928 105.232 137.544 104.469L137.952 103.955L137.344 103.393C136.584 102.678 136.736 101.915 137.696 101.505C138.919 100.991 140.238 100.277 141.661 99.3611C140.19 98.4937 138.967 97.779 138 97.3212C137.136 96.8634 136.984 96.1968 137.544 95.4339C137.952 94.8717 138.511 94.7673 139.271 95.1287C141.357 96.0442 142.932 96.8634 144.147 97.5782C144.963 96.9116 145.826 96.1486 146.794 95.1287C147.305 94.5183 147.913 94.3657 148.672 94.6709L149.28 94.9279C150.247 95.3375 150.447 96.0523 149.736 96.767V96.7751ZM138.655 103.77C140.99 104.846 142.82 105.866 144.147 106.629C145.115 105.866 146.234 104.79 147.505 103.312C146.594 102.702 145.571 101.931 144.299 101.064C142.876 101.931 140.998 102.847 138.655 103.77Z" fill="#00251A"/>
<path d="M197.559 100.606C194.865 107.497 193.642 109.946 192.682 112.404C196.392 116.949 197.255 119.704 197.255 123.736C197.255 128.024 195.225 130.217 190.14 130.217C189.38 130.217 188.917 129.807 188.765 128.988C188.613 128.169 189.069 127.663 190.036 127.663H189.628C191.811 127.663 192.674 126.747 192.674 122.965C192.674 119.182 191.659 116.885 188.965 113.311C188.453 112.701 188.405 112.139 188.709 111.424C190.332 107.697 192.115 103.61 193.33 99.3209H187.278V138.682C187.278 139.597 186.822 140.063 185.903 140.063H184.176C183.264 140.063 182.801 139.605 182.801 138.682V98.2448C182.801 97.3292 183.256 96.8634 184.176 96.8634H196.528C197.439 96.8634 197.903 97.3212 197.903 98.2448V98.8551C197.903 99.4655 197.799 99.9313 197.543 100.59L197.559 100.606ZM226.228 118.78C226.228 119.696 225.773 120.162 224.853 120.162H217.89V134.409C217.89 136.754 217.53 136.706 220.376 136.706C221.999 136.706 222.255 136.706 222.767 135.325C222.966 134.762 223.174 132.514 223.278 128.843C223.326 127.872 223.838 127.414 224.749 127.518L226.732 127.719C227.595 127.823 228.003 128.281 228.003 129.197C227.955 130.731 227.955 131.646 227.803 133.18C227.651 135.172 227.651 137.212 225.972 138.545C225.365 139.059 224.35 139.107 223.686 139.26C223.23 139.364 220.992 139.412 220.232 139.412C213.876 139.412 212.861 138.802 212.861 135.686V120.162H209.911C209.807 130.835 206.505 135.782 196.088 139.766C195.329 140.071 194.713 139.87 194.257 139.155L194.105 138.85C193.594 138.031 193.85 137.372 194.713 137.011C202.188 133.999 204.778 129.711 204.978 120.162H200.253C199.342 120.162 198.878 119.704 198.878 118.78C198.878 117.913 199.334 117.455 200.253 117.455H224.853C225.765 117.455 226.228 117.913 226.228 118.78ZM226.94 101.73V108.573C226.94 109.488 226.484 109.954 225.565 109.954H223.23C222.319 109.954 221.855 109.496 221.855 108.573V102.959H203.203V108.573C203.203 109.488 202.748 109.954 201.828 109.954H199.646C198.734 109.954 198.271 109.496 198.271 108.573V101.73C198.271 100.815 198.726 100.349 199.646 100.349H209.455V96.0603C209.455 95.1447 209.911 94.679 210.83 94.679H213.269C214.18 94.679 214.644 95.1367 214.644 96.0603V100.349H225.573C226.484 100.349 226.948 100.807 226.948 101.73H226.94ZM220.992 109.384C220.992 110.251 220.536 110.709 219.617 110.709H205.538C204.626 110.709 204.163 110.251 204.163 109.328C204.163 108.509 204.618 108.099 205.538 108.099H219.617C220.528 108.099 220.992 108.557 220.992 109.376V109.384Z" fill="#00251A"/>
</svg>
