<svg width="28" height="45" viewBox="0 0 28 45" fill="none" xmlns="http://www.w3.org/2000/svg">
<path d="M19.7283 0C12.8867 0 7.17391 5.81108 7.17391 12.7703V17.027H0.597826C0.439273 17.027 0.287213 17.0911 0.175099 17.2051C0.0629846 17.3192 0 17.4739 0 17.6351V27.3649C0 27.7005 0.267826 27.973 0.597826 27.973H7.17391V44.3919C7.17391 44.7276 7.44174 45 7.77174 45H17.337C17.4955 45 17.6476 44.9359 17.7597 44.8219C17.8718 44.7078 17.9348 44.5532 17.9348 44.3919V27.973H24.5109C24.6442 27.9726 24.7735 27.9269 24.8784 27.8432C24.9832 27.7594 25.0576 27.6424 25.0896 27.5108L27.4809 17.7811C27.5026 17.6916 27.5041 17.5983 27.4852 17.5082C27.4663 17.4181 27.4275 17.3336 27.3718 17.2609C27.316 17.1883 27.2448 17.1295 27.1634 17.089C27.0821 17.0485 26.9928 17.0273 26.9022 17.027H17.9348V12.7703C17.941 12.2884 18.1319 11.828 18.4669 11.4872C18.8019 11.1465 19.2545 10.9522 19.7283 10.9459H26.9022C27.0607 10.9459 27.2128 10.8819 27.3249 10.7678C27.437 10.6538 27.5 10.4991 27.5 10.3378V0.608108C27.5 0.446828 27.437 0.292153 27.3249 0.178111C27.2128 0.0640685 27.0607 0 26.9022 0H19.7283Z" fill="#41B883"/>
</svg>
