<svg width="50" height="50" viewBox="0 0 50 50" fill="none" xmlns="http://www.w3.org/2000/svg">
<path d="M16.6683 25.0012C16.6683 23.9068 16.8839 22.8231 17.3027 21.8119C17.7216 20.8008 18.3355 19.882 19.1094 19.1081C19.8833 18.3342 20.802 17.7203 21.8132 17.3015C22.8243 16.8827 23.908 16.6671 25.0025 16.6671C26.097 16.6671 27.1807 16.8827 28.1918 17.3015C29.203 17.7203 30.1217 18.3342 30.8956 19.1081C31.6695 19.882 32.2834 20.8008 32.7023 21.8119C33.1211 22.8231 33.3367 23.9068 33.3367 25.0012C33.3367 27.2116 32.4586 29.3314 30.8956 30.8944C29.3327 32.4574 27.2129 33.3354 25.0025 33.3354C22.7921 33.3354 20.6723 32.4574 19.1094 30.8944C17.5464 29.3314 16.6683 27.2116 16.6683 25.0012ZM12.1631 25.0012C12.1631 26.6872 12.4952 28.3566 13.1404 29.9142C13.7855 31.4718 14.7312 32.8871 15.9233 34.0792C17.1154 35.2713 18.5307 36.217 20.0883 36.8621C21.6459 37.5073 23.3153 37.8394 25.0012 37.8394C26.6872 37.8394 28.3566 37.5073 29.9142 36.8621C31.4718 36.217 32.8871 35.2713 34.0792 34.0792C35.2713 32.8871 36.217 31.4718 36.8621 29.9142C37.5073 28.3566 37.8394 26.6872 37.8394 25.0012C37.8394 21.5964 36.4868 18.3309 34.0792 15.9233C31.6716 13.5157 28.4061 12.1631 25.0012 12.1631C21.5964 12.1631 18.3309 13.5157 15.9233 15.9233C13.5157 18.3309 12.1631 21.5964 12.1631 25.0012ZM35.3468 11.6556C35.3468 12.249 35.5227 12.829 35.8524 13.3224C36.182 13.8157 36.6506 14.2003 37.1988 14.4274C37.747 14.6544 38.3502 14.7138 38.9322 14.5981C39.5142 14.4823 40.0488 14.1966 40.4683 13.777C40.8879 13.3574 41.1737 12.8229 41.2894 12.2409C41.4052 11.6589 41.3458 11.0557 41.1187 10.5075C40.8916 9.95927 40.5071 9.49071 40.0137 9.16105C39.5203 8.83139 38.9403 8.65543 38.3469 8.65543C37.5512 8.65543 36.7881 8.97152 36.2255 9.53416C35.6628 10.0968 35.3468 10.8599 35.3468 11.6556ZM14.9007 45.3523C12.4631 45.2398 11.1381 44.8347 10.258 44.4922C9.172 44.0914 8.18956 43.4524 7.38287 42.6221C6.55261 41.8154 5.9136 40.833 5.51277 39.747C5.16776 38.8669 4.76274 37.5419 4.65273 35.1043C4.53023 32.4691 4.50773 31.6791 4.50773 25.0037C4.50773 18.3284 4.53273 17.5359 4.65273 14.8982C4.76274 12.4606 5.17276 11.1381 5.51277 10.2555C5.9653 9.08795 6.50783 8.25541 7.38287 7.38037C8.25791 6.50533 9.08795 5.9628 10.258 5.51028C11.1381 5.16526 12.4631 4.76024 14.9007 4.65023C17.5359 4.52523 18.3259 4.50022 25.0012 4.50022C31.6766 4.50022 32.4666 4.52523 35.1043 4.64773C37.5419 4.75774 38.8644 5.16776 39.747 5.50778C40.9145 5.9578 41.7471 6.50283 42.6221 7.37787C43.4972 8.25291 44.0397 9.08545 44.4947 10.253C44.8372 11.1331 45.2448 12.4581 45.3523 14.8957C45.4748 17.5334 45.4998 18.3209 45.4998 24.9987C45.4998 31.6741 45.4748 32.4641 45.3523 35.1018C45.2423 37.5394 44.8347 38.8644 44.4947 39.7445C44.0939 40.8305 43.4549 41.8129 42.6246 42.6196C41.8179 43.4499 40.8355 44.0889 39.7495 44.4897C38.8669 44.8322 37.5419 45.2398 35.1043 45.3498C32.4691 45.4698 31.6791 45.4948 25.0012 45.4948C18.3259 45.4948 17.5359 45.4698 14.9007 45.3498M14.6932 0.150007C12.0331 0.272513 10.213 0.695035 8.62543 1.31257C6.95653 1.93964 5.4446 2.92341 4.19521 4.19521C2.92341 5.4446 1.93964 6.95653 1.31257 8.62543C0.695035 10.2155 0.272514 12.0331 0.152508 14.6932C0.0250015 17.3584 0 18.2109 0 25.0012C0 31.7916 0.0275012 32.6441 0.150007 35.3093C0.272513 37.9694 0.695035 39.787 1.31257 41.3771C1.93996 43.0451 2.92372 44.5561 4.19521 45.8048C5.44436 47.0775 6.9563 48.0621 8.62543 48.6899C10.2155 49.3075 12.0331 49.73 14.6932 49.85C17.3609 49.9725 18.2109 50.0025 25.0012 50.0025C31.7916 50.0025 32.6441 49.975 35.3093 49.8525C37.9694 49.73 39.787 49.3075 41.3771 48.6899C43.0453 48.0618 44.5564 47.0772 45.8048 45.8048C47.0769 44.5571 48.0615 43.0469 48.6899 41.3796C49.3075 39.787 49.7325 37.9694 49.85 35.3093C49.9725 32.6416 50 31.7916 50 25.0012C50 18.2109 49.9725 17.3584 49.85 14.6932C49.73 12.0331 49.3075 10.213 48.6899 8.62543C48.0621 6.9563 47.0775 5.44436 45.8048 4.19521C44.5568 2.92402 43.0467 1.94028 41.3796 1.31257C39.787 0.695035 37.9694 0.270014 35.3118 0.152508C32.6441 0.0300018 31.7941 0 25.0012 0C18.2084 0 17.3584 0.0275012 14.6907 0.150007" fill="#41B883"/>
</svg>
