<svg width="150" height="26" viewBox="0 0 150 26" fill="none" xmlns="http://www.w3.org/2000/svg">
<g clip-path="url(#clip0_1_5841)">
<path d="M44.3412 8.28778C43.9336 7.79403 43.4342 7.41487 42.8405 7.15032C42.2469 6.88576 41.5614 6.75409 40.7829 6.75409C40.0044 6.75409 39.2822 6.90405 38.6188 7.20396C37.9553 7.50387 37.38 7.92204 36.8929 8.45968C36.4057 8.99733 36.025 9.63616 35.7508 10.3774C35.4766 11.1174 35.3395 11.9209 35.3395 12.784C35.3395 13.6472 35.4766 14.4725 35.7508 15.204C36.025 15.9355 36.4008 16.5707 36.8794 17.1083C37.358 17.646 37.9186 18.0654 38.5661 18.3641C39.2124 18.664 39.9077 18.8139 40.6507 18.8139C41.5002 18.8139 42.253 18.6384 42.9079 18.2848C43.5627 17.9325 44.1025 17.4387 44.5273 16.8036L47.9791 19.3686C47.1822 20.4793 46.1736 21.2998 44.952 21.8277C43.7304 22.3568 42.4733 22.6213 41.1819 22.6213C39.7119 22.6213 38.3581 22.3921 37.1193 21.9337C35.8806 21.4753 34.8095 20.8194 33.9062 19.9636C33.0028 19.109 32.3002 18.0727 31.7947 16.856C31.2904 15.6393 31.0382 14.2823 31.0382 12.7828C31.0382 11.2832 31.2904 9.92632 31.7947 8.70961C32.299 7.4929 33.0028 6.45784 33.9062 5.60199C34.8095 4.74737 35.8794 4.09025 37.1193 3.63185C38.3581 3.17344 39.7119 2.94424 41.1819 2.94424C41.7132 2.94424 42.2664 2.99301 42.8418 3.08932C43.4171 3.18686 43.9838 3.34047 44.5407 3.5526C45.0977 3.76473 45.6338 4.04636 46.1467 4.39869C46.6596 4.75103 47.1198 5.18382 47.5274 5.69465L44.3412 8.28656V8.28778Z" fill="#41B883"/>
<path d="M49.2264 12.784C49.2264 11.2857 49.4785 9.92754 49.9829 8.71083C50.4872 7.49412 51.191 6.45906 52.0943 5.60321C52.9977 4.74859 54.0675 4.09147 55.3075 3.63307C56.5462 3.17467 57.9 2.94547 59.3701 2.94547C60.8402 2.94547 62.194 3.17467 63.4327 3.63307C64.6715 4.09147 65.7425 4.74859 66.6458 5.60321C67.5492 6.45906 68.2518 7.49412 68.7573 8.71083C69.2629 9.92754 69.5138 11.2857 69.5138 12.784C69.5138 14.2823 69.2616 15.6405 68.7573 16.8572C68.253 18.0739 67.5492 19.1102 66.6458 19.9648C65.7425 20.8207 64.6715 21.4766 63.4327 21.935C62.194 22.3934 60.839 22.6226 59.3701 22.6226C57.9012 22.6226 56.5462 22.3934 55.3075 21.935C54.0687 21.4766 52.9977 20.8207 52.0943 19.9648C51.191 19.1102 50.4884 18.0739 49.9829 16.8572C49.4785 15.6405 49.2264 14.2836 49.2264 12.784ZM53.5277 12.784C53.5277 13.6655 53.6648 14.4725 53.939 15.204C54.2132 15.9355 54.6073 16.5707 55.1202 17.1083C55.6331 17.646 56.2488 18.0654 56.9661 18.3641C57.6834 18.664 58.4839 18.8139 59.3689 18.8139C60.2539 18.8139 61.0544 18.664 61.7717 18.3641C62.489 18.0642 63.1034 17.646 63.6176 17.1083C64.1304 16.5707 64.5246 15.9355 64.7988 15.204C65.0729 14.4725 65.21 13.6655 65.21 12.784C65.21 11.9026 65.0729 11.1174 64.7988 10.3774C64.5246 9.63738 64.1304 8.99855 63.6176 8.45968C63.1034 7.92204 62.489 7.50387 61.7717 7.20396C61.0544 6.90405 60.2539 6.75409 59.3689 6.75409C58.4839 6.75409 57.6834 6.90405 56.9661 7.20396C56.2488 7.50387 55.6343 7.92204 55.1202 8.45968C54.6061 8.99733 54.2132 9.63617 53.939 10.3774C53.6648 11.1174 53.5277 11.9209 53.5277 12.784Z" fill="#41B883"/>
<path d="M72.3267 3.42093H77.9561L85.9479 16.4329H86.0005V3.42093H90.1427V22.1446H84.7263L76.5215 8.81567H76.4689V22.1446H72.3267V3.42093Z" fill="#41B883"/>
<path d="M94.1258 3.42093H106.738V7.22956H98.268V11.0382H106.101V14.8468H98.268V22.1459H94.1258V3.42093Z" fill="#41B883"/>
<path d="M7.08603 1.72876C6.51684 2.65043 6.00519 3.53554 5.54984 4.38041C5.0945 5.2265 4.71015 6.086 4.39679 6.96013C4.08343 7.83426 3.84229 8.74741 3.67093 9.69835C3.50078 10.6493 3.4151 11.6831 3.4151 12.7962C3.4151 13.9093 3.50078 14.9431 3.67093 15.8941C3.84229 16.845 4.08343 17.7582 4.39679 18.6323C4.71015 19.5064 5.0945 20.3659 5.54984 21.212C6.00519 22.0569 6.51684 22.9408 7.08603 23.8637L4.15443 25.5924L4.09812 25.4766C2.78839 23.4979 1.77855 21.4851 1.06737 19.4381C0.356199 17.3936 0 15.1796 0 12.7962C0 10.4128 0.356199 8.19879 1.06737 6.15305C1.77855 4.10732 2.78961 2.0945 4.09812 0.115819L4.15443 0L7.08603 1.72876Z" fill="#41B883"/>
<path d="M107.961 23.8637C108.53 22.942 109.043 22.0569 109.497 21.212C109.953 20.3671 110.337 19.5076 110.65 18.6323C110.964 17.7582 111.205 16.845 111.376 15.8941C111.546 14.9431 111.632 13.9105 111.632 12.7962C111.632 11.6819 111.546 10.6493 111.376 9.69835C111.206 8.74741 110.964 7.83548 110.65 6.96013C110.337 6.086 109.953 5.2265 109.497 4.38041C109.042 3.53554 108.53 2.65165 107.961 1.72876L110.893 0L110.949 0.115819C112.259 2.0945 113.269 4.10732 113.98 6.15427C114.691 8.20123 115.047 10.4152 115.047 12.7974C115.047 15.1796 114.691 17.3948 113.98 19.4406C113.269 21.4863 112.258 23.4991 110.949 25.479L110.893 25.5949L107.961 23.8661V23.8637Z" fill="#41B883"/>
<path d="M26.3342 2.92108L19.4857 14.8102L12.6371 2.92108H7.97591L19.4857 22.7689L30.9942 2.92108H26.3342Z" fill="#41B883"/>
<path d="M22.1015 2.92108L19.4857 7.51606L16.8699 2.92108H12.6371L19.4857 14.8102L26.3342 2.92108H22.1015Z" fill="#34495E"/>
<path d="M121.69 2.87232H117.506V0.0256042H129.104V2.87232H124.92V14.6298H121.69V2.87232Z" fill="#34495E"/>
<path d="M129.207 0.0256042H132.727L135.068 9.3899H135.109L138.174 0.0256042H141.177L144.221 9.63739H144.263L146.728 0.0256042H150L145.713 14.6298H142.834L139.604 4.52305H139.563L136.332 14.6298H133.557L129.207 0.0256042Z" fill="#34495E"/>
</g>
<defs>
<clipPath id="clip0_1_5841">
<rect width="150" height="25.5924" fill="white"/>
</clipPath>
</defs>
</svg>
