<svg width="43" height="53" viewBox="0 0 43 53" fill="none" xmlns="http://www.w3.org/2000/svg">
<path fill-rule="evenodd" clip-rule="evenodd" d="M5.62081 8.44614C9.38668 4.47745 14.8468 2.1333 21.6069 2.1333C32.7195 2.1333 40.0881 8.46539 42.4202 17.2403C42.5842 17.8579 42.4933 18.5145 42.1676 19.0658C41.8418 19.6172 41.3079 20.018 40.6833 20.1801C40.0587 20.3422 39.3945 20.2524 38.8368 19.9304C38.2792 19.6083 37.8738 19.0805 37.7098 18.4629C35.9401 11.8131 30.514 6.94675 21.6044 6.94675C16.0396 6.94675 11.9159 8.84565 9.17489 11.7361C6.40952 14.6531 4.86861 18.771 4.86861 23.493V28.9081C4.86861 33.6301 6.40952 37.748 9.17489 40.6625C11.9159 43.5578 16.0396 45.4543 21.6044 45.4543C25.6332 45.4543 28.8295 44.5301 31.2832 43.0356C33.7541 41.5314 35.2268 39.5362 35.6406 37.2474C36.1153 34.6096 35.5311 32.7998 34.5257 31.4929C33.9744 30.7898 33.304 30.1864 32.5442 29.7095C32.2156 31.5122 31.6289 33.2137 30.7428 34.547C27.476 39.4544 21.2296 39.8755 17.1107 38.251C14.8809 37.3725 12.97 34.9682 12.376 32.3906C12.0154 30.9132 12.1355 29.361 12.7192 27.955C13.3643 26.4244 14.5596 25.1199 16.2612 24.1283C17.9457 23.144 20.4482 22.6915 22.9287 22.6241C24.4234 22.5832 26.0446 22.6819 27.6756 22.9442C27.3348 21.3799 26.7579 20.2126 26.1079 19.6133C24.9297 18.5303 22.9774 17.7674 21.0202 17.7794C19.1288 17.7938 17.5246 18.5135 16.5654 20.0297C16.2233 20.571 15.6776 20.9557 15.0485 21.0992C14.4194 21.2428 13.7585 21.1333 13.211 20.795C12.6635 20.4567 12.2744 19.9173 12.1292 19.2953C11.984 18.6733 12.0947 18.0198 12.4369 17.4786C14.4744 14.2584 17.8313 12.99 20.9886 12.966C24.0801 12.9443 27.2642 14.1019 29.4259 16.0899C31.6119 18.1019 32.5515 21.4015 32.7949 24.4027C34.9225 25.3197 36.9333 26.665 38.406 28.5832C40.3072 31.0621 41.1251 34.2582 40.4338 38.0921C39.7278 42.0007 37.2327 45.0668 33.8368 47.1342C30.5067 49.1607 26.3976 50.2678 21.6044 50.2678C14.8468 50.2678 9.38424 47.9236 5.62324 43.9549C1.88415 40.0127 0 34.6553 0 28.9081V23.493C0 17.7457 1.88415 12.3883 5.62324 8.44614H5.62081ZM27.8947 27.8852C26.3069 27.5467 24.6839 27.3964 23.0602 27.4376C20.8912 27.4953 19.3698 27.9021 18.7344 28.2727C17.7996 28.819 17.3955 29.375 17.2154 29.8058C17.0232 30.2888 16.9908 30.8197 17.1229 31.322C17.4199 32.612 18.4009 33.5795 18.9145 33.7793C21.6556 34.8623 25.0855 34.2895 26.6751 31.9021C27.2472 31.0404 27.7024 29.5916 27.8923 27.8852H27.8947Z" fill="#41B883"/>
</svg>
