<svg width="8" height="8" viewBox="0 0 8 8" fill="none" xmlns="http://www.w3.org/2000/svg">
<g clip-path="url(#clip0_400_27565)">
<path d="M4.27571 7.43479C4.16493 7.57539 3.94125 7.49657 3.94125 7.31975V5.6155C3.94125 5.40886 3.77295 5.24057 3.56631 5.24057H1.68525C1.534 5.24057 1.44452 5.06801 1.534 4.94446L2.77171 3.21251C2.94852 2.9654 2.77171 2.62028 2.46707 2.62028H0.187638C0.0363861 2.62028 -0.0530871 2.44773 0.0363861 2.32417L1.64051 0.0788216C1.67673 0.0298244 1.73212 0 1.79176 0H6.57219C6.72344 0 6.81291 0.172555 6.72344 0.296113L5.48573 2.02806C5.30891 2.27517 5.48573 2.62028 5.79036 2.62028H7.67143C7.82694 2.62028 7.91428 2.79923 7.81842 2.92279L4.27358 7.43479H4.27571Z" fill="#863BFF"/>
</g>
<defs>
<clipPath id="clip0_400_27565">
<rect width="7.86086" height="7.50509" fill="white"/>
</clipPath>
</defs>
</svg>
