<svg width="16" height="15" viewBox="0 0 16 15" fill="none" xmlns="http://www.w3.org/2000/svg">
<g clip-path="url(#clip0_1_1178)">
<path d="M8.54513 14.8595C8.32373 15.1405 7.87666 14.983 7.87666 14.6296V11.2234C7.87666 10.8104 7.5403 10.474 7.1273 10.474H3.36772C3.06542 10.474 2.8866 10.1292 3.06542 9.8822L5.53917 6.42066C5.89256 5.92677 5.53917 5.23701 4.93031 5.23701H0.374535C0.0722355 5.23701 -0.106589 4.89214 0.0722355 4.64519L3.27831 0.157536C3.35069 0.0596083 3.46139 0 3.58061 0H13.135C13.4373 0 13.6161 0.344877 13.4373 0.591825L10.9635 4.05336C10.6101 4.54726 10.9635 5.23701 11.5724 5.23701H15.332C15.6428 5.23701 15.8173 5.59466 15.6257 5.84161L8.54087 14.8595H8.54513Z" fill="#863BFF"/>
</g>
<defs>
<clipPath id="clip0_1_1178">
<rect width="15.711" height="15" fill="white"/>
</clipPath>
</defs>
</svg>
